<svg width="38" height="39" viewBox="0 0 38 39" fill="none" xmlns="http://www.w3.org/2000/svg">
<path d="M17.9693 19.3582C22.9956 19.3582 27.0703 15.3404 27.0703 10.3843C27.0703 5.42816 22.9956 1.41042 17.9693 1.41042C12.9429 1.41042 8.86816 5.42816 8.86816 10.3843C8.86816 15.3404 12.9429 19.3582 17.9693 19.3582Z" stroke="#FEB95A" stroke-width="2.48507"/>
<path d="M25.2505 26.5373H36.1718M27.0707 37.3059H5.71227C5.19603 37.306 4.68566 37.1979 4.21505 36.9887C3.74443 36.7794 3.32433 36.4739 2.98263 36.0923C2.64093 35.7107 2.38544 35.2619 2.23312 34.7755C2.0808 34.2891 2.03513 33.7764 2.09914 33.2713L2.80903 27.6644C2.97411 26.3618 3.61614 25.1635 4.61438 24.2949C5.61261 23.4263 6.89829 22.9472 8.22963 22.9477H8.86853L27.0707 37.3059ZM30.7111 21.153V31.9216V21.153Z" stroke="#FEB95A" stroke-width="2.48507" stroke-linecap="round" stroke-linejoin="round"/>
</svg>
