<svg width="33" height="41" viewBox="0 0 33 41" fill="none" xmlns="http://www.w3.org/2000/svg">
<path d="M24.6364 4.93939H29.2186C29.7096 4.93939 30.1805 5.13636 30.5277 5.48698C30.8749 5.83759 31.07 6.31312 31.07 6.80896V37.6569C31.07 38.1527 30.8749 38.6283 30.5277 38.9789C30.1805 39.3295 29.7096 39.5265 29.2186 39.5265H3.29926C2.80824 39.5265 2.33733 39.3295 1.99013 38.9789C1.64293 38.6283 1.44788 38.1527 1.44788 37.6569V6.80896C1.44788 6.31312 1.64293 5.83759 1.99013 5.48698C2.33733 5.13636 2.80824 4.93939 3.29926 4.93939H9.77909V7.74375H22.7388V4.93939H24.6364Z" stroke="#A9DFD8" stroke-width="2.48507" stroke-linejoin="round"/>
<path d="M19.0367 16.1561L11.6312 23.6353H20.8918L13.4825 31.1136M9.77979 2.13432H22.7394V7.74304H9.77979V2.13432Z" stroke="#A9DFD8" stroke-width="2.48507" stroke-linecap="round" stroke-linejoin="round"/>
</svg>
