<svg width="38" height="41" viewBox="0 0 38 41" fill="none" xmlns="http://www.w3.org/2000/svg">
<path d="M28.3977 10.8234H34.3708C34.732 10.8238 35.0803 10.9582 35.3481 11.2007C35.6159 11.4432 35.7841 11.7764 35.8203 12.1358L36.7098 21.0312H33.7758L33.0467 13.7399H28.3977V18.1147C28.3977 18.5015 28.2441 18.8724 27.9706 19.1458C27.6972 19.4193 27.3262 19.573 26.9395 19.573C26.5527 19.573 26.1818 19.4193 25.9084 19.1458C25.6349 18.8724 25.4812 18.5015 25.4812 18.1147V13.7399H13.8152V18.1147C13.8152 18.5015 13.6616 18.8724 13.3881 19.1458C13.1146 19.4193 12.7437 19.573 12.3569 19.573C11.9702 19.573 11.5993 19.4193 11.3258 19.1458C11.0523 18.8724 10.8987 18.5015 10.8987 18.1147V13.7399H6.24685L3.91364 37.072H19.6482V39.9885H2.30081C2.09713 39.9883 1.89576 39.9455 1.70965 39.8627C1.52355 39.7799 1.35685 39.6591 1.2203 39.508C1.08374 39.3568 0.980354 39.1788 0.916801 38.9853C0.853248 38.7918 0.830936 38.5871 0.851304 38.3844L3.47616 12.1358C3.51229 11.7764 3.68055 11.4432 3.94835 11.2007C4.21615 10.9582 4.56441 10.8238 4.92567 10.8234H10.8987V9.80556C10.8987 4.74833 14.7951 0.615631 19.6482 0.615631C24.5013 0.615631 28.3977 4.74833 28.3977 9.80556V10.8263V10.8234ZM25.4812 10.8234V9.80556C25.4812 6.32324 22.8505 3.53214 19.6482 3.53214C16.4459 3.53214 13.8152 6.32324 13.8152 9.80556V10.8263H25.4812V10.8234ZM34.6595 32.5223C34.7925 32.3775 34.9534 32.2612 35.1326 32.1802C35.3117 32.0993 35.5054 32.0553 35.7019 32.0511C35.8985 32.0469 36.0938 32.0825 36.2763 32.1557C36.4587 32.2289 36.6245 32.3383 36.7636 32.4772C36.9027 32.6161 37.0123 32.7817 37.0857 32.964C37.1592 33.1464 37.1951 33.3417 37.1911 33.5382C37.1872 33.7348 37.1436 33.9285 37.0628 34.1077C36.9821 34.287 36.866 34.4481 36.7215 34.5813L30.8885 40.4143C30.615 40.6877 30.2441 40.8413 29.8575 40.8413C29.4708 40.8413 29.0999 40.6877 28.8265 40.4143L22.9935 34.5813C22.8542 34.4468 22.7431 34.2859 22.6667 34.108C22.5902 33.9301 22.55 33.7387 22.5483 33.5451C22.5466 33.3515 22.5835 33.1594 22.6569 32.9802C22.7302 32.801 22.8385 32.6382 22.9754 32.5013C23.1123 32.3644 23.2751 32.2561 23.4543 32.1827C23.6335 32.1094 23.8256 32.0725 24.0192 32.0742C24.2128 32.0759 24.4042 32.1161 24.5821 32.1925C24.76 32.269 24.9209 32.3801 25.0554 32.5193L28.3977 35.8646V25.406C28.3977 25.0192 28.5514 24.6483 28.8249 24.3748C29.0983 24.1014 29.4693 23.9477 29.856 23.9477C30.2428 23.9477 30.6137 24.1014 30.8871 24.3748C31.1606 24.6483 31.3143 25.0192 31.3143 25.406V35.8646L34.6595 32.5193V32.5223Z" fill="#F2C8ED"/>
</svg>
