<svg width="513" height="314" viewBox="0 0 513 314" fill="none" xmlns="http://www.w3.org/2000/svg">
<path d="M49.5326 0.557433C76.0604 13.4528 103.161 25.6936 128.466 41.1913C136.45 46.0811 152.422 54.0937 154.22 64.3228C156.594 77.8279 138.696 84.9033 129.08 88.8852C112.271 95.8455 94.295 100.632 77.0791 106.799C60.4041 112.772 43.8396 119.013 28.0003 126.521C19.6825 130.463 10.5436 134.464 3.72396 140.504C1.99775 142.032 -1.03807 144.323 2.58466 146.155C12.1095 150.973 25.5913 150.15 35.5638 151.664C52.4445 154.224 69.1821 158.161 85.8139 162.982C99.7969 167.036 115.851 170.822 128.347 179.338C145.741 191.194 120.374 199.613 111.75 202.133C109.171 202.886 98.6999 204.528 98.3337 208.385C97.8894 213.063 113.196 216.46 115.155 216.994C130.655 221.221 146.404 222.742 161.994 223.604C185.48 224.901 208.732 226.121 232.317 229.818C276.967 236.816 319.71 250.55 363.189 264.774C372.701 267.886 382.276 270.824 391.973 272.846C393.997 273.268 396.319 273.372 398.191 274.494C401.342 276.385 405.608 278.797 409.336 280.084C414.647 281.918 419.781 284.499 425.276 285.501C429.403 286.254 431.597 285.962 435.885 287.978C453.102 296.074 471.6 301.825 489.161 309.096C497.638 312.605 505.031 316.096 512.294 311.096" stroke="white" stroke-width="0.398789" stroke-linecap="round" stroke-dasharray="3.99 3.99"/>
</svg>
