<svg width="975" height="491" viewBox="0 0 975 491" fill="none" xmlns="http://www.w3.org/2000/svg">
<g clip-path="url(#clip0_191_26868)">
<path d="M168.078 46.3745H268.003V289.671V290.171H268.503H312.473V370.577H268.503H268.003V371.077V448.625H161.182V371.077V370.577H160.682H0.5V291.504L168.078 46.3745ZM160.682 290.171H161.182V289.671V242.674C161.182 235.874 161.432 227.323 161.739 216.817C161.83 213.725 161.925 210.464 162.021 207.028C162.44 199.477 162.754 193.818 163.016 189.941C163.147 188.002 163.265 186.515 163.375 185.462C163.431 184.935 163.483 184.524 163.534 184.223C163.56 184.072 163.583 183.954 163.605 183.866C163.616 183.822 163.626 183.789 163.634 183.765C163.642 183.741 163.647 183.732 163.647 183.732L164.008 183.008H163.199H160.262H159.937L159.805 183.307C153.524 197.546 146.405 210.531 138.447 223.099C138.446 223.101 138.445 223.103 138.444 223.104L93.9802 289.393L93.458 290.171H94.3954H160.682Z" fill="#060B27" stroke="white"/>
<path fill-rule="evenodd" clip-rule="evenodd" d="M283.963 234.537C283.963 234.537 261.733 215.548 292.919 149.983C324.106 84.4186 387.263 98.7893 427.634 73.0003C487.282 34.8959 462.833 5.07634 537.21 0.269718C630.857 -5.78219 636.16 92.0171 683.013 92.0171C686.094 92.0171 759.053 62.7016 769.731 142.954C775.109 183.37 683.013 245.002 683.013 245.002C683.013 245.002 644.683 279.745 642.578 296.902C633.75 368.852 652.16 451.26 445.857 489.197C419.176 494.104 374.872 476.356 350.43 443.572C331.281 417.887 254.468 436.11 247.298 351.669C243.684 309.108 283.963 234.537 283.963 234.537Z" fill="#FFB61D"/>
<path d="M421.572 177.491C422.267 177.08 423.164 177.311 423.575 178.007L425.231 180.801C431.806 191.832 434.436 195.414 437.231 197.034C439.528 198.365 441.904 197.952 446.252 195.402L446.833 195.053C449.567 193.349 462.081 184.752 466.92 181.666C467.601 181.231 468.505 181.431 468.939 182.112C469.374 182.793 469.174 183.698 468.493 184.132L467.748 184.611C462.357 188.107 450.245 196.425 448.1 197.707C442.836 200.855 439.423 201.562 436.003 199.699L435.764 199.565C432.09 197.436 429.232 193.352 421.055 179.494C420.645 178.798 420.876 177.901 421.572 177.491Z" fill="white"/>
<path d="M445.259 194.398C446.06 194.291 446.796 194.853 446.903 195.654C447.401 199.375 448.595 203.106 450.489 206.851C450.854 207.572 450.565 208.452 449.844 208.816C449.123 209.181 448.243 208.892 447.879 208.171C445.84 204.141 444.547 200.097 444.004 196.042C443.897 195.242 444.459 194.506 445.259 194.398Z" fill="white"/>
<path fill-rule="evenodd" clip-rule="evenodd" d="M615.664 283.737C615.428 284.334 614.91 285.161 614.31 285.943L614.828 286.48L615.428 287.119L615.561 287.247C615.619 287.299 615.665 287.33 615.698 287.339C615.892 287.367 616.027 287.546 616.001 287.741C615.973 287.932 615.795 288.07 615.601 288.042C615.425 288.038 614.787 287.789 614.026 287.171C613.888 287.059 613.751 286.93 613.612 286.788C613.173 287.278 612.73 287.699 612.347 287.96C611.783 288.349 611.295 288.38 611.062 288.222C610.833 288.069 610.613 287.554 610.986 286.513C611.044 286.324 611.245 286.225 611.431 286.284C611.617 286.343 611.719 286.541 611.661 286.729C611.604 286.922 611.596 287.099 611.596 287.24L611.812 287.093C611.888 287.038 611.967 286.976 612.039 286.904C612.3 286.647 612.592 286.334 612.885 285.996C612.421 285.456 611.947 284.823 611.565 284.092C611.378 283.735 611.229 283.357 611.088 282.959C610.99 282.737 611.091 282.476 611.314 282.377C611.537 282.279 611.798 282.381 611.895 282.603C612.321 283.496 612.866 284.265 613.403 284.924L613.582 285.139C614.072 284.499 614.493 283.851 614.683 283.357C614.789 283.088 615.094 282.954 615.364 283.057C615.636 283.164 615.77 283.468 615.664 283.737Z" fill="white"/>
<path fill-rule="evenodd" clip-rule="evenodd" d="M398.022 99.2101L397.131 99.0487C392.152 98.1231 388.335 96.9868 381.204 94.5145C380.386 94.231 379.953 93.3382 380.237 92.5204C380.52 91.7027 381.413 91.2696 382.231 91.5531L384.008 92.1647C390.263 94.2995 393.773 95.2782 398.567 96.1234C414.696 98.9674 426.773 90.6865 427.761 74.8936C427.815 74.0298 428.559 73.3733 429.423 73.4273C430.287 73.4814 430.943 74.2255 430.889 75.0893C429.778 92.8508 415.905 102.363 398.022 99.2101Z" fill="#00160A"/>
<path fill-rule="evenodd" clip-rule="evenodd" d="M438.325 116.123L439.225 118.123L441.276 118.712C441.387 118.744 441.451 118.86 441.419 118.97C441.41 119.005 441.391 119.036 441.366 119.061L439.807 120.613L439.895 122.846C439.899 122.961 439.809 123.058 439.694 123.063C439.655 123.064 439.616 123.055 439.582 123.035L437.818 122.03C437.763 121.999 437.696 121.994 437.637 122.018L435.75 122.767C435.643 122.81 435.521 122.758 435.479 122.65C435.464 122.614 435.46 122.574 435.467 122.536L435.865 120.337L434.537 118.583C434.467 118.491 434.485 118.36 434.577 118.291C434.606 118.269 434.639 118.255 434.674 118.25L436.788 117.953L437.957 116.098C438.019 116 438.148 115.971 438.246 116.032C438.28 116.054 438.308 116.086 438.325 116.123Z" fill="#00160A"/>
<path d="M644.475 65.8584C645.28 65.801 645.98 66.4076 646.038 67.2133C646.095 68.0191 645.489 68.7189 644.683 68.7764C638.911 69.1882 634.378 71.4249 632.364 76.9578C632.243 77.2908 632.142 77.6123 632.061 77.9178L632.006 78.1277L632.095 77.9434C634.63 72.7663 639.52 69.1691 645.187 68.2562L645.558 68.2005C646.358 68.0888 647.097 68.6468 647.209 69.4469C647.321 70.247 646.763 70.9861 645.963 71.0978C640.698 71.8326 636.195 75.3315 634.23 80.3499L634.103 80.6868C633.169 83.2517 630.928 84.4817 629.486 82.2866C628.606 80.9477 628.664 78.5699 629.615 75.9572C632.027 69.3302 637.562 66.3516 644.475 65.8584Z" fill="white"/>
<path d="M637.812 54.9614C638.618 54.9039 639.318 55.5105 639.375 56.3163C639.433 57.122 638.826 57.8219 638.02 57.8793C628.839 58.5344 620.788 64.497 617.584 73.2983C616.635 75.9073 616.458 78.138 616.798 79.2676L616.84 79.3937L616.904 79.3004C617.068 79.0527 617.252 78.6969 617.432 78.2355L617.509 78.0313C620.893 68.7348 629.097 62.2242 638.719 60.8811C639.519 60.7694 640.258 61.3274 640.37 62.1275C640.481 62.9276 639.923 63.6667 639.123 63.7783C630.706 64.9533 623.511 70.5711 620.412 78.6205L620.258 79.0319C619.003 82.4793 616.29 83.9686 614.555 81.3288C613.366 79.5199 613.45 76.105 614.835 72.2978C618.437 62.4024 627.49 55.6978 637.812 54.9614Z" fill="white"/>
<path d="M628.834 40.4318C629.64 40.3743 630.339 40.9809 630.397 41.7867C630.454 42.5924 629.848 43.2922 629.042 43.3497C615.947 44.284 604.464 52.7885 599.895 65.3417C598.34 69.6138 598.21 73.2347 599.059 74.7398L599.137 74.867C599.263 75.0584 599.22 75.064 599.253 75.0376L599.272 75.0248C599.702 74.7887 600.271 73.9841 600.789 72.6497L600.892 72.3757C605.559 59.5543 616.873 50.5755 630.144 48.7231C630.944 48.6114 631.683 49.1694 631.795 49.9695C631.907 50.7696 631.349 51.5087 630.549 51.6204C618.498 53.3024 608.205 61.369 603.812 72.9186L603.641 73.3763C602.018 77.8367 598.762 79.6237 596.692 76.4735C595.149 74.1249 595.261 69.5197 597.146 64.3411C602.113 50.6939 614.598 41.4474 628.834 40.4318Z" fill="white"/>
<path d="M612.805 26.7768C613.598 26.6215 614.366 27.1383 614.522 27.9311C614.677 28.7238 614.16 29.4923 613.367 29.6476C601.512 31.9693 591.978 41.0242 589.213 53.0013C588.278 57.0548 588.56 60.3507 589.479 61.6081L589.601 61.7658L589.61 61.7877L589.627 61.7745C589.956 61.4777 590.341 60.7196 590.639 59.5443L590.701 59.2861C593.545 46.968 602.936 37.433 614.932 34.2309C615.712 34.0225 616.514 34.4863 616.722 35.2668C616.931 36.0473 616.467 36.8489 615.686 37.0573C604.879 39.9422 596.388 48.4506 593.663 59.4768L593.552 59.9442C592.549 64.2886 589.669 66.3625 587.336 63.6124C585.63 61.601 585.211 57.333 586.363 52.3432C589.39 39.2316 599.828 29.3183 612.805 26.7768Z" fill="white"/>
<path d="M450.663 207.173L451.508 206.866C459.488 204.002 466.222 202.739 467.932 204.479C469.432 206.005 470.769 208.769 472.036 212.823C472.277 213.594 471.847 214.414 471.076 214.655C470.305 214.896 469.485 214.466 469.244 213.695C468.148 210.19 467.03 207.83 465.972 206.664L465.929 206.618L465.891 206.62C465.691 206.579 465.39 206.558 465.008 206.566C464.165 206.582 463.013 206.731 461.637 207.003C458.806 207.564 455.229 208.607 451.676 209.918C445.735 212.109 440.786 214.684 438.052 217.01C437.048 217.864 435.216 215.485 436.979 214.123C440.152 211.671 444.965 209.275 450.663 207.173Z" fill="white"/>
<path d="M446.647 179.541C446.647 184.42 451.807 189.703 452.905 190.003C453.684 190.216 440.26 198.963 440.26 198.963C435.409 199.601 432.561 195.501 432.561 189.394C432.561 188.586 446.647 178.733 446.647 179.541Z" fill="white"/>
<path fill-rule="evenodd" clip-rule="evenodd" d="M430.818 182.105C432.518 181.775 433.672 180.359 433.397 178.943C433.121 177.527 431.521 176.647 429.822 176.977C428.122 177.307 426.968 178.723 427.243 180.139C427.518 181.555 429.119 182.435 430.818 182.105Z" fill="#FFB61D"/>
<path d="M603.958 18.6655C604.753 18.5269 605.511 19.0597 605.65 19.8555C605.788 20.6513 605.255 21.4089 604.46 21.5475C600.674 22.2068 596.858 24.4978 592.922 28.1419C587.812 32.8738 584.437 39.4122 582.576 48.1298C581.076 55.1534 582.46 63.9297 586.379 71.6448C590.838 80.4224 598.726 82.5918 607.923 84.2717C617.365 85.9962 619.974 84.9312 628.896 81.7595L629.717 81.4612C630.937 80.9993 636.637 78.7687 638.008 78.3542C640.893 77.4819 642.86 77.5549 644.287 79.0753C644.84 79.6643 644.81 80.59 644.221 81.1428C643.669 81.661 642.821 81.6676 642.261 81.181L642.154 81.0771C641.733 80.6286 640.862 80.5766 639.111 81.0788L638.855 81.1543C637.537 81.553 631.354 83.9795 630.554 84.2717C620.917 87.7892 617.649 89.0218 607.398 87.1494C597.239 85.294 588.621 82.5163 583.771 72.9697C579.557 64.673 578.072 55.2169 579.715 47.5191C581.701 38.2149 585.38 31.1392 590.935 25.9954C595.283 21.9689 599.615 19.4218 603.958 18.6655Z" fill="white"/>
<path d="M672.768 135.052C664.429 134.626 657.863 141.066 657.794 149.711C657.736 156.995 661.839 162.993 667.475 164.155C669.754 164.624 674.129 164.059 677.375 162.239C682.303 159.596 686.07 154.163 686.545 149.533C687.32 141.99 681.213 135.484 672.768 135.052Z" fill="white"/>
<path d="M521.668 133.529C524.332 138.909 528.468 151.334 526.679 151.274C521.71 151.108 515.062 143.471 510.412 133.146L510.045 132.315C505.985 122.94 503.554 117.051 506.377 115.922C509.297 114.755 516.171 122.427 521.668 133.529Z" fill="white"/>
<path fill-rule="evenodd" clip-rule="evenodd" d="M506.377 115.805C509.297 114.638 516.272 121.959 521.77 133.061C524.433 138.441 526.24 143.601 526.712 147.302C526.712 147.302 517.717 128.349 512.23 121.407C510.123 118.74 506.377 115.805 506.377 115.805Z" fill="#E7EAEE"/>
<path d="M504.845 163.537C505.059 162.758 505.864 162.301 506.643 162.515C507.422 162.729 507.88 163.534 507.665 164.313C507.39 165.315 503.515 167.943 495.062 173.154L489.726 176.42C479.192 182.832 472.163 186.936 471.284 186.936C465.468 186.936 460.227 181.449 456.401 172.792C453.06 165.233 451.325 156.235 452.109 150.339C452.353 148.498 458.485 143.734 467.952 137.351L469.308 136.443C477.684 130.863 484.843 126.725 487.433 126.202C488.225 126.042 488.996 126.555 489.156 127.347C489.256 127.842 466.169 147.302 463.914 160.218C462.387 168.964 468.16 183.869 471.025 184.004L471.284 184.01C471.051 184.01 471.126 183.956 471.153 183.941L471.417 183.805C471.611 183.703 471.842 183.578 472.108 183.432L473.325 182.752C473.79 182.488 474.309 182.191 474.877 181.863L476.328 181.02C479.1 179.402 482.558 177.341 486.085 175.207L489.44 173.168C493.519 170.675 497.205 168.377 499.975 166.593L501.402 165.665C502.286 165.086 503.032 164.584 503.629 164.168L503.846 164.016C504.175 163.784 504.449 163.584 504.662 163.421C504.662 163.421 504.903 163.325 504.845 163.537Z" fill="white"/>
<path fill-rule="evenodd" clip-rule="evenodd" d="M507.744 134.347C504.21 126.499 502.648 119.307 503.832 114.952C501.693 115.632 499.019 116.853 496.365 118.376C492.838 120.4 490.038 122.662 489.973 123.153C489.291 128.286 491.908 138.273 496.257 147.176C500.909 156.7 506.444 162.817 510.728 162.817C511.138 162.817 512.312 162.575 513.489 162.163C515.162 161.579 516.73 160.727 518.015 159.611C518.654 159.056 519.315 158.429 520.005 157.729L520.837 156.869C521.328 156.35 521.834 155.792 522.624 154.906L523.725 153.677L523.773 153.625C518.261 151.611 512.497 144.512 508.185 135.306L507.744 134.347ZM487.073 122.768C487.528 119.343 500.349 111.941 506.2 111.463C506.444 111.309 506.706 111.176 506.985 111.065C512.052 109.04 519.773 117.713 525.966 129.916L526.391 130.764C529.186 136.409 531.094 141.857 531.613 145.932C532.234 150.802 530.824 154.03 527.127 154.195C527.028 154.579 526.778 154.9 526.446 155.093L526.389 155.122L526.244 155.266C526.099 155.415 525.929 155.6 525.665 155.893L523.848 157.922C523.188 158.649 522.721 159.142 522.088 159.783C521.348 160.534 520.633 161.212 519.933 161.819C517.102 164.279 512.915 165.742 510.728 165.742C509.568 165.742 508.395 165.472 507.22 164.957C505.964 166.267 502.1 168.815 495.062 173.154L489.726 176.42C479.192 182.832 472.163 186.936 471.284 186.936C469.292 186.936 467.368 186.292 465.544 185.098C465.528 185.11 465.51 185.121 465.493 185.132L464.748 185.612C462.157 187.292 458.013 190.086 454.169 192.677L454.168 192.678L453.929 192.84C454.426 196.392 455.557 199.953 457.327 203.527C463.609 201.585 468.585 200.928 470.021 202.389C471.521 203.916 472.858 206.679 474.125 210.733C474.366 211.504 473.937 212.325 473.166 212.566C472.395 212.807 471.574 212.377 471.333 211.606C470.237 208.1 469.119 205.741 468.062 204.574L468.018 204.529L467.98 204.531C467.78 204.49 467.48 204.469 467.097 204.476C466.255 204.493 465.102 204.641 463.726 204.914C460.896 205.475 457.318 206.518 453.765 207.829C445.643 210.825 439.375 214.537 438.087 217.35C437.71 218.174 437.758 219.379 438.209 221.224L438.293 221.556C438.36 221.818 438.431 222.077 438.523 222.405L439.052 224.274L439.074 224.358C439.089 224.415 439.105 224.475 439.123 224.545C439.326 225.327 438.856 226.125 438.074 226.328C437.292 226.531 436.494 226.062 436.291 225.28L436.031 224.334L435.599 222.807C435.549 222.627 435.505 222.46 435.461 222.29C434.776 219.648 434.665 217.796 435.427 216.132C436.719 213.312 440.759 210.39 446.384 207.734L445.161 204.573L444.858 203.774C444.395 202.528 443.856 200.838 443.525 199.605C439.13 201.974 436.07 202.37 433.003 200.7L432.764 200.565C432.158 200.214 431.574 199.809 430.984 199.316L413.841 209.729C414 210.072 414.161 210.418 414.324 210.767C415.093 212.417 413.736 213.585 411.656 214.494L411.431 214.589C409.643 215.33 408.029 215.5 407.068 214.445C403.081 210.07 398.861 199.603 401.132 197.209C401.568 196.75 402.719 196.065 404.895 194.924L405.068 194.834C405.113 194.803 405.159 194.774 405.208 194.748L421.233 186.066C421.27 186.046 421.307 186.028 421.344 186.011C420.355 184.375 419.27 182.552 418.07 180.519C417.888 180.225 417.82 179.88 417.866 179.549C417.896 179.338 417.971 179.132 418.092 178.949C418.158 178.847 418.237 178.753 418.329 178.67C421.624 175.545 426.113 172.287 431.744 168.779L432.427 168.356C434.865 166.854 439.808 164.034 444.007 161.639C447.265 159.781 450.074 158.179 450.921 157.643L451.126 157.508C451.432 157.284 451.796 157.196 452.145 157.234C451.867 154.696 451.843 152.339 452.108 150.338C452.353 148.498 458.484 143.734 467.952 137.351L469.308 136.442C477.243 131.156 484.086 127.164 486.987 126.314C486.909 125.004 486.934 123.811 487.073 122.768ZM487.307 129.28C484.466 130.319 477.351 134.543 469.587 139.777L468.344 140.62C464.85 143.004 461.622 145.329 459.184 147.223L458.507 147.754C457.419 148.616 456.539 149.359 455.9 149.955C455.58 150.254 455.328 150.51 455.15 150.713L455.025 150.86C454.998 150.888 454.991 150.877 455.001 150.785L455.008 150.724C455.005 150.747 455.003 150.768 455.001 150.785L454.962 151.099C453.556 163.443 462.481 183.602 471.025 184.004L471.226 184.009C471.243 184.01 471.262 184.01 471.284 184.01L471.226 184.009C471.065 184 471.128 183.954 471.153 183.941L471.417 183.805C471.611 183.703 471.842 183.578 472.107 183.432L473.324 182.752C473.79 182.488 474.309 182.191 474.876 181.863L476.328 181.02C479.1 179.402 482.558 177.341 486.085 175.207L489.44 173.168C493.519 170.675 497.205 168.377 499.975 166.592L501.402 165.665C502.285 165.086 503.032 164.584 503.629 164.168L503.846 164.016C504.162 163.793 504.427 163.6 504.637 163.44C500.869 160.675 497.159 155.569 493.866 148.941L493.629 148.46C490.455 141.963 488.159 134.926 487.307 129.28ZM452.549 160.07C451.493 160.734 448.38 162.512 444.916 164.49C440.811 166.834 436.213 169.459 433.962 170.847C428.646 174.124 424.359 177.162 421.176 180.023L422.231 181.801C426.843 189.54 429.515 193.613 431.663 195.914C430.949 194.221 430.58 192.072 430.58 189.378C430.58 189.254 430.595 189.133 430.624 189.018C430.482 188.458 430.682 187.842 431.177 187.479L432.173 186.739C432.77 186.287 433.754 185.536 434.871 184.681C437.318 182.812 440.409 180.45 441.512 179.66C444.981 177.175 447.537 175.781 449.865 175.297C450.977 175.066 451.841 175.724 452.092 176.742L452.133 176.928C452.191 177.231 452.202 177.529 452.2 178.181L452.2 178.387C452.188 180.821 452.429 182.226 453.46 183.848C454.165 184.958 455.202 185.971 456.646 186.879C456.797 186.974 456.925 187.092 457.027 187.225C459.357 185.661 461.54 184.206 463.149 183.162C460.613 180.706 458.327 177.151 456.401 172.792C454.606 168.732 453.275 164.256 452.549 160.07ZM528.711 146.302C528.239 142.601 526.433 137.441 523.769 132.062C518.272 120.959 510.991 112.614 508.071 113.781C505.248 114.909 505.985 122.94 510.045 132.315L510.412 133.146C515.062 143.471 521.71 151.108 526.679 151.274C528.468 151.334 529.167 149.873 528.711 146.302ZM422.856 188.484C425.393 192.587 427.247 195.297 428.862 197.182L412.611 207.053C410.946 203.404 409.457 200.007 408.012 196.556L422.626 188.638C422.709 188.593 422.786 188.541 422.856 188.484ZM454.522 204.45C452.945 201.188 451.855 197.918 451.257 194.64C449.157 196.053 447.329 197.277 446.154 198.04C446.356 199.049 447.104 201.444 447.748 203.148L448.948 206.238L449.062 206.539C450.242 206.041 451.475 205.555 452.753 205.084L453.597 204.777C453.907 204.665 454.216 204.556 454.522 204.45ZM454.469 188.946C452.971 187.908 451.823 186.726 450.99 185.417C449.644 183.297 449.29 181.486 449.274 178.751L449.274 178.506L449.067 178.584C447.584 179.16 445.814 180.201 443.59 181.771L443.215 182.038C442.156 182.796 439.143 185.099 436.713 186.956L436.712 186.957C435.361 187.989 434.19 188.884 433.636 189.299L433.505 189.396C433.508 194.262 434.723 196.495 436.982 197.578L437.162 197.661C437.701 197.9 438.085 198.019 439.183 198.32C439.205 198.326 439.226 198.332 439.248 198.339C440.387 197.956 441.692 197.317 443.252 196.402L443.833 196.053C445.121 195.251 448.577 192.92 452.379 190.356C453.068 189.891 453.768 189.419 454.469 188.946ZM405.426 197.955L405.651 198.489C407.204 202.172 408.818 205.82 410.651 209.798L411.363 211.342C411.13 211.499 410.822 211.665 410.485 211.813C410 212.025 409.508 212.173 409.137 212.223L409.019 212.235L408.841 212.021C407.457 210.317 405.85 207.42 404.688 204.54C404.07 203.006 403.629 201.599 403.431 200.518C403.35 200.077 403.312 199.707 403.316 199.427L403.324 199.242C403.327 199.197 403.327 199.173 403.316 199.17L403.36 199.14C403.607 198.97 404.239 198.6 405.177 198.09L405.426 197.955ZM425.603 194.732C425.038 194.156 424.112 194.147 423.535 194.712C422.521 195.707 421.099 196.634 418.616 198.013L416.09 199.415C415.422 199.795 414.876 200.123 414.381 200.444C413.967 200.712 413.597 200.971 413.265 201.228C412.626 201.722 412.508 202.641 413.002 203.28C413.496 203.919 414.415 204.037 415.054 203.543C415.318 203.339 415.623 203.125 415.973 202.898C416.296 202.689 416.651 202.471 417.062 202.231L417.867 201.77L420.434 200.348C422.9 198.964 424.386 197.976 425.584 196.801C426.16 196.235 426.169 195.309 425.603 194.732Z" fill="#00160A"/>
<path d="M392.886 343.27C400.2 384.051 427.615 414.709 462.598 421.937C469.019 423.264 480.138 423.438 491.653 421.948C506.488 420.028 520.925 415.624 533.623 408.486C568.503 389.739 594.971 351.479 598.402 317.987C601.415 288.567 590.176 261.389 569.829 242C569.829 242 505.914 273.393 474.539 291.237C447.237 306.764 392.886 343.27 392.886 343.27Z" fill="white"/>
<path d="M541.736 221.658C528.626 215.19 512.2 210.08 496.094 209.256C437.021 206.236 390.562 253.427 390.077 314.295C390.077 314.295 456.008 272.3 490.261 252.038C507.302 241.957 541.736 221.658 541.736 221.658Z" fill="white"/>
<path fill-rule="evenodd" clip-rule="evenodd" d="M663.241 190.637C663.042 200.806 652.281 217.733 634.982 236.887C622.451 250.762 607.87 264.174 595.644 273.211L594.883 273.769L595.388 276.015C598.361 289.045 602.242 303.21 600.776 317.495C597.217 352.165 570.098 391.281 534.261 410.499C521.191 417.832 506.334 422.354 491.094 424.322L489.641 424.501C478.278 425.84 467.404 425.618 460.759 424.248C434.966 418.93 413.129 400.9 399.927 374.805C399.883 374.718 399.848 374.628 399.822 374.536C398.084 375.528 395.746 376.636 394.678 376.998L391.752 377.987C360.219 388.593 328.959 397.466 316.188 391.928C311.327 389.82 309.665 385.765 311.698 380.318C313.674 375.024 319.153 368.203 328.344 359.714L328.849 359.249C337.559 351.265 356.901 336.676 386.874 315.481L386.882 315.092C388.344 252.29 437.127 204.415 498.445 208.323C517.2 209.518 532.136 216.183 539.596 220.276L542.877 218.515C573.647 202.062 598.336 190.497 617.173 183.575C648.152 172.191 663.472 177.513 663.241 190.637ZM618.182 190.321C583.542 203.05 528.798 231.679 452.576 277.73L450.26 279.131C390.908 315.06 351.607 342.356 330.826 361.405L329.802 362.351L328.831 363.262C313.231 378.001 310.466 386.258 317.352 389.244C329.141 394.357 360.8 385.738 391.804 375.569L394.678 374.621C397.443 373.705 399.276 373.179 400.411 372.936C400.461 372.901 400.515 372.869 400.572 372.84C400.96 372.644 401.394 372.637 401.768 372.784C401.85 372.8 401.903 372.825 401.93 372.86C402.183 372.997 402.398 373.209 402.537 373.485C415.354 398.817 436.472 414.254 461.35 419.383C467.807 420.714 478.702 420.909 490.039 419.507L490.719 419.421C505.608 417.498 520.109 415.084 532.854 407.935C567.874 389.154 594.408 350.883 597.866 317.196C599.344 302.799 597.458 288.667 592.443 275.514C592.03 275.803 591.619 276.087 591.212 276.365C590.442 276.89 590.729 276.039 592.074 273.814C592.145 273.524 592.305 273.259 592.535 273.061L592.949 272.405C593.094 272.176 593.247 271.939 593.407 271.691L595.141 270.229C611.48 256.409 624.037 244.642 632.811 234.926L633.813 233.811C650.047 215.644 660.138 199.596 660.305 190.583C660.488 180.695 647.442 179.568 618.182 190.321ZM471.303 375.301C475.228 387.296 469.291 395.011 458.84 395.41C449.183 395.778 440.389 389.693 440.837 381.046C441.225 373.573 446.342 365.583 452.641 362.65C460.26 359.101 467.411 363.406 471.303 375.301ZM454.185 365.965C449.144 368.312 444.808 375.082 444.489 381.235C444.171 387.364 450.946 392.051 458.7 391.756C466.807 391.446 470.969 386.038 467.828 376.438C464.557 366.443 459.585 363.45 454.185 365.965ZM551.097 350.859C556.105 360.321 554.794 369.617 547.094 373.783L546.878 373.897L546.766 374.009C536.44 384.233 523.541 385.474 515.129 378.063L514.841 377.804C505.151 368.927 507.46 353.678 522.878 341.723C532.801 334.03 544.921 339.189 551.097 350.859ZM524.799 344.2C510.801 355.053 508.834 368.05 516.958 375.492C522.785 380.83 531.395 381.125 539.436 375.945L539.593 375.84L539.534 375.828C538.977 375.681 538.531 375.232 538.404 374.646L538.379 374.497C538.277 373.638 538.891 372.859 539.751 372.757C541.717 372.524 543.423 372.049 544.87 371.37L545.067 371.273L545.307 371.025C546.251 370.032 547.172 368.952 548.065 367.783L548.361 367.39C548.696 366.941 549.226 366.723 549.745 366.765L549.786 366.769L549.807 366.73C551.684 363.019 551.239 357.992 548.491 352.64L548.327 352.325C542.956 342.177 532.919 337.904 524.799 344.2ZM618.008 231.724C617.203 234.586 614.751 238.513 610.994 243.164C604.443 251.271 594.602 260.707 586 267.16L587.908 265.061C587.889 265.045 587.873 265.022 587.859 264.997L587.201 263.787C582.896 255.93 578.101 248.18 570.351 241.862C550.289 250.133 527.287 261.439 506.33 273.261L499.461 277.144C448.876 305.799 422.262 322.954 393.802 344.044C394.876 348.881 396.23 353.602 397.851 358.176C398.105 358.894 394.782 361.58 394.173 361.248C388.496 365.052 379.605 367.815 374.544 367.959C369.611 368.099 366.761 366.102 368.229 362.121C369.458 358.79 374.084 354.039 382.41 347.673L383.359 346.953L385.278 345.511C416.613 322.051 447.634 303.014 504.893 270.713L507.29 269.369C546.561 247.447 592.039 227.698 612.869 225.876C617.15 225.501 619.093 227.87 618.008 231.724ZM389.992 346.882L383.426 351.836C377.57 356.277 373.347 359.561 371.066 361.668L370.899 361.824C368.115 364.435 371.266 365.125 374.461 365.035C379.3 364.898 386.714 361.228 392.989 357.888C391.829 354.295 390.829 350.622 389.992 346.882ZM492.685 331C493.468 331.198 493.942 331.994 493.743 332.777C493.544 333.56 492.748 334.034 491.965 333.835C488.032 332.836 485.708 333.22 484.955 334.279C484.455 334.982 484.732 336.18 485.667 336.945C486.398 337.543 487.371 337.828 488.04 337.683C488.622 337.556 488.948 337.107 488.948 335.984C488.948 335.176 489.603 334.521 490.411 334.521C491.219 334.521 491.874 335.176 491.874 335.984C491.874 338.426 490.652 340.108 488.662 340.541C487.063 340.889 485.199 340.342 483.814 339.209C481.77 337.536 481.102 334.648 482.571 332.583C484.182 330.319 487.712 329.737 492.685 331ZM428.433 325.63C430.689 326.306 431.661 328.038 431.967 330.636L431.998 330.918L432.035 331.346C432.04 331.417 432.045 331.49 432.05 331.568L432.127 333.053L432.15 333.388C432.162 333.535 432.175 333.655 432.19 333.762L432.229 333.985L432.252 334.084L432.293 334.12C432.745 334.562 432.865 335.255 432.573 335.827L432.498 335.957C432.06 336.636 431.155 336.831 430.476 336.393C429.542 335.791 429.329 335.171 429.216 333.392L429.123 331.65C429.113 331.493 429.101 331.357 429.086 331.203C428.92 329.499 428.504 328.705 427.594 328.432C425.039 327.667 423.573 328.448 423.108 330.156C422.695 331.678 423.293 333.277 424.341 333.721L424.607 333.82C425.292 334.113 425.655 334.884 425.424 335.609C425.179 336.378 424.356 336.803 423.586 336.558C420.801 335.67 419.477 332.361 420.285 329.388C421.187 326.071 424.324 324.399 428.433 325.63ZM533.962 303.233C538.012 308.927 537.259 316.173 530.761 319.451C530.039 319.815 529.16 319.526 528.796 318.804C528.432 318.083 528.722 317.203 529.443 316.84C534.148 314.466 534.685 309.297 531.578 304.928C528.559 300.684 524.358 300.218 521.47 304.803C518.409 309.665 518.631 312.518 520.835 313.803C522.585 314.824 525.402 314.609 526.177 313.775L526.252 313.684C526.72 313.026 527.634 312.872 528.292 313.34C528.95 313.809 529.104 314.722 528.635 315.38C527.009 317.664 522.369 318.084 519.362 316.331C515.512 314.086 515.144 309.36 518.995 303.245C523.118 296.696 529.844 297.443 533.962 303.233ZM473.318 294.845C474.078 294.845 474.703 295.426 474.774 296.167L474.781 296.308C474.781 296.566 475.02 296.853 475.878 297.483L476.691 298.066C477.576 298.711 478.003 299.112 478.406 299.75C479.329 301.208 479.851 302.693 479.851 304.439C479.851 308.909 473.136 314.989 465.806 317.695C457.018 320.938 449.819 318.533 447.86 309.516C447.688 308.726 448.189 307.947 448.978 307.776C449.768 307.604 450.547 308.105 450.718 308.895C452.239 315.893 457.488 317.646 464.793 314.95C471.1 312.622 476.926 307.348 476.926 304.439C476.926 303.313 476.584 302.341 475.934 301.314L475.846 301.19C475.697 301.002 475.464 300.798 475.045 300.487L474.08 299.792C472.476 298.61 471.855 297.812 471.855 296.308C471.855 295.5 472.51 294.845 473.318 294.845ZM480.184 213.773L479.26 213.877C429.348 219.88 391.904 259.801 389.862 313.372L395.218 309.604C410.589 298.814 428.432 286.489 448.745 272.628L452.703 270.236C464.52 263.107 475.818 256.398 486.604 250.104C486.407 249.759 486.352 249.335 486.485 248.928C487.239 246.626 487.936 245.079 489.213 243.53C493.21 238.682 498.685 236.314 502.564 239.358C502.946 239.658 503.139 240.109 503.123 240.56L506.569 238.594C517.42 232.417 527.687 226.712 537.378 221.472L533.593 220.395C527.98 218.815 520.997 216.941 514.041 215.499C514.104 220.127 510.64 223.823 504.883 226.366C499.99 228.527 493.613 229.69 489.079 229.419C480.597 228.914 475.823 221.474 480.184 213.773ZM567.739 277.295C571.319 287.074 568.365 295.967 559.428 295.909C546.694 295.826 534.259 284.707 536.269 274.746C537.166 270.303 540.506 266.372 546.315 264.41C555.592 261.277 564.096 267.34 567.739 277.295ZM547.251 267.182C542.451 268.803 539.831 271.886 539.137 275.325C537.541 283.231 548.368 292.911 559.447 292.984C565.794 293.025 567.976 286.453 564.992 278.301C561.835 269.674 554.776 264.641 547.251 267.182ZM439.696 232.555L439.801 232.706L440.505 233.825C440.849 234.394 441.158 234.951 441.452 235.553C444.692 242.176 444.608 250.859 439.126 262.912C436.642 268.372 430.315 275.71 424.79 280.089C417.735 285.681 412.468 286.951 406.181 286.26L404.315 286.041L404.088 286.02C403.963 286.011 403.883 286.011 403.796 286.013L403.668 286.019C403.57 286.023 403.537 286.019 403.531 286.006L403.531 285.996L403.484 286.072C403.06 286.68 402.235 286.88 401.574 286.512C400.868 286.119 400.614 285.229 401.006 284.523C401.532 283.577 402.411 283.15 403.529 283.097C403.825 283.083 404.139 283.093 404.512 283.124L404.948 283.166L406.154 283.313C411.881 284.007 416.438 282.976 422.973 277.797C428.163 273.684 434.195 266.688 436.463 261.701C441.593 250.422 441.668 242.652 438.824 236.838C438.635 236.451 438.438 236.083 438.223 235.713L437.917 235.202L437.304 234.232C436.875 233.548 437.082 232.645 437.766 232.216C438.408 231.813 439.241 231.97 439.696 232.555ZM613.124 228.79C603.773 229.608 589.115 234.227 572.216 241.098L572.71 241.535C577.413 245.754 586.901 255.76 589.871 262.897L592.83 259.616C600.129 251.497 605.426 245.4 608.718 241.325L609.385 240.49C612.532 236.496 614.566 233.159 615.192 230.932L615.281 230.594C615.672 228.987 615.22 228.606 613.124 228.79ZM473.068 233.541C476.708 235.301 478.185 239.22 475.79 242.772C475.339 243.442 474.43 243.619 473.76 243.167C473.09 242.716 472.913 241.807 473.365 241.137C474.682 239.183 473.939 237.212 471.794 236.175C469.536 235.083 467.061 235.711 465.784 238.095C464.607 240.292 464.526 243.265 465.466 245.213C466.29 246.923 467.491 247.251 469.323 245.872C469.968 245.386 470.885 245.515 471.371 246.161C471.857 246.806 471.728 247.723 471.082 248.209C467.744 250.722 464.44 249.82 462.831 246.484C461.482 243.688 461.589 239.729 463.205 236.713C465.266 232.867 469.467 231.801 473.068 233.541ZM491.471 245.391C490.789 246.218 490.301 247.091 489.85 248.211C493.619 246.022 497.324 243.882 500.966 241.794L500.86 241.732L500.758 241.659C498.525 239.906 494.588 241.609 491.471 245.391ZM485.233 213.326L483.954 213.416L483.868 213.524C478.812 219.914 480.759 225.1 487.664 225.837C492.624 226.366 505.789 222.686 507.333 221.395C508.837 220.137 510.74 217.245 511.033 214.901C506.565 214.061 502.194 213.444 498.295 213.244C494.311 213.041 490.382 213.045 486.518 213.25L485.233 213.326Z" fill="#00160A"/>
<path d="M617.295 190.684C648.273 179.3 647.563 182.677 618.304 193.43C583.664 206.159 452.906 285.92 452.906 285.92C393.555 321.848 389.115 316.302 446.642 281.34L450.189 279.189C450.857 278.785 516.352 237.448 563.153 215.333C568.42 212.844 613.768 191.98 617.295 190.684Z" fill="white"/>
<path fill-rule="evenodd" clip-rule="evenodd" d="M670.785 134.01C661.185 133.519 653.693 140.979 653.615 150.739C653.55 158.917 658.241 165.86 664.963 167.246C666.734 167.611 671.842 167.611 676.273 165.125L676.639 164.923C682.226 161.76 686.026 155.742 686.534 150.791C687.435 142.014 680.384 134.501 670.785 134.01ZM655.704 150.756C655.705 150.693 655.706 150.63 655.707 150.567C655.767 150.548 655.826 150.523 655.883 150.492C663.409 146.438 668.055 143.348 669.91 141.117C671.135 139.645 671.732 137.983 671.684 136.178C672.947 136.318 674.152 136.595 675.281 136.992C675.275 137.046 675.272 137.102 675.274 137.158C675.366 139.756 674.673 141.832 673.201 143.449C671.509 145.308 669.459 147.076 667.129 148.743C664.638 150.526 661.962 152.1 659.287 153.448C658.663 153.763 658.069 154.049 657.511 154.308L656.704 154.674C656.588 154.725 656.481 154.772 656.382 154.815L656.142 154.916C655.846 153.599 655.693 152.203 655.704 150.756ZM656.729 156.936C657.391 158.771 658.349 160.397 659.535 161.722L660.16 161.362C669.981 155.676 676.078 151.209 678.386 148.058C680.719 144.872 681.551 142.426 681.029 140.762C681.017 140.723 681.007 140.684 680.999 140.644C679.971 139.565 678.748 138.638 677.368 137.905C677.31 140.667 676.437 142.999 674.746 144.856C672.947 146.832 670.788 148.695 668.345 150.443C665.758 152.294 662.992 153.921 660.227 155.314C659.42 155.721 658.661 156.083 657.962 156.4L657.148 156.761L656.729 156.936ZM664.551 164.989C663.317 164.62 662.167 164.015 661.133 163.213C671.243 157.366 677.534 152.758 680.072 149.293C681.646 147.143 682.652 145.21 683.061 143.485C683.57 144.435 683.955 145.448 684.202 146.505C684.149 146.613 684.114 146.732 684.101 146.858C683.846 149.301 682.587 151.725 680.285 154.14C678.076 156.457 673.308 159.8 666.022 164.123L664.551 164.989ZM668.083 165.327C670.325 165.185 673.069 164.527 675.285 163.284C679.408 161.073 682.718 156.91 683.968 152.898C683.363 153.804 682.64 154.698 681.797 155.582C679.529 157.961 674.969 161.196 668.083 165.327ZM656.312 147.88L655.94 148.082C657.126 141.178 662.642 136.224 669.589 136.08C669.662 137.437 669.241 138.654 668.303 139.782C666.788 141.604 662.767 144.332 656.312 147.88Z" fill="#00160A"/>
<path fill-rule="evenodd" clip-rule="evenodd" d="M746.211 113.99C746.406 114.012 746.542 114.188 746.52 114.382C746.519 114.667 746.336 114.821 746.089 114.921C745.866 115.011 745.511 114.976 745.305 115.004C743.042 115.179 741.264 113.514 740.481 111.368C739.73 109.307 739.929 106.842 741.294 105.322C741.451 105.143 741.723 105.125 741.902 105.282C742.081 105.439 743.099 105.712 742.942 105.891C741.817 107.204 741.056 108.001 742.117 111.118C743.179 114.235 746.066 113.973 746.211 113.99Z" fill="#E7EAEE"/>
<path fill-rule="evenodd" clip-rule="evenodd" d="M385.955 136.306C385.361 135.898 384.548 136.049 384.14 136.644C383.731 137.238 383.882 138.051 384.477 138.459C385.13 138.908 385.707 139.322 386.217 139.707C385.668 140.143 385.12 140.643 384.551 141.213L383.396 142.386C382.888 142.898 382.891 143.725 383.404 144.233C383.916 144.741 384.743 144.737 385.251 144.225L386.636 142.824C387.2 142.275 387.729 141.816 388.26 141.434C389.441 142.604 389.801 143.463 389.82 144.316L389.82 144.535L389.827 144.668C389.894 145.327 390.45 145.841 391.126 145.841C391.847 145.841 392.432 145.256 392.432 144.535L392.432 144.278C392.408 142.948 391.938 141.682 390.674 140.236C391.509 139.988 392.45 139.848 393.591 139.789C394.311 139.751 394.864 139.137 394.827 138.417C394.789 137.696 394.175 137.143 393.454 137.18C391.474 137.284 389.934 137.614 388.563 138.241C387.991 137.773 387.342 137.282 386.609 136.762L385.955 136.306Z" fill="#00160A"/>
<path fill-rule="evenodd" clip-rule="evenodd" d="M581.642 422.476L582.548 422.48C587.612 422.527 591.569 422.983 599.02 424.179C599.875 424.317 600.457 425.121 600.319 425.975C600.182 426.83 599.378 427.411 598.524 427.274L596.081 426.89C589.915 425.943 586.362 425.61 581.642 425.61C565.264 425.61 554.809 435.862 556.578 451.587C556.675 452.447 556.056 453.222 555.196 453.319C554.336 453.416 553.56 452.797 553.464 451.937C551.474 434.252 563.484 422.476 581.642 422.476ZM594.327 428.804L594.174 428.669C594.026 428.542 593.799 428.56 593.675 428.708C593.546 428.857 593.565 429.08 593.713 429.208L593.871 429.341C594.018 429.468 594.24 429.451 594.37 429.302C594.494 429.154 594.479 428.93 594.327 428.804ZM565.928 432.081C565.365 431.629 564.543 431.719 564.092 432.281C562.268 434.551 560.938 436.763 560.108 438.922C559.301 441.022 559.026 444.551 559.236 449.597L559.286 450.662C559.324 451.382 559.939 451.936 560.659 451.898C561.379 451.86 561.932 451.245 561.894 450.525C561.617 445.254 561.853 441.663 562.546 439.859C563.272 437.97 564.464 435.987 566.128 433.917C566.579 433.355 566.49 432.533 565.928 432.081ZM580.181 427.76C580.821 427.429 581.609 427.679 581.941 428.319C582.273 428.96 582.022 429.748 581.382 430.079C578.73 431.454 576.704 433.757 575.292 437.041C573.776 440.566 572.536 443.711 571.572 446.475C571.334 447.156 570.59 447.516 569.909 447.278C569.228 447.04 568.868 446.296 569.106 445.615C570.092 442.788 571.354 439.587 572.892 436.01C574.533 432.192 576.967 429.425 580.181 427.76ZM587.773 427.692C587.298 427.149 586.473 427.095 585.93 427.57C583.75 429.48 582.076 431.217 580.903 432.792C579.739 434.356 578.377 436.695 576.799 439.825C576.475 440.469 576.734 441.254 577.378 441.579C578.022 441.904 578.807 441.645 579.132 441C580.647 437.994 581.941 435.773 582.999 434.351C584.048 432.942 585.6 431.332 587.651 429.534C588.194 429.059 588.248 428.234 587.773 427.692ZM583.005 442.44C582.462 442.915 581.637 442.861 581.162 442.318C580.687 441.776 580.741 440.951 581.284 440.475C583.335 438.678 584.887 437.068 585.936 435.658C586.994 434.237 588.288 432.016 589.803 429.009C590.128 428.365 590.913 428.106 591.557 428.431C592.201 428.756 592.46 429.541 592.136 430.185C590.558 433.314 589.196 435.654 588.032 437.218C586.859 438.793 585.185 440.53 583.005 442.44ZM573.117 428.825C572.523 428.415 571.71 428.564 571.3 429.158C568.38 433.386 566.516 436.545 565.692 438.691C564.865 440.845 564.293 443.748 563.961 447.417C563.896 448.135 564.426 448.77 565.144 448.835C565.863 448.9 566.498 448.37 566.563 447.652C566.874 444.203 567.402 441.523 568.13 439.628C568.809 437.861 570.391 435.136 572.863 431.498L573.45 430.642C573.859 430.048 573.71 429.235 573.117 428.825Z" fill="#00160A"/>
<path fill-rule="evenodd" clip-rule="evenodd" d="M548.325 421.123L549.225 423.123L551.276 423.712C551.387 423.744 551.451 423.86 551.419 423.97C551.41 424.005 551.391 424.036 551.366 424.061L549.807 425.613L549.895 427.846C549.899 427.961 549.809 428.058 549.694 428.063C549.655 428.064 549.616 428.055 549.582 428.035L547.818 427.03C547.763 426.999 547.696 426.994 547.637 427.018L545.75 427.767C545.643 427.81 545.521 427.758 545.479 427.65C545.464 427.614 545.46 427.574 545.467 427.536L545.865 425.337L544.537 423.583C544.467 423.491 544.485 423.36 544.577 423.291C544.606 423.269 544.639 423.255 544.674 423.25L546.788 422.953L547.957 421.098C548.019 421 548.148 420.971 548.246 421.032C548.28 421.054 548.308 421.086 548.325 421.123Z" fill="#00160A"/>
<path fill-rule="evenodd" clip-rule="evenodd" d="M620.995 141.138C621.476 141.564 622.076 142.332 622.605 143.164L623.287 142.861L624.093 142.516C624.255 142.442 624.36 142.384 624.392 142.337C624.485 142.164 624.699 142.098 624.874 142.19C625.044 142.282 625.112 142.496 625.019 142.669C624.956 142.833 624.503 143.347 623.662 143.851C623.51 143.942 623.342 144.027 623.161 144.11C623.471 144.689 623.715 145.25 623.829 145.699C624.002 146.361 623.864 146.831 623.636 146.996C623.414 147.159 622.855 147.189 622.004 146.483C621.847 146.364 621.822 146.141 621.941 145.986C622.06 145.832 622.281 145.803 622.438 145.922C622.6 146.042 622.763 146.109 622.896 146.158L622.831 145.905C622.806 145.814 622.775 145.72 622.732 145.627C622.579 145.294 622.385 144.913 622.167 144.522C621.502 144.773 620.745 145.001 619.927 145.111C619.528 145.164 619.121 145.175 618.699 145.171C618.457 145.187 618.246 145.003 618.23 144.76C618.214 144.517 618.399 144.307 618.641 144.291C619.625 144.196 620.535 143.947 621.338 143.668L621.601 143.573C621.167 142.894 620.702 142.277 620.303 141.929C620.086 141.737 620.064 141.405 620.254 141.186C620.448 140.968 620.779 140.946 620.995 141.138Z" fill="#00160A"/>
<path fill-rule="evenodd" clip-rule="evenodd" d="M333.44 317.942C332.074 318.031 329.908 318.379 328.137 319.081C326.623 319.683 326.623 336.033 331.801 337.337C336.949 339.054 342.578 336.781 341.906 328.031C341.894 327.848 341.746 327.35 341.576 326.78C341.327 325.945 341.032 324.953 341.05 324.565C341.12 323.191 340.759 322.033 339.806 321.306C338.78 319.13 336.768 317.727 333.44 317.942ZM332.699 333.357C330.165 331.463 330.254 322.626 333.146 322.036C334.946 323.42 336.589 325.417 337.143 329.266C336.523 331.386 335.213 332.613 334.069 333.685C333.946 333.8 333.826 333.913 333.708 334.025C333.381 333.839 333.044 333.612 332.699 333.357Z" fill="white"/>
<path fill-rule="evenodd" clip-rule="evenodd" d="M329.621 328.205C329.391 326.831 329.548 325.292 330.239 323.649C330.553 322.905 331.377 322.299 332.408 321.892C333.613 321.416 335.087 321.18 336.017 321.119C338.281 320.973 339.65 321.921 340.348 323.393C340.996 323.884 341.241 324.668 341.193 325.597C341.173 326.038 341.755 327.636 341.775 327.941C342.23 333.858 338.399 335.397 334.896 334.238C333.565 334.914 332.281 335.026 331.315 334.308C330.448 333.667 329.783 332.314 329.631 329.929C329.59 329.314 329.587 328.739 329.621 328.205ZM335.835 324.308C333.825 324.703 333.741 330.505 335.496 331.742C335.735 331.909 335.968 332.057 336.195 332.178C337.043 331.413 337.676 330.795 338.035 329.529C338.394 328.264 337.081 325.212 335.835 324.308Z" fill="#FFB61D"/>
<path fill-rule="evenodd" clip-rule="evenodd" d="M466.783 473.115C466.188 472.706 465.375 472.858 464.967 473.452C464.559 474.047 464.71 474.86 465.305 475.268C465.958 475.716 466.535 476.131 467.044 476.515C466.496 476.952 465.948 477.452 465.378 478.021L464.223 479.195C463.715 479.707 463.719 480.534 464.231 481.041C464.744 481.549 465.57 481.546 466.078 481.033L467.464 479.633C468.028 479.083 468.556 478.624 469.088 478.242C470.269 479.413 470.628 480.271 470.648 481.125L470.648 481.344L470.655 481.477C470.721 482.136 471.278 482.65 471.954 482.65C472.675 482.65 473.26 482.065 473.26 481.344L473.26 481.087C473.235 479.756 472.766 478.491 471.502 477.045C472.337 476.796 473.277 476.657 474.418 476.597C475.139 476.56 475.692 475.945 475.654 475.225C475.617 474.505 475.002 473.951 474.282 473.989C472.301 474.093 470.762 474.423 469.391 475.05C468.818 474.582 468.17 474.091 467.437 473.571L466.783 473.115Z" fill="#00160A"/>
<path fill-rule="evenodd" clip-rule="evenodd" d="M466.783 473.115C466.188 472.706 465.375 472.858 464.967 473.452C464.559 474.047 464.71 474.86 465.305 475.268C465.958 475.716 466.535 476.131 467.044 476.515C466.496 476.952 465.948 477.452 465.378 478.021L464.223 479.195C463.715 479.707 463.719 480.534 464.231 481.041C464.744 481.549 465.57 481.546 466.078 481.033L467.464 479.633C468.028 479.083 468.556 478.624 469.088 478.242C470.269 479.413 470.628 480.271 470.648 481.125L470.648 481.344L470.655 481.477C470.721 482.136 471.278 482.65 471.954 482.65C472.675 482.65 473.26 482.065 473.26 481.344L473.26 481.087C473.235 479.756 472.766 478.491 471.502 477.045C472.337 476.796 473.277 476.657 474.418 476.597C475.139 476.56 475.692 475.945 475.654 475.225C475.617 474.505 475.002 473.951 474.282 473.989C472.301 474.093 470.762 474.423 469.391 475.05C468.818 474.582 468.17 474.091 467.437 473.571L466.783 473.115Z" fill="#00160A"/>
<path fill-rule="evenodd" clip-rule="evenodd" d="M511.417 437.336L512.317 439.336L514.369 439.925C514.479 439.957 514.544 440.072 514.512 440.183C514.502 440.218 514.484 440.249 514.458 440.274L512.9 441.825L512.987 444.059C512.991 444.174 512.902 444.271 512.786 444.275C512.747 444.277 512.709 444.268 512.675 444.248L510.91 443.243C510.855 443.212 510.789 443.207 510.73 443.231L508.842 443.98C508.735 444.023 508.614 443.97 508.571 443.863C508.557 443.827 508.553 443.787 508.56 443.749L508.957 441.55L507.629 439.796C507.56 439.704 507.578 439.573 507.67 439.504C507.698 439.482 507.732 439.468 507.767 439.463L509.88 439.166L511.05 437.31C511.111 437.213 511.24 437.184 511.338 437.245C511.373 437.267 511.4 437.299 511.417 437.336Z" fill="#00160A"/>
<path fill-rule="evenodd" clip-rule="evenodd" d="M398.197 423.595L399.727 425.166L401.856 425.018C401.971 425.01 402.071 425.097 402.079 425.212C402.081 425.247 402.075 425.283 402.06 425.315L401.126 427.306L401.971 429.375C402.015 429.482 401.964 429.604 401.857 429.647C401.821 429.662 401.781 429.667 401.743 429.66L399.741 429.319C399.678 429.309 399.614 429.327 399.567 429.369L398.05 430.719C397.964 430.796 397.832 430.788 397.755 430.702C397.729 430.673 397.712 430.637 397.705 430.598L397.326 428.396L395.479 427.202C395.382 427.139 395.354 427.01 395.417 426.913C395.436 426.883 395.463 426.859 395.494 426.842L397.379 425.84L397.843 423.696C397.867 423.584 397.979 423.512 398.092 423.536C398.132 423.545 398.168 423.565 398.197 423.595Z" fill="#00160A"/>
<path fill-rule="evenodd" clip-rule="evenodd" d="M374.31 280.379L375.21 282.379L377.262 282.968C377.373 283 377.437 283.115 377.405 283.226C377.395 283.26 377.377 283.292 377.351 283.317L375.793 284.868L375.88 287.101C375.885 287.217 375.795 287.314 375.679 287.318C375.64 287.32 375.602 287.311 375.568 287.291L373.803 286.286C373.748 286.255 373.682 286.25 373.623 286.274L371.735 287.023C371.628 287.066 371.507 287.013 371.464 286.906C371.45 286.87 371.446 286.83 371.453 286.792L371.85 284.593L370.522 282.839C370.453 282.747 370.471 282.616 370.563 282.546C370.591 282.525 370.625 282.511 370.66 282.506L372.773 282.209L373.943 280.353C374.004 280.256 374.133 280.227 374.231 280.288C374.266 280.31 374.293 280.342 374.31 280.379Z" fill="#00160A"/>
<path fill-rule="evenodd" clip-rule="evenodd" d="M374.101 282.371L374.483 283.221L375.355 283.471C375.402 283.484 375.429 283.533 375.416 283.581C375.411 283.595 375.404 283.608 375.393 283.619L374.731 284.278L374.768 285.227C374.77 285.276 374.732 285.317 374.683 285.319C374.666 285.319 374.65 285.315 374.635 285.307L373.886 284.88C373.862 284.867 373.834 284.865 373.809 284.875L373.007 285.193C372.962 285.211 372.91 285.189 372.892 285.144C372.886 285.128 372.884 285.111 372.887 285.095L373.056 284.161L372.492 283.416C372.463 283.377 372.47 283.321 372.509 283.292C372.521 283.283 372.536 283.277 372.551 283.275L373.448 283.148L373.945 282.36C373.971 282.319 374.026 282.306 374.067 282.333C374.082 282.342 374.094 282.355 374.101 282.371Z" fill="#E7EAEE"/>
<path fill-rule="evenodd" clip-rule="evenodd" d="M267.325 368.123L268.225 370.123L270.276 370.712C270.387 370.744 270.451 370.86 270.419 370.97C270.41 371.005 270.391 371.036 270.366 371.061L268.807 372.613L268.895 374.846C268.899 374.961 268.809 375.058 268.694 375.063C268.655 375.064 268.616 375.055 268.582 375.035L266.818 374.03C266.763 373.999 266.696 373.994 266.637 374.018L264.75 374.767C264.643 374.81 264.521 374.758 264.479 374.65C264.464 374.614 264.46 374.574 264.467 374.536L264.865 372.337L263.537 370.583C263.467 370.491 263.485 370.36 263.577 370.291C263.606 370.269 263.639 370.255 263.674 370.25L265.788 369.953L266.957 368.098C267.019 368 267.148 367.971 267.246 368.032C267.28 368.054 267.308 368.086 267.325 368.123Z" fill="#00160A"/>
<path fill-rule="evenodd" clip-rule="evenodd" d="M357.746 188.545L358.4 189.001C359.134 189.521 361.872 192.103 362.445 192.571C363.815 191.942 365.354 191.612 367.335 191.509C368.055 191.471 368.67 192.025 368.707 192.745C368.745 193.465 368.191 194.08 367.471 194.117C366.33 194.177 365.389 194.316 364.554 194.565C365.819 196.012 366.288 197.277 366.312 198.606L366.313 198.863C366.313 199.585 365.728 200.169 365.007 200.169C364.33 200.169 363.774 199.655 363.707 198.997L363.701 198.863L363.701 198.644C363.681 197.791 363.322 196.933 362.141 195.762C361.609 196.144 361.081 196.603 360.517 197.152L359.131 198.553C358.623 199.065 357.796 199.069 357.284 198.561C356.772 198.053 356.768 197.227 357.276 196.714L358.431 195.541C359 194.972 359.548 194.472 360.097 194.035C359.134 191.835 355.522 189.477 355.93 188.882C356.339 188.288 357.152 188.137 357.746 188.545Z" fill="#00160A"/>
<path fill-rule="evenodd" clip-rule="evenodd" d="M609.722 339.161L611.501 340.443L613.572 339.928C613.684 339.9 613.797 339.968 613.825 340.08C613.834 340.114 613.833 340.151 613.824 340.185L613.25 342.308L614.442 344.198C614.504 344.296 614.475 344.425 614.377 344.487C614.344 344.507 614.306 344.519 614.267 344.519L612.236 344.531C612.173 344.531 612.113 344.56 612.073 344.61L610.814 346.203C610.742 346.293 610.611 346.309 610.52 346.237C610.49 346.213 610.466 346.181 610.453 346.144L609.698 344.041L607.671 343.186C607.565 343.141 607.515 343.018 607.56 342.912C607.574 342.879 607.596 342.851 607.624 342.829L609.305 341.514L609.391 339.323C609.395 339.208 609.492 339.118 609.608 339.122C609.649 339.124 609.688 339.137 609.722 339.161Z" fill="#00160A"/>
<path fill-rule="evenodd" clip-rule="evenodd" d="M630.16 257.311L630.699 259.437L632.618 260.373C632.721 260.423 632.764 260.549 632.714 260.652C632.698 260.684 632.675 260.712 632.645 260.732L630.841 261.989L630.539 264.204C630.524 264.318 630.418 264.398 630.304 264.383C630.265 264.377 630.229 264.361 630.199 264.336L628.635 263.04C628.587 263 628.522 262.984 628.46 262.997L626.471 263.407C626.358 263.43 626.248 263.358 626.224 263.245C626.216 263.206 626.219 263.167 626.233 263.13L627.006 261.033L626.003 259.076C625.95 258.973 625.991 258.847 626.094 258.795C626.125 258.778 626.161 258.771 626.196 258.772L628.329 258.846L629.803 257.222C629.881 257.136 630.013 257.13 630.098 257.208C630.129 257.235 630.15 257.271 630.16 257.311Z" fill="#00160A"/>
<path fill-rule="evenodd" clip-rule="evenodd" d="M583.616 171.757L584.155 173.882L586.073 174.819C586.176 174.869 586.219 174.994 586.169 175.098C586.153 175.13 586.13 175.157 586.1 175.178L584.296 176.435L583.994 178.65C583.979 178.764 583.873 178.844 583.759 178.828C583.72 178.823 583.684 178.807 583.654 178.782L582.091 177.486C582.042 177.446 581.977 177.43 581.915 177.442L579.926 177.853C579.813 177.876 579.703 177.803 579.679 177.69C579.671 177.652 579.674 177.613 579.688 177.576L580.461 175.479L579.458 173.522C579.405 173.419 579.446 173.293 579.549 173.24C579.58 173.224 579.616 173.216 579.651 173.218L581.784 173.292L583.258 171.668C583.336 171.582 583.468 171.576 583.553 171.653C583.584 171.681 583.605 171.717 583.616 171.757Z" fill="#00160A"/>
<path fill-rule="evenodd" clip-rule="evenodd" d="M721.122 192.586L721.916 192.515C722.812 192.442 723.625 192.401 724.365 192.392C725.01 191.03 725.977 189.788 727.428 188.435C727.956 187.943 728.782 187.972 729.274 188.5C729.766 189.028 729.737 189.854 729.209 190.346C728.373 191.125 727.742 191.837 727.262 192.564C729.161 192.859 730.334 193.526 731.207 194.53L731.373 194.726C731.836 195.279 731.764 196.102 731.212 196.566C730.694 197.001 729.937 196.965 729.463 196.503L729.372 196.405L729.231 196.237C728.668 195.596 727.841 195.17 726.184 195.032C726.022 195.666 725.912 196.358 725.833 197.141L725.672 199.105C725.612 199.823 724.981 200.358 724.262 200.298C723.543 200.238 723.009 199.607 723.069 198.889L723.2 197.248C723.27 196.445 723.368 195.71 723.508 195.023C722.871 195.055 722.162 195.109 721.373 195.186C720.655 195.255 720.017 194.729 719.948 194.011C719.878 193.293 720.404 192.655 721.122 192.586Z" fill="#00160A"/>
<path fill-rule="evenodd" clip-rule="evenodd" d="M615.664 282.737C615.428 283.334 614.91 284.161 614.31 284.943L614.828 285.48L615.428 286.119L615.561 286.247C615.619 286.299 615.665 286.33 615.698 286.339C615.892 286.367 616.027 286.546 616.001 286.741C615.973 286.932 615.795 287.07 615.601 287.042C615.425 287.038 614.787 286.789 614.026 286.171C613.888 286.059 613.751 285.93 613.612 285.788C613.173 286.278 612.73 286.699 612.347 286.96C611.783 287.349 611.295 287.38 611.062 287.222C610.833 287.069 610.613 286.554 610.986 285.513C611.044 285.324 611.245 285.225 611.431 285.284C611.617 285.343 611.719 285.541 611.661 285.729C611.604 285.922 611.596 286.099 611.596 286.24L611.812 286.093C611.888 286.038 611.967 285.976 612.039 285.904C612.3 285.647 612.592 285.334 612.885 284.996C612.421 284.456 611.947 283.823 611.565 283.092C611.378 282.735 611.229 282.357 611.088 281.959C610.99 281.737 611.091 281.476 611.314 281.377C611.537 281.279 611.798 281.381 611.895 281.603C612.321 282.496 612.866 283.265 613.403 283.924L613.582 284.139C614.072 283.499 614.493 282.851 614.683 282.357C614.789 282.088 615.094 281.954 615.364 282.057C615.636 282.164 615.77 282.468 615.664 282.737Z" fill="#E7EAEE"/>
<path fill-rule="evenodd" clip-rule="evenodd" d="M602.913 16.5761C603.709 16.4375 604.466 16.9703 604.605 17.7661C604.744 18.562 604.211 19.3195 603.415 19.4581C599.63 20.1174 595.075 22.3799 591.139 26.024C586.029 30.7559 582.259 37.4344 580.398 46.1521C578.899 53.1757 580.277 62.4232 584.196 70.1383C588.655 78.9159 595.822 84.8838 605.019 86.5637C614.461 88.2882 622.449 87.2172 631.37 84.0455L632.192 83.7472C632.452 83.6485 632.917 83.4691 633.501 83.2439L633.502 83.2434C635.651 82.4145 639.405 80.9661 640.482 80.6402C643.367 79.7679 645.334 79.8409 646.761 81.3613C647.314 81.9503 647.284 82.876 646.695 83.4288C646.143 83.947 645.295 83.9536 644.736 83.467L644.628 83.3631C644.207 82.9146 643.337 82.8626 641.585 83.3648L641.329 83.4403C640.379 83.7277 636.902 85.0682 634.735 85.904L634.735 85.9041L634.735 85.9042L634.734 85.9044C633.894 86.2282 633.251 86.4761 633.028 86.5577C623.392 90.0752 614.745 91.3138 604.494 89.4414C594.335 87.586 586.437 81.0098 581.588 71.4632C577.373 63.1665 575.894 53.2392 577.537 45.5414C579.524 36.2372 583.596 29.0213 589.152 23.8775C593.5 19.851 598.571 17.3325 602.913 16.5761ZM612.805 23.6424C613.598 23.4872 614.367 24.004 614.522 24.7968C614.677 25.5895 614.16 26.358 613.368 26.5133C601.513 28.835 591.979 37.8899 589.214 49.8669C588.278 53.9204 588.561 57.2163 589.479 58.4738L589.601 58.6314L589.611 58.6534L589.628 58.6401C589.957 58.3434 590.341 57.5853 590.639 56.41L590.702 56.1518C593.546 43.8337 602.937 34.2987 614.932 31.0965C615.713 30.8882 616.514 31.352 616.723 32.1325C616.931 32.913 616.467 33.7146 615.687 33.9229C604.88 36.8079 596.389 45.3163 593.664 56.3425L593.552 56.8098C592.549 61.1543 589.669 63.2282 587.336 60.4781C585.63 58.4667 585.211 54.1986 586.363 49.2089C589.39 36.0973 599.828 26.184 612.805 23.6424ZM630.397 39.6971C630.34 38.8913 629.64 38.2847 628.834 38.3422C614.598 39.3579 602.113 48.6043 597.146 62.2516C595.261 67.4301 595.149 72.0354 596.692 74.3839C598.762 77.5342 602.018 75.7472 603.642 71.2867L603.812 70.829C608.205 59.2794 618.498 51.2129 630.549 49.5308C631.349 49.4191 631.907 48.68 631.795 47.8799C631.683 47.0799 630.944 46.5218 630.144 46.6335C616.873 48.486 605.559 57.4648 600.893 70.2862L600.79 70.5601C600.271 71.8946 599.702 72.6991 599.272 72.9353L599.253 72.9481C599.25 72.9507 599.247 72.9529 599.245 72.9548C599.242 72.9579 599.24 72.9597 599.238 72.9594C599.236 72.9591 599.234 72.955 599.23 72.9453C599.221 72.9237 599.201 72.8744 599.137 72.7775L599.059 72.6502C598.21 71.1451 598.34 67.5242 599.895 63.2521C604.464 50.699 615.947 42.1944 629.042 41.2602C629.848 41.2027 630.455 40.5029 630.397 39.6971ZM636.768 53.9165C637.573 53.859 638.273 54.4656 638.331 55.2714C638.388 56.0771 637.782 56.7769 636.976 56.8344C627.794 57.4895 619.743 63.4521 616.54 72.2534C615.59 74.8624 615.414 77.093 615.754 78.2227L615.795 78.3488L615.86 78.2555C616.023 78.0078 616.207 77.652 616.388 77.1906L616.465 76.9864C619.848 67.6899 628.052 61.1793 637.674 59.8361C638.475 59.7245 639.214 60.2825 639.325 61.0826C639.437 61.8826 638.879 62.6217 638.079 62.7334C629.661 63.9084 622.467 69.5262 619.368 77.5756L619.214 77.9869C617.959 81.4344 615.245 82.9237 613.511 80.2839C612.322 78.475 612.405 75.0601 613.791 71.2529C617.393 61.3574 626.445 54.6529 636.768 53.9165ZM644.477 65.7015C644.419 64.8957 643.719 64.2891 642.914 64.3466C636.001 64.8398 629.938 69.33 627.526 75.957C626.575 78.5697 626.517 80.9475 627.397 82.2864C628.839 84.4815 631.08 83.2515 632.014 80.6866L632.141 80.3497C634.106 75.3313 638.609 71.8324 643.874 71.0976C644.674 70.9859 645.232 70.2468 645.12 69.4467C645.008 68.6466 644.269 68.0886 643.469 68.2003L643.098 68.256C637.431 69.1689 632.541 72.7661 630.006 77.9432L629.917 78.1275L629.972 77.9176C630.053 77.6121 630.154 77.2906 630.275 76.9576C632.289 71.4247 637.35 67.6764 643.122 67.2646C643.927 67.2071 644.534 66.5073 644.477 65.7015Z" fill="#00160A"/>
<path fill-rule="evenodd" clip-rule="evenodd" d="M636.767 53.9165C637.573 53.859 638.273 54.4656 638.33 55.2714C638.388 56.0771 637.781 56.7769 636.975 56.8344C627.794 57.4895 619.743 63.4521 616.539 72.2534C615.59 74.8624 615.413 77.093 615.753 78.2227L615.795 78.3488L615.86 78.2555C616.023 78.0078 616.207 77.652 616.387 77.1906L616.464 76.9864C619.848 67.6899 628.052 61.1793 637.674 59.8361C638.474 59.7245 639.213 60.2825 639.325 61.0826C639.437 61.8826 638.879 62.6217 638.078 62.7334C629.661 63.9084 622.466 69.5262 619.367 77.5756L619.213 77.9869C617.958 81.4344 615.245 82.9237 613.51 80.2839C612.322 78.475 612.405 75.0601 613.791 71.2529C617.392 61.3574 626.445 54.6529 636.767 53.9165Z" fill="#00160A"/>
<path d="M545.673 244.355C576.338 230.012 601.976 222.435 617.938 221.044C622.826 220.618 625.044 223.313 623.806 227.697C622.886 230.951 620.087 235.418 615.797 240.708C608.317 249.928 598.456 257.819 588.635 265.158C604.346 250.656 608.354 244.59 613.199 238.616L613.96 237.666C617.553 233.123 619.875 229.328 620.591 226.795L620.692 226.411C621.138 224.583 620.622 224.15 618.229 224.359C602.628 225.718 577.088 233.31 546.535 247.634C515.933 261.981 515.058 258.675 545.673 244.355Z" fill="white"/>
<path d="M405.426 197.955L405.651 198.488C407.204 202.172 408.818 205.819 410.651 209.798L411.363 211.342C411.13 211.498 410.822 211.665 410.485 211.813C410 212.024 409.508 212.173 409.137 212.223L409.019 212.235L408.841 212.021C407.457 210.316 405.85 207.42 404.688 204.54C404.07 203.006 403.629 201.598 403.431 200.517C403.35 200.077 403.312 199.707 403.316 199.426L403.324 199.241C403.327 199.196 403.327 199.173 403.316 199.17L403.36 199.14C403.607 198.969 404.239 198.6 405.177 198.09L405.426 197.955Z" fill="white"/>
<path fill-rule="evenodd" clip-rule="evenodd" d="M444.191 184.611C445.151 183.436 446.396 183.612 447.972 184.568L448.377 184.823L449.51 185.574C449.827 185.777 449.965 185.848 450.149 185.921C450.578 186.092 450.788 186.578 450.617 187.007C450.446 187.436 449.96 187.645 449.531 187.474L449.378 187.411C449.089 187.287 448.87 187.158 448.282 186.769L447.469 186.227C447.335 186.14 447.219 186.066 447.105 185.997C446.162 185.425 445.734 185.365 445.486 185.669C445.329 185.86 445.368 186.269 445.679 187.106L446.02 187.985C446.698 189.784 446.702 190.589 445.494 191.276C444.455 191.867 443.921 191.591 442.428 190.128L442.066 189.769C441.11 188.814 440.609 188.482 440.286 188.55C440.179 188.573 440.054 188.649 439.901 188.811C439.722 189.002 439.671 189.613 439.781 190.696L439.949 192.111C440.146 193.84 440.067 194.289 439.353 194.766C438.37 195.424 437.061 194.681 434.637 192.503C434.293 192.195 434.265 191.666 434.573 191.323C434.882 190.979 435.41 190.951 435.754 191.259C436.79 192.19 437.573 192.797 438.12 193.107L438.242 193.174L438.344 193.225L438.347 193.12L438.34 192.87C438.329 192.665 438.304 192.417 438.253 191.996L438.146 191.127C437.943 189.367 438.006 188.388 438.682 187.668C439.057 187.268 439.478 187.012 439.94 186.915C441.014 186.687 441.776 187.146 443.043 188.384L443.682 189.013C444.372 189.676 444.627 189.845 444.668 189.823C444.824 189.733 444.8 189.457 444.377 188.369L444.192 187.898C443.601 186.381 443.488 185.472 444.191 184.611Z" fill="#00160A"/>
<path fill-rule="evenodd" clip-rule="evenodd" d="M535.439 48.5671L534.645 48.6379C533.928 48.7074 533.402 49.3457 533.471 50.0636C533.513 50.4976 533.763 50.8614 534.113 51.0659L533.975 51.164C533.386 51.5803 533.246 52.3952 533.662 52.9842C534.079 53.5732 534.894 53.7132 535.483 53.2969L536.825 52.3465C536.786 52.6539 536.752 52.9712 536.723 53.2998L536.593 54.9408C536.533 55.6596 537.067 56.2907 537.786 56.3503C538.505 56.41 539.136 55.8757 539.196 55.1569L539.357 53.1932C539.399 52.773 539.45 52.3791 539.514 52.0063C539.972 52.8763 540.064 53.5465 539.967 54.1804L539.929 54.396L539.912 54.5286C539.864 55.1888 540.322 55.7915 540.988 55.9089C541.699 56.0341 542.376 55.5598 542.501 54.8495L542.546 54.5966C542.684 53.7153 542.621 52.828 542.264 51.8431C542.451 51.9772 542.611 52.1265 542.755 52.2897L542.896 52.4573L542.986 52.5553C543.461 53.0168 544.217 53.053 544.735 52.6183C545.288 52.1547 545.36 51.3309 544.896 50.7784L544.731 50.5818C544.672 50.5145 544.613 50.4486 544.551 50.3843C545.233 50.4241 545.837 49.9274 545.922 49.2398C546.01 48.524 545.501 47.8723 544.785 47.7843C543.554 47.6328 542.477 47.5988 541.487 47.6877C541.842 47.2696 542.254 46.8449 542.733 46.398C543.261 45.9062 543.29 45.0798 542.798 44.5522C542.306 44.0246 541.48 43.9956 540.952 44.4874C540.067 45.3125 539.362 46.0965 538.8 46.8916C538.583 46.6615 538.355 46.4257 538.116 46.1837L537.552 45.621C537.037 45.1157 536.21 45.1233 535.705 45.638C535.2 46.1527 535.207 46.9795 535.722 47.4848C536.079 47.8357 536.409 48.1677 536.713 48.4823C536.308 48.5027 535.884 48.531 535.439 48.5671Z" fill="#00160A"/>
<path fill-rule="evenodd" clip-rule="evenodd" d="M485.109 57.616C484.795 57.2946 484.288 57.3036 483.975 57.636C483.662 57.9685 483.663 58.4986 483.976 58.82C484.273 59.1248 484.539 59.4074 484.777 59.6703C484.274 59.8832 483.77 60.159 483.23 60.4994L482.412 61.0248C482.052 61.2538 481.973 61.7121 482.236 62.0483C482.499 62.3845 483.004 62.4714 483.363 62.2424L484.345 61.6158C484.858 61.3017 485.32 61.064 485.785 60.8972C486.491 61.8789 486.639 62.5082 486.549 63.0916L486.524 63.23L486.514 63.3152C486.48 63.7386 486.759 64.1228 487.167 64.1947C487.603 64.2715 488.021 63.9641 488.101 63.508L488.13 63.3457C488.264 62.4994 488.12 61.6469 487.514 60.5937C487.925 60.5874 488.373 60.6179 488.882 60.6829C489.325 60.7395 489.722 60.4588 489.77 60.0559C489.817 59.653 489.496 59.2805 489.053 59.2239C488.082 59.0998 487.269 59.0856 486.524 59.1863C486.217 58.8094 485.862 58.4071 485.452 57.9739L485.109 57.616Z" fill="#E7EAEE"/>
<path fill-rule="evenodd" clip-rule="evenodd" d="M316.808 275.336L317.708 277.336L319.759 277.925C319.87 277.957 319.934 278.072 319.902 278.183C319.893 278.218 319.874 278.249 319.849 278.274L318.29 279.825L318.378 282.059C318.382 282.174 318.292 282.271 318.177 282.275C318.138 282.277 318.099 282.268 318.065 282.248L316.301 281.243C316.246 281.212 316.179 281.207 316.12 281.231L314.233 281.98C314.126 282.023 314.004 281.97 313.962 281.863C313.947 281.827 313.943 281.787 313.95 281.749L314.347 279.55L313.02 277.796C312.95 277.704 312.968 277.573 313.06 277.504C313.089 277.482 313.122 277.468 313.157 277.463L315.271 277.166L316.44 275.31C316.502 275.213 316.631 275.184 316.729 275.245C316.763 275.267 316.791 275.299 316.808 275.336Z" fill="#00160A"/>
<path fill-rule="evenodd" clip-rule="evenodd" d="M328.808 164.336L329.708 166.336L331.759 166.925C331.87 166.957 331.934 167.072 331.902 167.183C331.893 167.218 331.874 167.249 331.849 167.274L330.29 168.825L330.378 171.059C330.382 171.174 330.292 171.271 330.177 171.275C330.138 171.277 330.099 171.268 330.065 171.248L328.301 170.243C328.246 170.212 328.179 170.207 328.12 170.231L326.233 170.98C326.126 171.023 326.004 170.97 325.962 170.863C325.947 170.827 325.943 170.787 325.95 170.749L326.347 168.55L325.02 166.796C324.95 166.704 324.968 166.573 325.06 166.504C325.089 166.482 325.122 166.468 325.157 166.463L327.271 166.166L328.44 164.31C328.502 164.213 328.631 164.184 328.729 164.245C328.763 164.267 328.791 164.299 328.808 164.336Z" fill="#00160A"/>
<path d="M355.99 341.061C356.66 340.574 357.598 340.723 358.085 341.393C358.572 342.064 337.35 359.348 329.118 367.27L328.161 368.198C323.459 372.799 319.992 376.783 318.038 379.932C315.967 383.27 315.834 385.082 317.171 385.823C322.243 388.634 329.536 390.004 339.981 388.273L341.054 388.09C345.029 387.394 374.936 380.872 374.462 381.045L374.279 381.1C373.336 381.35 361.158 385.561 356.955 386.631L356.447 386.759C350.022 388.376 344.994 389.484 340.471 390.233C329.418 392.064 321.521 391.664 315.717 388.447C312.368 386.591 312.634 382.951 315.489 378.351C317.734 374.732 321.683 370.261 327.038 365.108C335.38 357.081 347.114 347.506 355.99 341.061Z" fill="white"/>
<path d="M830.105 46.3745H930.029V289.671V290.171H930.529H974.5V370.577H930.529H930.029V371.077V448.625H823.209V371.077V370.577H822.709H662.527V291.504L830.105 46.3745ZM826.093 183.732L826.455 183.008H825.646H822.709H822.383L822.251 183.307C815.971 197.546 808.852 210.53 800.894 223.099C800.893 223.101 800.891 223.103 800.89 223.104L756.007 289.812L755.483 290.591H756.422H823.128H823.628V290.091V289.671V242.674C823.628 235.874 823.878 227.323 824.186 216.816C824.276 213.725 824.372 210.464 824.467 207.028C824.886 199.477 825.201 193.818 825.463 189.941C825.594 188.002 825.711 186.515 825.822 185.462C825.877 184.935 825.93 184.524 825.981 184.223C826.006 184.072 826.03 183.954 826.052 183.866C826.063 183.822 826.072 183.789 826.081 183.765C826.088 183.741 826.093 183.732 826.093 183.732Z" fill="#060B27" stroke="white"/>
</g>
<defs>
<clipPath id="clip0_191_26868">
<rect width="975" height="490.004" fill="white"/>
</clipPath>
</defs>
</svg>
