<svg width="226" height="24" viewBox="0 0 226 24" fill="none" xmlns="http://www.w3.org/2000/svg">
<path d="M22.304 0.439999L22.7484 0.669132L23.1243 -0.0600014H22.304V0.439999ZM14.368 15.832L13.9236 15.6029L13.868 15.7107V15.832H14.368ZM14.368 23V23.5H14.868V23H14.368ZM8.064 23H7.564V23.5H8.064V23ZM8.064 15.832H8.564V15.7107L8.50841 15.6029L8.064 15.832ZM0.128 0.439999V-0.0600014H-0.692343L-0.316407 0.669132L0.128 0.439999ZM7.296 0.439999L7.75095 0.232594L7.61757 -0.0600014H7.296V0.439999ZM11.264 9.144L10.809 9.3514L11.264 10.3494L11.719 9.3514L11.264 9.144ZM15.232 0.439999V-0.0600014H14.9104L14.777 0.232594L15.232 0.439999ZM21.8596 0.210865L13.9236 15.6029L14.8124 16.0611L22.7484 0.669132L21.8596 0.210865ZM13.868 15.832V23H14.868V15.832H13.868ZM14.368 22.5H8.064V23.5H14.368V22.5ZM8.564 23V15.832H7.564V23H8.564ZM8.50841 15.6029L0.572407 0.210865L-0.316407 0.669132L7.61959 16.0611L8.50841 15.6029ZM0.128 0.939999H7.296V-0.0600014H0.128V0.939999ZM6.84105 0.647404L10.809 9.3514L11.719 8.93659L7.75095 0.232594L6.84105 0.647404ZM11.719 9.3514L15.687 0.647404L14.777 0.232594L10.809 8.93659L11.719 9.3514ZM15.232 0.939999H22.304V-0.0600014H15.232V0.939999ZM29.2215 21.752L28.9751 22.1871L28.9791 22.1893L29.2215 21.752ZM24.9975 17.624L24.5646 17.8743L24.5683 17.8805L24.9975 17.624ZM24.9975 5.688L24.5669 5.43381L24.566 5.43541L24.9975 5.688ZM40.8695 1.56L40.6249 1.99608L40.6271 1.99733L40.8695 1.56ZM45.0615 5.688L44.6287 5.93832L44.63 5.94059L45.0615 5.688ZM45.0615 17.624L45.493 17.8766L45.4943 17.8743L45.0615 17.624ZM40.8695 21.752L41.1119 22.1893L41.1159 22.1871L40.8695 21.752ZM38.8215 15.832L38.4495 15.4979L38.4457 15.5022L38.8215 15.832ZM38.8215 7.416L38.4456 7.74587L38.4529 7.75386L38.8215 7.416ZM31.2375 7.416L31.6099 7.74964L31.6133 7.74579L31.2375 7.416ZM31.2375 15.864L30.8617 16.1938L30.8651 16.1976L31.2375 15.864ZM35.0455 22.724C33.0145 22.724 31.1571 22.2531 29.4639 21.3147L28.9791 22.1893C30.8272 23.2136 32.8525 23.724 35.0455 23.724V22.724ZM29.4679 21.3169C27.7727 20.357 26.4277 19.0426 25.4267 17.3675L24.5683 17.8805C25.658 19.7041 27.129 21.1417 28.9751 22.1871L29.4679 21.3169ZM25.4303 17.3737C24.454 15.6855 23.9615 13.7785 23.9615 11.64H22.9615C22.9615 13.9389 23.493 16.0212 24.5647 17.8743L25.4303 17.3737ZM23.9615 11.64C23.9615 9.50147 24.454 7.60617 25.429 5.94059L24.566 5.43541C23.493 7.2685 22.9615 9.34119 22.9615 11.64H23.9615ZM25.4281 5.94219C26.4289 4.24698 27.7724 2.93476 29.4639 1.99733L28.9791 1.12267C27.1293 2.1479 25.6568 3.58769 24.5669 5.43381L25.4281 5.94219ZM29.4639 1.99733C31.1571 1.05891 33.0145 0.587999 35.0455 0.587999V-0.412001C32.8525 -0.412001 30.8272 0.0984249 28.9791 1.12267L29.4639 1.99733ZM35.0455 0.587999C37.0988 0.587999 38.955 1.05933 40.6249 1.99607L41.1141 1.12393C39.2853 0.0980062 37.2589 -0.412001 35.0455 -0.412001V0.587999ZM40.6271 1.99733C42.3177 2.93425 43.6495 4.24523 44.6287 5.93831L45.4943 5.43769C44.4255 3.58943 42.9627 2.14841 41.1119 1.12267L40.6271 1.99733ZM44.63 5.94059C45.605 7.60617 46.0975 9.50147 46.0975 11.64H47.0975C47.0975 9.34119 46.566 7.2685 45.493 5.43541L44.63 5.94059ZM46.0975 11.64C46.0975 13.7785 45.605 15.6855 44.6287 17.3737L45.4943 17.8743C46.566 16.0212 47.0975 13.9389 47.0975 11.64H46.0975ZM44.63 17.3714C43.6507 19.0443 42.3174 20.3575 40.6231 21.3169L41.1159 22.1871C42.963 21.1412 44.4243 19.7023 45.493 17.8766L44.63 17.3714ZM40.6271 21.3147C38.9339 22.2531 37.0765 22.724 35.0455 22.724V23.724C37.2385 23.724 39.2638 23.2136 41.1119 22.1893L40.6271 21.3147ZM35.0455 17.9C36.7654 17.9 38.1703 17.3321 39.1973 16.1618L38.4457 15.5022C37.638 16.4225 36.5256 16.9 35.0455 16.9V17.9ZM39.1935 16.1661C40.2334 15.008 40.7295 13.4812 40.7295 11.64H39.7295C39.7295 13.2975 39.2869 14.5654 38.4495 15.4979L39.1935 16.1661ZM40.7295 11.64C40.7295 9.76033 40.2356 8.21865 39.1901 7.07814L38.4529 7.75386C39.2848 8.66134 39.7295 9.93567 39.7295 11.64H40.7295ZM39.1973 7.0862C38.1703 5.91588 36.7654 5.348 35.0455 5.348V6.348C36.5256 6.348 37.638 6.82545 38.4457 7.74579L39.1973 7.0862ZM35.0455 5.348C33.3066 5.348 31.89 5.91436 30.8617 7.0862L31.6133 7.74579C32.4196 6.82697 33.5418 6.348 35.0455 6.348V5.348ZM30.8651 7.08237C29.8432 8.22307 29.3615 9.76315 29.3615 11.64H30.3615C30.3615 9.93285 30.7971 8.65693 31.6099 7.74962L30.8651 7.08237ZM29.3615 11.64C29.3615 13.4979 29.8443 15.0345 30.8617 16.1938L31.6133 15.5342C30.796 14.6028 30.3615 13.3234 30.3615 11.64H29.3615ZM30.8651 16.1976C31.8944 17.3467 33.3099 17.9 35.0455 17.9V16.9C33.5384 16.9 32.4152 16.4293 31.6099 15.5304L30.8651 16.1976ZM55.561 0.439999H56.061V-0.0600014H55.561V0.439999ZM56.393 16.344L56.0098 16.6654L56.016 16.6724L56.393 16.344ZM61.577 16.344L61.2007 16.0147L61.2 16.0156L61.577 16.344ZM62.473 0.439999V-0.0600014H61.973V0.439999H62.473ZM68.745 0.439999H69.245V-0.0600014H68.745V0.439999ZM67.433 18.84L67.8612 19.0982L67.8628 19.0954L67.433 18.84ZM63.849 22.136L64.0675 22.5858L64.0701 22.5845L63.849 22.136ZM53.929 22.136L53.6975 22.5792L53.7054 22.5832L53.929 22.136ZM50.537 18.84L50.1005 19.0839L50.1033 19.0888L50.537 18.84ZM49.321 0.439999V-0.0600014H48.821V0.439999H49.321ZM55.061 0.439999V13.528H56.061V0.439999H55.061ZM55.061 13.528C55.061 14.8141 55.354 15.8833 56.0099 16.6653L56.7761 16.0227C56.3227 15.4821 56.061 14.6739 56.061 13.528H55.061ZM56.016 16.6724C56.7145 17.4745 57.7366 17.836 58.985 17.836V16.836C57.9294 16.836 57.2235 16.5362 56.77 16.0156L56.016 16.6724ZM58.985 17.836C60.2334 17.836 61.2555 17.4745 61.954 16.6724L61.2 16.0156C60.7465 16.5362 60.0406 16.836 58.985 16.836V17.836ZM61.9533 16.6733C62.6528 15.8738 62.973 14.8047 62.973 13.528H61.973C61.973 14.6406 61.6959 15.4489 61.2007 16.0147L61.9533 16.6733ZM62.973 13.528V0.439999H61.973V13.528H62.973ZM62.473 0.939999H68.745V-0.0600014H62.473V0.939999ZM68.245 0.439999V13.528H69.245V0.439999H68.245ZM68.245 13.528C68.245 15.5262 67.8232 17.2046 67.0032 18.5846L67.8628 19.0954C68.7922 17.5314 69.245 15.6685 69.245 13.528H68.245ZM67.0048 18.5818C66.1794 19.9508 65.0565 20.9833 63.6279 21.6875L64.0701 22.5845C65.6709 21.7954 66.9373 20.6305 67.8612 19.0982L67.0048 18.5818ZM63.6306 21.6862C62.2122 22.3752 60.624 22.724 58.857 22.724V23.724C60.7593 23.724 62.4992 23.3475 64.0675 22.5858L63.6306 21.6862ZM58.857 22.724C57.0897 22.724 55.5252 22.3751 54.1526 21.6888L53.7054 22.5832C55.2341 23.3476 56.955 23.724 58.857 23.724V22.724ZM54.1605 21.6928C52.819 20.992 51.7571 19.9624 50.9707 18.5912L50.1033 19.0888C50.9809 20.619 52.1803 21.7866 53.6975 22.5792L54.1605 21.6928ZM50.9735 18.5961C50.2139 17.2368 49.821 15.5549 49.821 13.528H48.821C48.821 15.6824 49.2388 17.5418 50.1005 19.0839L50.9735 18.5961ZM49.821 13.528V0.439999H48.821V13.528H49.821ZM49.321 0.939999H55.561V-0.0600014H49.321V0.939999ZM92.5953 19.32L93.07 19.1631L92.9566 18.82H92.5953V19.32ZM84.5953 19.32V18.82H84.2339L84.1205 19.1631L84.5953 19.32ZM83.3792 23V23.5H83.7406L83.854 23.1569L83.3792 23ZM76.7872 23L76.3175 22.8288L76.0728 23.5H76.7872V23ZM85.0113 0.439999V-0.0600014H84.6613L84.5415 0.268753L85.0113 0.439999ZM92.2432 0.439999L92.7132 0.269341L92.5936 -0.0600014H92.2432V0.439999ZM100.435 23V23.5H101.149L100.905 22.8293L100.435 23ZM93.8112 23L93.3365 23.1569L93.4499 23.5H93.8112V23ZM91.0273 14.52V15.02H91.721L91.5016 14.3619L91.0273 14.52ZM88.5953 7.224L89.0696 7.06589L88.5921 5.63343L88.1203 7.06776L88.5953 7.224ZM86.1953 14.52L85.7203 14.3638L85.5044 15.02H86.1953V14.52ZM92.5953 18.82H84.5953V19.82H92.5953V18.82ZM84.1205 19.1631L82.9045 22.8431L83.854 23.1569L85.07 19.4769L84.1205 19.1631ZM83.3792 22.5H76.7872V23.5H83.3792V22.5ZM77.257 23.1712L85.481 0.611244L84.5415 0.268753L76.3175 22.8288L77.257 23.1712ZM85.0113 0.939999H92.2432V-0.0600014H85.0113V0.939999ZM91.7733 0.610656L99.9653 23.1707L100.905 22.8293L92.7132 0.269341L91.7733 0.610656ZM100.435 22.5H93.8112V23.5H100.435V22.5ZM94.286 22.8431L93.07 19.1631L92.1205 19.4769L93.3365 23.1569L94.286 22.8431ZM91.5016 14.3619L89.0696 7.06589L88.1209 7.38211L90.5529 14.6781L91.5016 14.3619ZM88.1203 7.06776L85.7203 14.3638L86.6702 14.6762L89.0702 7.38024L88.1203 7.06776ZM86.1953 15.02H91.0273V14.02H86.1953V15.02ZM113.904 23L113.463 23.237L113.605 23.5H113.904V23ZM109.424 14.68L109.864 14.4429L109.722 14.18H109.424V14.68ZM108.752 14.68V14.18H108.252V14.68H108.752ZM108.752 23V23.5H109.252V23H108.752ZM102.479 23H101.979V23.5H102.479V23ZM102.479 0.439999V-0.0600014H101.979V0.439999H102.479ZM116.976 1.4L116.749 1.84573L116.755 1.84872L116.976 1.4ZM119.824 3.992L119.39 4.24187L119.393 4.24551L119.824 3.992ZM119.504 11.736L119.099 11.4419L119.098 11.4433L119.504 11.736ZM115.824 14.2L115.679 13.7214L115.075 13.9042L115.391 14.4503L115.824 14.2ZM120.911 23V23.5H121.778L121.344 22.7497L120.911 23ZM108.752 10.392H108.252V10.892H108.752V10.392ZM113.775 9.784L113.431 9.4215H113.431L113.775 9.784ZM113.743 6.328L113.39 6.68155L113.399 6.69039L113.408 6.69877L113.743 6.328ZM108.752 5.688V5.188H108.252V5.688H108.752ZM114.344 22.763L109.864 14.4429L108.983 14.917L113.463 23.237L114.344 22.763ZM109.424 14.18H108.752V15.18H109.424V14.18ZM108.252 14.68V23H109.252V14.68H108.252ZM108.752 22.5H102.479V23.5H108.752V22.5ZM102.979 23V0.439999H101.979V23H102.979ZM102.479 0.939999H112.368V-0.0600014H102.479V0.939999ZM112.368 0.939999C114.124 0.939999 115.577 1.25008 116.749 1.84569L117.202 0.954308C115.856 0.269922 114.238 -0.0600014 112.368 -0.0600014V0.939999ZM116.755 1.84872C117.933 2.42799 118.805 3.22657 119.39 4.24186L120.257 3.74214C119.562 2.53876 118.535 1.60935 117.196 0.951275L116.755 1.84872ZM119.393 4.24551C119.984 5.25043 120.284 6.38829 120.284 7.672H121.284C121.284 6.22504 120.943 4.90956 120.254 3.73849L119.393 4.24551ZM120.284 7.672C120.284 9.10892 119.887 10.3592 119.099 11.4419L119.908 12.0301C120.827 10.7661 121.284 9.30708 121.284 7.672H120.284ZM119.098 11.4433C118.342 12.4903 117.216 13.2562 115.679 13.7214L115.968 14.6786C117.674 14.1625 119.001 13.2857 119.909 12.0287L119.098 11.4433ZM115.391 14.4503L120.479 23.2503L121.344 22.7497L116.256 13.9497L115.391 14.4503ZM120.911 22.5H113.904V23.5H120.911V22.5ZM108.752 10.892H111.855V9.892H108.752V10.892ZM111.855 10.892C112.78 10.892 113.566 10.673 114.12 10.1465L113.431 9.4215C113.132 9.70571 112.638 9.892 111.855 9.892V10.892ZM114.12 10.1465C114.674 9.6203 114.915 8.88519 114.915 8.024H113.915C113.915 8.69881 113.731 9.13703 113.431 9.4215L114.12 10.1465ZM114.915 8.024C114.915 7.1882 114.653 6.47623 114.079 5.95723L113.408 6.69877C113.73 6.99043 113.915 7.40913 113.915 8.024H114.915ZM114.097 5.97445C113.546 5.4231 112.769 5.188 111.855 5.188V6.188C112.606 6.188 113.088 6.37957 113.39 6.68155L114.097 5.97445ZM111.855 5.188H108.752V6.188H111.855V5.188ZM108.252 5.688V10.392H109.252V5.688H108.252ZM129.908 5.464V4.964H129.408V5.464H129.908ZM129.908 9.144H129.408V9.644H129.908V9.144ZM137.108 9.144H137.608V8.644H137.108V9.144ZM137.108 13.912V14.412H137.608V13.912H137.108ZM129.908 13.912V13.412H129.408V13.912H129.908ZM129.908 17.976H129.408V18.476H129.908V17.976ZM138.068 17.976H138.568V17.476H138.068V17.976ZM138.068 23V23.5H138.568V23H138.068ZM123.636 23H123.136V23.5H123.636V23ZM123.636 0.439999V-0.0600014H123.136V0.439999H123.636ZM138.068 0.439999H138.568V-0.0600014H138.068V0.439999ZM138.068 5.464V5.964H138.568V5.464H138.068ZM129.408 5.464V9.144H130.408V5.464H129.408ZM129.908 9.644H137.108V8.644H129.908V9.644ZM136.608 9.144V13.912H137.608V9.144H136.608ZM137.108 13.412H129.908V14.412H137.108V13.412ZM129.408 13.912V17.976H130.408V13.912H129.408ZM129.908 18.476H138.068V17.476H129.908V18.476ZM137.568 17.976V23H138.568V17.976H137.568ZM138.068 22.5H123.636V23.5H138.068V22.5ZM124.136 23V0.439999H123.136V23H124.136ZM123.636 0.939999H138.068V-0.0600014H123.636V0.939999ZM137.568 0.439999V5.464H138.568V0.439999H137.568ZM138.068 4.964H129.908V5.964H138.068V4.964ZM153.564 18.2H153.064V18.7H153.564V18.2ZM160.572 18.2H161.072V17.7H160.572V18.2ZM160.572 23V23.5H161.072V23H160.572ZM147.292 23H146.792V23.5H147.292V23ZM147.292 0.439999V-0.0600014H146.792V0.439999H147.292ZM153.564 0.439999H154.064V-0.0600014H153.564V0.439999ZM153.564 18.7H160.572V17.7H153.564V18.7ZM160.072 18.2V23H161.072V18.2H160.072ZM160.572 22.5H147.292V23.5H160.572V22.5ZM147.792 23V0.439999H146.792V23H147.792ZM147.292 0.939999H153.564V-0.0600014H147.292V0.939999ZM153.064 0.439999V18.2H154.064V0.439999H153.064ZM168.003 21.752L167.756 22.1871L167.76 22.1893L168.003 21.752ZM163.779 17.624L163.346 17.8743L163.35 17.8805L163.779 17.624ZM163.779 5.688L163.348 5.43381L163.347 5.43541L163.779 5.688ZM179.651 1.56L179.406 1.99608L179.408 1.99733L179.651 1.56ZM183.843 5.688L183.41 5.93832L183.411 5.94059L183.843 5.688ZM183.843 17.624L184.274 17.8766L184.276 17.8743L183.843 17.624ZM179.651 21.752L179.893 22.1893L179.897 22.1871L179.651 21.752ZM177.603 15.832L177.231 15.4979L177.227 15.5022L177.603 15.832ZM177.603 7.416L177.227 7.74587L177.234 7.75386L177.603 7.416ZM170.019 7.416L170.391 7.74964L170.395 7.74579L170.019 7.416ZM170.019 15.864L169.643 16.1938L169.646 16.1976L170.019 15.864ZM173.827 22.724C171.796 22.724 169.938 22.2531 168.245 21.3147L167.76 22.1893C169.608 23.2136 171.634 23.724 173.827 23.724V22.724ZM168.249 21.3169C166.554 20.357 165.209 19.0426 164.208 17.3675L163.35 17.8805C164.439 19.7041 165.91 21.1417 167.756 22.1871L168.249 21.3169ZM164.212 17.3737C163.235 15.6855 162.743 13.7785 162.743 11.64H161.743C161.743 13.9389 162.274 16.0212 163.346 17.8743L164.212 17.3737ZM162.743 11.64C162.743 9.50147 163.235 7.60617 164.21 5.94059L163.347 5.43541C162.274 7.2685 161.743 9.34119 161.743 11.64H162.743ZM164.209 5.94219C165.21 4.24698 166.554 2.93476 168.245 1.99733L167.76 1.12267C165.911 2.1479 164.438 3.58769 163.348 5.43381L164.209 5.94219ZM168.245 1.99733C169.938 1.05891 171.796 0.587999 173.827 0.587999V-0.412001C171.634 -0.412001 169.608 0.0984249 167.76 1.12267L168.245 1.99733ZM173.827 0.587999C175.88 0.587999 177.736 1.05933 179.406 1.99607L179.895 1.12393C178.067 0.0980062 176.04 -0.412001 173.827 -0.412001V0.587999ZM179.408 1.99733C181.099 2.93425 182.431 4.24523 183.41 5.93831L184.276 5.43769C183.207 3.58943 181.744 2.14841 179.893 1.12267L179.408 1.99733ZM183.411 5.94059C184.386 7.60617 184.879 9.50147 184.879 11.64H185.879C185.879 9.34119 185.347 7.2685 184.274 5.43541L183.411 5.94059ZM184.879 11.64C184.879 13.7785 184.386 15.6855 183.41 17.3737L184.276 17.8743C185.347 16.0212 185.879 13.9389 185.879 11.64H184.879ZM183.411 17.3714C182.432 19.0443 181.099 20.3575 179.404 21.3169L179.897 22.1871C181.744 21.1412 183.206 19.7023 184.274 17.8766L183.411 17.3714ZM179.408 21.3147C177.715 22.2531 175.858 22.724 173.827 22.724V23.724C176.02 23.724 178.045 23.2136 179.893 22.1893L179.408 21.3147ZM173.827 17.9C175.547 17.9 176.952 17.3321 177.979 16.1618L177.227 15.5022C176.419 16.4225 175.307 16.9 173.827 16.9V17.9ZM177.975 16.1661C179.015 15.008 179.511 13.4812 179.511 11.64H178.511C178.511 13.2975 178.068 14.5654 177.231 15.4979L177.975 16.1661ZM179.511 11.64C179.511 9.76033 179.017 8.21865 177.971 7.07814L177.234 7.75386C178.066 8.66134 178.511 9.93567 178.511 11.64H179.511ZM177.979 7.0862C176.952 5.91588 175.547 5.348 173.827 5.348V6.348C175.307 6.348 176.419 6.82545 177.227 7.74579L177.979 7.0862ZM173.827 5.348C172.088 5.348 170.671 5.91436 169.643 7.0862L170.395 7.74579C171.201 6.82697 172.323 6.348 173.827 6.348V5.348ZM169.646 7.08237C168.624 8.22307 168.143 9.76315 168.143 11.64H169.143C169.143 9.93285 169.578 8.65693 170.391 7.74962L169.646 7.08237ZM168.143 11.64C168.143 13.4979 168.626 15.0345 169.643 16.1938L170.395 15.5342C169.577 14.6028 169.143 13.3234 169.143 11.64H168.143ZM169.646 16.1976C170.676 17.3467 172.091 17.9 173.827 17.9V16.9C172.32 16.9 171.196 16.4293 170.391 15.5304L169.646 16.1976ZM190.246 21.368L189.947 21.7686L189.95 21.771L190.246 21.368ZM187.526 15.992V15.492H186.998L187.027 16.0195L187.526 15.992ZM194.214 15.992L194.713 15.9516L194.675 15.492H194.214V15.992ZM194.918 17.72L194.585 18.0926L194.918 17.72ZM197.894 17.848L198.198 18.2452L198.201 18.2427L197.894 17.848ZM197.542 15.096L197.795 14.6646L197.542 15.096ZM194.534 13.88L194.376 14.3544L194.381 14.3558L194.534 13.88ZM190.95 12.472L190.718 12.9151L190.731 12.9213L190.95 12.472ZM188.582 10.456L188.18 10.753L188.188 10.7636L188.582 10.456ZM188.678 3.256L189.086 3.54502L189.089 3.54104L188.678 3.256ZM191.686 0.887999L191.494 0.42646L191.686 0.887999ZM202.31 1.944L201.999 2.33552L202.005 2.34011L202.31 1.944ZM204.838 7.096V7.596H205.363L205.338 7.07199L204.838 7.096ZM198.022 7.096L197.522 7.11162L197.538 7.596H198.022V7.096ZM197.382 5.56L197.05 5.93384L197.06 5.94246L197.382 5.56ZM194.726 5.464L195.066 5.83039L194.726 5.464ZM194.758 7.768L194.405 8.12155L194.416 8.13333L194.429 8.14429L194.758 7.768ZM196.006 8.568L195.791 9.01907L195.799 9.02295L195.807 9.02653L196.006 8.568ZM198.182 9.4L198.015 9.87114L198.02 9.87291L198.182 9.4ZM201.702 10.872L201.466 11.3131L201.479 11.3192L201.702 10.872ZM204.102 12.888L203.703 13.1897L203.712 13.2003L204.102 12.888ZM204.102 19.768L203.681 19.4984L203.677 19.5045L204.102 19.768ZM201.19 22.296L200.973 21.8458L200.97 21.8473L201.19 22.296ZM196.71 22.724C194.165 22.724 192.122 22.1248 190.542 20.965L189.95 21.771C191.741 23.0859 194.007 23.724 196.71 23.724V22.724ZM190.545 20.9674C188.992 19.8075 188.146 18.1599 188.025 15.9645L187.027 16.0195C187.162 18.4748 188.129 20.4111 189.947 21.7686L190.545 20.9674ZM187.526 16.492H194.214V15.492H187.526V16.492ZM193.716 16.0324C193.786 16.8917 194.048 17.6123 194.585 18.0926L195.252 17.3474C194.978 17.1023 194.771 16.671 194.713 15.9516L193.716 16.0324ZM194.585 18.0926C195.098 18.5515 195.746 18.764 196.486 18.764V17.764C195.946 17.764 195.549 17.6139 195.252 17.3474L194.585 18.0926ZM196.486 18.764C197.143 18.764 197.727 18.605 198.198 18.2452L197.591 17.4508C197.336 17.6457 196.982 17.764 196.486 17.764V18.764ZM198.201 18.2427C198.714 17.8437 198.97 17.2889 198.97 16.632H197.97C197.97 16.9991 197.842 17.255 197.587 17.4533L198.201 18.2427ZM198.97 16.632C198.97 15.7758 198.551 15.1079 197.795 14.6646L197.289 15.5273C197.771 15.8095 197.97 16.1656 197.97 16.632H198.97ZM197.795 14.6646C197.127 14.2732 196.081 13.8544 194.688 13.4042L194.381 14.3558C195.76 14.8016 196.72 15.1935 197.289 15.5273L197.795 14.6646ZM194.692 13.4057C193.232 12.9188 192.06 12.4574 191.17 12.0227L190.731 12.9213C191.675 13.3826 192.893 13.8599 194.376 14.3543L194.692 13.4057ZM191.182 12.0291C190.355 11.5959 189.62 10.9724 188.976 10.1484L188.188 10.7636C188.91 11.6889 189.753 12.4095 190.718 12.9149L191.182 12.0291ZM188.985 10.1591C188.403 9.37068 188.09 8.32088 188.09 6.968H187.09C187.09 8.47378 187.439 9.74932 188.18 10.7529L188.985 10.1591ZM188.09 6.968C188.09 5.60418 188.43 4.47185 189.086 3.54501L188.27 2.96699C187.476 4.08815 187.09 5.43049 187.09 6.968H188.09ZM189.089 3.54104C189.755 2.58123 190.679 1.84956 191.879 1.34954L191.494 0.42646C190.134 0.993109 189.052 1.8401 188.267 2.97096L189.089 3.54104ZM191.879 1.34954C193.088 0.845514 194.472 0.587999 196.038 0.587999V-0.412001C194.362 -0.412001 192.844 -0.136183 191.494 0.42646L191.879 1.34954ZM196.038 0.587999C198.585 0.587999 200.555 1.18804 201.999 2.33548L202.621 1.55252C200.951 0.225296 198.739 -0.412001 196.038 -0.412001V0.587999ZM202.005 2.34011C203.453 3.45566 204.238 5.02898 204.339 7.12001L205.338 7.07199C205.225 4.72568 204.324 2.86434 202.615 1.54789L202.005 2.34011ZM204.838 6.596H198.022V7.596H204.838V6.596ZM198.522 7.08038C198.498 6.29938 198.248 5.63515 197.704 5.17754L197.06 5.94246C197.327 6.16751 197.504 6.52728 197.522 7.11162L198.522 7.08038ZM197.714 5.18629C197.221 4.7477 196.593 4.548 195.878 4.548V5.548C196.401 5.548 196.775 5.68963 197.05 5.9337L197.714 5.18629ZM195.878 4.548C195.303 4.548 194.791 4.72139 194.386 5.0976L195.066 5.83039C195.259 5.65194 195.515 5.548 195.878 5.548V4.548ZM194.386 5.0976C193.961 5.49263 193.778 6.03498 193.778 6.648H194.778C194.778 6.23702 194.895 5.99003 195.066 5.83039L194.386 5.0976ZM193.778 6.648C193.778 7.21594 193.997 7.7141 194.405 8.12155L195.112 7.41445C194.879 7.1819 194.778 6.93339 194.778 6.648H193.778ZM194.429 8.14429C194.811 8.47819 195.267 8.76853 195.791 9.01907L196.222 8.11693C195.764 7.89814 195.389 7.65514 195.088 7.39171L194.429 8.14429ZM195.807 9.02653C196.314 9.24682 197.052 9.5287 198.015 9.87111L198.35 8.92889C197.393 8.58863 196.68 8.31585 196.206 8.10946L195.807 9.02653ZM198.02 9.87291C199.434 10.3584 200.581 10.8391 201.466 11.3129L201.938 10.4311C200.989 9.92357 199.789 9.42292 198.345 8.92709L198.02 9.87291ZM201.479 11.3192C202.345 11.7526 203.086 12.3734 203.703 13.1896L204.501 12.5864C203.795 11.6532 202.936 10.9301 201.926 10.4248L201.479 11.3192ZM203.712 13.2003C204.31 13.9475 204.626 14.9182 204.626 16.152H205.626C205.626 14.7405 205.26 13.5352 204.493 12.5757L203.712 13.2003ZM204.626 16.152C204.626 17.4066 204.309 18.5173 203.681 19.4985L204.523 20.0375C205.261 18.8854 205.626 17.5854 205.626 16.152H204.626ZM203.677 19.5045C203.072 20.4802 202.179 21.2628 200.973 21.8458L201.408 22.7462C202.762 22.0918 203.809 21.1891 204.527 20.0315L203.677 19.5045ZM200.97 21.8473C199.794 22.4253 198.379 22.724 196.71 22.724V23.724C198.497 23.724 200.069 23.404 201.411 22.7447L200.97 21.8473ZM225.034 0.439999H225.534V-0.0600014H225.034V0.439999ZM225.034 5.432V5.932H225.534V5.432H225.034ZM219.018 5.432V4.932H218.518V5.432H219.018ZM219.018 23V23.5H219.518V23H219.018ZM212.746 23H212.246V23.5H212.746V23ZM212.746 5.432H213.246V4.932H212.746V5.432ZM206.794 5.432H206.294V5.932H206.794V5.432ZM206.794 0.439999V-0.0600014H206.294V0.439999H206.794ZM224.534 0.439999V5.432H225.534V0.439999H224.534ZM225.034 4.932H219.018V5.932H225.034V4.932ZM218.518 5.432V23H219.518V5.432H218.518ZM219.018 22.5H212.746V23.5H219.018V22.5ZM213.246 23V5.432H212.246V23H213.246ZM212.746 4.932H206.794V5.932H212.746V4.932ZM207.294 5.432V0.439999H206.294V5.432H207.294ZM206.794 0.939999H225.034V-0.0600014H206.794V0.939999Z" fill="white"/>
</svg>
