<svg width="300" height="73" viewBox="0 0 300 73" fill="none" xmlns="http://www.w3.org/2000/svg">
<path d="M17.352 68.256L16.8592 69.1262L16.8673 69.1307L17.352 68.256ZM4.68 55.872L3.81434 56.3726L3.81792 56.3788L3.82159 56.385L4.68 55.872ZM4.68 20.064L3.81886 19.5556L3.81699 19.5588L4.68 20.064ZM52.296 7.68L51.8067 8.55215L51.8113 8.55465L52.296 7.68ZM64.872 20.064L64.0063 20.5646L64.009 20.5692L64.872 20.064ZM64.872 55.872L65.735 56.3772L65.7377 56.3726L64.872 55.872ZM52.296 68.256L52.7808 69.1307L52.7887 69.1262L52.296 68.256ZM46.152 50.496L45.4079 49.8278L45.4004 49.8364L46.152 50.496ZM46.152 25.248L45.4004 25.9076L45.4075 25.9157L45.4148 25.9237L46.152 25.248ZM23.4 25.248L24.1449 25.9153L24.1516 25.9076L23.4 25.248ZM23.4 50.592L22.6483 51.2516L22.6552 51.2592L23.4 50.592ZM34.824 71.672C28.65 71.672 22.9939 70.2395 17.8368 67.3813L16.8673 69.1307C22.3341 72.1605 28.326 73.672 34.824 73.672V71.672ZM17.8447 67.3858C12.6838 64.4633 8.58567 60.4585 5.53842 55.359L3.82159 56.385C7.04633 61.7815 11.3962 66.0327 16.8593 69.1262L17.8447 67.3858ZM5.54566 55.3714C2.56905 50.2243 1.072 44.4156 1.072 37.92H-0.928C-0.928 44.7364 0.646955 50.8957 3.81434 56.3726L5.54566 55.3714ZM1.072 37.92C1.072 31.4243 2.56907 25.6497 5.54301 20.5692L3.81699 19.5588C0.646932 24.9743 -0.928 31.1037 -0.928 37.92H1.072ZM5.54113 20.5724C8.58804 15.4113 12.6832 11.4109 17.8368 8.55465L16.8673 6.80534C11.3968 9.83714 7.04396 14.0927 3.81887 19.5556L5.54113 20.5724ZM17.8368 8.55465C22.9939 5.69648 28.65 4.264 34.824 4.264V2.264C28.326 2.264 22.3341 3.77552 16.8673 6.80534L17.8368 8.55465ZM34.824 4.264C41.0639 4.264 46.7177 5.69732 51.8068 8.55214L52.7853 6.80785C47.3783 3.77468 41.3841 2.264 34.824 2.264V4.264ZM51.8113 8.55465C56.963 11.4098 61.0241 15.4078 64.0063 20.5646L65.7377 19.5634C62.5759 14.0962 58.253 9.83816 52.7808 6.80534L51.8113 8.55465ZM64.009 20.5692C66.9829 25.6497 68.48 31.4243 68.48 37.92H70.48C70.48 31.1037 68.9051 24.9743 65.735 19.5588L64.009 20.5692ZM68.48 37.92C68.48 44.4156 66.983 50.2243 64.0063 55.3714L65.7377 56.3726C68.9051 50.8957 70.48 44.7364 70.48 37.92H68.48ZM64.009 55.3668C61.0264 60.462 56.9624 64.4644 51.8033 67.3858L52.7887 69.1262C58.2536 66.0316 62.5736 61.778 65.735 56.3772L64.009 55.3668ZM51.8113 67.3813C46.6541 70.2395 40.998 71.672 34.824 71.672V73.672C41.322 73.672 47.3139 72.1605 52.7808 69.1307L51.8113 67.3813ZM34.824 56.2C39.8639 56.2 43.9323 54.5416 46.9036 51.1556L45.4004 49.8364C42.8678 52.7224 39.3841 54.2 34.824 54.2V56.2ZM46.896 51.1641C49.9145 47.8026 51.376 43.3517 51.376 37.92H49.376C49.376 42.9843 48.0215 46.9174 45.408 49.8279L46.896 51.1641ZM51.376 37.92C51.376 32.3687 49.9188 27.8773 46.8892 24.5723L45.4148 25.9237C48.0172 28.7627 49.376 32.7193 49.376 37.92H51.376ZM46.9036 24.5884C43.9323 21.2024 39.8639 19.544 34.824 19.544V21.544C39.3841 21.544 42.8678 23.0216 45.4004 25.9076L46.9036 24.5884ZM34.824 19.544C29.7248 19.544 25.6224 21.1994 22.6484 24.5884L24.1516 25.9076C26.6816 23.0246 30.1952 21.544 34.824 21.544V19.544ZM22.6552 24.5807C19.6941 27.8861 18.272 32.3743 18.272 37.92H20.272C20.272 32.7137 21.6019 28.7539 24.1448 25.9152L22.6552 24.5807ZM18.272 37.92C18.272 43.4064 19.6964 47.8877 22.6484 51.2516L24.1516 49.9324C21.5997 47.0243 20.272 43.0575 20.272 37.92H18.272ZM22.6552 51.2592C25.6312 54.5813 29.7316 56.2 34.824 56.2V54.2C30.1884 54.2 26.6728 52.7467 24.1448 49.9248L22.6552 51.2592ZM92.9145 68.256L92.4217 69.1262L92.4298 69.1307L92.9145 68.256ZM80.2425 55.872L79.3768 56.3726L79.3804 56.3788L79.3841 56.385L80.2425 55.872ZM80.2425 20.064L79.3814 19.5556L79.3795 19.5588L80.2425 20.064ZM127.859 7.68L127.369 8.55215L127.374 8.55465L127.859 7.68ZM140.435 20.064L139.569 20.5646L139.571 20.5692L140.435 20.064ZM140.435 55.872L141.298 56.3772L141.3 56.3726L140.435 55.872ZM127.859 68.256L128.343 69.1307L128.351 69.1262L127.859 68.256ZM121.715 50.496L120.97 49.8278L120.963 49.8364L121.715 50.496ZM121.715 25.248L120.963 25.9076L120.97 25.9157L120.977 25.9237L121.715 25.248ZM98.9625 25.248L99.7074 25.9153L99.7141 25.9076L98.9625 25.248ZM98.9625 50.592L98.2108 51.2516L98.2177 51.2592L98.9625 50.592ZM110.387 71.672C104.212 71.672 98.5564 70.2395 93.3992 67.3813L92.4298 69.1307C97.8966 72.1605 103.889 73.672 110.387 73.672V71.672ZM93.4072 67.3858C88.2463 64.4633 84.1482 60.4585 81.1009 55.359L79.3841 56.385C82.6088 61.7815 86.9587 66.0327 92.4218 69.1262L93.4072 67.3858ZM81.1082 55.3714C78.1315 50.2243 76.6345 44.4156 76.6345 37.92H74.6345C74.6345 44.7364 76.2095 50.8957 79.3768 56.3726L81.1082 55.3714ZM76.6345 37.92C76.6345 31.4243 78.1316 25.6497 81.1055 20.5692L79.3795 19.5588C76.2094 24.9743 74.6345 31.1037 74.6345 37.92H76.6345ZM81.1036 20.5724C84.1505 15.4113 88.2457 11.4109 93.3992 8.55465L92.4298 6.80534C86.9594 9.83714 82.6065 14.0927 79.3814 19.5556L81.1036 20.5724ZM93.3992 8.55465C98.5564 5.69648 104.212 4.264 110.387 4.264V2.264C103.889 2.264 97.8966 3.77552 92.4298 6.80534L93.3992 8.55465ZM110.387 4.264C116.626 4.264 122.28 5.69732 127.369 8.55214L128.348 6.80785C122.941 3.77468 116.947 2.264 110.387 2.264V4.264ZM127.374 8.55465C132.526 11.4098 136.587 15.4078 139.569 20.5646L141.3 19.5634C138.138 14.0962 133.816 9.83816 128.343 6.80534L127.374 8.55465ZM139.571 20.5692C142.545 25.6497 144.043 31.4243 144.043 37.92H146.043C146.043 31.1037 144.468 24.9743 141.298 19.5588L139.571 20.5692ZM144.043 37.92C144.043 44.4156 142.545 50.2243 139.569 55.3714L141.3 56.3726C144.468 50.8957 146.043 44.7364 146.043 37.92H144.043ZM139.571 55.3668C136.589 60.462 132.525 64.4644 127.366 67.3858L128.351 69.1262C133.816 66.0316 138.136 61.778 141.298 56.3772L139.571 55.3668ZM127.374 67.3813C122.217 70.2395 116.561 71.672 110.387 71.672V73.672C116.884 73.672 122.876 72.1605 128.343 69.1307L127.374 67.3813ZM110.387 56.2C115.426 56.2 119.495 54.5416 122.466 51.1556L120.963 49.8364C118.43 52.7224 114.947 54.2 110.387 54.2V56.2ZM122.459 51.1641C125.477 47.8026 126.939 43.3517 126.939 37.92H124.939C124.939 42.9843 123.584 46.9174 120.97 49.8279L122.459 51.1641ZM126.939 37.92C126.939 32.3687 125.481 27.8773 122.452 24.5723L120.977 25.9237C123.58 28.7627 124.939 32.7193 124.939 37.92H126.939ZM122.466 24.5884C119.495 21.2024 115.426 19.544 110.387 19.544V21.544C114.947 21.544 118.43 23.0216 120.963 25.9076L122.466 24.5884ZM110.387 19.544C105.287 19.544 101.185 21.1994 98.2109 24.5884L99.7141 25.9076C102.244 23.0246 105.758 21.544 110.387 21.544V19.544ZM98.2177 24.5807C95.2566 27.8861 93.8345 32.3743 93.8345 37.92H95.8345C95.8345 32.7137 97.1644 28.7539 99.7073 25.9152L98.2177 24.5807ZM93.8345 37.92C93.8345 43.4064 95.2589 47.8877 98.2109 51.2516L99.7141 49.9324C97.1621 47.0243 95.8345 43.0575 95.8345 37.92H93.8345ZM98.2177 51.2592C101.194 54.5813 105.294 56.2 110.387 56.2V54.2C105.751 54.2 102.235 52.7467 99.7073 49.9248L98.2177 51.2592ZM204.093 38.112L203.223 37.6194L203.22 37.6249L204.093 38.112ZM195.549 46.176L196.014 47.0613L196.02 47.0583L195.549 46.176ZM172.317 49.152V48.152H171.317V49.152H172.317ZM172.317 72V73H173.317V72H172.317ZM153.501 72H152.501V73H153.501V72ZM153.501 4.32V3.32H152.501V4.32H153.501ZM195.453 7.2L195 8.0914L195.006 8.09443L195.453 7.2ZM204.093 15.168L203.223 15.6606L204.093 15.168ZM172.317 19.488V18.488H171.317V19.488H172.317ZM172.317 34.176H171.317V35.176H172.317V34.176ZM205.973 26.88C205.973 30.8125 205.053 34.3854 203.223 37.6194L204.963 38.6046C206.973 35.0546 207.973 31.1395 207.973 26.88H205.973ZM203.22 37.6249C201.47 40.7623 198.774 43.3228 195.078 45.2936L196.02 47.0583C200.004 44.9332 203.004 42.1177 204.966 38.5991L203.22 37.6249ZM195.084 45.2908C191.487 47.1807 187.017 48.152 181.629 48.152V50.152C187.249 50.152 192.059 49.1393 196.014 47.0612L195.084 45.2908ZM181.629 48.152H172.317V50.152H181.629V48.152ZM171.317 49.152V72H173.317V49.152H171.317ZM172.317 71H153.501V73H172.317V71ZM154.501 72V4.32H152.501V72H154.501ZM153.501 5.32H181.629V3.32H153.501V5.32ZM181.629 5.32C186.955 5.32 191.398 6.26015 195 8.09138L195.906 6.30861C191.956 4.29984 187.183 3.32 181.629 3.32V5.32ZM195.006 8.09443C198.687 9.93491 201.411 12.459 203.223 15.6606L204.963 14.6754C202.935 11.0929 199.899 8.30508 195.9 6.30557L195.006 8.09443ZM203.223 15.6606C205.047 18.8833 205.973 22.6133 205.973 26.88H207.973C207.973 22.3147 206.979 18.2367 204.963 14.6754L203.223 15.6606ZM179.805 35.176C182.594 35.176 184.873 34.5393 186.456 33.0895C188.056 31.6244 188.773 29.4899 188.773 26.88H186.773C186.773 29.1341 186.162 30.6476 185.106 31.6145C184.033 32.5967 182.328 33.176 179.805 33.176V35.176ZM188.773 26.88C188.773 24.2418 188.059 22.0848 186.461 20.6029C184.878 19.1341 182.597 18.488 179.805 18.488V20.488C182.325 20.488 184.028 21.0739 185.101 22.0691C186.159 23.0511 186.773 24.5902 186.773 26.88H188.773ZM179.805 18.488H172.317V20.488H179.805V18.488ZM171.317 19.488V34.176H173.317V19.488H171.317ZM172.317 35.176H179.805V33.176H172.317V35.176ZM220.676 67.104L220.078 67.9052L220.084 67.9101L220.676 67.104ZM212.516 50.976V49.976H211.46L211.518 51.031L212.516 50.976ZM232.58 50.976L233.577 50.8952L233.502 49.976H232.58V50.976ZM234.692 56.16L234.025 56.9052L234.692 56.16ZM243.62 56.544L244.228 57.3384L244.234 57.3334L243.62 56.544ZM242.564 48.288L243.07 47.4253L242.564 48.288ZM233.54 44.64L233.224 45.5887L233.233 45.5916L233.54 44.64ZM222.788 40.416L222.324 41.3018L222.337 41.3084L222.349 41.3146L222.788 40.416ZM215.684 34.368L214.88 34.9619L214.888 34.9727L214.896 34.9833L215.684 34.368ZM215.972 12.768L216.788 13.346L216.794 13.3381L215.972 12.768ZM224.996 5.66399L224.612 4.74092L224.996 5.66399ZM256.868 8.83199L256.246 9.61495L256.252 9.61963L256.258 9.62422L256.868 8.83199ZM264.452 24.288V25.288H265.501L265.451 24.24L264.452 24.288ZM244.004 24.288L243.005 24.3192L243.035 25.288H244.004V24.288ZM242.084 19.68L241.42 20.4274L241.43 20.4363L241.44 20.4449L242.084 19.68ZM234.116 19.392L234.797 20.1248L234.116 19.392ZM234.212 26.304L233.505 27.0111L233.529 27.0346L233.554 27.0566L234.212 26.304ZM237.956 28.704L237.525 29.6061L237.541 29.6139L237.558 29.6211L237.956 28.704ZM244.484 31.2L244.149 32.1423L244.16 32.1458L244.484 31.2ZM255.044 35.616L254.573 36.4978L254.585 36.5043L254.597 36.5104L255.044 35.616ZM262.244 41.664L261.447 42.2671L261.455 42.278L261.463 42.2887L262.244 41.664ZM262.244 62.304L261.402 61.7649L261.398 61.771L261.394 61.7771L262.244 62.304ZM253.508 69.888L253.073 68.9876L253.067 68.9906L253.508 69.888ZM240.068 71.672C232.354 71.672 226.113 69.8549 221.268 66.2979L220.084 67.9101C225.352 71.7771 232.038 73.672 240.068 73.672V71.672ZM221.275 66.3028C216.483 62.7244 213.884 57.6371 213.515 50.921L211.518 51.031C211.916 58.2669 214.757 63.9316 220.078 67.9052L221.275 66.3028ZM212.516 51.976H232.58V49.976H212.516V51.976ZM231.584 51.0568C231.787 53.5648 232.547 55.582 234.025 56.9052L235.359 55.4148C234.406 54.562 233.758 53.1232 233.577 50.8952L231.584 51.0568ZM234.025 56.9052C235.456 58.1856 237.276 58.792 239.396 58.792V56.792C237.676 56.792 236.36 56.3104 235.359 55.4148L234.025 56.9052ZM239.396 58.792C241.286 58.792 242.924 58.3353 244.228 57.3384L243.013 55.7496C242.14 56.4167 240.963 56.792 239.396 56.792V58.792ZM244.234 57.3334C245.644 56.2366 246.348 54.7218 246.348 52.896H244.348C244.348 54.1422 243.9 55.0593 243.006 55.7546L244.234 57.3334ZM246.348 52.896C246.348 50.5222 245.201 48.6744 243.07 47.4253L242.059 49.1507C243.64 50.0776 244.348 51.3018 244.348 52.896H246.348ZM243.07 47.4253C241.116 46.2796 238.021 45.0368 233.848 43.6884L233.233 45.5916C237.379 46.9312 240.301 48.1204 242.059 49.1507L243.07 47.4253ZM233.856 43.6913C229.463 42.2269 225.925 40.8348 223.227 39.5174L222.349 41.3146C225.156 42.6852 228.785 44.1091 233.224 45.5887L233.856 43.6913ZM223.252 39.5302C220.702 38.1944 218.442 36.2755 216.473 33.7527L214.896 34.9833C217.023 37.7085 219.498 39.8216 222.324 41.3018L223.252 39.5302ZM216.489 33.7741C214.664 31.3014 213.708 28.0391 213.708 23.904H211.708C211.708 28.3449 212.737 32.0586 214.88 34.9619L216.489 33.7741ZM213.708 23.904C213.708 19.7257 214.75 16.2237 216.788 13.346L215.156 12.19C212.843 15.4563 211.708 19.3783 211.708 23.904H213.708ZM216.794 13.3381C218.851 10.3731 221.701 8.12045 225.381 6.58707L224.612 4.74092C220.612 6.40755 217.445 8.89087 215.151 12.1979L216.794 13.3381ZM225.381 6.58707C229.08 5.04569 233.298 4.264 238.052 4.264V2.264C233.078 2.264 228.592 3.0823 224.612 4.74092L225.381 6.58707ZM238.052 4.264C245.771 4.264 251.8 6.08274 256.246 9.61495L257.49 8.04904C252.592 4.15726 246.078 2.264 238.052 2.264V4.264ZM256.258 9.62422C260.733 13.0713 263.146 17.9353 263.453 24.336L265.451 24.24C265.119 17.3287 262.475 11.8887 257.478 8.03977L256.258 9.62422ZM264.452 23.288H244.004V25.288H264.452V23.288ZM245.004 24.2568C244.934 22.0121 244.221 20.1716 242.728 18.9151L241.44 20.4449C242.38 21.2364 242.947 22.4679 243.005 24.3192L245.004 24.2568ZM242.749 18.9326C241.378 17.7141 239.621 17.144 237.572 17.144V19.144C239.236 19.144 240.487 19.5979 241.42 20.4274L242.749 18.9326ZM237.572 17.144C235.953 17.144 234.545 17.6295 233.436 18.6592L234.797 20.1248C235.48 19.4905 236.376 19.144 237.572 19.144V17.144ZM233.436 18.6592C232.286 19.7266 231.772 21.206 231.772 22.944H233.772C233.772 21.61 234.154 20.7214 234.797 20.1248L233.436 18.6592ZM231.772 22.944C231.772 24.5065 232.37 25.8762 233.505 27.0111L234.919 25.5969C234.134 24.8118 233.772 23.9414 233.772 22.944H231.772ZM233.554 27.0566C234.658 28.023 235.986 28.8704 237.525 29.6061L238.388 27.8019C236.982 27.1296 235.814 26.3769 234.871 25.5514L233.554 27.0566ZM237.558 29.6211C239.061 30.275 241.263 31.1161 244.149 32.1422L244.819 30.2578C241.945 29.2359 239.795 28.413 238.355 27.7869L237.558 29.6211ZM244.16 32.1458C248.417 33.6075 251.884 35.0595 254.573 36.4978L255.516 34.7342C252.701 33.2285 249.127 31.7365 244.809 30.2542L244.16 32.1458ZM254.597 36.5104C257.269 37.8465 259.551 39.7602 261.447 42.2671L263.042 41.0609C260.969 38.3198 258.451 36.2015 255.491 34.7216L254.597 36.5104ZM261.463 42.2887C263.341 44.6363 264.316 47.6657 264.316 51.456H266.316C266.316 47.3103 265.243 43.8117 263.025 41.0393L261.463 42.2887ZM264.316 51.456C264.316 55.3092 263.341 58.7359 261.402 61.7649L263.087 62.8431C265.244 59.4721 266.316 55.6668 266.316 51.456H264.316ZM261.394 61.7771C259.523 64.7951 256.766 67.203 253.073 68.9876L253.943 70.7883C257.931 68.861 260.997 66.2129 263.094 62.8309L261.394 61.7771ZM253.067 68.9906C249.457 70.7653 245.134 71.672 240.068 71.672V73.672C245.37 73.672 250.008 72.7227 253.949 70.7854L253.067 68.9906ZM299.216 0.863995L300.214 0.912155L300.265 -0.136005H299.216V0.863995ZM297.008 46.656V47.656H297.96L298.006 46.7042L297.008 46.656ZM280.975 46.656L279.977 46.7042L280.023 47.656H280.975V46.656ZM278.767 0.863995V-0.136005H277.718L277.769 0.912155L278.767 0.863995ZM280.975 70.08L280.292 70.8103L280.304 70.8216L280.317 70.8326L280.975 70.08ZM280.975 56.064L280.304 55.323L280.298 55.3283L280.292 55.3337L280.975 56.064ZM296.911 56.064L296.228 56.7943L296.234 56.7997L296.24 56.805L296.911 56.064ZM296.911 69.984L296.24 69.243L296.234 69.2483L296.228 69.2537L296.911 69.984ZM298.217 0.815834L296.009 46.6078L298.006 46.7042L300.214 0.912155L298.217 0.815834ZM297.008 45.656H280.975V47.656H297.008V45.656ZM281.974 46.6078L279.766 0.815834L277.769 0.912155L279.977 46.7042L281.974 46.6078ZM278.767 1.86399H299.216V-0.136005H278.767V1.86399ZM289.039 71.768C285.897 71.768 283.461 70.9264 281.634 69.3274L280.317 70.8326C282.586 72.8176 285.526 73.768 289.039 73.768V71.768ZM281.659 69.3497C279.885 67.6905 279 65.6226 279 63.072H277C277 66.1534 278.098 68.7575 280.292 70.8103L281.659 69.3497ZM279 63.072C279 60.5214 279.885 58.4535 281.659 56.7943L280.292 55.3337C278.098 57.3865 277 59.9906 277 63.072H279ZM281.647 56.805C283.475 55.1483 285.906 54.28 289.039 54.28V52.28C285.517 52.28 282.572 53.2677 280.304 55.323L281.647 56.805ZM289.039 54.28C292.104 54.28 294.466 55.1453 296.228 56.7943L297.595 55.3337C295.389 53.2707 292.503 52.28 289.039 52.28V54.28ZM296.24 56.805C298.074 58.4674 298.983 60.5322 298.983 63.072H300.983C300.983 59.9798 299.845 57.3726 297.583 55.323L296.24 56.805ZM298.983 63.072C298.983 65.5403 298.08 67.5756 296.24 69.243L297.583 70.725C299.839 68.6804 300.983 66.1077 300.983 63.072H298.983ZM296.228 69.2537C294.466 70.9027 292.104 71.768 289.039 71.768V73.768C292.503 73.768 295.389 72.7773 297.595 70.7143L296.228 69.2537Z" fill="white"/>
</svg>
