<svg width="884" height="991" viewBox="0 0 884 991" fill="none" xmlns="http://www.w3.org/2000/svg">
<path opacity="0.11" d="M420.6 990.499C652.56 990.499 840.6 978.903 840.6 964.599C840.6 950.295 652.56 938.699 420.6 938.699C188.64 938.699 0.600098 950.295 0.600098 964.599C0.600098 978.903 188.64 990.499 420.6 990.499Z" fill="#2A94F4"/>
<path d="M262.5 526H38.3999L42.6999 268H259.3L262.5 526Z" fill="#F7F7F7"/>
<path d="M26.8999 526H510V558.6H26.8999V526ZM182.9 649.1H353.9V668.1H182.9V649.1Z" fill="#606060"/>
<path d="M26.8999 968.6L235 539.2L256.8 549.8L53.6999 968.7L26.8999 968.6ZM509.9 968.6L301.8 539.2L280.1 549.8L483.1 968.7L509.9 968.6Z" fill="#606060"/>
<path d="M152.2 475.1C199.199 475.1 237.3 440.044 237.3 396.8C237.3 353.556 199.199 318.5 152.2 318.5C105.2 318.5 67.0996 353.556 67.0996 396.8C67.0996 440.044 105.2 475.1 152.2 475.1Z" fill="#2A94F4"/>
<path d="M152.2 396.8H237.3C237.3 413.3 231.6 429.4 221.1 442.7C210.6 456.1 195.7 466 178.7 471.1L152.2 396.8Z" fill="#CCE9FF"/>
<path d="M152.2 396.8L95.3999 338.5C111 325.7 131.2 318.5 152.2 318.5C198.9 318.5 237.3 353.8 237.3 396.8V397.2L152.2 396.8Z" fill="#0B4870"/>
<path d="M477.2 526H287.9L291.5 391.8H474.4L477.2 526Z" fill="#F7F7F7"/>
<path d="M339.3 431.2H359.9V510H339.3V431.2ZM374.6 440.6H395.2V510.1H374.6V440.6Z" fill="#0B4870"/>
<path d="M409.8 421.2H430.4V510H409.8V421.2Z" fill="#FFBE55"/>
<path d="M321.9 412.5H324.1V511.1H321.9V412.5Z" fill="#0B4870"/>
<path d="M321.9 510H459.4V511.7H321.9V510ZM56.1997 483.1H63.6997V490.6H56.1997V483.1ZM67.8997 485.7H96.7997V488.1H67.8997V485.7ZM67.8997 498.6H96.7997V501H67.8997V498.6ZM67.8997 511.6H96.7997V514H67.8997V511.6Z" fill="#0B4870"/>
<path d="M56.1997 496.1H63.6997V503.6H56.1997V496.1Z" fill="#2A94F4"/>
<path d="M56.1997 509H63.6997V516.5H56.1997V509Z" fill="#CCE9FF"/>
<path d="M604.8 137.2L474.2 96.1996C495.7 27.4996 568 -13.1004 637.9 4.29961C710.8 22.3996 755.8 97.2996 737.7 170.2C719.6 243.1 644.7 288.1 571.8 270C556.7 266.3 542.4 260 529.4 251.4L604.8 137.2Z" fill="#FFBE55"/>
<path d="M570.8 150.6L493.9 268C468.5 251.4 449.2 226.9 438.8 198.4C428.5 169.8 427.7 138.7 436.6 109.6L570.8 150.6Z" fill="#FFBE55"/>
<path d="M654.4 472.299L629.2 453.699L827 185.499C830.9 180.199 838.4 178.999 843.8 182.999L849.7 187.399C855 191.299 856.2 198.799 852.2 204.199L654.4 472.299Z" fill="#F2F2F2"/>
<path d="M667.1 484.399L643 464.299L856.5 208.399C860.7 203.299 868.3 202.599 873.4 206.899L879 211.599C884.1 215.799 884.8 223.399 880.5 228.499L667.1 484.399Z" fill="#F7F7F7"/>
<path d="M852.981 197.384C854.35 195.309 850.825 190.57 845.109 186.799C839.393 183.027 833.649 181.652 832.28 183.726C830.912 185.801 834.436 190.54 840.153 194.311C845.869 198.082 851.612 199.458 852.981 197.384Z" fill="#D3D3D3"/>
<path d="M881.518 222.008C882.886 219.933 879.362 215.194 873.646 211.423C867.929 207.651 862.186 206.276 860.817 208.35C859.448 210.425 862.973 215.164 868.689 218.935C874.406 222.707 880.149 224.082 881.518 222.008Z" fill="#D3D3D3"/>
<path d="M741.3 918L744.6 938.5C745.9 946.7 741.1 954.6 733.2 957.2L698 968.8H780.1L770.2 918H741.3Z" fill="#FCD2B1"/>
<path d="M778 957.2L737.4 955.1C737.4 955.1 686.3 963 686 974.1H787.3L778 957.2Z" fill="#0E538C"/>
<path d="M523.3 918L514.9 943.7C513.1 949.3 508.6 953.7 503 955.6L463.1 968.8H545.2L556.8 918H523.3Z" fill="#FCD2B1"/>
<path d="M546.8 957.2L502.4 955.1C502.4 955.1 451.3 963 451 974.1H552.3L546.8 957.2Z" fill="#0E538C"/>
<path d="M730.3 443.899C730.3 443.899 750.3 457.199 756.1 508.199C761.9 559.199 753.8 596.199 758.4 625.999C763 655.799 772 926.599 772 926.599H728.4L655.7 444.199L730.3 443.899Z" fill="#FFBE55"/>
<path d="M635.4 438.399H712.6C712.6 438.399 722.1 495.899 705.4 529.499C688.6 563.099 679.6 572.099 674.8 591.599C670 611.099 553.8 926.599 553.8 926.599H516.6L635.4 438.399Z" fill="#FFBE55"/>
<path d="M746.7 276.399C746.7 276.399 824.3 386.999 815.4 416.899C806.5 446.799 717.4 413.699 717.4 413.699V395.099L778.4 402.799L732.1 323.599L746.7 276.399Z" fill="#FCD2B1"/>
<path d="M614.6 334.2C619.2 310.4 646.8 274.8 646.8 274.8H756.1L727.3 424.7C725.4 434.3 749.2 444.3 723.5 444.3H634.3C629.9 444.3 626.4 440.8 626.4 436.4V382.4C626.4 375.2 624.4 368 620.3 362C613.5 351.7 613.3 340.9 614.6 334.2Z" fill="#2A94F4"/>
<path d="M664.4 193.199L654.6 216.399C654.6 216.399 648.8 233.599 652.2 243.699C656.1 255.299 673.5 255.199 673.5 255.199L668.3 283.499H712.6V193.999L664.4 193.199Z" fill="#FFE3CA"/>
<path d="M666.9 202.699C658.9 197.299 657.4 186.299 663.6 178.899C672.3 168.599 687.3 156.199 708.6 157.699C729.6 159.199 749.8 172.099 750.3 202.199C750.6 222.299 755.6 236.199 769.8 261.399C783.1 285.099 761.8 311.799 764.8 333.699C767.8 355.599 771.4 355.199 772 374.199C774.3 448.899 702.3 446.299 665.7 443.699C629.8 441.099 616.5 366.999 641.2 338.499C665.9 309.999 657.6 277.399 660.1 263.999C666.1 231.499 681.5 225.099 679.1 208.799C674.6 207.399 670.4 205.099 666.9 202.699Z" fill="#0E538C"/>
<path d="M452.1 160.3C451.9 137.7 470.3 146.6 471.3 151C471.5 151.9 473.7 152.5 474.6 159.1C475.5 165.6 480.3 174.5 481.2 172.2C483 167.6 485.2 160.9 486.8 162.4C491.8 167.4 489 176.8 486.5 182.6C485.1 185.9 485.6 189.7 487.8 192.5L553.7 274.8H645.5C664.4 278.5 655.1 317.9 632.4 317C612.5 316.2 561 314 538.5 299.9C516 285.7 467.2 187.7 467.2 187.7C457.2 180.1 452.1 162.1 452.1 160.3Z" fill="#FCD2B1"/>
</svg>
