<svg width="1439" height="978" viewBox="0 0 1439 978" fill="none" xmlns="http://www.w3.org/2000/svg">
<path opacity="0.1" d="M406.3 958.868C406.3 965.568 315.4 971.668 203.2 972.468C91.0001 973.268 0 968.368 0 961.668C0 954.968 90.9001 948.868 203.1 948.068C315.2 947.368 406.2 952.168 406.3 958.868Z" fill="#34C3EA"/>
<path opacity="0.1" d="M1439 964.3C1439 971 1348.1 977.1 1235.9 977.9C1123.7 978.7 1032.7 973.8 1032.7 967.1C1032.7 960.4 1123.6 954.3 1235.8 953.5C1347.9 952.8 1438.9 957.6 1439 964.3Z" fill="#34C3EA"/>
<path d="M481.5 49.2999C480.5 37.4999 464 24.2999 464.6 41.9999C464.6 42.6999 464 43.7999 463.4 46.6999C462.8 49.0999 461.9 51.6999 461.4 54.1999C460.9 56.3999 457.4 66.7999 452 67.4999C443.8 68.4999 450.1 54.8999 444.7 51.2999C443 50.1999 440.1 60.8999 439.5 66.9999C438.8 73.0999 438.5 76.1999 438.8 79.8999C439 83.5999 440.5 88.8999 440.1 91.0999C439.3 94.5999 434.6 101.5 434.6 101.5L454.6 107.9C454.6 107.9 460.4 97.0999 463.1 94.6999C469.8 89.0999 474.3 82.2999 477.4 73.8999C479.3 68.6999 480.3 63.0999 481.2 57.5999C481 57.6999 481.5 50.1999 481.5 49.2999Z" fill="#FCD2B1"/>
<path d="M274.8 202.9C274.8 202.9 339.5 208 378.1 171.7C409.6 134.9 440.4 93.9 442.8 90C448.1 92.6 459.5 99 459.5 99C459.5 99 415.2 178.5 399.2 196.2C383 214 352 242.5 290.7 252.6C264.9 217.1 274.8 202.9 274.8 202.9Z" fill="#FCD2B1"/>
<path d="M245.8 199C262.5 195.6 303.3 203.2 334.4 192.6C349.3 213.7 356.3 250.3 356.3 250.3C356.3 250.3 313.7 272.4 284.1 272.3C206.8 275 229.2 202.4 245.8 199Z" fill="#FFBE55"/>
<path d="M165.797 50.3369L166.349 49.2715L653.671 301.875L653.119 302.941L165.797 50.3369Z" fill="#0B4870"/>
<path d="M684.2 310.9L650.3 308.4C650.3 308 645 269 618.9 219.8C594.9 174.6 547.8 111.1 459.7 65.7004C371.3 20.1004 294.9 20.1004 246.5 28.2004C194.4 36.9004 163.1 56.1004 162.8 56.3004L139.8 30.9004C141.2 30.0004 185.9 14.4004 242.6 5.00043C294.6 -3.59957 376.3 -3.69957 470.5 44.8004C564.5 93.3004 614.7 161.3 640.3 209.8C668 262.6 683.9 309.2 684.2 310.9Z" fill="#FFBE55"/>
<path d="M301.3 922.7C301.3 922.7 305 931.2 304.8 936.9C304.6 942.6 286.5 943.8 284.2 940.9C282 938 279.8 911.9 279.8 911.9" fill="#FCD2B1"/>
<path d="M279.7 946.2C279.9 952.1 282 961.8 282 961.8L302.9 960.9L303.8 957.4C303.8 957.4 310.7 960.6 316.1 960.4L333.8 959.7C346.7 959.2 354 957.2 354.2 954.9C355.2 945.3 339.7 946.4 335.7 946.6C324.1 947.1 311.4 942.2 308.5 936.4C306.3 932.2 307.2 931.1 304.8 932C304.8 932 302.7 932.6 301.3 935.2C299.3 939.3 295.2 942.2 290.6 941.6C288 941.3 285.3 940.4 283.4 938.5C283.5 938.5 279.5 940.2 279.7 946.2Z" fill="#0B4870"/>
<path d="M96.9 911.3C96.9 911.3 93.7 926.8 91.4 932C89.1 937.2 71.8 931.6 70.8 928.1C69.8 924.6 77.5 899.5 77.5 899.5" fill="#FCD2B1"/>
<path d="M64.6 931.3C62.6 936.9 59.8 947.7 59.8 947.7L76.1 956.5L79.1 954C79.1 954 82.8 959.5 87.8 962.4C91.5 964.5 99.6 967.5 103.8 968.3C118.4 971 129.6 969 130.6 966.9C135 958.4 115.7 954.6 111.9 953.3C101 949.5 95.7 939.3 95 932.8C94.5 928.1 95.7 927.4 93.2 927.4C93.2 927.4 91 927.1 88.8 929.1C85.4 932.2 80.5 933.4 76.5 931.1C74.2 929.8 72.1 928 71 925.5C70.9 925.6 66.6 925.7 64.6 931.3Z" fill="#0B4870"/>
<path d="M153.7 500.1C153.7 500.1 122.5 433.2 170 381.7C170 381.7 213.1 398.9 247.1 399.8C273.9 400.5 287.3 397.2 287.3 397.2C287.3 397.2 295.3 446.5 295.3 524.4L153.7 500.1Z" fill="#494949"/>
<path d="M308.1 922.1C303.9 844.2 308.1 716.4 308.3 676.1C308.3 673.3 308.1 670.7 307.7 668.4C307.8 665 307.6 661.3 307.1 657.4C304.1 632.7 293 495.7 291.3 482.5C289.7 469.3 286.5 450.1 279.4 447.9C276 446.9 272.6 446.4 269.1 446.3C267.5 398.2 203.6 435.7 172.5 454.5C159 462.7 154.6 478.1 153.3 492.6C152.3 503.7 145.2 594.1 140.9 647.5C140.1 654.9 136.6 676.4 121.7 703.1C118.2 708.5 115.1 714.3 112.4 720.4C87.5 778.4 81.4 860.3 70.3 908.2C88.3 914.9 99.5 916.3 99.5 916.3L101.2 911.5C125.7 837.4 172.2 733 187.1 695.5C188.4 692.3 189.2 689.4 189.8 686.6C195.5 666.7 209.4 628.9 224 589C234.6 628.4 247.6 673.3 255 692.6V692.7C253.1 701.9 252 711.8 251.5 722.3C248.3 789.8 270.8 880.1 278.1 930.1H280.6C298.3 929.6 308.2 927.1 308.2 927.1L308.1 922.1Z" fill="#0E538C"/>
<path d="M255 162.8C254.5 166.9 255.3 183.1 246.7 187C238.1 190.9 232.6 192.6 232.8 193.9C232.9 194.5 233.7 197.4 234.7 200.1C236.7 206.4 239.7 207.9 239.7 207.9L240.9 228.6L225.4 244L220.4 249L212.8 242.1L188 219.7C188 219.7 198.2 207.1 191.2 193.7C190.2 191.8 178.9 179.3 169.9 166.7C164.7 159.3 160.2 151.9 159 146.7C155.8 132.3 153.1 117.2 161.3 108.1C169.5 99.1003 241.9 61.8003 253.2 105.4C253.3 105.4 258.9 129 255 162.8Z" fill="#FFE3CA"/>
<path d="M190.1 145.4C190.1 145.4 202.6 152.7 204.6 134.3C204.7 133.3 205.6 132.5 206.7 132.4C210.8 132 220.3 129 219.2 110.7C219.1 109.2 220.4 107.9 222.1 108C227.9 108.3 239.9 109 242.5 109.7C242.5 109.7 244.4 110 246.3 110.7C246.9 110.9 247.2 111.5 247.6 111.9C249.4 114.1 253.1 116.9 253.4 117.8C253.8 119.1 256.4 128.8 256.4 128.8C256.4 128.8 258.1 127.3 258.1 124C258 120.7 254.9 113.6 255.6 112C256.2 110.4 261.4 109.3 262.1 105.5C263.8 96.9996 266.5 63.7996 236.9 78.9996C233 80.9996 229.4 83.5996 226.2 84.0996C222 84.7996 218.1 81.1996 209.5 80.1996C197.5 78.7996 144.1 81.1996 152 129.7C159.9 178.2 191.2 193.4 191.2 193.4C191.2 193.4 183.9 150.2 190.1 145.4Z" fill="#0B4870"/>
<path d="M188 145.8C188 145.8 185.4 137.9 178.8 140.1C169.9 143.2 170.7 165.6 190.1 162.6" fill="#FFE3CA"/>
<path d="M301.3 532.4C301.3 532.4 220.4 541.7 132 525.3C136.3 498 146.4 399.5 147.5 368.3L147.6 365.1C148.3 345.2 148.7 331 149.1 330.4C150 329.2 146.8 265.7 152.1 240.9C153.1 236.3 154.3 233.1 155.9 231.8C166.2 223.2 178.4 214.2 192 207.5C192 207.5 221.5 241 237.6 203.4C255.3 201.8 274.9 217.5 280.1 235.2C308.5 333.9 301.3 532.4 301.3 532.4Z" fill="#FFBE55"/>
<path d="M136.6 330.3C136.6 330.3 150.2 377.2 185.6 399.3C195.9 405.7 208.8 402.1 216.9 393.1C241.1 366 265.3 305 273.1 281.9C258.9 274.4 254.4 275.5 254.4 275.5C254.4 275.5 220 323.2 200.3 355.1L185.6 329.4" fill="#FCD2B1"/>
<path d="M253.3 277.3C253.3 277.3 259.6 267.1 259.9 259.4C260.2 251.7 256.5 238.3 264 231.3C266.8 228.7 284.7 206.2 295.7 208C312.1 210.7 307.2 225.8 306.3 229.2C305.4 232.7 295.2 242.2 292.3 248.1C289.3 254 291 257.7 290.2 264.1C289.1 273.8 275.6 277.9 272.6 282.7C270.7 286.3 253.3 277.3 253.3 277.3Z" fill="#FCD2B1"/>
<path d="M179.4 297.7C190.2 314.6 195.1 327.3 200.7 341.6C181.8 371.1 145.7 367.1 145.7 367.1C145.7 367.1 124.9 321.2 126.1 289.8C127.7 249.1 164.1 225.3 164.1 225.3" fill="#FFBE55"/>
<path d="M1306.8 964.6H1325.5L1225.4 191.9H1206.7L1306.8 964.6ZM1234.9 191.9H1216.2H1234.9Z" fill="#0B4870"/>
<path d="M1210.6 191.9H1229.3L1129.2 964.6H1110.4L1210.6 191.9Z" fill="#0B4870"/>
<path d="M1227.4 530.1C1281.63 530.1 1325.6 436.124 1325.6 320.2C1325.6 204.275 1281.63 110.3 1227.4 110.3C1173.17 110.3 1129.2 204.275 1129.2 320.2C1129.2 436.124 1173.17 530.1 1227.4 530.1Z" fill="#0B4870"/>
<path d="M1207.7 535.1C1179.4 535.1 1153.2 512.3 1133.8 470.8C1114.9 430.5 1104.6 377.1 1104.6 320.3C1104.6 263.5 1115 210.1 1133.8 169.8C1153.2 128.3 1179.5 105.5 1207.7 105.5C1235.9 105.5 1262.2 128.3 1281.6 169.8C1300.5 210.1 1310.8 263.5 1310.8 320.3C1310.8 377.1 1300.4 430.5 1281.6 470.8C1262.2 512.2 1235.9 535.1 1207.7 535.1Z" fill="#0B4870"/>
<path d="M1207.7 530.1C1261.93 530.1 1305.9 436.124 1305.9 320.2C1305.9 204.275 1261.93 110.3 1207.7 110.3C1153.47 110.3 1109.5 204.275 1109.5 320.2C1109.5 436.124 1153.47 530.1 1207.7 530.1Z" fill="#F7F7F7"/>
<path d="M1206.7 476.6C1247.13 476.6 1279.9 406.577 1279.9 320.2C1279.9 233.822 1247.13 163.8 1206.7 163.8C1166.27 163.8 1133.5 233.822 1133.5 320.2C1133.5 406.577 1166.27 476.6 1206.7 476.6Z" fill="#C14242"/>
<path d="M1205.7 416.3C1230.55 416.3 1250.7 373.274 1250.7 320.2C1250.7 267.125 1230.55 224.1 1205.7 224.1C1180.85 224.1 1160.7 267.125 1160.7 320.2C1160.7 373.274 1180.85 416.3 1205.7 416.3Z" fill="#F7F7F7"/>
<path d="M1205.2 367.2C1217.35 367.2 1227.2 346.158 1227.2 320.2C1227.2 294.243 1217.35 273.2 1205.2 273.2C1193.05 273.2 1183.2 294.243 1183.2 320.2C1183.2 346.158 1193.05 367.2 1205.2 367.2Z" fill="#C14242"/>
<path d="M1203.2 333.5C1206.62 333.5 1209.4 327.546 1209.4 320.2C1209.4 312.855 1206.62 306.9 1203.2 306.9C1199.78 306.9 1197 312.855 1197 320.2C1197 327.546 1199.78 333.5 1203.2 333.5Z" fill="#F7F7F7"/>
<path d="M945.1 315.9H1182.8V324.7H945.1V315.9Z" fill="#FFBE55"/>
<path d="M1182.8 334.7L1158.2 320.2L1182.8 305.8L1207.4 320.2L1182.8 334.7ZM963.6 320.2H914.6L896.1 301.6H945.1L963.6 320.2ZM963.6 320.2H914.6L896.1 338.9H945.1L963.6 320.2Z" fill="#FFBE55"/>
</svg>
