<svg width="2809" height="1923" viewBox="0 0 2809 1923" fill="none" xmlns="http://www.w3.org/2000/svg">
<path d="M361.663 1789.35C361.663 1789.35 -372.029 1383.72 253.059 836.599C878.147 289.475 1765.02 152.936 2278.71 363.806C2792.39 574.678 3072.07 1445.47 2459.36 1789.35H361.663Z" fill="#E6F5FF"/>
<mask id="mask0_101_165" style="mask-type:luminance" maskUnits="userSpaceOnUse" x="0" y="269" width="2809" height="1521">
<path d="M361.663 1789.35C361.663 1789.35 -372.029 1383.72 253.059 836.599C878.147 289.475 1765.02 152.936 2278.71 363.806C2792.39 574.678 3072.07 1445.47 2459.36 1789.35H361.663Z" fill="white"/>
</mask>
<g mask="url(#mask0_101_165)">
<path d="M-718.984 887.831C-983.218 1416.63 -483.096 1867.14 33.1201 1844.65C549.333 1822.17 467.179 2746.79 -178.749 2819.79" stroke="white" stroke-miterlimit="10"/>
<path d="M-628.411 856.852C-892.644 1385.65 -392.523 1836.16 123.693 1813.67C639.907 1791.19 557.752 2715.81 -88.1758 2788.81" stroke="white" stroke-width="1.222" stroke-miterlimit="10"/>
<path d="M-537.837 825.871C-802.071 1354.67 -301.949 1805.18 214.267 1782.69C730.481 1760.21 648.326 2684.83 2.39801 2757.83" stroke="white" stroke-width="1.444" stroke-miterlimit="10"/>
<path d="M-447.264 794.892C-711.497 1323.69 -211.376 1774.2 304.841 1751.71C821.054 1729.23 738.899 2653.85 92.9711 2726.85" stroke="white" stroke-width="1.667" stroke-miterlimit="10"/>
<path d="M-356.689 763.911C-620.923 1292.71 -120.801 1743.22 395.415 1720.73C911.629 1698.25 829.474 2622.87 183.546 2695.87" stroke="white" stroke-width="1.889" stroke-miterlimit="10"/>
<path d="M-266.115 732.931C-530.349 1261.73 -30.2269 1712.24 485.989 1689.75C1002.2 1667.27 920.047 2591.89 274.12 2664.89" stroke="white" stroke-width="2.111" stroke-miterlimit="10"/>
<path d="M-175.542 701.951C-439.776 1230.75 60.3461 1681.26 576.562 1658.77C1092.78 1636.29 1010.62 2560.91 364.692 2633.91" stroke="white" stroke-width="2.333" stroke-miterlimit="10"/>
<path d="M-84.9679 670.971C-349.202 1199.77 150.92 1650.28 667.136 1627.79C1183.35 1605.31 1101.2 2529.93 455.266 2602.93" stroke="white" stroke-width="2.555" stroke-miterlimit="10"/>
<path d="M5.60606 639.991C-258.628 1168.79 241.494 1619.3 757.71 1596.81C1273.92 1574.33 1191.77 2498.95 545.84 2571.95" stroke="white" stroke-width="2.778" stroke-miterlimit="10"/>
<path d="M96.1801 609.011C-168.054 1137.81 332.068 1588.32 848.284 1565.83C1364.5 1543.35 1282.34 2467.97 636.414 2540.97" stroke="white" stroke-width="3" stroke-miterlimit="10"/>
<path d="M186.754 578.031C-77.479 1106.83 422.642 1557.34 938.858 1534.85C1455.07 1512.37 1372.92 2436.99 726.988 2509.99" stroke="white" stroke-width="3.222" stroke-miterlimit="10"/>
<path d="M277.328 547.051C13.094 1075.85 513.216 1526.36 1029.43 1503.87C1545.65 1481.39 1463.49 2406.01 817.562 2479.01" stroke="white" stroke-width="3.444" stroke-miterlimit="10"/>
<path d="M367.902 516.07C103.668 1044.87 603.79 1495.38 1120.01 1472.89C1636.22 1450.41 1554.06 2375.03 908.137 2448.03" stroke="white" stroke-width="3.667" stroke-miterlimit="10"/>
<path d="M458.476 485.09C194.243 1013.89 694.364 1464.4 1210.58 1441.91C1726.8 1419.43 1644.64 2344.05 998.711 2417.05" stroke="white" stroke-width="3.889" stroke-miterlimit="10"/>
<path d="M549.05 454.11C284.817 982.908 784.938 1433.42 1301.15 1410.93C1817.37 1388.45 1735.21 2313.07 1089.28 2386.07" stroke="white" stroke-width="4.111" stroke-miterlimit="10"/>
<path d="M639.624 423.13C375.39 951.928 875.512 1402.44 1391.73 1379.95C1907.94 1357.47 1825.79 2282.09 1179.86 2355.09" stroke="white" stroke-width="4.333" stroke-miterlimit="10"/>
<path d="M730.198 392.15C465.964 920.948 966.085 1371.46 1482.3 1348.97C1998.52 1326.49 1916.36 2251.11 1270.43 2324.11" stroke="white" stroke-width="4.556" stroke-miterlimit="10"/>
<path d="M820.772 361.17C556.538 889.969 1056.66 1340.48 1572.88 1317.99C2089.09 1295.51 2006.93 2220.13 1361.01 2293.13" stroke="white" stroke-width="4.778" stroke-miterlimit="10"/>
<path d="M911.346 330.189C647.113 858.988 1147.23 1309.5 1663.45 1287.01C2179.66 1264.53 2097.51 2189.15 1451.58 2262.15" stroke="white" stroke-width="5" stroke-miterlimit="10"/>
<path d="M1001.92 299.21C737.685 828.008 1237.81 1278.52 1754.02 1256.03C2270.24 1233.55 2188.08 2158.17 1542.15 2231.17" stroke="white" stroke-width="5.222" stroke-miterlimit="10"/>
<path d="M1092.49 268.229C828.26 797.027 1328.38 1247.54 1844.6 1225.05C2360.81 1202.57 2278.66 2127.19 1632.73 2200.19" stroke="white" stroke-width="5.444" stroke-miterlimit="10"/>
<path d="M1183.07 237.249C918.834 766.048 1418.96 1216.56 1935.17 1194.07C2451.39 1171.59 2369.23 2096.21 1723.3 2169.21" stroke="white" stroke-width="5.667" stroke-miterlimit="10"/>
<path d="M1273.64 206.27C1009.41 735.069 1509.53 1185.58 2025.75 1163.09C2541.96 1140.61 2459.8 2065.23 1813.88 2138.23" stroke="white" stroke-width="5.889" stroke-miterlimit="10"/>
<path d="M1364.22 175.289C1099.98 704.088 1600.1 1154.6 2116.32 1132.11C2632.54 1109.63 2550.38 2034.25 1904.45 2107.25" stroke="white" stroke-width="6.111" stroke-miterlimit="10"/>
<path d="M1454.79 144.309C1190.56 673.107 1690.68 1123.62 2206.89 1101.13C2723.11 1078.65 2640.95 2003.27 1995.02 2076.27" stroke="white" stroke-width="6.333" stroke-miterlimit="10"/>
<path d="M1545.36 113.329C1281.13 642.128 1781.25 1092.64 2297.47 1070.15C2813.68 1047.67 2731.52 1972.29 2085.6 2045.29" stroke="white" stroke-width="6.556" stroke-miterlimit="10"/>
<path d="M1635.94 82.3489C1371.7 611.148 1871.83 1061.66 2388.04 1039.17C2904.26 1016.69 2822.1 1941.31 2176.17 2014.31" stroke="white" stroke-width="6.778" stroke-miterlimit="10"/>
<path d="M1726.51 51.3689C1462.28 580.167 1962.4 1030.68 2478.62 1008.19C2994.83 985.707 2912.67 1910.33 2266.75 1983.33" stroke="white" stroke-width="7" stroke-miterlimit="10"/>
<path d="M1817.08 20.3889C1552.85 549.188 2052.97 999.701 2569.19 977.212C3085.41 954.727 3003.25 1879.35 2357.32 1952.35" stroke="white" stroke-width="7.222" stroke-miterlimit="10"/>
<path d="M1907.66 -10.5911C1643.43 518.207 2143.55 968.72 2659.76 946.232C3175.98 923.748 3093.82 1848.37 2447.89 1921.37" stroke="white" stroke-width="7.444" stroke-miterlimit="10"/>
<path d="M1998.23 -41.5723C1734 487.228 2234.12 937.74 2750.34 915.252C3266.55 892.767 3184.4 1817.39 2538.47 1890.39" stroke="white" stroke-width="7.667" stroke-miterlimit="10"/>
<path d="M2088.81 -72.5522C1824.57 456.247 2324.7 906.76 2840.91 884.271C3357.13 861.787 3274.97 1786.41 2629.04 1859.41" stroke="white" stroke-width="7.889" stroke-miterlimit="10"/>
<path d="M2179.38 -103.532C1915.15 425.266 2415.27 875.779 2931.49 853.291C3447.7 830.807 3365.54 1755.43 2719.61 1828.43" stroke="white" stroke-width="8.111" stroke-miterlimit="10"/>
<path d="M2269.96 -134.512C2005.72 394.287 2505.84 844.8 3022.06 822.311C3538.28 799.827 3456.12 1724.45 2810.19 1797.45" stroke="white" stroke-width="8.333" stroke-miterlimit="10"/>
<path d="M2360.53 -165.492C2096.3 363.306 2596.42 813.819 3112.63 791.331C3628.85 768.847 3546.69 1693.47 2900.76 1766.47" stroke="white" stroke-width="8.556" stroke-miterlimit="10"/>
<path d="M2451.1 -196.472C2186.87 332.327 2686.99 782.839 3203.21 760.352C3719.42 737.868 3637.26 1662.49 2991.34 1735.49" stroke="white" stroke-width="8.778" stroke-miterlimit="10"/>
<path d="M2541.68 -227.452C2277.44 301.347 2777.57 751.86 3293.78 729.371C3810 706.887 3727.84 1631.51 3081.91 1704.51" stroke="white" stroke-width="9" stroke-miterlimit="10"/>
</g>
<path d="M2367.02 1823.67H609V1922.06H2367.02V1823.67Z" fill="#AAAAAA"/>
<path d="M2459.36 1733.23H609V1831.62H2459.36V1733.23Z" fill="#C9C9C9"/>
<path d="M1582.01 611.634H1086.16V895.437H1582.01V611.634Z" fill="#BBE2EF"/>
<path d="M1158.18 637.3H1116.26V679.226H1158.18V637.3Z" fill="white"/>
<path d="M1393.07 637.3H1172.96V653.694H1393.07V637.3Z" fill="white"/>
<path d="M1284.5 662.832H1172.96V679.226H1284.5V662.832Z" fill="white"/>
<path d="M1158.18 702.041H1116.26V743.967H1158.18V702.041Z" fill="white"/>
<path d="M1393.07 702.041H1172.96V718.436H1393.07V702.041Z" fill="white"/>
<path d="M1284.5 727.574H1172.96V743.967H1284.5V727.574Z" fill="white"/>
<path d="M1158.18 766.783H1116.26V808.709H1158.18V766.783Z" fill="white"/>
<path d="M1393.07 766.783H1172.96V783.177H1393.07V766.783Z" fill="white"/>
<path d="M1284.5 792.316H1172.96V808.709H1284.5V792.316Z" fill="white"/>
<path d="M1158.18 831.526H1116.26V873.451H1158.18V831.526Z" fill="white"/>
<path d="M1393.07 831.526H1172.96V847.918H1393.07V831.526Z" fill="white"/>
<path d="M1284.5 857.057H1172.96V873.452H1284.5V857.057Z" fill="white"/>
<path d="M1568.3 634.881H1411.08V757.568H1568.3V634.881Z" fill="white"/>
<path d="M1568.3 772.561H1411.08V877.295H1568.3V772.561Z" fill="white"/>
<path d="M1425.59 727.574C1435.67 700.994 1452.6 670.088 1465.9 687.825C1479.21 705.562 1498.15 724.052 1502.59 718.435C1507.03 712.818 1516.7 694.676 1528.39 693.065C1540.08 691.453 1560.24 727.574 1560.24 727.574H1425.59ZM1425.59 854.016C1435.67 827.437 1452.6 796.528 1465.9 814.266C1479.21 832.004 1498.15 850.495 1502.59 844.877C1507.03 839.261 1516.7 821.12 1528.39 819.508C1540.08 817.895 1560.24 854.016 1560.24 854.016H1425.59Z" fill="#8ECC36"/>
<path d="M1118.94 656.784L1129.16 673.178L1155.23 651.678L1153.88 650.333L1129.39 666.56L1119.72 655.776L1118.94 656.784Z" fill="#FF8500"/>
<path d="M1118.94 719.377L1129.16 735.771L1155.23 714.271L1153.88 712.927L1129.39 729.152L1119.72 718.369L1118.94 719.377Z" fill="#FF8500"/>
<path d="M1118.94 781.97L1129.16 798.363L1155.23 776.865L1153.88 775.521L1129.39 791.746L1119.72 780.962L1118.94 781.97Z" fill="#FF8500"/>
<path d="M1118.94 844.563L1129.16 860.957L1155.23 839.457L1153.88 838.113L1129.39 854.339L1119.72 843.555L1118.94 844.563Z" fill="#FF8500"/>
<path d="M2476.4 991.705H1980.55V1275.51H2476.4V991.705Z" fill="#BBE2EF"/>
<path d="M2217.94 1023.51H2019.6V1035.34H2217.94V1023.51Z" fill="white"/>
<path d="M2136.24 1045.55H2019.6V1057.38H2136.24V1045.55Z" fill="white"/>
<path d="M2217.94 1087.48H2019.6V1099.3H2217.94V1087.48Z" fill="white"/>
<path d="M2136.24 1109.52H2019.6V1121.34H2136.24V1109.52Z" fill="white"/>
<path d="M2217.94 1151.44H2019.6V1163.27H2217.94V1151.44Z" fill="white"/>
<path d="M2136.24 1173.48H2019.6V1185.3H2136.24V1173.48Z" fill="white"/>
<path d="M2217.94 1215.4H2019.6V1227.23H2217.94V1215.4Z" fill="white"/>
<path d="M2136.24 1237.44H2019.6V1249.27H2136.24V1237.44Z" fill="white"/>
<path d="M2437.24 1139.35C2437.24 1187.88 2397.89 1227.23 2349.36 1227.23C2300.82 1227.23 2261.48 1187.88 2261.48 1139.35C2261.48 1090.81 2300.82 1051.47 2349.36 1051.47C2352.47 1051.47 2355.55 1051.63 2358.58 1051.95L2349.36 1139.35L2436.21 1125.9C2436.89 1130.29 2437.24 1134.78 2437.24 1139.35Z" fill="#FF8500"/>
<path d="M2444.01 1118.15L2357.15 1131.59L2366.38 1044.19C2406.13 1048.34 2438 1078.98 2444.01 1118.15Z" fill="#8ECC36"/>
<path d="M2256.55 417.331H1981V773.46H2256.55V417.331Z" fill="#BBE2EF"/>
<path d="M2219.27 446.491H2018.27V462.135H2219.27V446.491Z" fill="white"/>
<path d="M2219.27 477.349H2018.27V492.994H2219.27V477.349Z" fill="white"/>
<path d="M2219.27 508.207H2018.27V523.852H2219.27V508.207Z" fill="white"/>
<path d="M2154.36 539.065H2018.27V554.709H2154.36V539.065Z" fill="white"/>
<path d="M2219.27 569.922H2018.27V585.568H2219.27V569.922Z" fill="white"/>
<path d="M2219.27 600.78H2018.27V616.425H2219.27V600.78Z" fill="white"/>
<path d="M2219.27 663.508H2118.77V749.637H2219.27V663.508Z" fill="white"/>
<path d="M2110.52 663.508H2018.27V749.637H2110.52V663.508Z" fill="white"/>
<path d="M2118.77 631.639H2018.27V647.283H2118.77V631.639Z" fill="white"/>
<path d="M1919.88 532.173H1644.33V888.303H1919.88V532.173Z" fill="#BBE2EF"/>
<path d="M1882.6 661.729H1681.6V677.374H1882.6V661.729Z" fill="white"/>
<path d="M1882.6 692.587H1681.6V708.231H1882.6V692.587Z" fill="white"/>
<path d="M1882.6 577.532H1779.9V593.176H1882.6V577.532Z" fill="white"/>
<path d="M1846.87 608.389H1779.9V624.033H1846.87V608.389Z" fill="white"/>
<path d="M1882.6 779.1H1779.9V794.744H1882.6V779.1Z" fill="white"/>
<path d="M1846.87 809.957H1779.9V825.601H1846.87V809.957Z" fill="white"/>
<path d="M1770.61 765.887H1684.84V845.965H1770.61V765.887Z" fill="white"/>
<path d="M1782.1 723.445H1681.6V739.089H1782.1V723.445Z" fill="white"/>
<path d="M1709.95 615.468C1723.13 615.468 1733.82 604.78 1733.82 591.595C1733.82 578.41 1723.13 567.722 1709.95 567.722C1696.76 567.722 1686.07 578.41 1686.07 591.595C1686.07 604.78 1696.76 615.468 1709.95 615.468Z" stroke="#FF8500" stroke-width="8" stroke-miterlimit="10"/>
<path d="M1725.82 609.421L1764.15 645.466" stroke="#FF8500" stroke-width="8" stroke-miterlimit="10"/>
<path d="M1782.1 939.453H1286.25V1223.26H1782.1V939.453Z" fill="#BBE2EF"/>
<path d="M1398.53 1122.5H1367.65V1176.81H1398.53V1122.5Z" fill="#FF8500"/>
<path d="M1452.94 1090.41H1422.06V1176.81H1452.94V1090.41Z" fill="#8ECC36"/>
<path d="M1507.35 1068.19H1476.48V1176.81H1507.35V1068.19Z" fill="#FF8500"/>
<path d="M1561.77 1113.32H1530.89V1176.81H1561.77V1113.32Z" fill="#8ECC36"/>
<path d="M1616.18 1058.91H1585.3V1176.81H1616.18V1058.91Z" fill="#FF8500"/>
<path d="M1670.59 1014.86H1639.71V1176.81H1670.59V1014.86Z" fill="#8ECC36"/>
<path d="M1334.09 1095.83C1332.48 1097.78 1496.96 1005.33 1496.96 1005.33L1534.06 1058.91L1667.88 973.082" stroke="#8ECC36" stroke-width="6" stroke-miterlimit="10"/>
<path d="M1415.26 973.082H1322.8V984.906H1415.26V973.082Z" fill="#E6F5FF"/>
<path d="M1380.85 998.613H1322.8V1010.44H1380.85V998.613Z" fill="#E6F5FF"/>
<path d="M2169.58 821.728H1996.85V835.828H2169.58V821.728Z" fill="#8ECC36"/>
<path d="M2115.61 847.118H1996.85V861.219H2115.61V847.118Z" fill="#8ECC36"/>
<path d="M2138.93 872.507H1996.85V886.608H2138.93V872.507Z" fill="#8ECC36"/>
<path d="M2079.48 897.897H1996.85V911.998H2079.48V897.897Z" fill="#8ECC36"/>
<path d="M1407.65 427.863H1240.48V448.21H1407.65V427.863Z" fill="#FF8500"/>
<path d="M1407.65 464.501H1158.39V484.848H1407.65V464.501Z" fill="#FF8500"/>
<path d="M1329.84 501.139H1166.61V521.486H1329.84V501.139Z" fill="#FF8500"/>
<path d="M1277.63 537.777H1158.39V558.125H1277.63V537.777Z" fill="#FF8500"/>
<path d="M1542.67 1282.29H1332.34V1299.46H1542.67V1282.29Z" fill="#BBE2EF"/>
<path d="M1458.99 1313.21H1332.34V1330.38H1458.99V1313.21Z" fill="#BBE2EF"/>
<path d="M1542.67 1344.12H1332.34V1361.29H1542.67V1344.12Z" fill="#BBE2EF"/>
<path d="M1432.95 1375.04H1332.34V1392.21H1432.95V1375.04Z" fill="#BBE2EF"/>
<path d="M2083.22 1704.89H1212.27V1733.13H2083.22V1704.89Z" fill="#565656"/>
<path d="M1419.21 1704.89H2083.23L2320.9 1325.25H1656.88L1419.21 1704.89Z" fill="#AAAAAA"/>
<path d="M2278.54 1370.31L2087.55 1675.37H1451.84L1642.83 1370.31H2278.54Z" fill="white"/>
<path d="M2320.9 1325.25L2326.25 1340.78L2083.22 1733.13L2083.23 1704.89L2320.9 1325.25Z" fill="#565656"/>
<path d="M1001.34 1745.6C1012.51 1749.91 1007.52 1750.28 1024.85 1763.24C1042.17 1776.18 1078.4 1788.23 1094.42 1789.06C1110.45 1789.88 1122.69 1788.63 1128.64 1780.37C1134.58 1772.11 1131.35 1763.9 1122.72 1760.77C1114.09 1757.64 1104.73 1755.68 1104.73 1755.68C1104.73 1755.68 1174.8 1749.81 1214.01 1747.06C1253.22 1744.32 1282.19 1741.64 1284.87 1728.34C1287.55 1715.04 1263.89 1710.11 1244.55 1712.17C1225.22 1714.23 1195.92 1715.06 1195.92 1715.06C1195.92 1715.06 1301.08 1693.15 1303.01 1678.96C1304.95 1664.77 1288.93 1670.26 1254.64 1673.45C1220.34 1676.64 1196.11 1676.28 1196.11 1676.28C1196.11 1676.28 1291.8 1649.39 1293.87 1635.54C1295.94 1621.7 1289.48 1618.31 1249.13 1628.22C1208.78 1638.13 1188.35 1641.41 1188.35 1641.41C1188.35 1641.41 1259.76 1611.01 1259.31 1595.78C1258.87 1580.56 1250.51 1584.43 1213.99 1594.02C1177.46 1603.61 1129.9 1595.62 1066.6 1610.98C1003.31 1626.33 966.109 1646.27 966.109 1646.27L1001.34 1745.6Z" fill="#FFCC7B"/>
<path d="M1986.45 1733.28H1831.56C1831.56 1733.28 1838.56 1733.28 1858.46 1715.25C1878.38 1697.21 1918.19 1644.14 1977.91 1612.68C1977.91 1612.68 1995.09 1672.73 1996.17 1708.08C1996.62 1722.99 1994.2 1733.5 1986.45 1733.28Z" fill="#424242"/>
<path d="M2299.92 1798.29C2253.85 1841.15 2158.73 1972.57 2108.65 1900.11C2081.59 1860.94 2198.39 1802.56 2234.22 1786.35C2270.06 1770.14 2270.06 1734.3 2270.06 1734.3C2270.06 1734.3 2258.86 1735.2 2241.54 1736.36C2186.34 1740.01 2068.93 1746.13 2053.34 1733.28C2043.79 1725.39 2028.49 1712.28 2014.87 1700.53C1999.3 1687.09 1985.93 1675.43 1985.93 1675.43L1988.45 1595.4C2025.13 1525.26 2183.03 1522.59 2257.26 1566.96C2331.49 1611.33 2346 1755.43 2299.92 1798.29Z" fill="#EAEAEA"/>
<path d="M2241.54 1736.36C2218.83 1737.86 2185.57 1739.78 2153.22 1740.63C2106.95 1741.83 2062.51 1740.84 2053.34 1733.28C2045.12 1726.48 2032.62 1715.82 2020.62 1705.49C2018.68 1703.81 2016.76 1702.16 2014.87 1700.53C2016.42 1668.93 2018.04 1636.31 2018.04 1636.31L2012.07 1568.77C2061.56 1555.98 2096.5 1572.19 2104.19 1584.99C2111.9 1597.78 2121.28 1593.52 2149.44 1603.76C2177.59 1613.99 2200.63 1592.66 2214.28 1620.82C2227.93 1648.98 2191.93 1675.72 2195.85 1696.05C2199.78 1716.38 2219.4 1719.65 2230.5 1718.01C2237.56 1716.97 2242.2 1726.27 2241.54 1736.36Z" fill="#424242"/>
<path d="M1986.45 1733.28H1832.47C1841.39 1729.75 1852.23 1722.07 1871.5 1719.58C1882.57 1718.15 1946.49 1712.73 1949.62 1707.85C1955.48 1698.75 1970.2 1690.01 1989.29 1705.19C1991.14 1706.66 1993.46 1707.59 1996.17 1708.08C1996.62 1722.99 1994.2 1733.5 1986.45 1733.28ZM2172.18 1740.63C2125.91 1741.83 2062.51 1740.85 2053.34 1733.28C2045.12 1726.49 2032.62 1715.82 2020.62 1705.49C2048.05 1698.36 2082.44 1681.67 2090.85 1689.23C2103.37 1700.45 2124.15 1689.12 2126.84 1702.76C2129.53 1716.38 2132.99 1719.37 2150.01 1728.07C2154.74 1730.49 2169.72 1737.32 2172.18 1740.63Z" fill="#EAEAEA"/>
<path d="M2122.4 1667.47C2116.04 1692.46 2108.59 1708.85 2098.9 1719.51C2085.21 1734.58 2067.03 1738.23 2041.05 1738.57C1996.69 1739.14 1986.45 1733.28 1986.45 1733.28C1914.78 1669.74 1959.72 1572.47 2019.44 1567.35C2051.94 1564.57 2084.1 1576.6 2104.19 1597.86C2121.04 1615.68 2129.4 1639.98 2122.4 1667.47Z" fill="#F4F4F4"/>
<path d="M2109.88 1649.83C2188.1 1619.4 2195.83 1649.83 2195.83 1649.83C2195.83 1649.83 2199.47 1676 2112.16 1679.98C2076.85 1681.59 2109.88 1652.78 2109.88 1652.78V1649.83Z" fill="#EAA03D"/>
<path d="M2122.4 1667.47C2116.04 1692.46 2108.59 1708.85 2098.9 1719.51C2068.01 1720.76 2053.83 1703.05 2053.02 1691.21C2052.18 1678.71 2020.18 1683.11 2025.74 1668.18C2031.29 1653.24 2041.08 1649.83 2050.04 1636.31C2059 1622.78 2076.49 1633.19 2104.19 1597.86C2121.04 1615.68 2129.41 1639.98 2122.4 1667.47Z" fill="#EAA03D"/>
<path d="M2001.05 1608.59C1941.27 1549.69 1965.87 1530.17 1965.87 1530.17C1965.87 1530.17 1988.25 1516.14 2027.63 1594.17C2043.55 1625.73 2003.74 1607.38 2003.74 1607.38L2001.05 1608.59Z" fill="#F4F4F4"/>
<path d="M1982.19 1713.96C1982.19 1725.28 1992.71 1730.6 2000.39 1726.91C2008.07 1723.21 2004.94 1718.08 1994.7 1713.96C1984.46 1709.84 1982.19 1708.12 1982.19 1713.96Z" fill="#232323"/>
<path d="M2031.41 1702.1L2132.07 1707.85L2031.36 1702.95L2031.41 1702.1Z" fill="#A0A0A0"/>
<path d="M2029.53 1707.45L2122.97 1738.61L2029.26 1708.26L2029.53 1707.45Z" fill="#A0A0A0"/>
<path d="M2025.96 1711.43L2104.2 1758.9L2025.51 1712.16L2025.96 1711.43Z" fill="#A0A0A0"/>
<path d="M1980.83 1689.62L1887.18 1652.27L1981.15 1688.83L1980.83 1689.62Z" fill="#A0A0A0"/>
<path d="M1984.31 1685.15L1905.56 1625.99L1984.82 1684.46L1984.31 1685.15Z" fill="#A0A0A0"/>
<path d="M1988.96 1682.5L1929.8 1612.69L1989.61 1681.94L1988.96 1682.5Z" fill="#A0A0A0"/>
<path d="M2104.2 1538.61C2105.5 1560.67 2126.83 1576.94 2134.93 1570.94C2143.04 1564.93 2149.1 1554.32 2156.09 1564.1C2163.09 1573.89 2163.94 1579.21 2178.02 1566.95C2192.1 1554.69 2216.33 1549.44 2216.33 1549.44C2216.33 1549.44 2162.76 1530.91 2104.2 1538.61ZM2223.24 1662.63C2209.48 1672.29 2206.18 1672 2213.43 1684.81C2220.68 1697.61 2238.64 1701.88 2241.61 1686.95C2244.57 1672.02 2232.36 1656.23 2223.24 1662.63Z" fill="#EAA03D"/>
<path d="M1563.21 1660.71C1572.03 1652.62 1567.25 1654.09 1578.65 1635.71C1590.04 1617.33 1619.37 1592.88 1633.98 1586.26C1648.6 1579.64 1660.46 1576.33 1669 1581.85C1677.55 1587.36 1677.55 1596.19 1670.66 1602.25C1663.76 1608.32 1655.77 1613.56 1655.77 1613.56C1655.77 1613.56 1723.14 1593.43 1760.65 1581.66C1798.15 1569.9 1826.09 1561.81 1833.45 1573.21C1840.8 1584.6 1820.58 1597.84 1801.82 1602.98C1783.07 1608.13 1755.5 1618.06 1755.5 1618.06C1755.5 1618.06 1861.39 1600.04 1868.37 1612.55C1875.36 1625.04 1858.44 1625.78 1825.36 1635.34C1792.26 1644.9 1769.84 1654.09 1769.84 1654.09C1769.84 1654.09 1868.74 1644.17 1875.73 1656.3C1882.71 1668.43 1877.93 1673.95 1836.75 1679.46C1795.57 1684.98 1775.35 1689.39 1775.35 1689.39C1775.35 1689.39 1852.93 1691.6 1858.08 1705.94C1863.22 1720.27 1854.03 1719.72 1816.53 1724.13C1779.03 1728.55 1737.66 1753.36 1673.14 1762.19C1608.61 1771.01 1566.7 1766.05 1566.7 1766.05L1563.21 1660.71Z" fill="#FFCC7B"/>
<path d="M538.448 929.752C407.976 1008.82 439.493 1132.36 454.619 1346.35C469.744 1560.33 471.951 1789.27 471.951 1789.27H595.49L714.616 1456.65L538.448 929.752Z" fill="#B6D2FC"/>
<path d="M661.67 720.938C653.261 776.603 646.228 845.579 615.343 866.536C615.343 866.536 612.033 904.04 739.984 915.069C867.935 926.1 937.425 940.439 937.425 940.439C937.425 940.439 846.242 907.348 848.448 847.785C850.654 788.222 845.507 770.376 888.157 774.519C930.805 778.664 946.985 774.519 946.985 774.519C946.985 774.519 918.778 581.524 844.328 568.288C769.879 555.053 676.532 622.561 661.67 720.938Z" fill="#FFCC7B"/>
<path d="M842.015 651.447C854.7 695.017 892.57 738.218 917.203 758.44C941.838 778.664 956.911 780.133 964.634 761.014C972.355 741.895 990.371 685.642 991.474 671.301C992.577 656.962 992.577 656.962 992.577 656.962C992.577 656.962 1009.4 642.072 1003.06 631.592C996.714 621.114 974.377 608.98 972.448 587.747C970.517 566.515 1033.76 460.257 956.546 430.108C879.335 399.959 766.827 426.431 751.384 440.402C735.942 454.374 716.088 531.584 724.912 555.117C733.736 578.647 763.884 644.094 763.884 644.094L842.015 651.447Z" fill="#FFC166"/>
<path d="M585.563 292.965C662.565 228.089 774.179 216.857 849.184 248.844C924.189 280.832 989.267 341.497 994.783 438.563C1000.3 535.629 945.699 573.683 926.396 572.028C907.093 570.373 894.408 566.513 892.753 600.155C891.099 633.798 869.59 647.033 871.796 591.883C874.002 536.732 877.311 499.23 844.772 512.466C812.233 525.702 809.476 557.689 813.888 599.053C818.3 640.416 842.015 651.446 842.015 651.446C842.015 651.446 795.504 719.833 700.644 741.894C605.784 763.955 676.01 688.95 616.447 655.858C556.884 622.769 445.479 410.989 585.563 292.965Z" fill="#1F1F1F"/>
<path d="M615.344 866.535C478.57 962.499 423.418 1061.57 471.951 1230.43C520.484 1399.29 562.399 1536.07 571.223 1630.93C580.047 1725.79 546.957 1789.27 546.957 1789.27H1056.55C1056.55 1789.27 1031.28 1622.17 1047.83 1509.67C1064.37 1397.17 1069.33 1372.35 1069.33 1372.35L1108.66 1056.5C1108.66 1056.5 1062.07 1003.31 937.427 940.438C812.785 877.567 615.344 866.535 615.344 866.535Z" fill="#9CBDEF"/>
<path d="M981.546 1101.48C1048.3 1017.73 1122.73 1017.65 1186.71 1165.45C1250.68 1313.26 1404 1606.66 1404 1606.66C1404 1606.66 1516.51 1623.21 1547.4 1640.86C1578.28 1658.5 1599.24 1689.39 1602.55 1719.17C1605.86 1748.95 1602.55 1789.27 1602.55 1789.27H1271.18C1271.18 1789.27 1120.62 1584.12 1037.9 1377.31C955.177 1170.51 955.543 1134.11 981.546 1101.48Z" fill="#B6D2FC"/>
<path d="M162 1004.52C526.483 1051.69 945.21 1124.05 980.845 1308.41C1017.61 1498.61 1056.55 1767.82 1056.55 1767.82C1056.55 1767.82 1492.35 1767.82 1563.21 1767.82C1634.06 1767.82 1647.37 1769.6 1649.79 1810.72C1652.2 1851.85 1649.79 1922.06 1649.79 1922.06H280C280 1922.06 345.069 1726.95 325.715 1429.37C306.359 1131.78 162 1004.52 162 1004.52Z" fill="#8E8E8E"/>
<path d="M162 1004.52C204.333 1040.73 217.333 1049.73 468 1090.41C768.318 1139.14 924.667 1211.45 950.667 1336.4C976.667 1461.34 1029 1922.06 1029 1922.06H280C280 1922.06 349.717 1779 277.71 1445.96C205.703 1112.93 162 1004.52 162 1004.52Z" fill="#775757"/>
<path d="M1002.61 1818.1C1002.61 1818.1 1535.08 1818.1 1574.08 1818.1C1613.08 1818.1 1604.02 1817.07 1604.02 1855.07C1604.02 1893.07 1604.02 1922.07 1604.02 1922.07H977.11L1002.61 1818.1Z" fill="#775757"/>
</svg>
