<svg width="1920" height="1080" viewBox="0 0 1920 1080" fill="none" xmlns="http://www.w3.org/2000/svg">
<path opacity="0.1" d="M508.3 1035.5C807.4 1068.5 927.9 1040 1124.8 1055.5C1782.1 1107.3 2041.5 608.3 1539.5 530.9C1059.6 456.9 1150.7 308.7 1236.9 257.2C1323.1 205.7 1158.5 0.800442 751.5 10.0004C644.6 12.4004 256.4 11.6004 177.8 200.3C-63.3 779.7 209.2 1002.4 508.3 1035.5ZM620.5 1066.3C620.5 1073 529.6 1079.1 417.4 1079.9C305.2 1080.7 214.2 1075.8 214.2 1069.1C214.2 1062.4 305.1 1056.3 417.3 1055.5C529.5 1054.8 620.5 1059.6 620.5 1066.3Z" fill="white"/>
<path opacity="0.1" d="M1634 1066.3C1634 1073 1543.1 1079.1 1430.9 1079.9C1318.7 1080.7 1227.7 1075.8 1227.7 1069.1C1227.7 1062.4 1318.6 1056.3 1430.8 1055.5C1542.9 1054.8 1633.9 1059.6 1634 1066.3Z" fill="#34C3EA"/>
<path d="M676.5 151.3C675.5 139.5 659 126.3 659.6 144C659.6 144.7 659 145.8 658.4 148.7C657.8 151.1 656.9 153.7 656.4 156.2C655.9 158.4 652.4 168.8 647 169.5C638.8 170.5 645.1 156.9 639.7 153.3C638 152.2 635.1 162.9 634.5 169C633.8 175.1 633.5 178.2 633.8 181.9C634 185.6 635.5 190.9 635.1 193.1C634.3 196.6 629.6 203.5 629.6 203.5L649.6 209.9C649.6 209.9 655.4 199.1 658.1 196.7C664.8 191.1 669.3 184.3 672.4 175.9C674.3 170.7 675.3 165.1 676.2 159.6C676 159.7 676.5 152.2 676.5 151.3Z" fill="#FCD2B1"/>
<path d="M469.8 304.9C469.8 304.9 534.5 310 573.1 273.7C604.6 236.9 635.4 195.9 637.8 192C643.1 194.6 654.5 201 654.5 201C654.5 201 610.2 280.5 594.2 298.2C578 316 547 344.5 485.7 354.6C459.9 319.1 469.8 304.9 469.8 304.9Z" fill="#FCD2B1"/>
<path d="M440.8 301C457.5 297.6 498.3 305.2 529.4 294.6C544.3 315.7 551.3 352.3 551.3 352.3C551.3 352.3 508.7 374.4 479.1 374.3C401.8 377 424.2 304.4 440.8 301Z" fill="#FFBE55"/>
<path d="M360.797 152.337L361.349 151.272L848.671 403.875L848.119 404.941L360.797 152.337Z" fill="#0B4870"/>
<path d="M879.2 412.9L845.3 410.4C845.3 410 840 371 813.9 321.8C789.9 276.6 742.8 213.1 654.7 167.7C566.3 122.1 489.9 122.1 441.5 130.2C389.4 138.9 358.1 158.1 357.8 158.3L334.8 132.9C336.2 132 380.9 116.4 437.6 107C489.6 98.4004 571.3 98.3004 665.5 146.8C759.5 195.3 809.7 263.3 835.3 311.8C863 364.6 878.9 411.2 879.2 412.9Z" fill="#FFBE55"/>
<path d="M496.3 1024.7C496.3 1024.7 500 1033.2 499.8 1038.9C499.6 1044.6 481.5 1045.8 479.2 1042.9C477 1040 474.8 1013.9 474.8 1013.9" fill="#FCD2B1"/>
<path d="M474.7 1048.2C474.9 1054.1 477 1063.8 477 1063.8L497.9 1062.9L498.8 1059.4C498.8 1059.4 505.7 1062.6 511.1 1062.4L528.8 1061.7C541.7 1061.2 549 1059.2 549.2 1056.9C550.2 1047.3 534.7 1048.4 530.7 1048.6C519.1 1049.1 506.4 1044.2 503.5 1038.4C501.3 1034.2 502.2 1033.1 499.8 1034C499.8 1034 497.7 1034.6 496.3 1037.2C494.3 1041.3 490.2 1044.2 485.6 1043.6C483 1043.3 480.3 1042.4 478.4 1040.5C478.5 1040.5 474.5 1042.2 474.7 1048.2Z" fill="#0B4870"/>
<path d="M291.9 1013.3C291.9 1013.3 288.7 1028.8 286.4 1034C284.1 1039.2 266.8 1033.6 265.8 1030.1C264.8 1026.6 272.5 1001.5 272.5 1001.5" fill="#FCD2B1"/>
<path d="M259.6 1033.3C257.6 1038.9 254.8 1049.7 254.8 1049.7L271.1 1058.5L274.1 1056C274.1 1056 277.8 1061.5 282.8 1064.4C286.5 1066.5 294.6 1069.5 298.8 1070.3C313.4 1073 324.6 1071 325.6 1068.9C330 1060.4 310.7 1056.6 306.9 1055.3C296 1051.5 290.7 1041.3 290 1034.8C289.5 1030.1 290.7 1029.4 288.2 1029.4C288.2 1029.4 286 1029.1 283.8 1031.1C280.4 1034.2 275.5 1035.4 271.5 1033.1C269.2 1031.8 267.1 1030 266 1027.5C265.9 1027.6 261.6 1027.7 259.6 1033.3Z" fill="#0B4870"/>
<path d="M348.7 602.1C348.7 602.1 317.5 535.2 365 483.7C365 483.7 408.1 500.9 442.1 501.8C468.9 502.5 482.3 499.2 482.3 499.2C482.3 499.2 490.3 548.5 490.3 626.4L348.7 602.1Z" fill="#494949"/>
<path d="M503.1 1024.1C498.9 946.2 503.1 818.4 503.3 778.1C503.3 775.3 503.1 772.7 502.7 770.4C502.8 767 502.6 763.3 502.1 759.4C499.1 734.7 488 597.7 486.3 584.5C484.7 571.3 481.5 552.1 474.4 549.9C471 548.9 467.6 548.4 464.1 548.3C462.5 500.2 398.6 537.7 367.5 556.5C354 564.7 349.6 580.1 348.3 594.6C347.3 605.7 340.2 696.1 335.9 749.5C335.1 756.9 331.6 778.4 316.7 805.1C313.2 810.5 310.1 816.3 307.4 822.4C282.5 880.4 276.4 962.3 265.3 1010.2C283.3 1016.9 294.5 1018.3 294.5 1018.3L296.2 1013.5C320.7 939.4 367.2 835 382.1 797.5C383.4 794.3 384.2 791.4 384.8 788.6C390.5 768.7 404.4 730.9 419 691C429.6 730.4 442.6 775.3 450 794.6V794.7C448.1 803.9 447 813.8 446.5 824.3C443.3 891.8 465.8 982.1 473.1 1032.1H475.6C493.3 1031.6 503.2 1029.1 503.2 1029.1L503.1 1024.1Z" fill="#0E538C"/>
<path d="M450 264.8C449.5 268.9 450.3 285.1 441.7 289C433.1 292.9 427.6 294.6 427.8 295.9C427.9 296.5 428.7 299.4 429.7 302.1C431.7 308.4 434.7 309.9 434.7 309.9L435.9 330.6L420.4 346L415.4 351L407.8 344.1L383 321.7C383 321.7 393.2 309.1 386.2 295.7C385.2 293.8 373.9 281.3 364.9 268.7C359.7 261.3 355.2 253.9 354 248.7C350.8 234.3 348.1 219.2 356.3 210.1C364.5 201.1 436.9 163.8 448.2 207.4C448.3 207.4 453.9 231 450 264.8Z" fill="#FFE3CA"/>
<path d="M385.1 247.4C385.1 247.4 397.6 254.7 399.6 236.3C399.7 235.3 400.6 234.5 401.7 234.4C405.8 234 415.3 231 414.2 212.7C414.1 211.2 415.4 209.9 417.1 210C422.9 210.3 434.9 211 437.5 211.7C437.5 211.7 439.4 212 441.3 212.7C441.9 212.9 442.2 213.5 442.6 213.9C444.4 216.1 448.1 218.9 448.4 219.8C448.8 221.1 451.4 230.8 451.4 230.8C451.4 230.8 453.1 229.3 453.1 226C453 222.7 449.9 215.6 450.6 214C451.2 212.4 456.4 211.3 457.1 207.5C458.8 199 461.5 165.8 431.9 181C428 183 424.4 185.6 421.2 186.1C417 186.8 413.1 183.2 404.5 182.2C392.5 180.8 339.1 183.2 347 231.7C354.9 280.2 386.2 295.4 386.2 295.4C386.2 295.4 378.9 252.2 385.1 247.4Z" fill="#0B4870"/>
<path d="M383 247.8C383 247.8 380.4 239.9 373.8 242.1C364.9 245.2 365.7 267.6 385.1 264.6" fill="#FFE3CA"/>
<path d="M496.3 634.4C496.3 634.4 415.4 643.7 327 627.3C331.3 600 341.4 501.5 342.5 470.3L342.6 467.1C343.3 447.2 343.7 433 344.1 432.4C345 431.2 341.8 367.7 347.1 342.9C348.1 338.3 349.3 335.1 350.9 333.8C361.2 325.2 373.4 316.2 387 309.5C387 309.5 416.5 343 432.6 305.4C450.3 303.8 469.9 319.5 475.1 337.2C503.5 435.9 496.3 634.4 496.3 634.4Z" fill="#FFBE55"/>
<path d="M331.6 432.3C331.6 432.3 345.2 479.2 380.6 501.3C390.9 507.7 403.8 504.1 411.9 495.1C436.1 468 460.3 407 468.1 383.9C453.9 376.4 449.4 377.5 449.4 377.5C449.4 377.5 415 425.2 395.3 457.1L380.6 431.4" fill="#FCD2B1"/>
<path d="M448.3 379.3C448.3 379.3 454.6 369.1 454.9 361.4C455.2 353.7 451.5 340.3 459 333.3C461.8 330.7 479.7 308.2 490.7 310C507.1 312.7 502.2 327.8 501.3 331.2C500.4 334.7 490.2 344.2 487.3 350.1C484.3 356 486 359.7 485.2 366.1C484.1 375.8 470.6 379.9 467.6 384.7C465.7 388.3 448.3 379.3 448.3 379.3Z" fill="#FCD2B1"/>
<path d="M374.4 399.7C385.2 416.6 390.1 429.3 395.7 443.6C376.8 473.1 340.7 469.1 340.7 469.1C340.7 469.1 319.9 423.2 321.1 391.8C322.7 351.1 359.1 327.3 359.1 327.3" fill="#FFBE55"/>
<path d="M1501.8 1066.6H1520.5L1420.4 293.9H1401.7L1501.8 1066.6ZM1429.9 293.9H1411.2Z" fill="#0B4870"/>
<path d="M1405.6 293.9H1424.3L1324.2 1066.6H1305.4L1405.6 293.9Z" fill="#0B4870"/>
<path d="M1422.4 632.1C1476.63 632.1 1520.6 538.124 1520.6 422.2C1520.6 306.275 1476.63 212.3 1422.4 212.3C1368.17 212.3 1324.2 306.275 1324.2 422.2C1324.2 538.124 1368.17 632.1 1422.4 632.1Z" fill="#0B4870"/>
<path d="M1402.7 637.1C1374.4 637.1 1348.2 614.3 1328.8 572.8C1309.9 532.5 1299.6 479.1 1299.6 422.3C1299.6 365.5 1310 312.1 1328.8 271.8C1348.2 230.3 1374.5 207.5 1402.7 207.5C1430.9 207.5 1457.2 230.3 1476.6 271.8C1495.5 312.1 1505.8 365.5 1505.8 422.3C1505.8 479.1 1495.4 532.5 1476.6 572.8C1457.2 614.2 1430.9 637.1 1402.7 637.1Z" fill="#0B4870"/>
<path d="M1402.7 632.1C1456.93 632.1 1500.9 538.124 1500.9 422.2C1500.9 306.275 1456.93 212.3 1402.7 212.3C1348.47 212.3 1304.5 306.275 1304.5 422.2C1304.5 538.124 1348.47 632.1 1402.7 632.1Z" fill="#F7F7F7"/>
<path d="M1401.7 578.6C1442.13 578.6 1474.9 508.577 1474.9 422.2C1474.9 335.822 1442.13 265.8 1401.7 265.8C1361.27 265.8 1328.5 335.822 1328.5 422.2C1328.5 508.577 1361.27 578.6 1401.7 578.6Z" fill="#C14242"/>
<path d="M1400.7 518.3C1425.55 518.3 1445.7 475.274 1445.7 422.2C1445.7 369.125 1425.55 326.1 1400.7 326.1C1375.85 326.1 1355.7 369.125 1355.7 422.2C1355.7 475.274 1375.85 518.3 1400.7 518.3Z" fill="#F7F7F7"/>
<path d="M1400.2 469.2C1412.35 469.2 1422.2 448.158 1422.2 422.2C1422.2 396.243 1412.35 375.2 1400.2 375.2C1388.05 375.2 1378.2 396.243 1378.2 422.2C1378.2 448.158 1388.05 469.2 1400.2 469.2Z" fill="#C14242"/>
<path d="M1398.2 435.5C1401.62 435.5 1404.4 429.546 1404.4 422.2C1404.4 414.855 1401.62 408.9 1398.2 408.9C1394.78 408.9 1392 414.855 1392 422.2C1392 429.546 1394.78 435.5 1398.2 435.5Z" fill="#F7F7F7"/>
<path d="M1140.1 417.9H1377.8V426.7H1140.1V417.9Z" fill="#FFBE55"/>
<path d="M1377.8 436.7L1353.2 422.2L1377.8 407.8L1402.4 422.2L1377.8 436.7ZM1158.6 422.2H1109.6L1091.1 403.6H1140.1L1158.6 422.2ZM1158.6 422.2H1109.6L1091.1 440.9H1140.1L1158.6 422.2Z" fill="#FFBE55"/>
</svg>
