<svg width="17" height="18" viewBox="0 0 17 18" fill="none" xmlns="http://www.w3.org/2000/svg">
<rect x="0.145996" y="0.311401" width="16.8343" height="16.8343" rx="8.41716" fill="white"/>
<g clip-path="url(#clip0_59_67)">
<path d="M6.45924 12.2356C6.26635 12.2356 6.10128 12.167 5.96403 12.0297C5.82655 11.8923 5.75781 11.7271 5.75781 11.5342V5.92274C5.75781 5.72985 5.82655 5.56466 5.96403 5.42718C6.10128 5.28994 6.26635 5.22131 6.45924 5.22131H8.97562C9.06915 5.22131 9.15834 5.23885 9.24322 5.27392C9.32786 5.30899 9.40232 5.35868 9.46662 5.42297L11.1676 7.12394C11.2319 7.18824 11.2816 7.26271 11.3166 7.34735C11.3517 7.43222 11.3692 7.52142 11.3692 7.61494V8.41282L8.56353 11.2098V12.2356H6.45924ZM9.44032 12.2356C9.39356 12.2356 9.35264 12.2181 9.31757 12.183C9.2825 12.1479 9.26496 12.107 9.26496 12.0603V11.6394C9.26496 11.5926 9.27525 11.5459 9.29582 11.4991C9.31617 11.4523 9.34095 11.4144 9.37018 11.3851L11.0711 9.67539L11.8252 10.4119L10.1154 12.1304C10.0862 12.1655 10.0482 12.1918 10.0015 12.2093C9.9547 12.2268 9.90794 12.2356 9.86118 12.2356H9.44032ZM12.0794 10.1664L11.3342 9.42112L11.5797 9.17562C11.6498 9.10548 11.7346 9.07041 11.8339 9.07041C11.9333 9.07041 12.0151 9.10548 12.0794 9.17562L12.3249 9.42989C12.3892 9.50003 12.4214 9.58327 12.4214 9.6796C12.4214 9.77616 12.3892 9.85659 12.3249 9.92089L12.0794 10.1664ZM9.26496 7.67632H10.6678L8.91425 5.92274V7.3256C8.91425 7.42497 8.94791 7.50821 9.01525 7.57531C9.08236 7.64265 9.16559 7.67632 9.26496 7.67632Z" fill="#FEB95A"/>
</g>
<defs>
<clipPath id="clip0_59_67">
<rect width="8.41716" height="8.41716" fill="white" transform="translate(4.35498 4.5199)"/>
</clipPath>
</defs>
</svg>
