<svg width="41" height="40" viewBox="0 0 41 40" fill="none" xmlns="http://www.w3.org/2000/svg">
<path d="M18.7953 29.8854H22.7511V21.9737H30.6627V18.0179H22.7511V10.1063H18.7953V18.0179H10.8837V21.9737H18.7953V29.8854ZM20.7732 39.7749C18.0371 39.7749 15.4658 39.2554 13.0594 38.2163C10.6529 37.1786 8.55963 35.7696 6.77951 33.9895C4.9994 32.2094 3.59047 30.1161 2.55273 27.7097C1.51367 25.3032 0.994141 22.7319 0.994141 19.9958C0.994141 17.2597 1.51367 14.6885 2.55273 12.282C3.59047 9.87556 4.9994 7.78228 6.77951 6.00217C8.55963 4.22205 10.6529 2.81247 13.0594 1.77341C15.4658 0.735667 18.0371 0.216797 20.7732 0.216797C23.5093 0.216797 26.0806 0.735667 28.487 1.77341C30.8935 2.81247 32.9867 4.22205 34.7669 6.00217C36.547 7.78228 37.9559 9.87556 38.9936 12.282C40.0327 14.6885 40.5522 17.2597 40.5522 19.9958C40.5522 22.7319 40.0327 25.3032 38.9936 27.7097C37.9559 30.1161 36.547 32.2094 34.7669 33.9895C32.9867 35.7696 30.8935 37.1786 28.487 38.2163C26.0806 39.2554 23.5093 39.7749 20.7732 39.7749Z" fill="black"/>
</svg>
