<svg width="17" height="18" viewBox="0 0 17 18" fill="none" xmlns="http://www.w3.org/2000/svg">
<rect x="0.145996" y="0.311523" width="16.8343" height="16.8343" rx="8.41716" fill="black"/>
<g clip-path="url(#clip0_59_158)">
<path d="M6.45924 12.2357C6.26635 12.2357 6.10128 12.1671 5.96403 12.0299C5.82655 11.8924 5.75781 11.7272 5.75781 11.5343V5.92287C5.75781 5.72997 5.82655 5.56479 5.96403 5.42731C6.10128 5.29006 6.26635 5.22144 6.45924 5.22144H8.97562C9.06915 5.22144 9.15834 5.23897 9.24322 5.27404C9.32786 5.30911 9.40232 5.3588 9.46662 5.4231L11.1676 7.12406C11.2319 7.18836 11.2816 7.26283 11.3166 7.34747C11.3517 7.43234 11.3692 7.52154 11.3692 7.61506V8.41294L8.56353 11.2099V12.2357H6.45924ZM9.44032 12.2357C9.39356 12.2357 9.35264 12.2182 9.31757 12.1831C9.2825 12.1481 9.26496 12.1071 9.26496 12.0604V11.6395C9.26496 11.5928 9.27525 11.546 9.29582 11.4992C9.31617 11.4525 9.34095 11.4145 9.37018 11.3852L11.0711 9.67551L11.8252 10.412L10.1154 12.1305C10.0862 12.1656 10.0482 12.1919 10.0015 12.2094C9.9547 12.227 9.90794 12.2357 9.86118 12.2357H9.44032ZM12.0794 10.1665L11.3342 9.42125L11.5797 9.17575C11.6498 9.1056 11.7346 9.07053 11.8339 9.07053C11.9333 9.07053 12.0151 9.1056 12.0794 9.17575L12.3249 9.43001C12.3892 9.50016 12.4214 9.58339 12.4214 9.67972C12.4214 9.77629 12.3892 9.85672 12.3249 9.92101L12.0794 10.1665ZM9.26496 7.67644H10.6678L8.91425 5.92287V7.32572C8.91425 7.42509 8.94791 7.50833 9.01525 7.57543C9.08236 7.64277 9.16559 7.67644 9.26496 7.67644Z" fill="#FEB95A"/>
</g>
<defs>
<clipPath id="clip0_59_158">
<rect width="8.41716" height="8.41716" fill="white" transform="translate(4.35498 4.52002)"/>
</clipPath>
</defs>
</svg>
