<svg width="135" height="27" viewBox="0 0 135 27" fill="none" xmlns="http://www.w3.org/2000/svg">
<path d="M66.0293 1.05709L66.0568 1.82214L66.0293 1.05709ZM134.329 23.1147C134.743 23.0289 135.009 22.6238 134.924 22.2098L133.526 15.463C133.44 15.049 133.035 14.7829 132.621 14.8687C132.207 14.9544 131.941 15.3596 132.027 15.7736L133.269 21.7706L127.272 23.0128C126.858 23.0985 126.592 23.5037 126.678 23.9177C126.763 24.3317 127.168 24.5978 127.582 24.512L134.329 23.1147ZM3.04945 25.1156C3.36685 24.8363 3.39772 24.3526 3.1184 24.0352C2.83908 23.7178 2.35535 23.6869 2.03795 23.9662L3.04945 25.1156ZM8.40577 19.2099C8.05137 19.4405 7.95097 19.9147 8.18153 20.2691C8.41209 20.6235 8.88629 20.7239 9.2407 20.4934L8.40577 19.2099ZM12.5499 18.4549C12.9149 18.2415 13.0378 17.7726 12.8243 17.4076C12.6109 17.0427 12.142 16.9198 11.7771 17.1332L12.5499 18.4549ZM18.7508 13.4091C18.371 13.595 18.214 14.0536 18.3999 14.4333C18.5859 14.813 19.0444 14.9701 19.4241 14.7841L18.7508 13.4091ZM22.95 13.1252C23.3352 12.951 23.5063 12.4975 23.3322 12.1123C23.158 11.727 22.7045 11.5559 22.3192 11.7301L22.95 13.1252ZM29.597 8.68472C29.2027 8.83717 29.0066 9.28044 29.159 9.6748C29.3115 10.0692 29.7547 10.2653 30.1491 10.1128L29.597 8.68472ZM33.8064 8.75471C34.2046 8.61279 34.4125 8.17489 34.2705 7.77662C34.1286 7.37835 33.6907 7.17053 33.2925 7.31245L33.8064 8.75471ZM40.7893 4.86453C40.384 4.98483 40.1529 5.41093 40.2732 5.81626C40.3935 6.22158 40.8196 6.45263 41.2249 6.33233L40.7893 4.86453ZM44.9811 5.27482C45.3897 5.16609 45.6328 4.74673 45.524 4.33815C45.4153 3.92957 44.9959 3.6865 44.5874 3.79523L44.9811 5.27482ZM52.2737 2.0017C51.8591 2.08425 51.5898 2.48731 51.6724 2.90197C51.7549 3.31664 52.158 3.58587 52.5727 3.50333L52.2737 2.0017ZM56.4069 2.8125C56.8243 2.74546 57.1084 2.3527 57.0413 1.93525C56.9743 1.5178 56.5815 1.23374 56.1641 1.30078L56.4069 2.8125ZM64.022 0.393007C63.6001 0.420666 63.2805 0.785099 63.3082 1.20699C63.3358 1.62889 63.7003 1.94848 64.1222 1.92082L64.022 0.393007ZM68.0289 1.79135C68.4517 1.79296 68.7958 1.45151 68.7974 1.02872C68.799 0.605922 68.4575 0.261877 68.0347 0.260272L68.0289 1.79135ZM76.1158 0.805731C75.6961 0.754183 75.3141 1.05258 75.2626 1.47223C75.211 1.89187 75.5094 2.27385 75.9291 2.3254L76.1158 0.805731ZM79.8665 2.89854C80.2835 2.96822 80.678 2.68664 80.7477 2.26963C80.8174 1.85261 80.5358 1.45806 80.1188 1.38839L79.8665 2.89854ZM88.0247 3.0016C87.6134 2.90367 87.2006 3.15771 87.1027 3.56902C87.0048 3.98032 87.2588 4.39313 87.6701 4.49105L88.0247 3.0016ZM91.538 5.47027C91.9464 5.57963 92.3661 5.33721 92.4755 4.9288C92.5848 4.52039 92.3424 4.10065 91.934 3.99129L91.538 5.47027ZM99.6604 6.26681C99.2578 6.13791 98.8268 6.35984 98.6979 6.76251C98.569 7.16518 98.791 7.59611 99.1936 7.725L99.6604 6.26681ZM102.984 8.98398C103.384 9.12152 103.819 8.90893 103.957 8.50913C104.095 8.10933 103.882 7.67373 103.482 7.53618L102.984 8.98398ZM111.038 10.3102C110.644 10.1565 110.2 10.3512 110.046 10.745C109.893 11.1389 110.087 11.5828 110.481 11.7365L111.038 10.3102ZM114.19 13.227C114.581 13.3886 115.029 13.2029 115.191 12.8122C115.352 12.4215 115.166 11.9738 114.776 11.8122L114.19 13.227ZM122.143 15.0443C121.76 14.8659 121.305 15.0319 121.126 15.4152C120.948 15.7985 121.114 16.2539 121.497 16.4323L122.143 15.0443ZM125.091 18.1616C125.47 18.35 125.929 18.1959 126.118 17.8174C126.306 17.4389 126.152 16.9793 125.773 16.7909L125.091 18.1616ZM132.885 20.6514C132.523 20.4328 132.053 20.549 131.834 20.9109C131.616 21.2728 131.732 21.7434 132.094 21.962L132.885 20.6514ZM1.65014 26.4163C2.08756 25.985 2.55446 25.5512 3.04945 25.1156L2.03795 23.9662C1.52308 24.4193 1.03487 24.8728 0.575221 25.326L1.65014 26.4163ZM9.2407 20.4934C10.2923 19.8093 11.3974 19.1288 12.5499 18.4549L11.7771 17.1332C10.6052 17.8184 9.47924 18.5116 8.40577 19.2099L9.2407 20.4934ZM19.4241 14.7841C20.5738 14.2212 21.7505 13.6676 22.95 13.1252L22.3192 11.7301C21.1059 12.2787 19.9149 12.839 18.7508 13.4091L19.4241 14.7841ZM30.1491 10.1128C31.3567 9.64599 32.5771 9.19274 33.8064 8.75471L33.2925 7.31245C32.0504 7.75502 30.8173 8.21299 29.597 8.68472L30.1491 10.1128ZM41.2249 6.33233C42.4769 5.96074 43.7302 5.6077 44.9811 5.27482L44.5874 3.79523C43.3221 4.13192 42.0549 4.48891 40.7893 4.86453L41.2249 6.33233ZM52.5727 3.50333C53.8638 3.24632 55.1433 3.01543 56.4069 2.8125L56.1641 1.30078C54.8808 1.50687 53.5826 1.74117 52.2737 2.0017L52.5727 3.50333ZM64.1222 1.92082C64.7752 1.878 65.4204 1.84501 66.0568 1.82214L66.0018 0.292041C65.3497 0.315473 64.6895 0.349248 64.022 0.393007L64.1222 1.92082ZM66.0568 1.82214C66.7033 1.79891 67.361 1.78881 68.0289 1.79135L68.0347 0.260272C67.3476 0.257664 66.6696 0.268042 66.0018 0.292041L66.0568 1.82214ZM75.9291 2.3254C77.2226 2.48429 78.5367 2.67636 79.8665 2.89854L80.1188 1.38839C78.7689 1.16283 77.4328 0.967516 76.1158 0.805731L75.9291 2.3254ZM87.6701 4.49105C88.9558 4.79716 90.2465 5.12443 91.538 5.47027L91.934 3.99129C90.6295 3.64196 89.325 3.31117 88.0247 3.0016L87.6701 4.49105ZM99.1936 7.725C100.466 8.13229 101.731 8.5528 102.984 8.98398L103.482 7.53618C102.219 7.10154 100.944 6.67755 99.6604 6.26681L99.1936 7.725ZM110.481 11.7365C111.742 12.2284 112.98 12.7262 114.19 13.227L114.776 11.8122C113.556 11.3075 112.308 10.8058 111.038 10.3102L110.481 11.7365ZM121.497 16.4323C122.749 17.0155 123.95 17.5936 125.091 18.1616L125.773 16.7909C124.62 16.2167 123.407 15.6329 122.143 15.0443L121.497 16.4323ZM132.094 21.962C132.691 22.3227 133.245 22.671 133.754 23.0049L134.594 21.7252C134.068 21.3794 133.497 21.0208 132.885 20.6514L132.094 21.962Z" fill="white"/>
</svg>
