<svg width="133" height="41" viewBox="0 0 133 41" fill="none" xmlns="http://www.w3.org/2000/svg">
<path d="M70.1343 37.7978L69.9808 37.0478L70.1343 37.7978ZM131.315 0.269921C131.737 0.255718 132.092 0.586757 132.106 1.00932L132.337 7.89533C132.351 8.31789 132.02 8.67196 131.598 8.68616C131.175 8.70036 130.821 8.36932 130.807 7.94676L130.601 1.82586L124.48 2.0316C124.058 2.0458 123.704 1.71476 123.69 1.2922C123.675 0.869641 124.006 0.515574 124.429 0.501371L131.315 0.269921ZM3.25919 29.2543C3.63346 29.4509 3.77743 29.9138 3.58075 30.2881C3.38407 30.6623 2.92123 30.8063 2.54696 30.6096L3.25919 29.2543ZM9.85609 33.7318C9.45734 33.5912 9.24805 33.154 9.38863 32.7553C9.5292 32.3565 9.9664 32.1472 10.3652 32.2878L9.85609 33.7318ZM14.0615 33.4892C14.4664 33.6106 14.6963 34.0374 14.5749 34.4424C14.4535 34.8473 14.0267 35.0772 13.6218 34.9558L14.0615 33.4892ZM21.2765 36.9321C20.8637 36.8409 20.603 36.4323 20.6943 36.0194C20.7855 35.6066 21.1942 35.3459 21.607 35.4371L21.2765 36.9321ZM25.4244 36.2187C25.8399 36.2972 26.113 36.6976 26.0345 37.1131C25.956 37.5285 25.5556 37.8016 25.1401 37.7231L25.4244 36.2187ZM32.9306 38.9681C32.5114 38.9129 32.2164 38.5283 32.2716 38.1091C32.3269 37.69 32.7115 37.3949 33.1306 37.4502L32.9306 38.9681ZM37.0049 37.9084C37.4254 37.9525 37.7305 38.3291 37.6864 38.7496C37.6424 39.1701 37.2657 39.4753 36.8452 39.4312L37.0049 37.9084ZM44.7078 40.044C44.2855 40.0225 43.9606 39.6629 43.982 39.2406C44.0034 38.8183 44.3631 38.4934 44.7854 38.5148L44.7078 40.044ZM48.6849 38.6576C49.1076 38.667 49.4427 39.0173 49.4332 39.44C49.4238 39.8627 49.0735 40.1978 48.6508 40.1883L48.6849 38.6576ZM56.5434 40.1205C56.121 40.138 55.7644 39.8097 55.7469 39.3872C55.7294 38.9648 56.0577 38.6082 56.4802 38.5907L56.5434 40.1205ZM60.3692 38.3588C60.7907 38.3256 61.1593 38.6404 61.1925 39.0619C61.2257 39.4833 60.9109 39.8519 60.4894 39.8851L60.3692 38.3588ZM68.34 38.9161C67.9235 38.9886 67.527 38.7097 67.4545 38.2932C67.382 37.8766 67.6609 37.4802 68.0774 37.4077L68.34 38.9161ZM71.9047 36.6131C72.3152 36.5119 72.73 36.7627 72.8312 37.1732C72.9323 37.5837 72.6815 37.9985 72.271 38.0997L71.9047 36.6131ZM79.9961 35.6657C79.6004 35.8147 79.1589 35.6147 79.0099 35.219C78.8609 34.8233 79.0609 34.3818 79.4566 34.2328L79.9961 35.6657ZM83.1482 32.7482C83.537 32.5822 83.9868 32.7629 84.1528 33.1518C84.3187 33.5406 84.138 33.9904 83.7492 34.1564L83.1482 32.7482ZM91.0525 30.726C90.6758 30.918 90.2148 30.7684 90.0227 30.3917C89.8307 30.0151 89.9803 29.554 90.3569 29.362L91.0525 30.726ZM93.8852 27.4991C94.2564 27.2966 94.7214 27.4333 94.9239 27.8044C95.1264 28.1756 94.9897 28.6406 94.6186 28.8431L93.8852 27.4991ZM101.591 24.8113C101.23 25.0315 100.759 24.9173 100.539 24.5563C100.319 24.1954 100.433 23.7243 100.794 23.5042L101.591 24.8113ZM104.181 21.3876C104.537 21.1598 105.011 21.2637 105.239 21.6199C105.467 21.976 105.363 22.4494 105.006 22.6773L104.181 21.3876ZM111.696 18.2013C111.349 18.4435 110.872 18.3588 110.63 18.0122C110.388 17.6657 110.473 17.1884 110.819 16.9462L111.696 18.2013ZM114.073 14.6238C114.414 14.3747 114.893 14.4497 115.142 14.7913C115.391 15.133 115.316 15.6118 114.975 15.8609L114.073 14.6238ZM121.373 10.984C121.043 11.2478 120.561 11.1937 120.297 10.8632C120.034 10.5328 120.088 10.0511 120.418 9.78736L121.373 10.984ZM123.504 7.26002C123.827 6.98775 124.31 7.02925 124.583 7.35271C124.855 7.67617 124.813 8.15911 124.49 8.43138L123.504 7.26002ZM130.492 3.00404C130.192 3.30173 129.707 3.29967 129.409 2.99944C129.112 2.69921 129.114 2.2145 129.414 1.91681L130.492 3.00404ZM1.59284 28.3199C2.11954 28.636 2.67551 28.9475 3.25919 29.2543L2.54696 30.6096C1.93984 30.2906 1.35853 29.9649 0.805055 29.6328L1.59284 28.3199ZM10.3652 32.2878C11.5483 32.7049 12.7826 33.1058 14.0615 33.4892L13.6218 34.9558C12.3214 34.5659 11.0639 34.1576 9.85609 33.7318L10.3652 32.2878ZM21.607 35.4371C22.8569 35.7134 24.1309 35.9742 25.4244 36.2187L25.1401 37.7231C23.8317 37.4758 22.5422 37.2119 21.2765 36.9321L21.607 35.4371ZM33.1306 37.4502C34.4142 37.6194 35.707 37.7723 37.0049 37.9084L36.8452 39.4312C35.5339 39.2937 34.2276 39.1391 32.9306 38.9681L33.1306 37.4502ZM44.7854 38.5148C46.0896 38.581 47.3908 38.6288 48.6849 38.6576L48.6508 40.1883C47.3419 40.1592 46.0262 40.1108 44.7078 40.044L44.7854 38.5148ZM56.4802 38.5907C57.7955 38.5363 59.0934 38.4593 60.3692 38.3588L60.4894 39.8851C59.1937 39.9872 57.8768 40.0654 56.5434 40.1205L56.4802 38.5907ZM68.0774 37.4077C68.7222 37.2954 69.3569 37.1755 69.9808 37.0478L70.2878 38.5478C69.6486 38.6786 68.999 38.8013 68.34 38.9161L68.0774 37.4077ZM69.9808 37.0478C70.6146 36.918 71.2561 36.7729 71.9047 36.6131L72.271 38.0997C71.6039 38.2641 70.9425 38.4137 70.2878 38.5478L69.9808 37.0478ZM79.4566 34.2328C80.6763 33.7736 81.9082 33.2774 83.1482 32.7482L83.7492 34.1564C82.4904 34.6936 81.2379 35.1982 79.9961 35.6657L79.4566 34.2328ZM90.3569 29.362C91.5344 28.7616 92.7116 28.1394 93.8852 27.4991L94.6186 28.8431C93.4331 29.49 92.2432 30.1188 91.0525 30.726L90.3569 29.362ZM100.794 23.5042C101.935 22.8086 103.065 22.1019 104.181 21.3876L105.006 22.6773C103.881 23.3973 102.742 24.1099 101.591 24.8113L100.794 23.5042ZM110.819 16.9462C111.928 16.1712 113.014 15.3957 114.073 14.6238L114.975 15.8609C113.908 16.6389 112.814 17.4204 111.696 18.2013L110.819 16.9462ZM120.418 9.78736C121.498 8.92548 122.529 8.08083 123.504 7.26002L124.49 8.43138C123.504 9.26116 122.463 10.1142 121.373 10.984L120.418 9.78736ZM129.414 1.91681C129.91 1.42546 130.366 0.956407 130.781 0.512202L131.9 1.55787C131.47 2.01797 130.999 2.50093 130.492 3.00404L129.414 1.91681Z" fill="white"/>
</svg>
