<svg width="24" height="23" viewBox="0 0 24 23" fill="none" xmlns="http://www.w3.org/2000/svg">
<path d="M19.6651 10.4662H21.5425C21.5425 5.65079 17.907 2.01904 13.085 2.01904V3.8964C16.8979 3.8964 19.6651 6.65893 19.6651 10.4662Z" fill="white"/>
<path d="M13.0946 7.6508C15.0686 7.6508 15.9106 8.49279 15.9106 10.4668H17.788C17.788 7.4396 16.1218 5.77344 13.0946 5.77344V7.6508ZM16.3067 12.76C16.1264 12.5961 15.8893 12.5087 15.6457 12.5162C15.4021 12.5237 15.1709 12.6256 15.001 12.8004L12.7548 15.1105C12.2141 15.0072 11.1271 14.6684 10.0082 13.5523C8.88929 12.4324 8.55043 11.3426 8.44999 10.8057L10.7582 8.5585C10.9332 8.38872 11.0352 8.15752 11.0428 7.91382C11.0503 7.67013 10.9627 7.43306 10.7986 7.2528L7.33015 3.43895C7.16592 3.25812 6.93767 3.14843 6.69387 3.13318C6.45007 3.11793 6.20992 3.19832 6.02444 3.35728L3.98751 5.10416C3.82522 5.26704 3.72836 5.48381 3.71529 5.71336C3.70121 5.94803 3.43275 11.5069 7.74317 15.8192C11.5035 19.5786 16.2138 19.8536 17.5111 19.8536C17.7007 19.8536 17.8171 19.848 17.848 19.8461C18.0776 19.8333 18.2942 19.736 18.4563 19.573L20.2023 17.5351C20.3613 17.3497 20.4419 17.1097 20.4268 16.8659C20.4117 16.6221 20.3022 16.3937 20.1215 16.2294L16.3067 12.76Z" fill="white"/>
</svg>
