<svg width="11" height="12" viewBox="0 0 11 12" fill="none" xmlns="http://www.w3.org/2000/svg">
<path d="M4.50033 0.925781H1.00033C0.845616 0.925781 0.697243 0.987239 0.587847 1.09664C0.47845 1.20603 0.416992 1.3544 0.416992 1.50911V5.00911C0.416992 5.16382 0.47845 5.3122 0.587847 5.42159C0.697243 5.53099 0.845616 5.59245 1.00033 5.59245H4.50033C4.65504 5.59245 4.80341 5.53099 4.9128 5.42159C5.0222 5.3122 5.08366 5.16382 5.08366 5.00911V1.50911C5.08366 1.3544 5.0222 1.20603 4.9128 1.09664C4.80341 0.987239 4.65504 0.925781 4.50033 0.925781ZM3.91699 4.42578H1.58366V2.09245H3.91699V4.42578ZM10.3337 0.925781H6.83366C6.67895 0.925781 6.53058 0.987239 6.42118 1.09664C6.31178 1.20603 6.25033 1.3544 6.25033 1.50911V5.00911C6.25033 5.16382 6.31178 5.3122 6.42118 5.42159C6.53058 5.53099 6.67895 5.59245 6.83366 5.59245H10.3337C10.4884 5.59245 10.6367 5.53099 10.7461 5.42159C10.8555 5.3122 10.917 5.16382 10.917 5.00911V1.50911C10.917 1.3544 10.8555 1.20603 10.7461 1.09664C10.6367 0.987239 10.4884 0.925781 10.3337 0.925781ZM9.75033 4.42578H7.41699V2.09245H9.75033V4.42578ZM4.50033 6.75911H1.00033C0.845616 6.75911 0.697243 6.82057 0.587847 6.92997C0.47845 7.03937 0.416992 7.18774 0.416992 7.34245V10.8424C0.416992 10.9972 0.47845 11.1455 0.587847 11.2549C0.697243 11.3643 0.845616 11.4258 1.00033 11.4258H4.50033C4.65504 11.4258 4.80341 11.3643 4.9128 11.2549C5.0222 11.1455 5.08366 10.9972 5.08366 10.8424V7.34245C5.08366 7.18774 5.0222 7.03937 4.9128 6.92997C4.80341 6.82057 4.65504 6.75911 4.50033 6.75911ZM3.91699 10.2591H1.58366V7.92578H3.91699V10.2591ZM8.58366 6.75911C7.29683 6.75911 6.25033 7.80561 6.25033 9.09245C6.25033 10.3793 7.29683 11.4258 8.58366 11.4258C9.87049 11.4258 10.917 10.3793 10.917 9.09245C10.917 7.80561 9.87049 6.75911 8.58366 6.75911ZM8.58366 10.2591C7.94024 10.2591 7.41699 9.73586 7.41699 9.09245C7.41699 8.44903 7.94024 7.92578 8.58366 7.92578C9.22708 7.92578 9.75033 8.44903 9.75033 9.09245C9.75033 9.73586 9.22708 10.2591 8.58366 10.2591Z" fill="#87898E"/>
</svg>
