<svg width="430" height="338" viewBox="0 0 430 338" fill="none" xmlns="http://www.w3.org/2000/svg">
<path d="M429.359 298.645H0V298.859H429.359V298.645Z" fill="#EBEBEB"/>
<path d="M307.146 304.493H278.706V304.708H307.146V304.493Z" fill="#EBEBEB"/>
<path d="M375.483 306.373H368.021V306.588H375.483V306.373Z" fill="#EBEBEB"/>
<path d="M324.492 312.462H308.014V312.677H324.492V312.462Z" fill="#EBEBEB"/>
<path d="M214.68 309.56H177.592V309.774H214.68V309.56Z" fill="#EBEBEB"/>
<path d="M169.94 309.56H164.504V309.774H169.94V309.56Z" fill="#EBEBEB"/>
<path d="M146.832 305.936H66.3877V306.15H146.832V305.936Z" fill="#EBEBEB"/>
<path d="M203.517 260.346H37.7072C36.4083 260.344 35.1633 259.827 34.2456 258.907C33.3279 257.988 32.8125 256.742 32.8125 255.443V22.3613C32.8238 21.0698 33.3442 19.835 34.2607 18.9249C35.1771 18.0149 36.4157 17.5032 37.7072 17.501H203.517C204.817 17.501 206.065 18.0176 206.984 18.9371C207.904 19.8567 208.42 21.1038 208.42 22.4043V255.443C208.42 256.744 207.904 257.991 206.984 258.91C206.065 259.83 204.817 260.346 203.517 260.346ZM37.7072 17.6727C36.4652 17.675 35.2748 18.17 34.3974 19.049C33.52 19.928 33.0272 21.1193 33.0272 22.3613V255.443C33.0272 256.685 33.52 257.876 34.3974 258.755C35.2748 259.634 36.4652 260.129 37.7072 260.132H203.517C204.76 260.129 205.951 259.635 206.83 258.756C207.709 257.877 208.203 256.686 208.206 255.443V22.3613C208.203 21.1185 207.709 19.9273 206.83 19.0485C205.951 18.1697 204.76 17.675 203.517 17.6727H37.7072Z" fill="#EBEBEB"/>
<path d="M389.266 260.346H223.447C222.147 260.344 220.902 259.827 219.983 258.908C219.064 257.989 218.546 256.743 218.544 255.443V22.3613C218.557 21.069 219.08 19.8342 219.998 18.9244C220.915 18.0146 222.155 17.5032 223.447 17.501H389.266C390.556 17.5054 391.792 18.0181 392.707 18.9279C393.621 19.8377 394.14 21.0713 394.152 22.3613V255.443C394.152 256.741 393.638 257.985 392.722 258.904C391.806 259.823 390.563 260.342 389.266 260.346ZM223.447 17.6727C222.204 17.675 221.013 18.1697 220.134 19.0485C219.256 19.9273 218.761 21.1185 218.759 22.3613V255.443C218.761 256.686 219.256 257.877 220.134 258.756C221.013 259.635 222.204 260.129 223.447 260.132H389.266C390.508 260.129 391.7 259.635 392.578 258.756C393.457 257.877 393.952 256.686 393.954 255.443V22.3613C393.952 21.1185 393.457 19.9273 392.578 19.0485C391.7 18.1697 390.508 17.675 389.266 17.6727H223.447Z" fill="#EBEBEB"/>
<path d="M206.092 243.781C206.041 242.57 205.938 241.342 205.775 240.106C204.057 227.173 196.492 215.649 186.127 208.136C186.142 207.007 186.074 205.879 185.921 204.761C184.204 192.232 172.705 182.074 160.159 182.074C157.693 182.063 155.244 182.482 152.92 183.31C144.136 171.597 130.139 163.783 115.377 163.783C110.603 163.759 105.866 164.633 101.415 166.359C96.5971 159.395 88.5338 154.672 79.9466 154.672C67.4179 154.672 58.6246 164.831 60.3163 177.359C60.5277 178.94 60.8959 180.497 61.4155 182.005C45.3231 187.157 35.216 202.743 37.7063 221.205C38.1093 224.169 38.8143 227.084 39.8101 229.904C27.3587 236.654 20.0596 250.513 22.215 266.503C23.9324 279.547 31.6609 291.156 42.1201 298.662H211.116C217.393 291.251 220.51 281.127 218.973 269.963C217.57 260.089 213.058 250.919 206.092 243.781Z" fill="#F0F0F0"/>
<path d="M413.996 229.939C414.443 228.419 414.855 226.882 415.156 225.328C418.53 209.141 414.555 194.715 405.624 185.303C406.106 183.922 406.499 182.51 406.8 181.078C410.072 165.381 400.892 152.663 386.303 152.663C383.255 152.682 380.231 153.207 377.355 154.218C372.005 139.534 358.944 129.744 341.77 129.744C335.845 129.783 329.975 130.873 324.432 132.964C321.744 124.24 314.316 118.366 304.372 118.366C289.774 118.366 275.305 131.084 272.033 146.773C271.632 148.688 271.413 150.638 271.381 152.595C250.505 159.018 232.214 178.562 227.397 201.679C226.649 205.264 226.255 208.914 226.221 212.576C208.9 221.026 194.611 238.381 190.446 258.414C187.012 274.73 191.099 289.285 200.193 298.68H396.959C407.659 289.241 415.079 276.643 418.144 262.708C420.772 250.214 418.994 238.827 413.996 229.939Z" fill="#F0F0F0"/>
<path d="M46.3704 67.8818H39.2173V216.157H46.3704V67.8818Z" fill="#E0E0E0"/>
<path d="M48.947 65.0137H36.6416V67.8732H48.947V65.0137Z" fill="#E0E0E0"/>
<path d="M43.3656 17.4577L44.2243 5.15231L42.7902 0L41.3647 5.15231L42.2235 17.4577H43.3656Z" fill="#E0E0E0"/>
<path d="M48.9473 65.0133H36.6419L28.0547 29.5225H57.5345L48.9473 65.0133Z" fill="#F5F5F5"/>
<path d="M45.8383 65.0133H39.7414L35.4907 29.5225H50.0889L45.8383 65.0133Z" fill="#FAFAFA"/>
<path d="M52.9572 292.007H32.6313L36.7446 216.147H48.8439L52.9572 292.007Z" fill="#E0E0E0"/>
<path d="M63.0643 298.645V292.007H22.5156V298.645" fill="#E0E0E0"/>
<path d="M42.7897 13.1553C38.4504 13.1576 34.2895 14.8829 31.2219 17.9521C28.1544 21.0213 26.4312 25.1831 26.4312 29.5224H59.1569C59.1569 27.3731 58.7335 25.2448 57.911 23.259C57.0885 21.2732 55.8829 19.4689 54.3631 17.9491C52.8432 16.4293 51.0389 15.2237 49.0532 14.4012C47.0674 13.5786 44.9391 13.1553 42.7897 13.1553Z" fill="#E0E0E0"/>
<path d="M45.5634 9.19671C45.5651 9.74565 45.4039 10.2828 45.1002 10.74C44.7964 11.1973 44.3638 11.5541 43.8572 11.7654C43.3505 11.9766 42.7925 12.0328 42.2539 11.9267C41.7153 11.8207 41.2203 11.5572 40.8315 11.1696C40.4428 10.7821 40.1778 10.2878 40.07 9.74958C39.9623 9.21131 40.0167 8.65318 40.2264 8.14586C40.4361 7.63854 40.7916 7.20484 41.2479 6.89969C41.7042 6.59453 42.2408 6.43164 42.7898 6.43164C43.5239 6.43164 44.2281 6.72268 44.748 7.24099C45.2679 7.75929 45.5611 8.46258 45.5634 9.19671Z" fill="#E0E0E0"/>
<path d="M214.68 337.425C306.634 337.425 381.177 333.073 381.177 327.704C381.177 322.335 306.634 317.983 214.68 317.983C122.726 317.983 48.1831 322.335 48.1831 327.704C48.1831 333.073 122.726 337.425 214.68 337.425Z" fill="#F5F5F5"/>
<path d="M345.299 62.2236H84.0601V325.197H345.299V62.2236Z" fill="#FEB95A"/>
<path d="M276.489 88.8428H152.868C151.332 88.8428 150.086 90.0884 150.086 91.625V115.54C150.086 117.077 151.332 118.323 152.868 118.323H276.489C278.026 118.323 279.271 117.077 279.271 115.54V91.625C279.271 90.0884 278.026 88.8428 276.489 88.8428Z" fill="white"/>
<path d="M272.832 92.665H156.519C155.755 92.665 155.136 93.284 155.136 94.0476V113.128C155.136 113.892 155.755 114.511 156.519 114.511H272.832C273.596 114.511 274.215 113.892 274.215 113.128V94.0476C274.215 93.284 273.596 92.665 272.832 92.665Z" fill="#FEB95A"/>
<path d="M160.787 107.787L167.656 107.357C167.711 108.277 168.007 109.165 168.515 109.933C168.896 110.405 169.384 110.779 169.937 111.025C170.491 111.272 171.096 111.383 171.701 111.35C172.558 111.406 173.406 111.15 174.088 110.629C174.353 110.427 174.568 110.167 174.717 109.87C174.866 109.572 174.944 109.244 174.947 108.912C174.941 108.6 174.868 108.293 174.732 108.013C174.595 107.732 174.399 107.485 174.157 107.289C173.624 106.808 172.388 106.353 170.456 105.932C167.287 105.219 165.037 104.274 163.68 103.098C163.025 102.545 162.502 101.853 162.149 101.071C161.797 100.289 161.625 99.4383 161.645 98.5811C161.642 97.3583 162.004 96.1624 162.684 95.1463C163.462 94.0168 164.555 93.1416 165.827 92.6302C167.662 91.9441 169.615 91.6317 171.572 91.7114C174.552 91.7114 176.836 92.2696 178.442 93.3773C179.26 94.009 179.933 94.8088 180.416 95.7228C180.899 96.6368 181.181 97.6437 181.241 98.6756L174.432 99.0792C174.412 98.6437 174.303 98.2168 174.112 97.8252C173.92 97.4336 173.65 97.0856 173.318 96.8029C172.986 96.5202 172.6 96.3088 172.183 96.1818C171.766 96.0549 171.327 96.0152 170.894 96.0651C170.221 96.0178 169.553 96.206 169.005 96.5975C168.805 96.7499 168.643 96.9461 168.532 97.1709C168.42 97.3957 168.361 97.6432 168.361 97.8942C168.366 98.0912 168.418 98.2842 168.51 98.4584C168.602 98.6326 168.733 98.7833 168.893 98.8989C169.626 99.3619 170.453 99.6552 171.314 99.7576C173.646 100.177 175.92 100.869 178.09 101.819C179.306 102.379 180.339 103.272 181.07 104.395C181.689 105.433 182.013 106.621 182.006 107.83C182.009 109.302 181.576 110.743 180.76 111.969C179.913 113.252 178.702 114.254 177.283 114.845C175.497 115.553 173.586 115.886 171.667 115.824C167.694 115.824 164.94 115.06 163.406 113.531C161.869 111.995 160.939 109.955 160.787 107.787Z" fill="white"/>
<path d="M188.574 92.1582H195.787V100.333H203.67V92.1582H210.927V115.515H203.67V106.069H195.787V115.515H188.574V92.1582Z" fill="white"/>
<path d="M217.754 103.853C217.754 100.041 218.816 97.0722 220.94 94.9483C223.064 92.8244 226.023 91.7596 229.819 91.7539C233.712 91.7539 236.706 92.7987 238.801 94.8882C240.896 96.9778 241.95 99.9031 241.961 103.664C242.047 105.981 241.573 108.285 240.579 110.379C239.681 112.102 238.295 113.521 236.594 114.458C234.601 115.485 232.378 115.984 230.137 115.91C227.892 115.99 225.658 115.561 223.602 114.656C221.836 113.776 220.374 112.389 219.403 110.671C218.249 108.589 217.68 106.233 217.754 103.853ZM224.976 103.853C224.976 106.206 225.414 107.898 226.29 108.928C226.754 109.411 227.312 109.796 227.929 110.058C228.545 110.321 229.209 110.456 229.879 110.456C230.549 110.456 231.213 110.321 231.83 110.058C232.446 109.796 233.004 109.411 233.469 108.928C234.322 107.921 234.745 106.109 234.739 103.493C234.739 101.294 234.301 99.6885 233.408 98.6752C232.959 98.169 232.401 97.7698 231.777 97.5069C231.153 97.2439 230.478 97.1237 229.802 97.1552C229.139 97.1313 228.479 97.258 227.872 97.5257C227.266 97.7935 226.727 98.1953 226.298 98.7009C225.414 99.8001 224.984 101.5 224.984 103.888L224.976 103.853Z" fill="white"/>
<path d="M248.753 92.1582H260.775C263.386 92.1582 265.344 92.7793 266.649 94.0216C267.324 94.7226 267.846 95.5564 268.182 96.47C268.518 97.3836 268.659 98.3571 268.598 99.3285C268.655 100.348 268.494 101.369 268.127 102.322C267.76 103.275 267.195 104.14 266.469 104.859C265.052 106.181 262.888 106.851 259.977 106.851H256.027V115.515H248.779L248.753 92.1582ZM256.001 102.119H257.77C258.801 102.217 259.834 101.959 260.698 101.389C260.974 101.166 261.194 100.883 261.343 100.562C261.492 100.24 261.565 99.8888 261.557 99.5346C261.565 99.1904 261.503 98.8482 261.376 98.5281C261.249 98.208 261.06 97.9167 260.818 97.6712C260.338 97.1559 259.419 96.9069 258.062 96.9069H256.01L256.001 102.119Z" fill="white"/>
<path opacity="0.5" d="M103.99 127.288H325.368C326.634 127.288 327.848 127.791 328.744 128.686C329.639 129.582 330.142 130.796 330.142 132.063V325.188H99.2158V132.071C99.2147 131.443 99.3374 130.822 99.5768 130.241C99.8162 129.661 100.168 129.134 100.611 128.69C101.055 128.245 101.581 127.893 102.161 127.652C102.741 127.412 103.363 127.288 103.99 127.288Z" fill="white"/>
<path opacity="0.4" d="M353.791 149.7V164.762L323.367 168.377L295.124 171.743L272.54 174.423L252.154 176.844L249.972 171.082L247.637 164.925L247.336 174.182L247.233 177.428L244.288 177.78L221.703 180.468L193.46 183.826L170.867 186.505L142.624 189.862L120.031 192.55L91.7881 195.908L75.5669 197.831V182.778L105.991 179.163L134.235 175.805L156.81 173.117L176.629 170.765L185.071 169.768L207.655 167.081V167.072L235.898 163.723L258.491 161.027L286.734 157.669L309.327 154.99L337.57 151.632L353.791 149.7Z" fill="#FEB95A"/>
<path opacity="0.4" d="M353.791 290.264L75.5669 225.706V210.652L353.791 275.202V290.264Z" fill="#FEB95A"/>
<path d="M84.0513 325.196H74.7428C73.7202 325.196 72.7395 324.79 72.0164 324.067C71.2933 323.344 70.8871 322.363 70.8871 321.341L70.8871 62.2226H84.0513L84.0513 325.196Z" fill="#263238"/>
<path d="M354.616 325.196H345.307L345.307 62.2225H358.471V321.332C358.472 321.839 358.373 322.341 358.18 322.81C357.987 323.279 357.703 323.705 357.345 324.064C356.987 324.423 356.561 324.708 356.093 324.902C355.625 325.096 355.123 325.196 354.616 325.196Z" fill="#263238"/>
<path opacity="0.3" d="M274.626 127.288H245.035L193.624 325.197H223.206L274.626 127.288Z" fill="white"/>
<path opacity="0.3" d="M296.421 127.288H283.806L232.386 325.197H245.009L296.421 127.288Z" fill="white"/>
<path opacity="0.3" d="M192.378 127.288H179.755L128.335 325.197H140.958L192.378 127.288Z" fill="white"/>
<path d="M219.265 124.282H210.102V325.196H219.265V124.282Z" fill="#FEB95A"/>
<path d="M375.929 70.0631L339.863 22.3613H89.5037L53.4375 70.0631C49.3157 76.2115 51.1534 81.4325 57.7311 81.4325C64.3089 81.4325 72.6471 76.2115 76.185 70.0631H76.4941C72.9648 76.2115 75.3005 81.4325 81.8783 81.4325C88.4561 81.4325 96.2962 76.2115 99.2416 70.0631H99.5507C96.6139 76.2115 99.4476 81.4325 106.025 81.4325C112.603 81.4325 119.937 76.2115 122.341 70.0631H122.65C120.297 76.2115 123.638 81.4325 130.216 81.4325C136.793 81.4325 143.629 76.2115 145.406 70.0631H145.707C143.946 76.2115 147.785 81.4325 154.363 81.4325C160.94 81.4325 167.243 76.2115 168.463 70.0631H168.772C167.595 76.2115 171.932 81.4325 178.51 81.4325C185.088 81.4325 190.927 76.2115 191.519 70.0631H191.829C191.245 76.2115 196.079 81.4325 202.657 81.4325C209.235 81.4325 214.576 76.2115 214.576 70.0631H214.885C214.885 76.2115 220.226 81.4325 226.804 81.4325C233.382 81.4325 238.216 76.2115 237.633 70.0631H237.864C238.457 76.2115 244.296 81.4325 250.874 81.4325C257.452 81.4325 261.788 76.2115 260.612 70.0631H260.921C262.106 76.2115 268.443 81.4325 275.021 81.4325C281.599 81.4325 285.437 76.2115 283.677 70.0631H283.978C285.755 76.2115 292.565 81.4325 299.168 81.4325C305.772 81.4325 309.086 76.2115 306.734 70.0631H307.043C309.404 76.2115 316.738 81.4325 323.358 81.4325C329.979 81.4325 332.804 76.2115 329.833 70.0631H330.142C333.088 76.2115 340.928 81.4325 347.505 81.4325C354.083 81.4325 356.419 76.2115 352.89 70.0631H353.199C356.737 76.2115 365.075 81.4325 371.653 81.4325C378.23 81.4325 380.051 76.2115 375.929 70.0631Z" fill="#FEB95A"/>
<path opacity="0.8" d="M375.929 70.0631L339.863 22.3613H89.5037L53.4375 70.0631C49.3157 76.2115 51.1534 81.4325 57.7311 81.4325C64.3089 81.4325 72.6471 76.2115 76.185 70.0631H76.4941C72.9648 76.2115 75.3005 81.4325 81.8783 81.4325C88.4561 81.4325 96.2962 76.2115 99.2416 70.0631H99.5507C96.6139 76.2115 99.4476 81.4325 106.025 81.4325C112.603 81.4325 119.937 76.2115 122.341 70.0631H122.65C120.297 76.2115 123.638 81.4325 130.216 81.4325C136.793 81.4325 143.629 76.2115 145.406 70.0631H145.707C143.946 76.2115 147.785 81.4325 154.363 81.4325C160.94 81.4325 167.243 76.2115 168.463 70.0631H168.772C167.595 76.2115 171.932 81.4325 178.51 81.4325C185.088 81.4325 190.927 76.2115 191.519 70.0631H191.829C191.245 76.2115 196.079 81.4325 202.657 81.4325C209.235 81.4325 214.576 76.2115 214.576 70.0631H214.885C214.885 76.2115 220.226 81.4325 226.804 81.4325C233.382 81.4325 238.216 76.2115 237.633 70.0631H237.864C238.457 76.2115 244.296 81.4325 250.874 81.4325C257.452 81.4325 261.788 76.2115 260.612 70.0631H260.921C262.106 76.2115 268.443 81.4325 275.021 81.4325C281.599 81.4325 285.437 76.2115 283.677 70.0631H283.978C285.755 76.2115 292.565 81.4325 299.168 81.4325C305.772 81.4325 309.086 76.2115 306.734 70.0631H307.043C309.404 76.2115 316.738 81.4325 323.358 81.4325C329.979 81.4325 332.804 76.2115 329.833 70.0631H330.142C333.088 76.2115 340.928 81.4325 347.505 81.4325C354.083 81.4325 356.419 76.2115 352.89 70.0631H353.199C356.737 76.2115 365.075 81.4325 371.653 81.4325C378.23 81.4325 380.051 76.2115 375.929 70.0631Z" fill="white"/>
<g opacity="0.2">
<path d="M89.5035 22.3613H107.167L76.1761 70.0631H53.4287L89.5035 22.3613Z" fill="#FEB95A"/>
<path d="M125.304 22.3613H142.967L122.289 70.0631H99.542L125.304 22.3613Z" fill="#FEB95A"/>
<path d="M161.104 22.3613H178.759L168.411 70.0631H145.655L161.104 22.3613Z" fill="#FEB95A"/>
<path d="M196.904 22.3613H214.559L214.525 70.0631H191.777L196.904 22.3613Z" fill="#FEB95A"/>
<path d="M232.695 22.3613H250.359L260.637 70.0631H237.89L232.695 22.3613Z" fill="#FEB95A"/>
<path d="M268.495 22.3613H286.159L306.76 70.0631H284.012L268.495 22.3613Z" fill="#FEB95A"/>
<path d="M304.295 22.3613H321.951L352.873 70.0631H330.126L304.295 22.3613Z" fill="#FEB95A"/>
<path d="M330.125 70.0635C333.07 76.2119 340.91 81.4329 347.488 81.4329C354.066 81.4329 356.402 76.2119 352.872 70.0635" fill="#FEB95A"/>
<path d="M284.003 70.0635C285.78 76.2119 292.59 81.4329 299.194 81.4329C305.797 81.4329 309.112 76.2119 306.759 70.0635" fill="#FEB95A"/>
<path d="M237.865 70.0635C238.457 76.2119 244.297 81.4329 250.874 81.4329C257.452 81.4329 261.789 76.2119 260.612 70.0635" fill="#FEB95A"/>
<path d="M191.777 70.0635C191.193 76.2119 196.028 81.4329 202.606 81.4329C209.183 81.4329 214.525 76.2119 214.525 70.0635" fill="#FEB95A"/>
<path d="M145.656 70.0635C143.896 76.2119 147.734 81.4329 154.312 81.4329C160.89 81.4329 167.193 76.2119 168.412 70.0635" fill="#FEB95A"/>
<path d="M99.5426 70.0635C96.6058 76.2119 99.4395 81.4329 106.017 81.4329C112.595 81.4329 119.929 76.2119 122.333 70.0635" fill="#FEB95A"/>
<path d="M53.4292 70.0635C49.3074 76.2119 51.1451 81.4329 57.7228 81.4329C64.3006 81.4329 72.6388 76.2119 76.1767 70.0635" fill="#FEB95A"/>
</g>
<path d="M360.515 285.034L68.8428 220.476V205.414L360.515 269.972V285.034Z" fill="#FEB95A"/>
<path opacity="0.4" d="M360.515 285.034L68.8428 220.476V205.414L360.515 269.972V285.034Z" fill="white"/>
<g opacity="0.6">
<path d="M115.463 230.789L85.8545 224.237L100.736 212.473L130.345 219.025L115.463 230.789Z" fill="#FEB95A"/>
<path d="M168.747 242.588L139.147 236.036L154.029 224.271L183.637 230.824L168.747 242.588Z" fill="#FEB95A"/>
<path d="M222.039 254.378L192.43 247.826L207.32 236.062L236.929 242.614L222.039 254.378Z" fill="#FEB95A"/>
<path d="M275.331 266.177L245.722 259.625L260.604 247.86L290.212 254.412L275.331 266.177Z" fill="#FEB95A"/>
<path d="M328.623 277.967L299.015 271.415L313.896 259.65L343.505 266.202L328.623 277.967Z" fill="#FEB95A"/>
</g>
<path d="M360.515 144.471V159.533L328.622 163.148L299.013 166.505L275.339 169.193L253.965 171.606L251.681 165.844L249.234 159.687L248.916 168.953L248.804 172.199L245.721 172.551L222.038 175.23L192.429 178.588L168.755 181.275L139.137 184.633L115.454 187.312L85.854 190.67L68.8428 192.602V177.549L100.736 173.933L130.344 170.567L154.01 167.888L174.783 165.526L183.636 164.53L207.32 161.843L236.92 158.485L260.603 155.797L290.22 152.44L313.904 149.752L343.504 146.394L360.515 144.471Z" fill="#FEB95A"/>
<path opacity="0.4" d="M360.515 144.471V159.533L328.622 163.148L299.013 166.505L275.339 169.193L253.965 171.606L251.681 165.844L249.234 159.687L248.916 168.953L248.804 172.199L245.721 172.551L222.038 175.23L192.429 178.588L168.755 181.275L139.137 184.633L115.454 187.312L85.854 190.67L68.8428 192.602V177.549L100.736 173.933L130.344 170.567L154.01 167.888L174.783 165.526L183.636 164.53L207.32 161.843L236.92 158.485L260.603 155.797L290.22 152.44L313.904 149.752L343.504 146.394L360.515 144.471Z" fill="white"/>
<g opacity="0.6">
<path d="M115.454 187.312L85.8457 190.679L100.736 173.925L130.344 170.567L115.454 187.312Z" fill="#FEB95A"/>
<path d="M168.747 181.276L139.138 184.634L154.028 167.889L183.637 164.531L168.747 181.276Z" fill="#FEB95A"/>
<path d="M222.038 175.23L192.43 178.588L207.32 161.843L236.928 158.485L222.038 175.23Z" fill="#FEB95A"/>
<path d="M245.722 172.551L248.916 168.953L248.804 172.199L245.722 172.551Z" fill="white"/>
<path d="M290.22 152.44L275.339 169.194L253.965 171.607L251.681 165.845L260.603 155.798L290.22 152.44Z" fill="#FEB95A"/>
<path d="M328.623 163.148L299.014 166.506L313.904 149.752L343.513 146.395L328.623 163.148Z" fill="#FEB95A"/>
</g>
<path d="M281.754 149.572C283.471 145.733 290.281 143.878 296.507 147.811C302.732 151.744 302.166 160.099 299.444 161.113C307.533 163.843 311.534 180.923 304.742 182.289C307.172 187.244 307.996 206.41 287.567 202.623C267.139 198.836 273.115 182.014 273.115 182.014C273.115 182.014 267.319 168.438 276.413 162.435C272.54 159.189 275.082 147.674 281.754 149.572Z" fill="#263238"/>
<path d="M288.735 314.419L283.746 316.807L273.089 302.415L279.736 297.906L288.735 314.419Z" fill="#FF8B7B"/>
<path d="M282.613 315.475L287.259 311.336C287.336 311.268 287.435 311.23 287.538 311.23C287.641 311.23 287.74 311.268 287.817 311.336L291.355 314.308C291.441 314.393 291.508 314.495 291.551 314.608C291.595 314.721 291.614 314.842 291.607 314.963C291.601 315.083 291.569 315.202 291.514 315.309C291.458 315.417 291.381 315.511 291.286 315.587C289.646 317.004 288.788 317.605 286.744 319.425C285.49 320.542 282.991 322.981 281.257 324.526C279.522 326.072 278.028 324.526 278.62 323.753C281.291 320.216 281.789 318.18 282.132 316.351C282.187 316.013 282.357 315.703 282.613 315.475Z" fill="#263238"/>
<path d="M281.66 317.545C281.337 317.888 280.913 318.12 280.449 318.206C280.338 318.21 280.227 318.185 280.128 318.134C280.028 318.083 279.944 318.007 279.882 317.914C279.841 317.858 279.815 317.793 279.806 317.724C279.797 317.654 279.805 317.584 279.831 317.519C280.114 316.807 282.45 316.128 282.716 316.06C282.741 316.051 282.767 316.05 282.792 316.058C282.817 316.066 282.838 316.081 282.854 316.103C282.868 316.124 282.876 316.149 282.876 316.176C282.876 316.202 282.868 316.227 282.854 316.248C282.495 316.715 282.096 317.149 281.66 317.545ZM280.226 317.399C280.158 317.451 280.105 317.519 280.071 317.597C280.057 317.621 280.049 317.65 280.049 317.678C280.049 317.707 280.057 317.735 280.071 317.76C280.111 317.821 280.166 317.871 280.23 317.904C280.295 317.937 280.368 317.953 280.441 317.949C280.878 317.949 281.591 317.365 282.381 316.412C281.612 316.623 280.881 316.957 280.217 317.399H280.226Z" fill="#FEB95A"/>
<path d="M282.811 316.275C282.132 316.506 280.432 316.532 280.123 316.025C280.054 315.905 280.02 315.708 280.269 315.442C280.355 315.345 280.459 315.267 280.575 315.211C280.692 315.155 280.818 315.122 280.947 315.115C281.676 315.205 282.354 315.538 282.871 316.06C282.895 316.085 282.908 316.119 282.908 316.154C282.908 316.189 282.895 316.223 282.871 316.249L282.811 316.275ZM280.458 315.579L280.406 315.63C280.234 315.811 280.286 315.888 280.303 315.914C280.483 316.214 281.72 316.283 282.467 316.12C282.04 315.713 281.491 315.459 280.904 315.399C280.739 315.405 280.581 315.469 280.458 315.579Z" fill="#FEB95A"/>
<path d="M273.726 180.15C272.999 183.505 272.029 186.803 270.823 190.017C270.221 191.656 269.525 193.259 268.737 194.817C267.919 196.482 266.917 198.049 265.748 199.489L265.516 199.772L265.121 200.184C264.774 200.503 264.38 200.766 263.954 200.966C263.035 201.382 261.993 201.441 261.034 201.129C260.374 200.911 259.76 200.573 259.222 200.133C258.805 199.794 258.414 199.424 258.054 199.025C256.864 197.641 255.835 196.125 254.989 194.508C253.399 191.478 252.072 188.318 251.021 185.062C250.924 184.744 250.948 184.4 251.087 184.098C251.227 183.795 251.473 183.555 251.779 183.422C252.085 183.29 252.428 183.274 252.745 183.379C253.061 183.483 253.328 183.7 253.494 183.989C254.276 185.397 255.083 186.84 255.916 188.231C256.749 189.622 257.582 191.005 258.492 192.293C259.303 193.55 260.247 194.716 261.309 195.77C261.52 195.968 261.747 196.149 261.987 196.311C262.193 196.44 262.374 196.5 262.365 196.466C262.204 196.408 262.028 196.408 261.867 196.466L261.712 196.543C261.712 196.543 261.712 196.543 261.712 196.492L261.858 196.294C262.706 195.101 263.422 193.819 263.997 192.473C264.606 191.056 265.173 189.588 265.714 188.085C266.727 185.097 267.612 181.928 268.359 178.888V178.819C268.549 178.143 268.992 177.567 269.596 177.209C270.2 176.851 270.918 176.739 271.602 176.897C272.287 177.055 272.883 177.471 273.269 178.057C273.655 178.644 273.8 179.357 273.674 180.047L273.726 180.15Z" fill="#FF8B7B"/>
<path d="M297.323 323.918L291.973 324.106L286.331 305.103L293.707 304.21L297.323 323.918Z" fill="#FF8B7B"/>
<path d="M291.612 322.397H297.623C297.724 322.392 297.823 322.427 297.899 322.495C297.974 322.562 298.02 322.657 298.027 322.758L298.388 327.489C298.39 327.612 298.368 327.734 298.323 327.849C298.278 327.963 298.211 328.068 298.126 328.156C298.04 328.245 297.938 328.315 297.826 328.365C297.713 328.414 297.592 328.44 297.469 328.442C295.382 328.442 294.377 328.313 291.741 328.331C290.118 328.331 287.74 328.528 285.498 328.545C283.257 328.563 283.283 326.347 284.236 326.132C288.478 325.205 289.225 323.96 290.711 322.766C290.963 322.548 291.28 322.418 291.612 322.397Z" fill="#263238"/>
<path d="M268.675 177.806C267.92 181.335 267.061 189.304 267.061 207.277L288.529 209.175C289.517 201.06 290.332 195.83 295.991 181.284C296.193 180.769 296.281 180.216 296.25 179.664C296.219 179.112 296.069 178.573 295.81 178.084C295.552 177.595 295.191 177.167 294.753 176.831C294.314 176.494 293.808 176.255 293.269 176.131C291.887 175.814 290.289 175.487 288.666 175.273C285.445 174.755 282.191 174.468 278.929 174.414C276.55 174.414 273.974 174.603 272.162 174.758C271.328 174.815 270.535 175.145 269.906 175.695C269.276 176.246 268.844 176.987 268.675 177.806Z" fill="#FEB95A"/>
<path opacity="0.2" d="M291.587 180.494C291.492 183.07 292.033 186.995 293.21 188.652C293.588 187.579 293.991 186.445 294.438 185.217L291.587 180.494Z" fill="black"/>
<path d="M289.448 164.17C288.323 167.27 286.769 172.998 288.589 175.29C285.121 177.483 281.476 179.382 277.692 180.966C275.459 175.737 278.851 174.432 278.851 174.432C282.484 173.899 282.819 171.28 282.612 168.781L289.448 164.17Z" fill="#FF8B7B"/>
<path opacity="0.2" d="M287.499 166.522L282.639 168.772C282.691 169.361 282.691 169.953 282.639 170.541C283.652 170.636 286.28 169.863 287.276 168.231C287.555 167.708 287.635 167.1 287.499 166.522Z" fill="black"/>
<path d="M293.931 159.275C292.171 164.264 291.535 166.419 288.221 168.291C283.24 171.116 277.495 167.862 277.727 162.443C277.933 157.566 280.784 150.215 286.314 149.614C287.539 149.471 288.781 149.644 289.92 150.117C291.059 150.59 292.058 151.347 292.822 152.316C293.586 153.285 294.089 154.433 294.283 155.651C294.477 156.869 294.356 158.117 293.931 159.275Z" fill="#FF8B7B"/>
<path d="M284.082 149.571C284.683 152.585 288.521 154.371 290.951 154.062C289.809 155.488 288.547 161.542 293.004 162.392C297.89 160.237 298.371 154.586 295.674 150.816C292.978 147.047 285.584 146.909 284.082 149.571Z" fill="#263238"/>
<path d="M284.082 148.884C280.295 149.743 279.865 153.015 281.926 152.852C285.481 152.542 289.028 147.708 284.082 148.884Z" fill="#263238"/>
<path d="M267.061 207.277C267.061 207.277 255.743 255.194 256.757 267.293C257.916 281.436 273.39 304.218 273.39 304.218L280.492 297.769C280.492 297.769 273.433 279.092 268.22 266.932C269.895 254.764 284.665 220.39 284.665 208.814L267.061 207.277Z" fill="#FEB95A"/>
<path opacity="0.4" d="M267.061 207.277C267.061 207.277 255.743 255.194 256.757 267.293C257.916 281.436 273.39 304.218 273.39 304.218L280.492 297.769C280.492 297.769 273.433 279.092 268.22 266.932C269.895 254.764 284.665 220.39 284.665 208.814L267.061 207.277Z" fill="black"/>
<path d="M281.745 298.774L273.356 305.034L271.2 303.402L280.414 296.129L281.745 298.774Z" fill="#FEB95A"/>
<path opacity="0.4" d="M275.408 228.385C269.174 237.015 268.865 252.892 269.26 261.815C271.398 253.622 275.88 241.377 279.453 230.351C279.375 226.118 278.319 224.34 275.408 228.385Z" fill="black"/>
<path d="M271.055 207.346C271.055 207.346 274.172 247.851 275.563 261.814C277.203 278.396 285.868 305.609 285.868 305.609L293.742 304.218C293.742 304.218 289.388 282.114 288.083 267.293C288.324 247.542 292.256 221.643 288.512 209.235L271.055 207.346Z" fill="#FEB95A"/>
<path opacity="0.4" d="M271.055 207.346C271.055 207.346 274.172 247.851 275.563 261.814C277.203 278.396 285.868 305.609 285.868 305.609L293.742 304.218C293.742 304.218 289.388 282.114 288.083 267.293C288.324 247.542 292.256 221.643 288.512 209.235L271.055 207.346Z" fill="black"/>
<path d="M294.497 305.583L285.386 306.545L284.364 303.78L294.592 302.105L294.497 305.583Z" fill="#FEB95A"/>
<path d="M285.044 158.116C284.932 158.528 284.614 158.803 284.348 158.726C284.082 158.648 283.953 158.253 284.065 157.867C284.176 157.481 284.503 157.18 284.769 157.257C285.035 157.335 285.164 157.704 285.044 158.116Z" fill="#263238"/>
<path d="M280.372 156.785C280.252 157.197 279.934 157.472 279.668 157.394C279.401 157.317 279.273 156.914 279.393 156.536C279.513 156.158 279.822 155.849 280.088 155.926C280.355 156.003 280.483 156.364 280.372 156.785Z" fill="#263238"/>
<path d="M280.209 155.951L279.29 155.376C279.29 155.376 279.582 156.303 280.209 155.951Z" fill="#263238"/>
<path d="M281.849 158.193C281.211 159.031 280.463 159.78 279.625 160.417C279.792 160.628 280.003 160.799 280.244 160.919C280.484 161.039 280.748 161.105 281.016 161.113L281.849 158.193Z" fill="#FF5652"/>
<path d="M283.043 163.328C282.802 163.3 282.564 163.254 282.33 163.19C282.3 163.179 282.275 163.157 282.259 163.129C282.243 163.1 282.238 163.068 282.244 163.036C282.254 163.002 282.277 162.974 282.307 162.956C282.337 162.939 282.373 162.933 282.407 162.941C282.917 163.102 283.458 163.139 283.985 163.049C284.512 162.959 285.01 162.746 285.439 162.426C285.464 162.408 285.496 162.401 285.527 162.404C285.558 162.408 285.586 162.422 285.607 162.445C285.628 162.469 285.64 162.498 285.641 162.53C285.641 162.561 285.63 162.591 285.61 162.615C284.88 163.177 283.959 163.433 283.043 163.328Z" fill="#263238"/>
<path d="M294.352 164.341C293.597 165.031 292.6 165.395 291.578 165.355C290.221 165.295 289.912 164.376 290.642 163.319C291.372 162.263 292.626 161.181 294.077 161.439C295.339 161.696 295.27 163.483 294.352 164.341Z" fill="#FF8B7B"/>
<path d="M288.357 157.008C288.325 157 288.294 156.985 288.267 156.964C288.241 156.944 288.219 156.918 288.203 156.888C288.049 156.61 287.833 156.373 287.57 156.196C287.307 156.018 287.006 155.905 286.692 155.866C286.658 155.865 286.624 155.857 286.594 155.843C286.563 155.829 286.535 155.809 286.512 155.785C286.489 155.76 286.471 155.731 286.459 155.699C286.447 155.667 286.441 155.634 286.443 155.6C286.449 155.534 286.48 155.473 286.529 155.428C286.578 155.384 286.642 155.359 286.709 155.359C287.107 155.403 287.49 155.54 287.825 155.762C288.159 155.983 288.436 156.28 288.632 156.63C288.665 156.689 288.674 156.758 288.658 156.823C288.643 156.888 288.602 156.945 288.546 156.982C288.518 156.999 288.487 157.01 288.454 157.014C288.422 157.018 288.389 157.016 288.357 157.008Z" fill="#263238"/>
<path d="M279.471 154.603C279.422 154.597 279.376 154.576 279.339 154.544C279.301 154.513 279.274 154.471 279.259 154.424C279.245 154.377 279.244 154.327 279.257 154.28C279.27 154.232 279.297 154.19 279.333 154.157C279.636 153.893 279.996 153.703 280.386 153.603C280.775 153.503 281.182 153.496 281.574 153.581C281.637 153.603 281.69 153.648 281.72 153.707C281.75 153.767 281.757 153.835 281.738 153.899C281.729 153.931 281.714 153.96 281.693 153.986C281.673 154.012 281.647 154.034 281.619 154.049C281.59 154.065 281.558 154.076 281.526 154.079C281.493 154.083 281.46 154.08 281.428 154.071C281.119 154.003 280.797 154.01 280.49 154.092C280.184 154.174 279.902 154.329 279.668 154.543C279.641 154.567 279.61 154.584 279.576 154.595C279.542 154.605 279.506 154.608 279.471 154.603Z" fill="#263238"/>
<path d="M296.404 179.059C297.443 182.099 298.319 185.07 299.057 188.213C299.426 189.768 299.778 191.339 300.027 192.954C300.32 194.655 300.461 196.379 300.448 198.106C300.433 198.609 300.388 199.111 300.311 199.609C300.261 199.899 300.192 200.186 300.105 200.467C300.053 200.639 300.01 200.776 299.942 200.957C299.645 201.717 299.112 202.361 298.422 202.794C298.022 203.03 297.587 203.201 297.133 203.301C296.495 203.432 295.838 203.449 295.193 203.353C293.414 203.034 291.701 202.419 290.126 201.532C287.298 200.006 284.621 198.215 282.132 196.182C281.862 195.975 281.681 195.674 281.623 195.34C281.564 195.005 281.634 194.661 281.817 194.375C282.001 194.089 282.285 193.882 282.613 193.795C282.942 193.709 283.291 193.748 283.592 193.907C286.271 195.294 289.02 196.544 291.827 197.651C292.514 197.908 293.192 198.14 293.845 198.321C294.42 198.493 295.014 198.6 295.614 198.638C295.738 198.656 295.865 198.641 295.983 198.595C295.983 198.595 295.897 198.595 295.777 198.673C295.636 198.753 295.515 198.865 295.425 198.999C295.385 199.051 295.353 199.109 295.33 199.171C295.33 199.171 295.33 199.119 295.33 199.093C295.354 199.009 295.368 198.923 295.373 198.836C295.387 198.564 295.387 198.292 295.373 198.02C295.293 196.629 295.097 195.248 294.789 193.89C294.471 192.447 294.145 190.987 293.75 189.527C292.969 186.625 292.084 183.662 291.174 180.803C291.029 180.144 291.134 179.455 291.467 178.869C291.8 178.282 292.338 177.84 292.978 177.626C293.617 177.413 294.313 177.444 294.932 177.714C295.55 177.983 296.047 178.471 296.326 179.085L296.404 179.059Z" fill="#FF8B7B"/>
<path d="M288.667 323.015C288.602 322.929 288.559 322.829 288.539 322.724C288.52 322.618 288.525 322.509 288.555 322.406C288.568 322.327 288.599 322.254 288.647 322.191C288.695 322.128 288.758 322.078 288.83 322.045C289.474 321.762 291.02 322.801 291.2 322.904C291.219 322.918 291.234 322.938 291.241 322.961C291.249 322.984 291.25 323.009 291.243 323.032C291.238 323.058 291.226 323.082 291.207 323.1C291.189 323.118 291.165 323.131 291.14 323.135C290.436 323.307 289.191 323.522 288.718 323.067L288.667 323.015ZM290.796 322.964C290.161 322.569 289.259 322.105 288.924 322.277C288.891 322.291 288.863 322.313 288.842 322.342C288.821 322.37 288.808 322.404 288.804 322.44C288.778 322.517 288.774 322.599 288.793 322.678C288.811 322.757 288.85 322.829 288.907 322.886C289.156 323.135 289.852 323.204 290.796 322.964Z" fill="#FEB95A"/>
<path d="M290.418 322.543C290.041 322.157 289.828 321.64 289.826 321.1C289.856 321.001 289.916 320.915 289.997 320.852C290.079 320.789 290.178 320.752 290.281 320.748C290.375 320.733 290.471 320.74 290.562 320.768C290.653 320.796 290.736 320.845 290.805 320.911C291.346 321.418 291.251 322.955 291.243 323.024C291.243 323.046 291.236 323.067 291.224 323.085C291.212 323.104 291.194 323.118 291.174 323.127C291.156 323.137 291.135 323.143 291.114 323.143C291.093 323.143 291.072 323.137 291.054 323.127C290.815 322.964 290.601 322.767 290.418 322.543ZM290.676 321.16L290.624 321.1C290.58 321.058 290.527 321.027 290.469 321.009C290.411 320.991 290.349 320.987 290.289 320.997C290.126 320.997 290.092 321.091 290.075 321.151C289.98 321.512 290.521 322.379 291.002 322.774C291.045 322.217 290.932 321.658 290.676 321.16Z" fill="#FEB95A"/>
<path d="M289.002 207.964L289.242 209.939C289.285 210.102 289.088 210.24 288.839 210.214L266.77 208.265C266.581 208.265 266.435 208.136 266.443 208.016L266.563 206.066C266.563 205.929 266.752 205.826 266.967 205.852L288.684 207.767C288.839 207.784 288.976 207.861 289.002 207.964Z" fill="white"/>
<path d="M285.687 210.145L286.271 210.197C286.391 210.197 286.486 210.197 286.486 210.085L286.623 207.552C286.623 207.475 286.537 207.406 286.426 207.397L285.842 207.346C285.722 207.346 285.627 207.389 285.619 207.457L285.49 210.033C285.481 210.068 285.576 210.137 285.687 210.145Z" fill="#FEB95A"/>
<path opacity="0.4" d="M285.687 210.145L286.271 210.197C286.391 210.197 286.486 210.197 286.486 210.085L286.623 207.552C286.623 207.475 286.537 207.406 286.426 207.397L285.842 207.346C285.722 207.346 285.627 207.389 285.619 207.457L285.49 210.033C285.481 210.068 285.576 210.137 285.687 210.145Z" fill="black"/>
<path d="M268.367 208.617L268.951 208.668C269.071 208.668 269.166 208.625 269.174 208.548L269.303 205.972C269.303 205.903 269.217 205.834 269.105 205.817L268.522 205.766C268.401 205.766 268.307 205.766 268.307 205.886L268.169 208.419C268.161 208.539 268.255 208.608 268.367 208.617Z" fill="#FEB95A"/>
<path opacity="0.4" d="M268.367 208.617L268.951 208.668C269.071 208.668 269.166 208.625 269.174 208.548L269.303 205.972C269.303 205.903 269.217 205.834 269.105 205.817L268.522 205.766C268.401 205.766 268.307 205.766 268.307 205.886L268.169 208.419C268.161 208.539 268.255 208.608 268.367 208.617Z" fill="black"/>
<path d="M277.032 209.382L277.616 209.433C277.727 209.433 277.83 209.39 277.83 209.322L277.968 206.745C277.968 206.677 277.882 206.608 277.762 206.599L277.178 206.548C277.066 206.548 276.963 206.548 276.963 206.659L276.826 209.193C276.826 209.304 276.912 209.373 277.032 209.382Z" fill="#FEB95A"/>
<path opacity="0.4" d="M277.032 209.382L277.616 209.433C277.727 209.433 277.83 209.39 277.83 209.322L277.968 206.745C277.968 206.677 277.882 206.608 277.762 206.599L277.178 206.548C277.066 206.548 276.963 206.548 276.963 206.659L276.826 209.193C276.826 209.304 276.912 209.373 277.032 209.382Z" fill="black"/>
<path d="M252.069 181.516L250.351 179.026C250.154 178.733 249.863 178.515 249.526 178.408C249.19 178.3 248.827 178.309 248.496 178.433L246.847 179.051C246.652 179.125 246.472 179.236 246.32 179.38C246.168 179.523 246.046 179.695 245.961 179.886C245.876 180.077 245.831 180.284 245.826 180.493C245.822 180.702 245.86 180.909 245.937 181.104L246.624 182.821C246.852 183.385 247.272 183.851 247.809 184.135L251.888 186.282L254.052 185.835C254.602 183.611 252.069 181.516 252.069 181.516Z" fill="#FF8B7B"/>
<path d="M254.181 185.251C254.417 183.794 254.214 182.299 253.597 180.957C253.442 180.476 253.073 178.828 252.79 178.733C252.12 178.501 251.931 179.661 252.086 180.365C252.127 180.571 252.094 180.786 251.994 180.971C251.894 181.156 251.732 181.3 251.536 181.378C251.536 181.378 253.065 185.122 254.181 185.251Z" fill="#FF8B7B"/>
<path d="M248.067 179.06C248.183 179.086 248.293 179.136 248.389 179.207C248.485 179.278 248.565 179.368 248.625 179.472L251.132 166.771C251.766 169.3 251.848 171.936 251.373 174.5L249.887 175.505L248.805 180.992C248.616 181.936 247.946 182.606 247.354 182.477C246.761 182.349 246.392 181.498 246.581 180.554C246.77 179.609 247.448 178.94 248.067 179.06ZM247.483 182.005C247.921 182.091 248.393 181.61 248.53 180.932C248.668 180.253 248.41 179.626 247.972 179.541C247.534 179.455 247.062 179.927 246.924 180.614C246.787 181.301 247.036 181.919 247.483 182.005Z" fill="#263238"/>
<path d="M251.553 177.935C251.358 178.08 251.228 178.296 251.192 178.536L243.988 167.776C244.379 170.364 245.325 172.836 246.761 175.024L248.479 175.367L251.587 180.005C252.128 180.803 252.979 181.172 253.502 180.863C254.026 180.554 254 179.584 253.502 178.785C253.004 177.987 252.077 177.583 251.553 177.935ZM253.228 180.434C252.858 180.683 252.231 180.434 251.854 179.841C251.476 179.249 251.459 178.596 251.854 178.339C252.249 178.081 252.841 178.339 253.228 178.931C253.614 179.524 253.605 180.176 253.228 180.434Z" fill="#263238"/>
<path d="M284.88 157.283L283.97 156.716C283.97 156.716 284.236 157.635 284.88 157.283Z" fill="#263238"/>
<path d="M285.215 195.015L283.3 190.884C283.029 190.293 282.553 189.821 281.96 189.553L280.329 188.797C280.138 188.709 279.932 188.66 279.722 188.653C279.512 188.646 279.303 188.681 279.106 188.757C278.91 188.832 278.731 188.946 278.58 189.091C278.428 189.237 278.308 189.412 278.225 189.605L277.529 191.219C277.388 191.542 277.36 191.903 277.449 192.244C277.537 192.585 277.738 192.886 278.019 193.1L280.423 194.903C280.423 194.903 282.407 197.539 284.648 197.144L285.215 195.015Z" fill="#FF8B7B"/>
<path d="M128.327 232.009H172.078C173.569 232.035 174.998 232.608 176.095 233.617C177.192 234.627 177.88 236.004 178.029 237.488L185.191 319.341C185.268 320.038 185.195 320.744 184.978 321.411C184.761 322.079 184.404 322.692 183.931 323.21C183.458 323.729 182.88 324.14 182.236 324.418C181.591 324.695 180.895 324.832 180.193 324.819H136.45C134.965 324.783 133.544 324.207 132.453 323.198C131.363 322.19 130.677 320.818 130.525 319.341L123.363 237.488C123.287 236.793 123.358 236.09 123.574 235.425C123.789 234.761 124.143 234.149 124.612 233.631C125.081 233.113 125.655 232.701 126.295 232.421C126.935 232.142 127.628 232.001 128.327 232.009Z" fill="#263238"/>
<path d="M177.368 302.088H182.52C182.84 302.093 183.146 302.214 183.382 302.429C183.618 302.644 183.766 302.939 183.8 303.256L186.29 331.8C186.307 331.949 186.293 332.099 186.247 332.242C186.201 332.384 186.125 332.515 186.024 332.626C185.923 332.737 185.799 332.825 185.662 332.884C185.524 332.942 185.375 332.971 185.225 332.968H180.073C179.754 332.965 179.448 332.844 179.213 332.628C178.978 332.412 178.832 332.117 178.802 331.8L176.303 303.256C176.286 303.107 176.301 302.956 176.347 302.814C176.393 302.671 176.469 302.54 176.57 302.43C176.671 302.319 176.794 302.231 176.932 302.172C177.07 302.113 177.218 302.085 177.368 302.088Z" fill="#263238"/>
<path d="M130.182 302.089H135.334C135.652 302.096 135.957 302.218 136.191 302.433C136.424 302.648 136.572 302.941 136.605 303.257L139.113 331.792C139.129 331.941 139.113 332.092 139.066 332.235C139.019 332.377 138.942 332.508 138.84 332.619C138.739 332.729 138.615 332.817 138.477 332.876C138.339 332.934 138.189 332.963 138.039 332.96H132.887C132.569 332.955 132.263 332.833 132.029 332.618C131.795 332.403 131.648 332.109 131.616 331.792L129.117 303.248C129.103 303.1 129.12 302.951 129.167 302.81C129.214 302.669 129.29 302.54 129.391 302.431C129.491 302.321 129.614 302.234 129.75 302.175C129.886 302.116 130.034 302.087 130.182 302.089Z" fill="#263238"/>
<path d="M169.219 232.009H125.476C123.984 232.035 122.554 232.607 121.456 233.616C120.357 234.626 119.667 236.003 119.516 237.487L112.355 319.34C112.278 320.038 112.35 320.744 112.567 321.411C112.785 322.078 113.142 322.691 113.614 323.21C114.087 323.728 114.665 324.14 115.31 324.417C115.954 324.695 116.651 324.832 117.352 324.819H161.095C162.587 324.793 164.017 324.221 165.116 323.211C166.214 322.202 166.904 320.824 167.055 319.34L174.217 237.487C174.294 236.79 174.221 236.084 174.004 235.417C173.786 234.749 173.43 234.136 172.957 233.618C172.484 233.099 171.906 232.688 171.261 232.41C170.617 232.133 169.92 231.996 169.219 232.009Z" fill="#FEB95A"/>
<path d="M120.221 302.089H115.068C114.75 302.094 114.445 302.215 114.21 302.431C113.976 302.646 113.829 302.94 113.797 303.257L111.264 331.792C111.247 331.941 111.262 332.091 111.308 332.234C111.354 332.377 111.43 332.508 111.531 332.618C111.632 332.729 111.755 332.817 111.893 332.876C112.031 332.935 112.179 332.963 112.329 332.96H117.481C117.8 332.955 118.105 332.833 118.339 332.618C118.574 332.403 118.721 332.109 118.752 331.792L121.243 303.248C121.258 303.104 121.243 302.957 121.199 302.819C121.155 302.68 121.083 302.553 120.987 302.444C120.891 302.335 120.773 302.247 120.641 302.186C120.509 302.125 120.366 302.092 120.221 302.089Z" fill="#FEB95A"/>
<path d="M167.373 302.088H162.22C161.901 302.093 161.595 302.214 161.359 302.429C161.123 302.645 160.974 302.939 160.941 303.256L158.459 331.791C158.442 331.94 158.457 332.091 158.503 332.234C158.549 332.376 158.625 332.507 158.726 332.618C158.827 332.728 158.95 332.816 159.088 332.875C159.225 332.934 159.374 332.963 159.524 332.959H164.676C164.995 332.956 165.301 332.835 165.536 332.62C165.771 332.404 165.917 332.109 165.947 331.791L168.446 303.248C168.462 303.099 168.446 302.948 168.399 302.806C168.352 302.664 168.275 302.534 168.173 302.424C168.071 302.314 167.947 302.227 167.809 302.169C167.671 302.111 167.522 302.084 167.373 302.088Z" fill="#FEB95A"/>
<path d="M117.55 322.62C117.13 322.628 116.713 322.545 116.327 322.379C115.941 322.213 115.595 321.967 115.312 321.656C115.028 321.346 114.814 320.979 114.683 320.58C114.552 320.18 114.508 319.758 114.553 319.34L121.715 237.487C121.805 236.599 122.218 235.775 122.874 235.17C123.531 234.566 124.386 234.223 125.279 234.207H169.022C169.442 234.198 169.86 234.279 170.247 234.445C170.633 234.611 170.98 234.857 171.264 235.168C171.547 235.478 171.762 235.846 171.892 236.246C172.022 236.646 172.065 237.069 172.019 237.487L164.874 319.34C164.782 320.227 164.369 321.05 163.713 321.654C163.057 322.259 162.202 322.602 161.31 322.62H117.55Z" fill="white"/>
<path d="M125.124 255.366L127.941 255.194C127.941 255.559 128.039 255.918 128.224 256.233C128.365 256.427 128.554 256.582 128.772 256.682C128.99 256.783 129.23 256.826 129.469 256.808C129.825 256.826 130.176 256.723 130.465 256.516C130.577 256.436 130.67 256.334 130.74 256.215C130.809 256.097 130.853 255.966 130.869 255.829C130.878 255.706 130.859 255.582 130.813 255.468C130.767 255.353 130.695 255.251 130.603 255.168C130.167 254.87 129.667 254.679 129.143 254.61C128.172 254.459 127.256 254.063 126.481 253.459C126.233 253.227 126.044 252.939 125.927 252.62C125.811 252.301 125.771 251.959 125.811 251.622C125.859 251.115 126.05 250.633 126.361 250.231C126.714 249.772 127.186 249.418 127.726 249.209C128.487 248.929 129.295 248.801 130.105 248.831C131.061 248.759 132.016 248.997 132.827 249.509C133.142 249.772 133.392 250.104 133.557 250.48C133.722 250.855 133.799 251.263 133.78 251.673L130.989 251.836C130.989 251.487 130.854 251.152 130.611 250.9C130.341 250.689 130.001 250.585 129.658 250.608C129.376 250.59 129.095 250.665 128.86 250.823C128.774 250.885 128.703 250.965 128.652 251.057C128.6 251.149 128.568 251.25 128.559 251.355C128.552 251.432 128.565 251.51 128.597 251.581C128.628 251.651 128.677 251.713 128.739 251.759C129.025 251.949 129.352 252.069 129.692 252.111C130.621 252.284 131.524 252.573 132.38 252.97C132.854 253.199 133.247 253.567 133.505 254.026C133.722 254.462 133.812 254.95 133.763 255.434C133.712 256.057 133.486 256.653 133.11 257.152C132.718 257.67 132.193 258.074 131.59 258.32C130.849 258.607 130.058 258.744 129.263 258.723C127.64 258.723 126.55 258.414 125.974 257.787C125.389 257.12 125.084 256.252 125.124 255.366Z" fill="#FEB95A"/>
<path d="M135.815 249.003H138.761L138.469 252.335H141.689L141.981 249.003H144.943L144.085 258.526H141.122L141.466 254.67H138.254L137.919 258.526H134.974L135.815 249.003Z" fill="#FEB95A"/>
<path d="M146.102 253.769C146.107 253.088 146.252 252.415 146.528 251.792C146.804 251.169 147.204 250.609 147.705 250.147C148.206 249.685 148.796 249.331 149.439 249.106C150.082 248.881 150.764 248.791 151.443 248.84C152.093 248.79 152.746 248.878 153.358 249.098C153.971 249.319 154.53 249.667 154.999 250.119C155.406 250.611 155.704 251.184 155.871 251.8C156.039 252.417 156.072 253.062 155.969 253.692C155.92 254.655 155.647 255.593 155.17 256.431C154.739 257.133 154.128 257.708 153.401 258.097C152.565 258.513 151.639 258.717 150.705 258.689C149.801 258.725 148.901 258.548 148.077 258.174C147.393 257.818 146.845 257.248 146.514 256.551C146.115 255.682 145.972 254.717 146.102 253.769ZM149.039 253.769C148.905 254.479 149.03 255.213 149.391 255.839C149.558 256.049 149.773 256.215 150.018 256.325C150.264 256.434 150.532 256.482 150.799 256.465C151.081 256.476 151.362 256.427 151.624 256.322C151.886 256.217 152.123 256.058 152.319 255.856C152.785 255.211 153.035 254.435 153.032 253.64C153.158 252.962 153.026 252.26 152.663 251.674C152.491 251.467 152.274 251.304 152.028 251.196C151.782 251.089 151.514 251.041 151.246 251.055C150.968 251.048 150.692 251.1 150.435 251.208C150.179 251.316 149.949 251.478 149.76 251.682C149.293 252.284 149.04 253.024 149.039 253.786V253.769Z" fill="#FEB95A"/>
<path d="M157.953 249.003H162.847C163.266 248.967 163.688 249.015 164.088 249.145C164.487 249.275 164.857 249.483 165.175 249.758C165.427 250.053 165.611 250.4 165.715 250.774C165.819 251.148 165.84 251.54 165.776 251.922C165.759 252.351 165.656 252.772 165.473 253.16C165.29 253.548 165.031 253.895 164.711 254.181C163.934 254.77 162.97 255.057 161.997 254.988H160.383L160.074 258.526H157.146L157.953 249.003ZM160.529 253.065H161.25C161.679 253.1 162.107 252.995 162.47 252.764C162.588 252.675 162.686 252.561 162.758 252.431C162.829 252.3 162.871 252.156 162.882 252.008C162.898 251.873 162.886 251.736 162.846 251.606C162.806 251.476 162.739 251.355 162.65 251.253C162.498 251.128 162.322 251.036 162.133 250.982C161.944 250.927 161.746 250.911 161.551 250.935H160.692L160.529 253.065Z" fill="#FEB95A"/>
<path d="M123.655 267.929L124.231 261.334H127.665C128.149 261.314 128.633 261.369 129.1 261.497C129.417 261.597 129.686 261.812 129.855 262.098C130.037 262.422 130.109 262.795 130.061 263.163C130.044 263.501 129.934 263.828 129.744 264.108C129.565 264.375 129.327 264.599 129.048 264.76C128.815 264.88 128.566 264.967 128.31 265.018C128.488 265.076 128.658 265.157 128.816 265.258C128.929 265.364 129.03 265.483 129.117 265.611C129.211 265.741 129.294 265.879 129.366 266.023L130.182 267.929H127.88L126.961 265.911C126.892 265.722 126.784 265.549 126.644 265.404C126.502 265.3 126.33 265.245 126.154 265.25H125.974L125.742 267.929H123.655ZM126.051 264.005H126.91C127.095 263.993 127.279 263.964 127.459 263.919C127.595 263.894 127.717 263.82 127.803 263.713C127.898 263.605 127.956 263.47 127.966 263.326C127.981 263.238 127.974 263.148 127.947 263.063C127.92 262.978 127.874 262.901 127.811 262.837C127.588 262.698 127.326 262.638 127.064 262.665H126.206L126.051 264.005Z" fill="#FEB95A"/>
<path d="M131.384 261.377H136.845L136.725 262.785H133.29L133.196 263.833H136.373L136.253 265.181H133.101L132.99 266.478H136.51L136.382 267.972H130.783L131.384 261.377Z" fill="#FEB95A"/>
<path d="M137.473 264.641C137.471 264.165 137.568 263.695 137.758 263.259C137.947 262.824 138.225 262.432 138.574 262.109C138.922 261.786 139.334 261.539 139.783 261.384C140.232 261.228 140.709 261.168 141.182 261.206C141.63 261.166 142.082 261.222 142.507 261.37C142.932 261.518 143.32 261.755 143.647 262.064C143.929 262.405 144.134 262.802 144.25 263.228C144.365 263.655 144.388 264.101 144.317 264.537C144.281 265.204 144.093 265.853 143.767 266.435C143.472 266.925 143.047 267.323 142.539 267.586C141.958 267.875 141.315 268.017 140.667 267.998C140.041 268.025 139.417 267.904 138.846 267.646C138.373 267.399 137.993 267.004 137.764 266.521C137.498 265.932 137.397 265.282 137.473 264.641ZM139.516 264.641C139.421 265.132 139.506 265.641 139.757 266.075C139.873 266.221 140.022 266.337 140.192 266.414C140.363 266.49 140.549 266.524 140.736 266.513C140.931 266.521 141.126 266.486 141.306 266.412C141.487 266.338 141.65 266.226 141.783 266.083C142.11 265.637 142.284 265.099 142.281 264.546C142.366 264.078 142.274 263.594 142.024 263.189C141.908 263.043 141.758 262.927 141.588 262.85C141.418 262.774 141.231 262.74 141.045 262.751C140.852 262.747 140.66 262.784 140.482 262.859C140.305 262.935 140.145 263.047 140.014 263.189C139.693 263.608 139.517 264.121 139.516 264.649V264.641Z" fill="#FEB95A"/>
<path d="M145.69 261.377H149.125C149.416 261.35 149.709 261.383 149.986 261.473C150.264 261.563 150.52 261.709 150.74 261.901C150.914 262.106 151.042 262.347 151.115 262.606C151.187 262.866 151.203 263.138 151.16 263.404C151.13 264.002 150.865 264.564 150.422 264.967C149.881 265.37 149.214 265.568 148.541 265.525H147.425L147.21 267.972H145.124L145.69 261.377ZM147.494 264.185H147.992C148.291 264.211 148.592 264.142 148.85 263.988C148.932 263.924 149 263.844 149.049 263.752C149.098 263.66 149.127 263.559 149.134 263.455C149.145 263.362 149.136 263.266 149.108 263.176C149.08 263.086 149.033 263.002 148.971 262.932C148.866 262.846 148.745 262.782 148.615 262.745C148.485 262.708 148.349 262.699 148.215 262.717H147.631L147.494 264.185Z" fill="#FEB95A"/>
<path d="M152.354 261.377H157.824L157.695 262.785H154.261L154.166 263.833H157.343L157.223 265.181H154.046L153.934 266.478H157.455L157.326 267.972H151.762L152.354 261.377Z" fill="#FEB95A"/>
<path d="M159.035 261.377H160.941L163.105 265.027L163.423 261.377H165.346L164.771 267.972H162.847L160.692 264.348L160.374 267.972H158.451L159.035 261.377Z" fill="#FEB95A"/>
<path d="M148.979 302.389L144.17 300.389C144.866 303.171 142.144 305.18 139.877 306.331C138.795 306.881 139.018 308.297 140.332 308.821L143.466 310.127C147.262 311.707 148.979 302.389 148.979 302.389Z" fill="#FEB95A"/>
<path d="M149.958 302.793L141.139 299.16C140.454 298.857 139.839 298.415 139.333 297.863C138.827 297.31 138.441 296.659 138.199 295.95C137.957 295.241 137.864 294.49 137.927 293.743C137.989 292.996 138.206 292.271 138.563 291.612C139.231 290.192 140.405 289.073 141.856 288.475C143.306 287.876 144.928 287.84 146.403 288.375L155.213 292.041C155.899 292.346 156.514 292.788 157.02 293.341C157.526 293.895 157.912 294.547 158.154 295.256C158.396 295.966 158.489 296.718 158.426 297.465C158.363 298.213 158.147 298.939 157.79 299.598C157.116 301.01 155.94 302.119 154.491 302.71C153.043 303.3 151.427 303.33 149.958 302.793Z" fill="#FEB95A"/>
<path opacity="0.3" d="M149.958 302.793L141.139 299.16C140.454 298.857 139.839 298.415 139.333 297.863C138.827 297.31 138.441 296.659 138.199 295.95C137.957 295.241 137.864 294.49 137.927 293.743C137.989 292.996 138.206 292.271 138.563 291.612C139.231 290.192 140.405 289.073 141.856 288.475C143.306 287.876 144.928 287.84 146.403 288.375L155.213 292.041C155.899 292.346 156.514 292.788 157.02 293.341C157.526 293.895 157.912 294.547 158.154 295.256C158.396 295.966 158.489 296.718 158.426 297.465C158.363 298.213 158.147 298.939 157.79 299.598C157.116 301.01 155.94 302.119 154.491 302.71C153.043 303.3 151.427 303.33 149.958 302.793Z" fill="black"/>
<path d="M124.978 297.872L141.147 301.436C142.496 301.994 149.64 287.378 148.292 286.837L134.681 278.027C132.749 277.203 123.046 297.073 124.978 297.872Z" fill="#FEB95A"/>
</svg>
