<svg width="39" height="39" viewBox="0 0 39 39" fill="none" xmlns="http://www.w3.org/2000/svg">
<circle cx="19.0896" cy="19.0896" r="19.0896" fill="url(#paint0_linear_139_51)"/>
<path fill-rule="evenodd" clip-rule="evenodd" d="M24.6361 15.6395L24.5371 15.4627C24.4094 15.249 24.2294 15.0713 24.0139 14.9466L19.2698 12.2104C19.055 12.0858 18.8111 12.02 18.5628 12.0195H18.3577C18.1094 12.02 17.8655 12.0858 17.6507 12.2104L12.9066 14.9537C12.6923 15.0776 12.5144 15.2555 12.3905 15.4698L12.2915 15.6465C12.1669 15.8614 12.101 16.1052 12.1006 16.3536V21.833C12.101 22.0813 12.1669 22.3252 12.2915 22.54L12.3905 22.7168C12.5176 22.9285 12.6948 23.1058 12.9066 23.2329L17.6578 25.9691C17.8715 26.0963 18.1161 26.1623 18.3648 26.16H18.5628C18.8111 26.1595 19.055 26.0937 19.2698 25.9691L24.0139 23.2258C24.2303 23.1047 24.4089 22.9261 24.53 22.7097L24.6361 22.5329C24.7592 22.3175 24.8249 22.074 24.827 21.8259V16.3465C24.8265 16.0982 24.7607 15.8543 24.6361 15.6395ZM18.3576 13.4336H18.5626L22.7058 15.8233L18.4636 18.2696L14.2215 15.8233L18.3576 13.4336ZM19.1705 24.3924L23.3066 22.0027L23.4127 21.826V17.0465L19.1705 19.4999V24.3924Z" fill="white"/>
<defs>
<linearGradient id="paint0_linear_139_51" x1="2.04531" y1="6.62886e-07" x2="36.6452" y2="38.1791" gradientUnits="userSpaceOnUse">
<stop stop-color="#0289FF"/>
<stop offset="1" stop-color="#0258FF"/>
</linearGradient>
</defs>
</svg>
