<svg width="30" height="30" viewBox="0 0 30 30" fill="none" xmlns="http://www.w3.org/2000/svg">
<path d="M28.9935 19.1734C28.085 22.1392 26.2642 24.7428 23.7904 26.6139C21.6184 28.2486 19.0337 29.2456 16.3266 29.493C13.6194 29.7404 10.8969 29.2283 8.46461 28.0144C6.03229 26.8004 3.98646 24.9326 2.55675 22.6205C1.12703 20.3084 0.370016 17.6436 0.370674 14.9251C0.3609 11.7521 1.3924 8.66357 3.30692 6.13325C5.17799 3.65937 7.78165 1.83863 10.7474 0.930126C10.9429 0.869939 11.151 0.864176 11.3495 0.913456C11.548 0.962736 11.7293 1.0652 11.874 1.20982C12.0186 1.35443 12.121 1.53574 12.1703 1.73424C12.2196 1.93273 12.2138 2.14091 12.1536 2.33638C11.5051 4.48151 11.4508 6.7624 11.9963 8.936C12.5419 11.1096 13.6669 13.0945 15.2515 14.6791C16.8362 16.2637 18.821 17.3888 20.9946 17.9343C23.1682 18.4799 25.4491 18.4255 27.5943 17.777C27.7897 17.7168 27.9979 17.7111 28.1964 17.7603C28.3949 17.8096 28.5762 17.9121 28.7208 18.0567C28.8654 18.2013 28.9679 18.3826 29.0172 18.5811C29.0665 18.7796 29.0607 18.9878 29.0005 19.1833L28.9935 19.1734Z" fill="black"/>
</svg>
