<svg width="30" height="30" viewBox="0 0 30 30" fill="none" xmlns="http://www.w3.org/2000/svg">
<path d="M28.9935 19.1734C28.085 22.1391 26.2642 24.7428 23.7904 26.6138C21.6184 28.2486 19.0337 29.2456 16.3266 29.493C13.6194 29.7403 10.8969 29.2283 8.46461 28.0143C6.03229 26.8004 3.98646 24.9325 2.55675 22.6204C1.12703 20.3083 0.370016 17.6435 0.370674 14.9251C0.3609 11.7521 1.3924 8.66354 3.30692 6.13322C5.17799 3.65934 7.78165 1.8386 10.7474 0.930096C10.9429 0.869909 11.151 0.864145 11.3495 0.913426C11.548 0.962706 11.7293 1.06517 11.874 1.20978C12.0186 1.3544 12.121 1.53571 12.1703 1.73421C12.2196 1.9327 12.2138 2.14088 12.1536 2.33635C11.5051 4.48148 11.4508 6.76237 11.9963 8.93597C12.5419 11.1096 13.6669 13.0944 15.2515 14.6791C16.8362 16.2637 18.821 17.3887 20.9946 17.9343C23.1682 18.4798 25.4491 18.4255 27.5943 17.777C27.7897 17.7168 27.9979 17.711 28.1964 17.7603C28.3949 17.8096 28.5762 17.912 28.7208 18.0567C28.8654 18.2013 28.9679 18.3826 29.0172 18.5811C29.0665 18.7796 29.0607 18.9878 29.0005 19.1832L28.9935 19.1734Z" fill="black"/>
</svg>
