<svg width="17" height="18" viewBox="0 0 17 18" fill="none" xmlns="http://www.w3.org/2000/svg">
<rect x="0.136719" y="0.311401" width="16.8343" height="16.8343" rx="8.41716" fill="white"/>
<path d="M4.94644 12.0018C4.94644 12.5162 5.48754 12.9371 6.14889 12.9371H10.9587C11.62 12.9371 12.1611 12.5162 12.1611 12.0018V6.39038H4.94644V12.0018ZM6.42545 8.67236L7.27318 8.01302L8.55379 9.00437L9.82839 8.01302L10.6761 8.67236L9.40152 9.66371L10.6761 10.6551L9.82839 11.3144L8.55379 10.3231L7.2792 11.3144L6.43147 10.6551L7.70606 9.66371L6.42545 8.67236ZM10.6581 4.98752L10.0569 4.5199H7.05073L6.4495 4.98752H4.34521V5.92276H12.7624V4.98752H10.6581Z" fill="#FF0000"/>
</svg>
