<svg width="17" height="18" viewBox="0 0 17 18" fill="none" xmlns="http://www.w3.org/2000/svg">
<rect x="0.136719" y="0.311523" width="16.8343" height="16.8343" rx="8.41716" fill="black"/>
<path d="M4.94644 12.0019C4.94644 12.5163 5.48754 12.9372 6.14889 12.9372H10.9587C11.62 12.9372 12.1611 12.5163 12.1611 12.0019V6.3905H4.94644V12.0019ZM6.42545 8.67248L7.27318 8.01314L8.55379 9.00449L9.82839 8.01314L10.6761 8.67248L9.40152 9.66384L10.6761 10.6552L9.82839 11.3145L8.55379 10.3232L7.2792 11.3145L6.43147 10.6552L7.70606 9.66384L6.42545 8.67248ZM10.6581 4.98764L10.0569 4.52002H7.05073L6.4495 4.98764H4.34521V5.92288H12.7624V4.98764H10.6581Z" fill="#FF0000"/>
</svg>
