<svg width="17" height="18" viewBox="0 0 17 18" fill="none" xmlns="http://www.w3.org/2000/svg">
<rect x="0.136719" y="0.311401" width="16.8343" height="16.8343" rx="8.41716" fill="white"/>
<path d="M4.94644 12.0018C4.94644 12.5162 5.48754 12.9371 6.14889 12.9371H10.9587C11.62 12.9371 12.1611 12.5162 12.1611 12.0018V6.39038H4.94644V12.0018ZM6.42545 8.67236L7.27318 8.01302L8.55379 9.00437L9.82839 8.01302L10.6761 8.67236L9.40152 9.66371L10.6761 10.6551L9.82839 11.3144L8.55379 10.3231L7.2792 11.3144L6.43147 10.6551L7.70606 9.66371L6.42545 8.67236ZM10.6581 4.98752L10.0569 4.5199H7.05073L6.4495 4.98752H4.34521V5.92276H12.7624V4.98752H10.6581Z" fill="#FF0000"/>
</svg>
<?xml version="1.0" encoding="utf-8"?><!-- Uploaded to: SVG Repo, www.svgrepo.com, Generator: SVG Repo Mixer Tools -->
<svg width="800px" height="800px" viewBox="0 0 24 24" fill="none" xmlns="http://www.w3.org/2000/svg">
<path d="M13.5 3H12H8C6.34315 3 5 4.34315 5 6V18C5 19.6569 6.34315 21 8 21H11M13.5 3L19 8.625M13.5 3V7.625C13.5 8.17728 13.9477 8.625 14.5 8.625H19M19 8.625V11.8125" stroke="#000000" stroke-width="2" stroke-linecap="round" stroke-linejoin="round"/>
<path d="M15 16L17.5 18.5M20 21L17.5 18.5M17.5 18.5L20 16M17.5 18.5L15 21" stroke="#000000" stroke-width="2" stroke-linecap="round" stroke-linejoin="round"/>
</svg>