<svg width="15" height="11" viewBox="0 0 15 11" fill="none" xmlns="http://www.w3.org/2000/svg">
<path d="M12.7596 1.53794C11.8466 1.17148 10.8832 0.909929 9.89346 0.759812C9.88449 0.758491 9.87528 0.759632 9.86708 0.763077C9.85889 0.766523 9.85212 0.772104 9.8477 0.779053C9.72362 0.971469 9.58634 1.22315 9.49042 1.42018C8.42351 1.27857 7.33827 1.27857 6.27137 1.42018C6.16437 1.20069 6.04332 0.986641 5.90881 0.779053C5.90429 0.77218 5.8975 0.766663 5.88934 0.763229C5.88117 0.759794 5.872 0.758603 5.86305 0.759812C4.87304 0.909126 3.90944 1.17081 2.99688 1.53794C2.98907 1.54055 2.98254 1.54544 2.9784 1.55179C1.15327 3.93697 0.652552 6.26366 0.898073 8.56109C0.898953 8.57187 0.906873 8.58264 0.916553 8.58957C1.97935 9.27812 3.16812 9.80383 4.43216 10.1443C4.44109 10.1467 4.45068 10.1467 4.45954 10.144C4.4684 10.1414 4.47607 10.1364 4.48144 10.1297C4.75248 9.8064 4.9936 9.46544 5.20128 9.10678C5.20561 9.0994 5.20709 9.09098 5.20551 9.0828C5.20392 9.07461 5.19935 9.0671 5.19248 9.06137C5.18794 9.05762 5.18254 9.05473 5.17664 9.05291C4.7975 8.92547 4.43031 8.77235 4.0784 8.59496C4.06857 8.59009 4.06126 8.58209 4.05799 8.57264C4.05471 8.56318 4.05572 8.55298 4.0608 8.54416C4.0638 8.53843 4.06832 8.53341 4.074 8.52954C4.14792 8.48105 4.22184 8.43025 4.29224 8.37945C4.29846 8.37508 4.30592 8.37227 4.31383 8.37132C4.32173 8.37037 4.32979 8.37132 4.33712 8.37406C6.64185 9.29458 9.13665 9.29458 11.4132 8.37406C11.4208 8.37119 11.4292 8.37017 11.4374 8.37112C11.4456 8.37206 11.4534 8.37495 11.4599 8.37945C11.5303 8.43025 11.6042 8.48105 11.6781 8.52954C11.6841 8.53337 11.6889 8.53843 11.6921 8.54429C11.6953 8.55014 11.6968 8.55659 11.6965 8.56307C11.6961 8.56956 11.6939 8.57586 11.6901 8.58143C11.6863 8.58699 11.681 8.59164 11.6746 8.59496C11.3235 8.77398 10.9558 8.92691 10.5755 9.05214C10.5694 9.05406 10.5639 9.05712 10.5593 9.06111C10.5548 9.0651 10.5513 9.06992 10.5491 9.07523C10.547 9.08037 10.5462 9.08582 10.5467 9.09124C10.5471 9.09667 10.5488 9.10196 10.5517 9.10678C10.7629 9.46467 11.0049 9.8064 11.2707 10.1297C11.276 10.1364 11.2837 10.1414 11.2926 10.144C11.3014 10.1467 11.311 10.1467 11.3199 10.1443C12.5861 9.80488 13.7768 9.27911 14.8408 8.58957C14.8462 8.58634 14.8506 8.58211 14.8538 8.57718C14.857 8.57225 14.8589 8.56675 14.8593 8.56109C15.1532 5.90499 14.3674 3.59755 12.7772 1.55256C12.7756 1.54918 12.7732 1.54614 12.7702 1.54362C12.7672 1.5411 12.7636 1.53917 12.7596 1.53794ZM5.54537 7.16185C4.85104 7.16185 4.27992 6.60462 4.27992 5.92116C4.27992 5.23693 4.84048 4.67969 5.54537 4.67969C6.25553 4.67969 6.82137 5.24155 6.81081 5.92116C6.81081 6.60462 6.25025 7.16185 5.54537 7.16185ZM10.2235 7.16185C9.53002 7.16185 8.95801 6.60462 8.95801 5.92116C8.95801 5.23693 9.51858 4.67969 10.2235 4.67969C10.9336 4.67969 11.5003 5.24155 11.4889 5.92116C11.4889 6.60462 10.9336 7.16185 10.2235 7.16185Z" fill="white"/>
</svg>
