<svg width="39" height="39" viewBox="0 0 39 39" fill="none" xmlns="http://www.w3.org/2000/svg">
<circle cx="19.0896" cy="19.0896" r="19.0896" fill="url(#paint0_linear_139_73)"/>
<path fill-rule="evenodd" clip-rule="evenodd" d="M16.475 12H21.4241C21.6193 12 21.7776 12.1484 21.7776 12.3315V12.9946C21.7776 13.1777 21.6193 13.3261 21.4241 13.3261H21.0706V15.66C21.0691 16.1047 21.3054 16.5205 21.6998 16.7673C23.5121 17.9033 24.3184 20.0175 23.6854 21.9736C23.0525 23.9297 21.1293 25.2672 18.9495 25.2672C16.7697 25.2672 14.8466 23.9297 14.2136 21.9736C13.5807 20.0175 14.387 17.9033 16.1992 16.7673C16.5937 16.5205 16.83 16.1047 16.8285 15.66V13.3261H16.475C16.2797 13.3261 16.1214 13.1777 16.1214 12.9946V12.3315C16.1214 12.1484 16.2797 12 16.475 12ZM20.915 17.868C20.1282 17.3757 19.6559 16.5471 19.6565 15.6601V13.3262H18.2424V15.6601C18.2431 16.5471 17.7708 17.3757 16.9839 17.868C16.0044 18.4825 15.4158 19.5144 15.4144 20.6197H22.4846C22.4832 19.5144 21.8946 18.4825 20.915 17.868Z" fill="white"/>
<defs>
<linearGradient id="paint0_linear_139_73" x1="19.0896" y1="0" x2="19.0896" y2="38.1791" gradientUnits="userSpaceOnUse">
<stop stop-color="#8B96FF"/>
<stop offset="1" stop-color="#4353FF"/>
</linearGradient>
</defs>
</svg>
