<svg width="61" height="60" viewBox="0 0 61 60" fill="none" xmlns="http://www.w3.org/2000/svg">
<rect x="1.22591" y="0.391801" width="59.0901" height="59.0901" rx="29.545" fill="#1167F1" stroke="#282D45" stroke-width="0.625888"/>
<mask id="path-2-inside-1_140_36" fill="white">
<path fill-rule="evenodd" clip-rule="evenodd" d="M21.8975 32.7688C21.8975 32.7685 21.8976 32.7682 21.8977 32.7679C22.2239 32.312 22.3208 31.7362 22.2431 31.1805C22.1364 30.4098 22.1364 29.628 22.2431 28.8573C22.3208 28.3014 22.2239 27.7264 21.8975 27.2694L21.309 26.4458L21.2936 26.4246C21.0373 26.0666 20.8232 25.7661 20.6639 25.503C20.4978 25.2285 20.3653 24.9529 20.3019 24.6381C20.2036 24.1501 20.2452 23.6442 20.4219 23.1789C20.5371 22.8774 20.7128 22.6278 20.9221 22.384C21.1218 22.1517 21.3829 21.8905 21.6939 21.5795L21.7131 21.5603L22.1058 21.1677L22.125 21.1485C22.4351 20.8384 22.6972 20.5763 22.9285 20.3766C23.1724 20.1673 23.4229 19.9916 23.7234 19.8774C24.1887 19.7003 24.6945 19.6584 25.1826 19.7564C25.4984 19.8198 25.774 19.9523 26.0485 20.1193C26.3106 20.2777 26.612 20.4928 26.9701 20.7481L26.9912 20.7635L27.8149 21.352C28.2719 21.6784 28.8469 21.7753 29.4028 21.6985C30.1735 21.5919 30.9553 21.5919 31.726 21.6985C32.2828 21.7753 32.8569 21.6784 33.3138 21.352L34.1375 20.7635L34.1596 20.7481C34.5167 20.4928 34.8182 20.2777 35.0802 20.1193C35.3548 19.9523 35.6303 19.8198 35.9452 19.7564C36.4336 19.6582 36.9398 19.7001 37.4054 19.8774C37.7058 19.9916 37.9564 20.1673 38.1993 20.3766C38.4316 20.5763 38.6937 20.8374 39.0038 21.1485L39.023 21.1677L39.4166 21.5613L39.4348 21.5795C39.7459 21.8905 40.007 22.1517 40.2067 22.384C40.4159 22.6278 40.5916 22.8774 40.7059 23.1779C40.883 23.6432 40.9249 24.149 40.8268 24.6371C40.7635 24.9539 40.631 25.2285 40.4649 25.504C40.3055 25.7661 40.0905 26.0666 39.8351 26.4246L39.8198 26.4458L39.2313 27.2694C38.9049 27.7264 38.8079 28.3014 38.8847 28.8573C38.9914 29.628 38.9914 30.4098 38.8847 31.1805C38.8079 31.7373 38.9049 32.3114 39.2313 32.7683L39.8198 33.592L39.8351 33.6141C40.0915 33.9722 40.3055 34.2727 40.4649 34.5347C40.631 34.8093 40.7635 35.0848 40.8268 35.3997C40.9251 35.8881 40.8831 36.3943 40.7059 36.8599C40.5916 37.1604 40.4159 37.4109 40.2067 37.6548C40.007 37.8871 39.7459 38.1482 39.4339 38.4592L39.4156 38.4784L39.023 38.8701L39.0038 38.8893C38.6937 39.2004 38.4316 39.4615 38.1993 39.6612C37.9564 39.8704 37.7058 40.0471 37.4054 40.1604C36.9402 40.3378 36.4343 40.3801 35.9462 40.2823C35.6294 40.2189 35.3548 40.0855 35.0793 39.9194C34.8182 39.761 34.5167 39.545 34.1596 39.2906L34.1375 39.2743L33.3138 38.6868C32.8569 38.3604 32.2818 38.2624 31.726 38.3392C30.9553 38.4459 30.1735 38.4459 29.4028 38.3392C28.846 38.2624 28.2719 38.3604 27.8149 38.6868L26.9912 39.2752L26.9692 39.2896C26.612 39.546 26.3106 39.76 26.0485 39.9194C25.774 40.0855 25.4984 40.2189 25.1836 40.2823C24.6952 40.3805 24.189 40.3386 23.7234 40.1613C23.4229 40.0461 23.1724 39.8704 22.9295 39.6612C22.652 39.4134 22.3834 39.156 22.124 38.8893L22.1048 38.8701L21.7131 38.4775L21.6939 38.4592C21.4273 38.2002 21.1699 37.9319 20.9221 37.6548C20.7128 37.4109 20.5371 37.1604 20.4229 36.8599C20.2458 36.3946 20.2039 35.8887 20.3019 35.4007C20.3653 35.0848 20.4978 34.8093 20.6639 34.5347C20.8232 34.2727 21.0383 33.9722 21.2936 33.6131L21.309 33.592L21.8972 32.7697C21.8974 32.7694 21.8975 32.7691 21.8975 32.7688V32.7688ZM-nan -nanL30.5644 32.8989C31.3282 32.8989 32.0608 32.5955 32.6009 32.0554C33.141 31.5153 33.4444 30.7827 33.4444 30.0189C33.4444 29.2551 33.141 28.5225 32.6009 27.9824C32.0608 27.4423 31.3282 27.1389 30.5644 27.1389C29.8006 27.1389 29.068 27.4423 28.5279 27.9824C27.9878 28.5225 27.6844 29.2551 27.6844 30.0189C27.6844 30.7827 27.9878 31.5153 28.5279 32.0554C29.068 32.5955 29.8006 32.8989 30.5644 32.8989L-nan -nanL-nan -nanZ"/>
</mask>
<path fill-rule="evenodd" clip-rule="evenodd" d="M21.8975 32.7688C21.8975 32.7685 21.8976 32.7682 21.8977 32.7679C22.2239 32.312 22.3208 31.7362 22.2431 31.1805C22.1364 30.4098 22.1364 29.628 22.2431 28.8573C22.3208 28.3014 22.2239 27.7264 21.8975 27.2694L21.309 26.4458L21.2936 26.4246C21.0373 26.0666 20.8232 25.7661 20.6639 25.503C20.4978 25.2285 20.3653 24.9529 20.3019 24.6381C20.2036 24.1501 20.2452 23.6442 20.4219 23.1789C20.5371 22.8774 20.7128 22.6278 20.9221 22.384C21.1218 22.1517 21.3829 21.8905 21.6939 21.5795L21.7131 21.5603L22.1058 21.1677L22.125 21.1485C22.4351 20.8384 22.6972 20.5763 22.9285 20.3766C23.1724 20.1673 23.4229 19.9916 23.7234 19.8774C24.1887 19.7003 24.6945 19.6584 25.1826 19.7564C25.4984 19.8198 25.774 19.9523 26.0485 20.1193C26.3106 20.2777 26.612 20.4928 26.9701 20.7481L26.9912 20.7635L27.8149 21.352C28.2719 21.6784 28.8469 21.7753 29.4028 21.6985C30.1735 21.5919 30.9553 21.5919 31.726 21.6985C32.2828 21.7753 32.8569 21.6784 33.3138 21.352L34.1375 20.7635L34.1596 20.7481C34.5167 20.4928 34.8182 20.2777 35.0802 20.1193C35.3548 19.9523 35.6303 19.8198 35.9452 19.7564C36.4336 19.6582 36.9398 19.7001 37.4054 19.8774C37.7058 19.9916 37.9564 20.1673 38.1993 20.3766C38.4316 20.5763 38.6937 20.8374 39.0038 21.1485L39.023 21.1677L39.4166 21.5613L39.4348 21.5795C39.7459 21.8905 40.007 22.1517 40.2067 22.384C40.4159 22.6278 40.5916 22.8774 40.7059 23.1779C40.883 23.6432 40.9249 24.149 40.8268 24.6371C40.7635 24.9539 40.631 25.2285 40.4649 25.504C40.3055 25.7661 40.0905 26.0666 39.8351 26.4246L39.8198 26.4458L39.2313 27.2694C38.9049 27.7264 38.8079 28.3014 38.8847 28.8573C38.9914 29.628 38.9914 30.4098 38.8847 31.1805C38.8079 31.7373 38.9049 32.3114 39.2313 32.7683L39.8198 33.592L39.8351 33.6141C40.0915 33.9722 40.3055 34.2727 40.4649 34.5347C40.631 34.8093 40.7635 35.0848 40.8268 35.3997C40.9251 35.8881 40.8831 36.3943 40.7059 36.8599C40.5916 37.1604 40.4159 37.4109 40.2067 37.6548C40.007 37.8871 39.7459 38.1482 39.4339 38.4592L39.4156 38.4784L39.023 38.8701L39.0038 38.8893C38.6937 39.2004 38.4316 39.4615 38.1993 39.6612C37.9564 39.8704 37.7058 40.0471 37.4054 40.1604C36.9402 40.3378 36.4343 40.3801 35.9462 40.2823C35.6294 40.2189 35.3548 40.0855 35.0793 39.9194C34.8182 39.761 34.5167 39.545 34.1596 39.2906L34.1375 39.2743L33.3138 38.6868C32.8569 38.3604 32.2818 38.2624 31.726 38.3392C30.9553 38.4459 30.1735 38.4459 29.4028 38.3392C28.846 38.2624 28.2719 38.3604 27.8149 38.6868L26.9912 39.2752L26.9692 39.2896C26.612 39.546 26.3106 39.76 26.0485 39.9194C25.774 40.0855 25.4984 40.2189 25.1836 40.2823C24.6952 40.3805 24.189 40.3386 23.7234 40.1613C23.4229 40.0461 23.1724 39.8704 22.9295 39.6612C22.652 39.4134 22.3834 39.156 22.124 38.8893L22.1048 38.8701L21.7131 38.4775L21.6939 38.4592C21.4273 38.2002 21.1699 37.9319 20.9221 37.6548C20.7128 37.4109 20.5371 37.1604 20.4229 36.8599C20.2458 36.3946 20.2039 35.8887 20.3019 35.4007C20.3653 35.0848 20.4978 34.8093 20.6639 34.5347C20.8232 34.2727 21.0383 33.9722 21.2936 33.6131L21.309 33.592L21.8972 32.7697C21.8974 32.7694 21.8975 32.7691 21.8975 32.7688V32.7688ZM-nan -nanL30.5644 32.8989C31.3282 32.8989 32.0608 32.5955 32.6009 32.0554C33.141 31.5153 33.4444 30.7827 33.4444 30.0189C33.4444 29.2551 33.141 28.5225 32.6009 27.9824C32.0608 27.4423 31.3282 27.1389 30.5644 27.1389C29.8006 27.1389 29.068 27.4423 28.5279 27.9824C27.9878 28.5225 27.6844 29.2551 27.6844 30.0189C27.6844 30.7827 27.9878 31.5153 28.5279 32.0554C29.068 32.5955 29.8006 32.8989 30.5644 32.8989L-nan -nanL-nan -nanZ" fill="white"/>
<path d="M22.2431 31.1805L21.9331 31.2234L21.9331 31.2238L22.2431 31.1805ZM22.2431 28.8573L21.9331 28.8139L21.9331 28.8144L22.2431 28.8573ZM21.8975 27.2694L22.1521 27.0875L22.1521 27.0875L21.8975 27.2694ZM21.309 26.4458L21.5636 26.2638L21.5621 26.2617L21.309 26.4458ZM21.2936 26.4246L21.0391 26.6068L21.0405 26.6087L21.2936 26.4246ZM20.6639 25.503L20.3961 25.665L20.3962 25.6652L20.6639 25.503ZM20.3019 24.6381L20.6087 24.5763L20.6087 24.5762L20.3019 24.6381ZM20.4219 23.1789L20.1296 23.0671L20.1294 23.0677L20.4219 23.1789ZM20.9221 22.384L20.6848 22.18L20.6846 22.1802L20.9221 22.384ZM21.6939 21.5795L21.9152 21.8008L21.9152 21.8008L21.6939 21.5795ZM21.7131 21.5603L21.4919 21.339L21.4919 21.339L21.7131 21.5603ZM22.1058 21.1677L21.8845 20.9464L21.8845 20.9464L22.1058 21.1677ZM22.125 21.1485L22.3463 21.3697L22.3463 21.3697L22.125 21.1485ZM22.9285 20.3766L22.7247 20.1391L22.724 20.1397L22.9285 20.3766ZM23.7234 19.8774L23.8346 20.1699L23.8347 20.1699L23.7234 19.8774ZM25.1826 19.7564L25.121 20.0633L25.121 20.0633L25.1826 19.7564ZM26.0485 20.1193L25.8859 20.3867L25.8867 20.3872L26.0485 20.1193ZM26.9701 20.7481L27.1542 20.495L27.1518 20.4933L26.9701 20.7481ZM26.9912 20.7635L26.8072 21.0166L26.8093 21.0181L26.9912 20.7635ZM27.8149 21.352L27.633 21.6066L27.633 21.6066L27.8149 21.352ZM29.4028 21.6985L29.4456 22.0085L29.4457 22.0085L29.4028 21.6985ZM31.726 21.6985L31.6831 22.0085L31.6832 22.0085L31.726 21.6985ZM33.3138 21.352L33.4957 21.6066L33.4958 21.6066L33.3138 21.352ZM34.1375 20.7635L33.9588 20.5066L33.9556 20.5089L34.1375 20.7635ZM34.1596 20.7481L34.3383 21.005L34.3416 21.0027L34.1596 20.7481ZM35.0802 20.1193L35.2421 20.3872L35.2429 20.3867L35.0802 20.1193ZM35.9452 19.7564L35.8835 19.4497L35.8835 19.4497L35.9452 19.7564ZM37.4054 19.8774L37.294 20.1699L37.2942 20.1699L37.4054 19.8774ZM38.1993 20.3766L37.995 20.6137L37.9953 20.6139L38.1993 20.3766ZM39.0038 21.1485L38.7821 21.3694L38.7825 21.3697L39.0038 21.1485ZM39.023 21.1677L39.2443 20.9464L39.2443 20.9464L39.023 21.1677ZM39.4166 21.5613L39.6379 21.34L39.6379 21.34L39.4166 21.5613ZM39.4348 21.5795L39.2135 21.8008L39.2135 21.8008L39.4348 21.5795ZM40.2067 22.384L40.4441 22.1802L40.444 22.18L40.2067 22.384ZM40.7059 23.1779L40.4133 23.2891L40.4134 23.2892L40.7059 23.1779ZM40.8268 24.6371L40.52 24.5755L40.52 24.5757L40.8268 24.6371ZM40.4649 25.504L40.7323 25.6666L40.7329 25.6655L40.4649 25.504ZM39.8351 26.4246L40.0882 26.6087L40.0899 26.6063L39.8351 26.4246ZM39.8198 26.4458L39.5667 26.2617L39.5651 26.2638L39.8198 26.4458ZM39.2313 27.2694L38.9767 27.0875L38.9766 27.0875L39.2313 27.2694ZM38.8847 28.8573L38.5747 28.9001L38.5747 28.9002L38.8847 28.8573ZM38.8847 31.1805L38.5747 31.1376L38.5747 31.1377L38.8847 31.1805ZM39.2313 32.7683L38.9766 32.9502L38.9767 32.9503L39.2313 32.7683ZM39.8198 33.592L40.0767 33.4133L40.0744 33.4101L39.8198 33.592ZM39.8351 33.6141L39.5782 33.7928L39.5807 33.7963L39.8351 33.6141ZM40.4649 34.5347L40.7327 34.3728L40.7323 34.3722L40.4649 34.5347ZM40.8268 35.3997L41.1336 35.338L41.1336 35.338L40.8268 35.3997ZM40.7059 36.8599L40.4134 36.7485L40.4133 36.7487L40.7059 36.8599ZM40.2067 37.6548L40.444 37.8587L40.4441 37.8586L40.2067 37.6548ZM39.4339 38.4592L39.2128 38.2375L39.207 38.2437L39.4339 38.4592ZM39.4156 38.4784L39.6367 38.7001L39.6425 38.694L39.4156 38.4784ZM39.023 38.8701L38.802 38.6486L38.8017 38.6488L39.023 38.8701ZM39.0038 38.8893L38.7825 38.668L38.7821 38.6684L39.0038 38.8893ZM38.1993 39.6612L37.9953 39.4238L37.995 39.4241L38.1993 39.6612ZM37.4054 40.1604L37.295 39.8675L37.2938 39.868L37.4054 40.1604ZM35.9462 40.2823L36.0076 39.9754L36.0075 39.9754L35.9462 40.2823ZM35.0793 39.9194L34.917 40.187L34.9177 40.1874L35.0793 39.9194ZM34.1596 39.2906L33.9736 39.5423L33.978 39.5455L34.1596 39.2906ZM34.1375 39.2743L34.3236 39.0226L34.3192 39.0195L34.1375 39.2743ZM33.3138 38.6868L33.1319 38.9414L33.1321 38.9415L33.3138 38.6868ZM31.726 38.3392L31.6832 38.0292L31.6831 38.0292L31.726 38.3392ZM29.4028 38.3392L29.4457 38.0292L29.4455 38.0292L29.4028 38.3392ZM27.8149 38.6868L27.633 38.4321L27.633 38.4321L27.8149 38.6868ZM26.9912 39.2752L27.1623 39.5376L27.1732 39.5299L26.9912 39.2752ZM26.9692 39.2896L26.798 39.0273L26.7867 39.0354L26.9692 39.2896ZM26.0485 39.9194L26.2105 40.1872L26.2111 40.1868L26.0485 39.9194ZM25.1836 40.2823L25.2453 40.5891L25.2453 40.5891L25.1836 40.2823ZM23.7234 40.1613L23.6114 40.4535L23.612 40.4538L23.7234 40.1613ZM22.9295 39.6612L22.721 39.8946L22.7252 39.8982L22.9295 39.6612ZM22.124 38.8893L22.3484 38.6711L22.3453 38.668L22.124 38.8893ZM22.1048 38.8701L21.8833 39.0911L21.8835 39.0914L22.1048 38.8701ZM21.7131 38.4775L21.9348 38.2564L21.9287 38.2506L21.7131 38.4775ZM21.6939 38.4592L21.4759 38.6837L21.4784 38.6861L21.6939 38.4592ZM20.9221 37.6548L20.6846 37.8586L20.6888 37.8634L20.9221 37.6548ZM20.4229 36.8599L20.7154 36.7487L20.7154 36.7485L20.4229 36.8599ZM20.3019 35.4007L20.6088 35.4623L20.6088 35.4622L20.3019 35.4007ZM20.6639 34.5347L20.3965 34.3722L20.3961 34.3728L20.6639 34.5347ZM21.2936 33.6131L21.0405 33.4291L21.0386 33.4318L21.2936 33.6131ZM21.309 33.592L21.5621 33.7761L21.5635 33.7741L21.309 33.592ZM21.8972 32.7697L22.1517 32.9518L21.8972 32.7697ZM21.8977 32.7679L22.1523 32.95L21.8977 32.7679ZM22.1523 32.95C22.5349 32.4152 22.6393 31.7539 22.553 31.1371L21.9331 31.2238C22.0023 31.7184 21.9129 32.2089 21.6432 32.5859L22.1523 32.95ZM22.5531 31.1376C22.4503 30.3953 22.4503 29.6424 22.5531 28.9002L21.9331 28.8144C21.8225 29.6136 21.8225 30.4242 21.9331 31.2234L22.5531 31.1376ZM22.553 28.9006C22.6393 28.2835 22.5348 27.6232 22.1521 27.0875L21.6428 27.4513C21.913 27.8296 22.0023 28.3194 21.9331 28.8139L22.553 28.9006ZM22.1521 27.0875L21.5636 26.2638L21.0544 26.6277L21.6428 27.4514L22.1521 27.0875ZM21.5621 26.2617L21.5467 26.2406L21.0405 26.6087L21.0559 26.6298L21.5621 26.2617ZM21.5481 26.2425C21.2898 25.8816 21.0834 25.5916 20.9315 25.3409L20.3962 25.6652C20.563 25.9406 20.7848 26.2515 21.0392 26.6068L21.5481 26.2425ZM20.9316 25.3411C20.7751 25.0822 20.6622 24.8418 20.6087 24.5763L19.9951 24.6998C20.0684 25.0641 20.2205 25.3747 20.3961 25.665L20.9316 25.3411ZM20.6087 24.5762C20.522 24.1461 20.5587 23.7002 20.7145 23.29L20.1294 23.0677C19.9317 23.5883 19.8851 24.1541 19.9952 24.6999L20.6087 24.5762ZM20.7143 23.2906C20.8116 23.0359 20.9624 22.8175 21.1596 22.5878L20.6846 22.1802C20.4632 22.4381 20.2627 22.719 20.1296 23.0671L20.7143 23.2906ZM21.1594 22.588C21.3497 22.3666 21.6013 22.1147 21.9152 21.8008L21.4727 21.3582C21.1645 21.6664 20.8938 21.9368 20.6848 22.18L21.1594 22.588ZM21.9152 21.8008L21.9344 21.7816L21.4919 21.339L21.4727 21.3582L21.9152 21.8008ZM21.9344 21.7816L22.3271 21.3889L21.8845 20.9464L21.4919 21.339L21.9344 21.7816ZM22.3271 21.3889L22.3463 21.3697L21.9037 20.9272L21.8845 20.9464L22.3271 21.3889ZM22.3463 21.3697C22.6592 21.0568 22.9122 20.804 23.133 20.6135L22.724 20.1397C22.4821 20.3485 22.2109 20.6199 21.9037 20.9272L22.3463 21.3697ZM23.1323 20.6141C23.3618 20.4171 23.581 20.2663 23.8346 20.1699L23.6122 19.5849C23.2648 19.717 22.9829 19.9176 22.7247 20.1391L23.1323 20.6141ZM23.8347 20.1699C24.2448 20.0138 24.6907 19.9768 25.121 20.0633L25.2442 19.4496C24.6983 19.3399 24.1325 19.3868 23.6121 19.5849L23.8347 20.1699ZM25.121 20.0633C25.3873 20.1167 25.6276 20.2295 25.8859 20.3867L26.2112 19.852C25.9203 19.675 25.6095 19.5229 25.2442 19.4496L25.121 20.0633ZM25.8867 20.3872C26.1363 20.5381 26.4269 20.7451 26.7884 21.0029L27.1518 20.4933C26.7972 20.2404 26.4849 20.0174 26.2104 19.8515L25.8867 20.3872ZM26.7861 21.0012L26.8072 21.0166L27.1753 20.5104L27.1542 20.495L26.7861 21.0012ZM26.8093 21.0181L27.633 21.6066L27.9969 21.0973L27.1732 20.5089L26.8093 21.0181ZM27.633 21.6066C28.1687 21.9892 28.8288 22.0938 29.4456 22.0085L29.3599 21.3885C28.865 21.4569 28.3751 21.3675 27.9968 21.0973L27.633 21.6066ZM29.4457 22.0085C30.1879 21.9058 30.9408 21.9058 31.6831 22.0085L31.7689 21.3885C30.9697 21.278 30.1591 21.278 29.3599 21.3885L29.4457 22.0085ZM31.6832 22.0085C32.3009 22.0937 32.9601 21.9892 33.4957 21.6066L33.1319 21.0973C32.7537 21.3675 32.2647 21.4569 31.7687 21.3885L31.6832 22.0085ZM33.4958 21.6066L34.3194 21.0181L33.9556 20.5089L33.1319 21.0973L33.4958 21.6066ZM34.3162 21.0204L34.3383 21.005L33.9809 20.4912L33.9588 20.5066L34.3162 21.0204ZM34.3416 21.0027C34.7019 20.7451 34.9926 20.538 35.2421 20.3872L34.9184 19.8515C34.6438 20.0175 34.3316 20.2404 33.9776 20.4936L34.3416 21.0027ZM35.2429 20.3867C35.5012 20.2295 35.7415 20.1166 36.0069 20.0632L35.8835 19.4497C35.5191 19.523 35.2084 19.6751 34.9176 19.852L35.2429 20.3867ZM36.0069 20.0632C36.4374 19.9766 36.8836 20.0136 37.294 20.1699L37.5167 19.585C36.996 19.3867 36.4298 19.3397 35.8835 19.4497L36.0069 20.0632ZM37.2942 20.1699C37.5477 20.2663 37.7668 20.4171 37.995 20.6137L38.4036 20.1395C38.146 19.9176 37.864 19.717 37.5166 19.5849L37.2942 20.1699ZM37.9953 20.6139C38.2167 20.8042 38.4699 21.0562 38.7821 21.3694L39.2254 20.9275C38.9175 20.6187 38.6465 20.3483 38.4033 20.1393L37.9953 20.6139ZM38.7825 21.3697L38.8017 21.3889L39.2443 20.9464L39.2251 20.9272L38.7825 21.3697ZM38.8017 21.3889L39.1953 21.7825L39.6379 21.34L39.2443 20.9464L38.8017 21.3889ZM39.1953 21.7825L39.2135 21.8008L39.6561 21.3582L39.6379 21.34L39.1953 21.7825ZM39.2135 21.8008C39.5275 22.1147 39.779 22.3666 39.9693 22.588L40.444 22.18C40.2349 21.9368 39.9642 21.6664 39.6561 21.3582L39.2135 21.8008ZM39.9692 22.5878C40.1664 22.8176 40.317 23.0358 40.4133 23.2891L40.9984 23.0667C40.8662 22.7191 40.6654 22.438 40.4441 22.1802L39.9692 22.5878ZM40.4134 23.2892C40.5695 23.6993 40.6065 24.1452 40.52 24.5755L41.1336 24.6988C41.2433 24.1528 41.1964 23.587 40.9983 23.0666L40.4134 23.2892ZM40.52 24.5757C40.4665 24.8428 40.3538 25.0822 40.1969 25.3424L40.7329 25.6655C40.9082 25.3748 41.0604 25.065 41.1337 24.6985L40.52 24.5757ZM40.1975 25.3414C40.0455 25.5914 39.8383 25.8812 39.5803 26.2429L40.0899 26.6063C40.3427 26.2519 40.5656 25.9407 40.7323 25.6666L40.1975 25.3414ZM39.582 26.2406L39.5667 26.2617L40.0729 26.6298L40.0882 26.6087L39.582 26.2406ZM39.5651 26.2638L38.9767 27.0875L39.4859 27.4514L40.0744 26.6277L39.5651 26.2638ZM38.9766 27.0875C38.594 27.6232 38.4895 28.2833 38.5747 28.9001L39.1947 28.8145C39.1263 28.3195 39.2158 27.8296 39.4859 27.4513L38.9766 27.0875ZM38.5747 28.9002C38.6775 29.6425 38.6775 30.3953 38.5747 31.1376L39.1947 31.2234C39.3053 30.4242 39.3053 29.6136 39.1947 28.8144L38.5747 28.9002ZM38.5747 31.1377C38.4895 31.7554 38.594 32.4146 38.9766 32.9502L39.4859 32.5864C39.2158 32.2082 39.1263 31.7192 39.1947 31.2233L38.5747 31.1377ZM38.9767 32.9503L39.5651 33.7739L40.0744 33.4101L39.4859 32.5864L38.9767 32.9503ZM39.5629 33.7707L39.5782 33.7928L40.092 33.4354L40.0767 33.4133L39.5629 33.7707ZM39.5807 33.7963C39.8389 34.157 40.0455 34.4473 40.1975 34.6973L40.7323 34.3722C40.5656 34.098 40.344 33.7873 40.0896 33.4319L39.5807 33.7963ZM40.1971 34.6967C40.3537 34.9555 40.4666 35.196 40.52 35.4614L41.1336 35.338C41.0603 34.9737 40.9083 34.6631 40.7327 34.3728L40.1971 34.6967ZM40.52 35.4614C40.6066 35.8919 40.5697 36.3381 40.4134 36.7485L40.9983 36.9712C41.1966 36.4505 41.2435 35.8843 41.1336 35.338L40.52 35.4614ZM40.4133 36.7487C40.3169 37.0022 40.1662 37.2214 39.9692 37.4509L40.4441 37.8586C40.6657 37.6004 40.8663 37.3185 40.9984 36.9711L40.4133 36.7487ZM39.9693 37.4508C39.7791 37.6721 39.5275 37.924 39.2129 38.2376L39.6548 38.6809C39.9642 38.3724 40.2348 38.1021 40.444 37.8587L39.9693 37.4508ZM39.207 38.2437L39.1887 38.2629L39.6425 38.694L39.6607 38.6748L39.207 38.2437ZM39.1946 38.2569L38.802 38.6486L39.244 39.0917L39.6366 38.7L39.1946 38.2569ZM38.8017 38.6488L38.7825 38.668L39.2251 39.1106L39.2443 39.0914L38.8017 38.6488ZM38.7821 38.6684C38.4699 38.9816 38.2167 39.2335 37.9953 39.4238L38.4033 39.8985C38.6465 39.6894 38.9175 39.4191 39.2254 39.1103L38.7821 38.6684ZM37.995 39.4241C37.7662 39.6212 37.5476 39.7723 37.295 39.8675L37.5158 40.4532C37.8641 40.3219 38.1466 40.1197 38.4036 39.8982L37.995 39.4241ZM37.2938 39.868C36.8838 40.0244 36.4379 40.0616 36.0076 39.9754L35.8847 40.5891C36.4307 40.6985 36.9966 40.6512 37.5169 40.4528L37.2938 39.868ZM36.0075 39.9754C35.7409 39.9221 35.5017 39.8086 35.2408 39.6514L34.9177 40.1874C35.2079 40.3623 35.5178 40.5158 35.8848 40.5892L36.0075 39.9754ZM35.2416 39.6518C34.9927 39.5009 34.7023 39.293 34.3412 39.0357L33.978 39.5455C34.3311 39.797 34.6436 40.0211 34.917 40.187L35.2416 39.6518ZM34.3456 39.0389L34.3235 39.0226L33.9515 39.5259L33.9736 39.5423L34.3456 39.0389ZM34.3192 39.0195L33.4956 38.432L33.1321 38.9415L33.9558 39.5291L34.3192 39.0195ZM33.4957 38.4321C32.9603 38.0497 32.3003 37.944 31.6832 38.0292L31.7688 38.6492C32.2633 38.5809 32.7534 38.671 33.1319 38.9414L33.4957 38.4321ZM31.6831 38.0292C30.9408 38.132 30.1879 38.132 29.4457 38.0292L29.3599 38.6492C30.1591 38.7598 30.9697 38.7598 31.7689 38.6492L31.6831 38.0292ZM29.4455 38.0292C28.8274 37.944 28.1684 38.0497 27.633 38.4321L27.9968 38.9414C28.3754 38.671 28.8645 38.5809 29.36 38.6492L29.4455 38.0292ZM27.633 38.4321L26.8093 39.0206L27.1732 39.5299L27.9969 38.9414L27.633 38.4321ZM26.8203 39.0131L26.7982 39.0275L27.1401 39.5518L27.1622 39.5374L26.8203 39.0131ZM26.7867 39.0354C26.4275 39.2932 26.136 39.5 25.8859 39.652L26.2111 40.1868C26.4852 40.0201 26.7966 39.7987 27.1516 39.5439L26.7867 39.0354ZM25.8866 39.6516C25.6271 39.8086 25.3869 39.9222 25.1218 39.9755L25.2453 40.5891C25.61 40.5157 25.9208 40.3624 26.2105 40.1872L25.8866 39.6516ZM25.1218 39.9755C24.6913 40.0621 24.2451 40.0251 23.8348 39.8689L23.612 40.4538C24.1328 40.6521 24.699 40.699 25.2453 40.5891L25.1218 39.9755ZM23.8354 39.8691C23.5813 39.7717 23.3619 39.6207 23.1337 39.4241L22.7252 39.8982C22.9828 40.1202 23.2645 40.3206 23.6114 40.4535L23.8354 39.8691ZM23.1379 39.4278C22.866 39.1849 22.6026 38.9325 22.3484 38.6711L21.8997 39.1075C22.1642 39.3794 22.4381 39.6419 22.721 39.8946L23.1379 39.4278ZM22.3453 38.668L22.3261 38.6488L21.8835 39.0914L21.9027 39.1106L22.3453 38.668ZM22.3264 38.6491L21.9347 38.2565L21.4916 38.6985L21.8833 39.0911L22.3264 38.6491ZM21.9287 38.2506L21.9095 38.2324L21.4784 38.6861L21.4976 38.7044L21.9287 38.2506ZM21.912 38.2348C21.6507 37.9809 21.3983 37.7178 21.1554 37.4462L20.6888 37.8634C20.9415 38.1459 21.204 38.4195 21.4759 38.6837L21.912 38.2348ZM21.1596 37.4509C20.9626 37.2214 20.8118 37.0022 20.7154 36.7487L20.1304 36.9711C20.2625 37.3185 20.4631 37.6004 20.6846 37.8586L21.1596 37.4509ZM20.7154 36.7485C20.5593 36.3384 20.5223 35.8925 20.6088 35.4623L19.9951 35.339C19.8854 35.885 19.9323 36.4508 20.1304 36.9712L20.7154 36.7485ZM20.6088 35.4622C20.6622 35.1958 20.7751 34.9555 20.9316 34.6967L20.3961 34.3728C20.2205 34.6631 20.0684 34.9738 19.9951 35.3391L20.6088 35.4622ZM20.9313 34.6973C21.0834 34.4472 21.2905 34.1575 21.5486 33.7945L21.0386 33.4318C20.7861 33.7868 20.5631 34.0981 20.3965 34.3722L20.9313 34.6973ZM21.5467 33.7972L21.5621 33.7761L21.0559 33.408L21.0405 33.4291L21.5467 33.7972ZM21.5635 33.7741L22.1517 32.9518L21.6427 32.5876L21.0545 33.41L21.5635 33.7741ZM30.5644 33.2118C31.4112 33.2118 32.2233 32.8754 32.8221 32.2766L32.3796 31.8341C31.8982 32.3155 31.2452 32.586 30.5644 32.586V33.2118ZM32.8221 32.2766C33.4209 31.6779 33.7573 30.8657 33.7573 30.0189H33.1314C33.1314 30.6997 32.861 31.3527 32.3796 31.8341L32.8221 32.2766ZM33.7573 30.0189C33.7573 29.1721 33.4209 28.3599 32.8221 27.7611L32.3796 28.2037C32.861 28.6851 33.1314 29.3381 33.1314 30.0189H33.7573ZM32.8221 27.7611C32.2233 27.1623 31.4112 26.8259 30.5644 26.8259V27.4518C31.2452 27.4518 31.8982 27.7223 32.3796 28.2037L32.8221 27.7611ZM30.5644 26.8259C29.7176 26.8259 28.9054 27.1623 28.3066 27.7611L28.7492 28.2037C29.2306 27.7223 29.8836 27.4518 30.5644 27.4518V26.8259ZM28.3066 27.7611C27.7078 28.3599 27.3714 29.1721 27.3714 30.0189H27.9973C27.9973 29.3381 28.2678 28.6851 28.7492 28.2037L28.3066 27.7611ZM27.3714 30.0189C27.3714 30.8657 27.7078 31.6779 28.3066 32.2766L28.7492 31.8341C28.2678 31.3527 27.9973 30.6997 27.9973 30.0189H27.3714ZM28.3066 32.2766C28.9054 32.8754 29.7176 33.2118 30.5644 33.2118V32.586C29.8836 32.586 29.2306 32.3155 28.7492 31.8341L28.3066 32.2766ZM22.1517 32.9518C22.1899 32.8984 22.2104 32.8344 22.2104 32.7688H21.5845C21.5845 32.7038 21.6048 32.6405 21.6427 32.5876L22.1517 32.9518ZM21.6432 32.5859C21.6052 32.639 21.5845 32.703 21.5845 32.7688H22.2104C22.2104 32.8341 22.1899 32.8974 22.1523 32.95L21.6432 32.5859Z" fill="#21263F" mask="url(#path-2-inside-1_140_36)"/>
</svg>
