<svg width="24" height="25" viewBox="0 0 24 25" fill="none" xmlns="http://www.w3.org/2000/svg">
<path fill-rule="evenodd" clip-rule="evenodd" d="M23.5275 12.2766C23.5275 11.4254 23.4511 10.607 23.3092 9.82129H12.0039V14.4645H18.4641C18.1858 15.965 17.3401 17.2363 16.0688 18.0875V21.0993H19.9482C22.218 19.0096 23.5275 15.9323 23.5275 12.2766Z" fill="#4285F4"/>
<path fill-rule="evenodd" clip-rule="evenodd" d="M12.0038 24.0077C15.2448 24.0077 17.962 22.9328 19.9481 21.0995L16.0687 18.0877C14.9938 18.8079 13.6189 19.2335 12.0038 19.2335C8.87739 19.2335 6.23111 17.1219 5.28719 14.2847H1.27686V17.3947C3.25201 21.3178 7.31145 24.0077 12.0038 24.0077Z" fill="#34A853"/>
<path fill-rule="evenodd" clip-rule="evenodd" d="M5.28709 14.2847C5.04701 13.5645 4.91061 12.7952 4.91061 12.004C4.91061 11.2129 5.04701 10.4436 5.28709 9.72333V6.61328H1.27676C0.46378 8.23378 0 10.0671 0 12.004C0 13.941 0.46378 15.7743 1.27676 17.3948L5.28709 14.2847Z" fill="#FBBC05"/>
<path fill-rule="evenodd" clip-rule="evenodd" d="M12.0038 4.7742C13.7662 4.7742 15.3485 5.37984 16.5925 6.5693L20.0354 3.12642C17.9566 1.18946 15.2394 0 12.0038 0C7.31145 0 3.25201 2.68992 1.27686 6.61295L5.28719 9.723C6.23111 6.88576 8.87739 4.7742 12.0038 4.7742Z" fill="#EA4335"/>
</svg>
