<svg width="61" height="60" viewBox="0 0 61 60" fill="none" xmlns="http://www.w3.org/2000/svg">
<rect x="0.455078" y="0.0788574" width="59.7159" height="59.7159" rx="29.858" fill="#763AFF"/>
<path fill-rule="evenodd" clip-rule="evenodd" d="M19.78 20.4373C19.7322 20.5232 19.6892 20.6117 19.651 20.7022C19.4654 21.1389 19.4515 21.6054 19.4922 22.0927C19.5329 22.5701 19.6371 23.1616 19.7651 23.8832L19.7711 23.9179L21.2102 32.0682L21.226 32.1615C21.3719 32.9922 21.4662 33.5242 21.6488 33.9797C21.9377 34.699 22.3995 35.336 22.9933 35.8342C23.5871 36.3324 24.2946 36.6766 25.0531 36.8361C25.5344 36.9374 26.0743 36.9374 26.919 36.9374H27.0579C27.4946 36.9374 27.7755 36.9374 28.0484 36.9056C28.9164 36.804 29.739 36.4631 30.4244 35.921C30.6408 35.7503 30.8383 35.5518 31.1469 35.2432L31.1797 35.2114L35.6062 30.7829L35.6389 30.7512C35.9466 30.4435 36.1451 30.245 36.3168 30.0286C36.858 29.3433 37.1982 28.521 37.2994 27.6536C37.3321 27.3797 37.3321 27.0988 37.3321 26.6631V26.5232C37.3321 25.6796 37.3321 25.1397 37.2319 24.6593C37.0723 23.9004 36.7279 23.1926 36.2293 22.5986C35.7307 22.0046 35.0933 21.5428 34.3735 21.2541C33.919 21.0715 33.387 20.9772 32.5563 20.8313L32.464 20.8144L24.3127 19.3753L24.2779 19.3703C23.5564 19.2423 22.9649 19.1381 22.4875 19.0974C22.0002 19.0567 21.5327 19.0706 21.097 19.2562C21.0068 19.2944 20.9186 19.3375 20.833 19.3852L25.7012 24.2534C25.7743 24.3215 25.833 24.4037 25.8736 24.495C25.9143 24.5863 25.9362 24.6849 25.938 24.7848C25.9397 24.8848 25.9213 24.984 25.8839 25.0767C25.8465 25.1694 25.7907 25.2536 25.7201 25.3243C25.6494 25.395 25.5652 25.4507 25.4725 25.4881C25.3798 25.5256 25.2805 25.544 25.1806 25.5422C25.0806 25.5404 24.9821 25.5186 24.8908 25.4779C24.7995 25.4372 24.7173 25.3785 24.6491 25.3054L19.78 20.4382V20.4373ZM30.6338 28.2531C30.6338 28.7795 30.4247 29.2844 30.0524 29.6567C29.6802 30.0289 29.1753 30.2381 28.6489 30.2381C28.1224 30.2381 27.6175 30.0289 27.2453 29.6567C26.873 29.2844 26.6639 28.7795 26.6639 28.2531C26.6639 27.7266 26.873 27.2218 27.2453 26.8495C27.6175 26.4772 28.1224 26.2681 28.6489 26.2681C29.1753 26.2681 29.6802 26.4772 30.0524 26.8495C30.4247 27.2218 30.6338 27.7266 30.6338 28.2531Z" fill="white"/>
<path fill-rule="evenodd" clip-rule="evenodd" d="M38.3951 30.4561C38.7321 30.1192 39.189 29.9299 39.6655 29.9299C40.142 29.9299 40.599 30.1192 40.9359 30.4561C41.2728 30.7931 41.4621 31.25 41.4621 31.7265C41.4621 32.203 41.2728 32.66 40.9359 32.9969L33.9885 39.9443C33.8217 40.1112 33.6236 40.2435 33.4056 40.3338C33.1877 40.4241 32.954 40.4705 32.7181 40.4705C32.4822 40.4705 32.2485 40.4241 32.0306 40.3338C31.8126 40.2435 31.6145 40.1112 31.4477 39.9443C31.2809 39.7775 31.1486 39.5794 31.0583 39.3615C30.968 39.1435 30.9215 38.9099 30.9215 38.6739C30.9215 38.438 30.968 38.2044 31.0583 37.9864C31.1486 37.7684 31.2809 37.5704 31.4477 37.4036L38.3951 30.4561Z" fill="white"/>
</svg>
