<svg width="10" height="11" viewBox="0 0 10 11" fill="none" xmlns="http://www.w3.org/2000/svg">
<path d="M4.9659 0.443848C6.26492 0.443848 6.427 0.448629 6.93666 0.472534C7.44585 0.49644 7.79248 0.576284 8.09751 0.694855C8.41306 0.816294 8.67889 0.980764 8.94472 1.24611C9.18784 1.48512 9.37595 1.77423 9.49598 2.09332C9.61407 2.39788 9.6944 2.74498 9.7183 3.25417C9.74077 3.76383 9.74699 3.92591 9.74699 5.22493C9.74699 6.52395 9.74221 6.68603 9.7183 7.1957C9.6944 7.70488 9.61407 8.05151 9.49598 8.35654C9.3763 8.67581 9.18814 8.96499 8.94472 9.20375C8.70565 9.44679 8.41656 9.63489 8.09751 9.75501C7.79296 9.87311 7.44585 9.95343 6.93666 9.97733C6.427 9.9998 6.26492 10.006 4.9659 10.006C3.66688 10.006 3.5048 10.0012 2.99514 9.97733C2.48595 9.95343 2.13932 9.87311 1.83429 9.75501C1.51507 9.63523 1.22591 9.44708 0.987081 9.20375C0.743918 8.96479 0.555794 8.67567 0.435822 8.35654C0.317251 8.05199 0.237406 7.70488 0.213501 7.1957C0.19103 6.68603 0.184814 6.52395 0.184814 5.22493C0.184814 3.92591 0.189596 3.76383 0.213501 3.25417C0.237406 2.74451 0.317251 2.39836 0.435822 2.09332C0.555462 1.77403 0.74363 1.48484 0.987081 1.24611C1.22598 1.00287 1.51512 0.814731 1.83429 0.694855C2.13932 0.576284 2.48547 0.49644 2.99514 0.472534C3.5048 0.450063 3.66688 0.443848 4.9659 0.443848ZM4.9659 2.83439C4.33189 2.83439 3.72385 3.08625 3.27553 3.53456C2.82722 3.98288 2.57536 4.59092 2.57536 5.22493C2.57536 5.85894 2.82722 6.46699 3.27553 6.9153C3.72385 7.36362 4.33189 7.61548 4.9659 7.61548C5.59991 7.61548 6.20796 7.36362 6.65627 6.9153C7.10458 6.46699 7.35644 5.85894 7.35644 5.22493C7.35644 4.59092 7.10458 3.98288 6.65627 3.53456C6.20796 3.08625 5.59991 2.83439 4.9659 2.83439V2.83439ZM8.07361 2.71486C8.07361 2.55636 8.01064 2.40435 7.89856 2.29227C7.78649 2.18019 7.63447 2.11723 7.47597 2.11723C7.31747 2.11723 7.16546 2.18019 7.05338 2.29227C6.9413 2.40435 6.87834 2.55636 6.87834 2.71486C6.87834 2.87337 6.9413 3.02538 7.05338 3.13746C7.16546 3.24953 7.31747 3.3125 7.47597 3.3125C7.63447 3.3125 7.78649 3.24953 7.89856 3.13746C8.01064 3.02538 8.07361 2.87337 8.07361 2.71486ZM4.9659 3.79061C5.34631 3.79061 5.71113 3.94172 5.98012 4.21071C6.24911 4.4797 6.40023 4.84453 6.40023 5.22493C6.40023 5.60534 6.24911 5.97017 5.98012 6.23916C5.71113 6.50814 5.34631 6.65926 4.9659 6.65926C4.58549 6.65926 4.22067 6.50814 3.95168 6.23916C3.68269 5.97017 3.53157 5.60534 3.53157 5.22493C3.53157 4.84453 3.68269 4.4797 3.95168 4.21071C4.22067 3.94172 4.58549 3.79061 4.9659 3.79061V3.79061Z" fill="white"/>
</svg>
