<svg width="15" height="16" viewBox="0 0 15 16" fill="none" xmlns="http://www.w3.org/2000/svg">
<path fill-rule="evenodd" clip-rule="evenodd" d="M4.28902 0.9856C5.03975 0.951039 5.27911 0.943359 7.19146 0.943359C9.1038 0.943359 9.34317 0.951679 10.0933 0.9856C10.8433 1.01952 11.3554 1.1392 11.8034 1.31264C12.2725 1.48993 12.6981 1.76705 13.0501 2.12545C13.4085 2.47682 13.685 2.90179 13.8616 3.37155C14.0357 3.81956 14.1548 4.33156 14.1893 5.08037C14.2239 5.83238 14.2316 6.07175 14.2316 7.98345C14.2316 9.8958 14.2232 10.1352 14.1893 10.8859C14.1554 11.6347 14.0357 12.1467 13.8616 12.5947C13.685 13.0645 13.408 13.4902 13.0501 13.8421C12.6981 14.2005 12.2725 14.477 11.8034 14.6536C11.3554 14.8277 10.8433 14.9467 10.0945 14.9813C9.34317 15.0159 9.1038 15.0235 7.19146 15.0235C5.27911 15.0235 5.03975 15.0152 4.28902 14.9813C3.54021 14.9474 3.0282 14.8277 2.5802 14.6536C2.11038 14.477 1.68471 14.2 1.33282 13.8421C0.974661 13.4905 0.697496 13.065 0.520652 12.5954C0.34721 12.1473 0.228168 11.6353 0.193608 10.8865C0.159047 10.1345 0.151367 9.89516 0.151367 7.98345C0.151367 6.07111 0.159687 5.83174 0.193608 5.08165C0.227528 4.33156 0.34721 3.81956 0.520652 3.37155C0.697757 2.90184 0.975134 2.47638 1.33346 2.12481C1.68485 1.76673 2.1101 1.48957 2.57956 1.31264C3.02757 1.1392 3.53957 1.02016 4.28838 0.9856H4.28902ZM10.0363 2.25282C9.29389 2.2189 9.07116 2.21186 7.19146 2.21186C5.31175 2.21186 5.08903 2.2189 4.34662 2.25282C3.65989 2.28418 3.28741 2.39874 3.03909 2.49538C2.71076 2.62338 2.47588 2.77506 2.22947 3.02147C1.9959 3.2487 1.81614 3.52533 1.70339 3.83108C1.60675 4.0794 1.49218 4.45189 1.46082 5.13861C1.4269 5.88102 1.41986 6.10375 1.41986 7.98345C1.41986 9.86316 1.4269 10.0859 1.46082 10.8283C1.49218 11.515 1.60675 11.8875 1.70339 12.1358C1.81603 12.4411 1.99587 12.7182 2.22947 12.9454C2.45668 13.179 2.7338 13.3589 3.03909 13.4715C3.28741 13.5682 3.65989 13.6827 4.34662 13.7141C5.08903 13.748 5.31111 13.755 7.19146 13.755C9.0718 13.755 9.29389 13.748 10.0363 13.7141C10.723 13.6827 11.0955 13.5682 11.3438 13.4715C11.6722 13.3435 11.907 13.1918 12.1534 12.9454C12.387 12.7182 12.5669 12.4411 12.6795 12.1358C12.7762 11.8875 12.8907 11.515 12.9221 10.8283C12.956 10.0859 12.9631 9.86316 12.9631 7.98345C12.9631 6.10375 12.956 5.88102 12.9221 5.13861C12.8907 4.45189 12.7762 4.0794 12.6795 3.83108C12.5515 3.50275 12.3998 3.26787 12.1534 3.02147C11.9262 2.78791 11.6496 2.60816 11.3438 2.49538C11.0955 2.39874 10.723 2.28418 10.0363 2.25282ZM6.29225 10.1537C6.79444 10.3628 7.35362 10.391 7.8743 10.2335C8.39498 10.0761 8.84485 9.74278 9.14708 9.2905C9.4493 8.83823 9.58513 8.29505 9.53136 7.75376C9.47759 7.21246 9.23757 6.70662 8.85228 6.32263C8.60667 6.07717 8.30969 5.88922 7.98272 5.77232C7.65576 5.65541 7.30694 5.61245 6.96137 5.64653C6.61581 5.68062 6.28211 5.7909 5.98428 5.96943C5.68645 6.14796 5.43191 6.39031 5.23899 6.67902C5.04606 6.96773 4.91955 7.29563 4.86856 7.6391C4.81757 7.98258 4.84337 8.33308 4.9441 8.66539C5.04483 8.9977 5.21798 9.30354 5.4511 9.56089C5.68421 9.81825 5.97149 10.0207 6.29225 10.1537ZM4.63271 5.4247C4.96873 5.08868 5.36764 4.82213 5.80667 4.64028C6.2457 4.45843 6.71626 4.36483 7.19146 4.36483C7.66666 4.36483 8.13722 4.45843 8.57625 4.64028C9.01528 4.82213 9.41419 5.08868 9.75021 5.4247C10.0862 5.76072 10.3528 6.15963 10.5346 6.59866C10.7165 7.0377 10.8101 7.50825 10.8101 7.98345C10.8101 8.45866 10.7165 8.92921 10.5346 9.36824C10.3528 9.80727 10.0862 10.2062 9.75021 10.5422C9.07159 11.2208 8.15118 11.6021 7.19146 11.6021C6.23174 11.6021 5.31133 11.2208 4.63271 10.5422C3.95408 9.86358 3.57284 8.94317 3.57284 7.98345C3.57284 7.02373 3.95408 6.10332 4.63271 5.4247ZM11.6126 4.90373C11.6959 4.82518 11.7626 4.73072 11.8087 4.62595C11.8548 4.52118 11.8794 4.40822 11.8811 4.29376C11.8827 4.1793 11.8614 4.06567 11.8184 3.9596C11.7754 3.85352 11.7115 3.75716 11.6305 3.67622C11.5496 3.59528 11.4532 3.5314 11.3472 3.48836C11.2411 3.44533 11.1275 3.42402 11.013 3.42568C10.8985 3.42735 10.7856 3.45197 10.6808 3.49808C10.576 3.54419 10.4816 3.61085 10.403 3.69412C10.2503 3.85606 10.1666 4.07116 10.1699 4.29376C10.1731 4.51636 10.263 4.72893 10.4204 4.88635C10.5778 5.04377 10.7904 5.13364 11.013 5.13689C11.2356 5.14013 11.4507 5.05649 11.6126 4.90373Z" fill="#090D27"/>
</svg>
