<svg width="37" height="37" viewBox="0 0 37 37" fill="none" xmlns="http://www.w3.org/2000/svg">
<path d="M17.3438 5.78125V2.3125C17.3438 2.00584 17.4656 1.71175 17.6824 1.49491C17.8992 1.27807 18.1933 1.15625 18.5 1.15625C18.8067 1.15625 19.1008 1.27807 19.3176 1.49491C19.5344 1.71175 19.6562 2.00584 19.6562 2.3125V5.78125C19.6562 6.08791 19.5344 6.382 19.3176 6.59884C19.1008 6.81568 18.8067 6.9375 18.5 6.9375C18.1933 6.9375 17.8992 6.81568 17.6824 6.59884C17.4656 6.382 17.3438 6.08791 17.3438 5.78125ZM18.5 9.25C16.6705 9.25 14.8821 9.7925 13.361 10.8089C11.8398 11.8253 10.6542 13.27 9.95411 14.9602C9.254 16.6504 9.07082 18.5103 9.42774 20.3046C9.78465 22.0989 10.6656 23.7471 11.9593 25.0407C13.2529 26.3344 14.9011 27.2154 16.6954 27.5723C18.4897 27.9292 20.3496 27.746 22.0398 27.0459C23.73 26.3458 25.1747 25.1602 26.1911 23.639C27.2075 22.1179 27.75 20.3295 27.75 18.5C27.7473 16.0476 26.7719 13.6964 25.0378 11.9622C23.3036 10.2281 20.9524 9.25268 18.5 9.25ZM8.43195 10.068C8.64891 10.285 8.94317 10.4069 9.25 10.4069C9.55683 10.4069 9.85109 10.285 10.068 10.068C10.285 9.85109 10.4069 9.55683 10.4069 9.25C10.4069 8.94317 10.285 8.64891 10.068 8.43195L7.75555 6.11945C7.53859 5.90249 7.24433 5.78061 6.9375 5.78061C6.63067 5.78061 6.33641 5.90249 6.11945 6.11945C5.90249 6.33641 5.78061 6.63067 5.78061 6.9375C5.78061 7.24433 5.90249 7.53859 6.11945 7.75555L8.43195 10.068ZM8.43195 26.932L6.11945 29.2445C5.90249 29.4614 5.78061 29.7557 5.78061 30.0625C5.78061 30.3693 5.90249 30.6636 6.11945 30.8805C6.33641 31.0975 6.63067 31.2194 6.9375 31.2194C7.24433 31.2194 7.53859 31.0975 7.75555 30.8805L10.068 28.568C10.1755 28.4606 10.2607 28.3331 10.3188 28.1927C10.377 28.0524 10.4069 27.9019 10.4069 27.75C10.4069 27.5981 10.377 27.4476 10.3188 27.3073C10.2607 27.1669 10.1755 27.0394 10.068 26.932C9.96062 26.8245 9.83309 26.7393 9.69272 26.6812C9.55236 26.623 9.40193 26.5931 9.25 26.5931C9.09807 26.5931 8.94764 26.623 8.80728 26.6812C8.66692 26.7393 8.53938 26.8245 8.43195 26.932ZM27.75 10.4062C27.9019 10.4064 28.0523 10.3766 28.1927 10.3185C28.333 10.2605 28.4606 10.1754 28.568 10.068L30.8805 7.75555C31.0975 7.53859 31.2194 7.24433 31.2194 6.9375C31.2194 6.63067 31.0975 6.33641 30.8805 6.11945C30.6636 5.90249 30.3693 5.78061 30.0625 5.78061C29.7557 5.78061 29.4614 5.90249 29.2445 6.11945L26.932 8.43195C26.7701 8.59366 26.6598 8.79977 26.6151 9.02418C26.5704 9.24859 26.5933 9.48121 26.6809 9.6926C26.7685 9.90399 26.9168 10.0846 27.1071 10.2117C27.2975 10.3387 27.5212 10.4064 27.75 10.4062ZM28.568 26.932C28.3511 26.715 28.0568 26.5931 27.75 26.5931C27.4432 26.5931 27.1489 26.715 26.932 26.932C26.715 27.1489 26.5931 27.4432 26.5931 27.75C26.5931 28.0568 26.715 28.3511 26.932 28.568L29.2445 30.8805C29.3519 30.988 29.4794 31.0732 29.6198 31.1313C29.7601 31.1895 29.9106 31.2194 30.0625 31.2194C30.2144 31.2194 30.3649 31.1895 30.5052 31.1313C30.6456 31.0732 30.7731 30.988 30.8805 30.8805C30.988 30.7731 31.0732 30.6456 31.1313 30.5052C31.1895 30.3649 31.2194 30.2144 31.2194 30.0625C31.2194 29.9106 31.1895 29.7601 31.1313 29.6198C31.0732 29.4794 30.988 29.3519 30.8805 29.2445L28.568 26.932ZM6.9375 18.5C6.9375 18.1933 6.81568 17.8992 6.59884 17.6824C6.382 17.4656 6.08791 17.3438 5.78125 17.3438H2.3125C2.00584 17.3438 1.71175 17.4656 1.49491 17.6824C1.27807 17.8992 1.15625 18.1933 1.15625 18.5C1.15625 18.8067 1.27807 19.1008 1.49491 19.3176C1.71175 19.5344 2.00584 19.6562 2.3125 19.6562H5.78125C6.08791 19.6562 6.382 19.5344 6.59884 19.3176C6.81568 19.1008 6.9375 18.8067 6.9375 18.5ZM18.5 30.0625C18.1933 30.0625 17.8992 30.1843 17.6824 30.4012C17.4656 30.618 17.3438 30.9121 17.3438 31.2188V34.6875C17.3438 34.9942 17.4656 35.2883 17.6824 35.5051C17.8992 35.7219 18.1933 35.8438 18.5 35.8438C18.8067 35.8438 19.1008 35.7219 19.3176 35.5051C19.5344 35.2883 19.6562 34.9942 19.6562 34.6875V31.2188C19.6562 30.9121 19.5344 30.618 19.3176 30.4012C19.1008 30.1843 18.8067 30.0625 18.5 30.0625ZM34.6875 17.3438H31.2188C30.9121 17.3438 30.618 17.4656 30.4012 17.6824C30.1843 17.8992 30.0625 18.1933 30.0625 18.5C30.0625 18.8067 30.1843 19.1008 30.4012 19.3176C30.618 19.5344 30.9121 19.6562 31.2188 19.6562H34.6875C34.9942 19.6562 35.2883 19.5344 35.5051 19.3176C35.7219 19.1008 35.8438 18.8067 35.8438 18.5C35.8438 18.1933 35.7219 17.8992 35.5051 17.6824C35.2883 17.4656 34.9942 17.3438 34.6875 17.3438Z" fill="#FEB95A"/>
</svg>
