<svg width="12" height="11" viewBox="0 0 12 11" fill="none" xmlns="http://www.w3.org/2000/svg">
<path d="M2.81256 1.87734C2.81241 2.17243 2.69464 2.45537 2.48515 2.66393C2.27567 2.87248 1.99163 2.98956 1.69552 2.98942C1.39941 2.98927 1.11548 2.8719 0.906206 2.66314C0.696929 2.45438 0.579442 2.17132 0.57959 1.87623C0.579738 1.58114 0.697509 1.2982 0.906995 1.08965C1.11648 0.881094 1.40052 0.764013 1.69663 0.76416C1.99274 0.764308 2.27667 0.881672 2.48594 1.09043C2.69522 1.2992 2.81271 1.58226 2.81256 1.87734ZM2.84605 3.81332H0.613084V10.7784H2.84605V3.81332ZM6.37414 3.81332H4.15234V10.7784H6.35181V7.12338C6.35181 5.08727 9.01462 4.89813 9.01462 7.12338V10.7784H11.2197V6.3668C11.2197 2.93434 7.27849 3.06229 6.35181 4.74792L6.37414 3.81332Z" fill="#8F9BB7"/>
</svg>
