<svg width="24" height="23" viewBox="0 0 24 23" fill="none" xmlns="http://www.w3.org/2000/svg">
<path d="M12.1557 1.47412C10.1026 1.47654 8.13428 2.29322 6.6825 3.74499C5.23072 5.19677 4.41405 7.1651 4.41163 9.21822C4.40917 10.896 4.95722 12.5283 5.97171 13.8647C5.97171 13.8647 6.18292 14.1428 6.21741 14.1829L12.1557 21.1864L18.0969 14.1794C18.1278 14.1421 18.3397 13.8647 18.3397 13.8647L18.3405 13.8626C19.3544 12.5268 19.9022 10.8953 19.8998 9.21822C19.8974 7.1651 19.0807 5.19677 17.629 3.74499C16.1772 2.29322 14.2089 1.47654 12.1557 1.47412ZM12.1557 12.0343C11.5988 12.0343 11.0543 11.8691 10.5912 11.5597C10.1281 11.2502 9.76719 10.8104 9.55405 10.2959C9.34091 9.78131 9.28515 9.2151 9.3938 8.66884C9.50246 8.12258 9.77066 7.62081 10.1645 7.22698C10.5583 6.83315 11.0601 6.56495 11.6063 6.4563C12.1526 6.34764 12.7188 6.40341 13.2334 6.61654C13.7479 6.82968 14.1878 7.19062 14.4972 7.65372C14.8066 8.11681 14.9718 8.66126 14.9718 9.21822C14.9708 9.9648 14.6738 10.6805 14.1459 11.2084C13.618 11.7363 12.9023 12.0333 12.1557 12.0343Z" fill="white"/>
</svg>
