<svg width="430" height="368" viewBox="0 0 430 368" fill="none" xmlns="http://www.w3.org/2000/svg">
<path d="M215.829 367.262C333.64 367.262 429.145 364.601 429.145 361.319C429.145 358.037 333.64 355.376 215.829 355.376C98.0174 355.376 2.51251 358.037 2.51251 361.319C2.51251 364.601 98.0174 367.262 215.829 367.262Z" fill="#2E353A"/>
<path d="M323.896 355.902H304.16V0.23291L323.896 23.1818V355.902Z" stroke="#2E353A" stroke-width="0.457383" stroke-linecap="round" stroke-linejoin="round"/>
<path d="M304.346 272.155H323.709L304.346 253.438H323.709L304.346 272.155Z" stroke="#2E353A" stroke-width="0.457383" stroke-linecap="round" stroke-linejoin="round"/>
<path d="M304.346 252.967H323.709L304.346 234.25H323.709L304.346 252.967Z" stroke="#2E353A" stroke-width="0.457383" stroke-linecap="round" stroke-linejoin="round"/>
<path d="M304.346 310.366H323.709L304.346 291.65H323.709L304.346 310.366Z" stroke="#2E353A" stroke-width="0.457383" stroke-linecap="round" stroke-linejoin="round"/>
<path d="M304.346 291.178H323.709L304.346 272.462H323.709L304.346 291.178Z" stroke="#2E353A" stroke-width="0.457383" stroke-linecap="round" stroke-linejoin="round"/>
<path d="M304.346 233.779H323.709L304.346 215.062H323.709L304.346 233.779Z" stroke="#2E353A" stroke-width="0.457383" stroke-linecap="round" stroke-linejoin="round"/>
<path d="M304.346 214.591H323.709L304.346 195.874H323.709L304.346 214.591Z" stroke="#2E353A" stroke-width="0.457383" stroke-linecap="round" stroke-linejoin="round"/>
<path d="M304.346 195.403H323.709L304.346 176.686H323.709L304.346 195.403Z" stroke="#2E353A" stroke-width="0.457383" stroke-linecap="round" stroke-linejoin="round"/>
<path d="M304.346 176.215H323.709L304.346 157.498H323.709L304.346 176.215Z" stroke="#2E353A" stroke-width="0.457383" stroke-linecap="round" stroke-linejoin="round"/>
<path d="M304.346 157.027H323.709L304.346 138.31H323.709L304.346 157.027Z" stroke="#2E353A" stroke-width="0.457383" stroke-linecap="round" stroke-linejoin="round"/>
<path d="M304.346 137.839H323.709L304.346 119.122H323.709L304.346 137.839Z" stroke="#2E353A" stroke-width="0.457383" stroke-linecap="round" stroke-linejoin="round"/>
<path d="M304.346 118.651H323.709L304.346 99.9341H323.709L304.346 118.651Z" stroke="#2E353A" stroke-width="0.457383" stroke-linecap="round" stroke-linejoin="round"/>
<path d="M304.346 99.4627H323.709L304.346 80.7461H323.709L304.346 99.4627Z" stroke="#2E353A" stroke-width="0.457383" stroke-linecap="round" stroke-linejoin="round"/>
<path d="M304.346 80.2747H323.709L304.346 61.5581H323.709L304.346 80.2747Z" stroke="#2E353A" stroke-width="0.457383" stroke-linecap="round" stroke-linejoin="round"/>
<path d="M304.346 61.0867H323.709L304.346 42.3701H323.709L304.346 61.0867Z" stroke="#2E353A" stroke-width="0.457383" stroke-linecap="round" stroke-linejoin="round"/>
<path d="M304.346 41.8982H323.709L304.346 23.1816H323.709L304.346 41.8982Z" stroke="#2E353A" stroke-width="0.457383" stroke-linecap="round" stroke-linejoin="round"/>
<path d="M415.516 42.4136L405.955 36.394H337.733L329.4 42.4136H415.516Z" stroke="#2E353A" stroke-width="0.457383" stroke-linecap="round" stroke-linejoin="round"/>
<path d="M417.095 41.8984H250.433V46.2843H417.095V41.8984Z" fill="#2E353A" stroke="#2E353A" stroke-width="0.457383" stroke-linecap="round" stroke-linejoin="round"/>
<path d="M405.955 36.3941L304.16 0.23291L337.733 36.3941" stroke="#2E353A" stroke-width="0.457383" stroke-linecap="round" stroke-linejoin="round"/>
<path d="M304.159 0.23291L250.433 41.8984" stroke="#2E353A" stroke-width="0.457383" stroke-linecap="round" stroke-linejoin="round"/>
<path d="M338.15 51.2183H297.033V77.5333H338.15V51.2183Z" fill="#2E353A" stroke="#2E353A" stroke-width="0.457383" stroke-linecap="round" stroke-linejoin="round"/>
<path d="M338.15 330.114H297.033V356.429H338.15V330.114Z" fill="#2E353A" stroke="#2E353A" stroke-width="0.457383" stroke-linecap="round" stroke-linejoin="round"/>
<path d="M329.576 56.7007H305.596V64.3759H329.576V56.7007Z" fill="white" stroke="#2E353A" stroke-width="0.457383" stroke-linecap="round" stroke-linejoin="round"/>
<path d="M417.095 46.2842V93.5635" stroke="#2E353A" stroke-width="0.457383" stroke-linecap="round" stroke-linejoin="round"/>
<path d="M423.356 109.704H411.174V123.508H423.356V109.704Z" fill="#2E353A" stroke="#2E353A" stroke-width="0.457383" stroke-linecap="round" stroke-linejoin="round"/>
<path d="M411.174 109.704L417.259 92.6646L423.356 109.704" stroke="#2E353A" stroke-width="0.457383" stroke-linecap="round" stroke-linejoin="round"/>
<path d="M254.731 326.759V302.374H182.858V326.781C182.846 334.747 180.142 342.475 175.183 348.71L172.036 352.679H265.51L262.352 348.71C257.412 342.46 254.727 334.725 254.731 326.759Z" fill="white" stroke="#2E353A" stroke-width="0.501031" stroke-linecap="round" stroke-linejoin="round"/>
<g style="mix-blend-mode:multiply">
<path d="M178.44 343.853H259.15C256.264 338.618 254.755 332.736 254.764 326.759V302.374H182.858V326.781C182.854 332.754 181.334 338.628 178.44 343.853Z" fill="#FEB95A"/>
</g>
<path d="M254.731 306.025H182.858V316.332H254.731V306.025Z" fill="#2E353A" stroke="#2E353A" stroke-width="0.501031" stroke-linecap="round" stroke-linejoin="round"/>
<path d="M353.051 93.3882H84.5388C78.9131 93.3882 74.3527 97.9487 74.3527 103.574V299.862C74.3527 305.488 78.9131 310.049 84.5388 310.049H353.051C358.676 310.049 363.237 305.488 363.237 299.862V103.574C363.237 97.9487 358.676 93.3882 353.051 93.3882Z" fill="#2E353A" stroke="#2E353A" stroke-width="0.501031" stroke-linecap="round" stroke-linejoin="round"/>
<path d="M74.3528 276.376H363.237V299.863C363.237 302.564 362.164 305.155 360.254 307.065C358.343 308.976 355.752 310.049 353.051 310.049H84.5938C81.8922 310.049 79.3014 308.976 77.3911 307.065C75.4808 305.155 74.4077 302.564 74.4077 299.863V276.376H74.3528Z" fill="white" stroke="#2E353A" stroke-width="0.501031" stroke-linecap="round" stroke-linejoin="round"/>
<path d="M348.698 106.875H88.8809V259.94H348.698V106.875Z" fill="#FEB95A" stroke="#2E353A" stroke-width="0.501031" stroke-linecap="round" stroke-linejoin="round"/>
<path d="M224.118 293.218C224.12 292.164 223.81 291.132 223.225 290.255C222.641 289.377 221.81 288.692 220.836 288.287C219.863 287.882 218.791 287.775 217.757 287.979C216.722 288.184 215.772 288.691 215.025 289.435C214.279 290.18 213.77 291.13 213.564 292.164C213.357 293.198 213.462 294.27 213.865 295.244C214.268 296.218 214.951 297.051 215.828 297.637C216.704 298.223 217.735 298.536 218.789 298.536C219.489 298.537 220.181 298.401 220.828 298.134C221.474 297.868 222.062 297.476 222.557 296.982C223.052 296.488 223.444 295.902 223.712 295.256C223.98 294.61 224.118 293.917 224.118 293.218Z" fill="#2E353A" stroke="#2E353A" stroke-width="0.501031" stroke-linecap="round" stroke-linejoin="round"/>
<path d="M265.531 352.668H172.069V357.021H265.531V352.668Z" fill="white" stroke="#2E353A" stroke-width="0.501031" stroke-linecap="round" stroke-linejoin="round"/>
<path d="M303.348 145.228C306.358 142.213 308.582 138.504 309.822 134.428C311.063 130.352 311.284 126.033 310.464 121.852L294.16 138.156C293.233 139.078 291.98 139.595 290.673 139.595C289.366 139.595 288.113 139.078 287.186 138.156L273.634 124.604C273.175 124.146 272.811 123.601 272.562 123.002C272.313 122.403 272.186 121.761 272.186 121.112C272.186 120.463 272.313 119.821 272.562 119.222C272.811 118.622 273.175 118.078 273.634 117.62L289.927 101.326C285.361 100.434 280.639 100.785 276.254 102.34C271.869 103.895 267.982 106.599 264.998 110.168C262.014 113.738 260.043 118.043 259.29 122.634C258.537 127.225 259.03 131.935 260.718 136.27L218.647 177.377L214.59 173.309L221.168 166.73C221.505 166.388 221.693 165.927 221.693 165.447C221.693 164.967 221.505 164.507 221.168 164.164L216.037 159.033C215.698 158.695 215.238 158.505 214.76 158.505C214.281 158.505 213.821 158.695 213.482 159.033L210.917 161.599L205.357 156.051L207.496 153.912C207.948 153.458 208.202 152.843 208.202 152.202C208.202 151.561 207.948 150.946 207.496 150.491L161.587 104.583C160.493 103.487 159.194 102.618 157.764 102.025C156.334 101.433 154.802 101.127 153.254 101.127C151.706 101.127 150.173 101.433 148.743 102.025C147.313 102.618 146.014 103.487 144.921 104.583L140.228 109.276C139.133 110.368 138.264 111.666 137.671 113.095C137.078 114.524 136.773 116.056 136.773 117.603C136.773 119.15 137.078 120.682 137.671 122.111C138.264 123.54 139.133 124.838 140.228 125.931L186.137 171.851C186.591 172.303 187.206 172.557 187.847 172.557C188.488 172.557 189.103 172.303 189.557 171.851L191.696 169.712L197.244 175.271L194.689 177.826C194.52 177.994 194.386 178.194 194.294 178.414C194.203 178.635 194.155 178.871 194.155 179.109C194.155 179.348 194.203 179.584 194.294 179.804C194.386 180.024 194.52 180.224 194.689 180.392L199.809 185.523C200.152 185.86 200.612 186.048 201.092 186.048C201.572 186.048 202.033 185.86 202.375 185.523L208.954 178.945L212.945 182.936L178.056 216.926C173.719 215.24 169.01 214.747 164.419 215.501C159.828 216.254 155.522 218.225 151.952 221.208C148.382 224.192 145.677 228.078 144.121 232.463C142.564 236.847 142.211 241.569 143.1 246.136L159.405 229.842C159.863 229.383 160.407 229.019 161.007 228.77C161.606 228.522 162.248 228.394 162.897 228.394C163.546 228.394 164.188 228.522 164.787 228.77C165.387 229.019 165.931 229.383 166.389 229.842L179.985 243.307C180.445 243.765 180.809 244.309 181.057 244.909C181.306 245.508 181.434 246.15 181.434 246.799C181.434 247.448 181.306 248.09 181.057 248.689C180.809 249.289 180.445 249.833 179.985 250.291L163.692 266.585C168.258 267.475 172.98 267.124 177.365 265.569C181.749 264.013 185.637 261.31 188.621 257.741C191.605 254.172 193.578 249.868 194.333 245.277C195.088 240.686 194.597 235.977 192.913 231.64L227.802 197.65L275.377 245.171C274.694 246.933 274.537 248.855 274.926 250.705C275.316 252.554 276.234 254.25 277.57 255.587L289.05 267.067L302.822 253.285L291.342 241.816C290.005 240.48 288.309 239.561 286.459 239.172C284.61 238.782 282.687 238.939 280.925 239.623L233.427 192.124L275.542 151.062C280.243 152.891 285.375 153.313 290.312 152.277C295.249 151.242 299.778 148.793 303.348 145.228Z" fill="#2E353A" stroke="#2E353A" stroke-width="0.501031" stroke-linecap="round" stroke-linejoin="round"/>
<path d="M190.018 225.797L272.614 145.218C276.953 146.908 281.666 147.402 286.261 146.648C290.856 145.893 295.164 143.919 298.734 140.931C302.305 137.943 305.008 134.05 306.56 129.66C308.113 125.27 308.457 120.544 307.558 115.975L291.265 132.269C290.807 132.728 290.262 133.092 289.663 133.341C289.064 133.589 288.422 133.717 287.773 133.717C287.124 133.717 286.482 133.589 285.882 133.341C285.283 133.092 284.739 132.728 284.281 132.269L270.728 118.716C270.269 118.259 269.905 117.716 269.657 117.117C269.409 116.519 269.281 115.878 269.281 115.23C269.281 114.582 269.409 113.94 269.657 113.342C269.905 112.744 270.269 112.2 270.728 111.743L287.022 95.4386C282.453 94.5482 277.729 94.9007 273.343 96.4593C268.958 98.0179 265.071 100.725 262.088 104.299C259.106 107.873 257.138 112.182 256.39 116.776C255.642 121.37 256.14 126.08 257.834 130.416L175.238 210.994C170.902 209.307 166.193 208.814 161.601 209.567C157.01 210.32 152.705 212.291 149.135 215.275C145.566 218.259 142.862 222.146 141.307 226.531C139.752 230.916 139.402 235.638 140.293 240.204L156.587 223.911C157.045 223.452 157.59 223.087 158.189 222.839C158.788 222.59 159.43 222.462 160.079 222.462C160.728 222.462 161.37 222.59 161.969 222.839C162.569 223.087 163.113 223.452 163.571 223.911L177.124 237.463C177.582 237.92 177.946 238.464 178.195 239.062C178.443 239.66 178.571 240.302 178.571 240.95C178.571 241.598 178.443 242.239 178.195 242.837C177.946 243.436 177.582 243.979 177.124 244.436L160.797 260.708C165.364 261.598 170.085 261.247 174.47 259.692C178.855 258.137 182.742 255.433 185.726 251.864C188.711 248.295 190.683 243.991 191.438 239.4C192.193 234.81 191.702 230.1 190.018 225.764V225.797Z" fill="white" stroke="#2E353A" stroke-width="0.457383" stroke-miterlimit="10"/>
<path d="M183.658 217.343C183.027 216.71 182.672 215.852 182.672 214.958C182.672 214.064 183.027 213.206 183.658 212.573L257.922 140.327C258.557 139.695 259.416 139.34 260.312 139.34C261.208 139.34 262.067 139.695 262.702 140.327C263.334 140.962 263.689 141.822 263.689 142.718C263.689 143.613 263.334 144.473 262.702 145.108L188.439 217.343C187.804 217.975 186.945 218.329 186.049 218.329C185.153 218.329 184.293 217.975 183.658 217.343Z" fill="white" stroke="#2E353A" stroke-width="0.457383" stroke-miterlimit="10"/>
<path d="M205.683 161.428L200.132 166.979L280.23 247.077L285.781 241.526L205.683 161.428Z" fill="white" stroke="#2E353A" stroke-width="0.457383" stroke-miterlimit="10"/>
<path d="M299.916 247.441L286.145 261.212L274.665 249.743C272.837 247.915 271.811 245.436 271.811 242.852C271.811 240.267 272.837 237.789 274.665 235.961C275.569 235.056 276.642 234.339 277.824 233.849C279.005 233.36 280.272 233.108 281.55 233.108C282.829 233.108 284.096 233.36 285.277 233.849C286.459 234.339 287.532 235.056 288.436 235.961L299.916 247.441Z" fill="white" stroke="#2E353A" stroke-width="0.457383" stroke-miterlimit="10"/>
<path d="M198.212 145.841L184.543 159.51L195.645 170.612L209.314 156.943L198.212 145.841Z" fill="white" stroke="#2E353A" stroke-width="0.457383" stroke-miterlimit="10"/>
<path d="M137.347 103.342L142.046 98.6432C143.139 97.5497 144.437 96.6823 145.866 96.0905C147.295 95.4987 148.826 95.1941 150.373 95.1941C151.919 95.1941 153.45 95.4987 154.879 96.0905C156.308 96.6823 157.606 97.5497 158.699 98.6432L204.613 144.557C205.066 145.01 205.32 145.623 205.32 146.263C205.32 146.903 205.066 147.516 204.613 147.969L186.673 165.909C186.22 166.362 185.607 166.616 184.967 166.616C184.327 166.616 183.714 166.362 183.261 165.909L137.347 119.995C135.139 117.787 133.898 114.792 133.898 111.668C133.898 108.545 135.139 105.55 137.347 103.342Z" fill="white" stroke="#2E353A" stroke-width="0.457383" stroke-miterlimit="10"/>
<path d="M210.592 153.109L191.799 171.903C191.092 172.609 191.092 173.755 191.799 174.461L196.931 179.594C197.638 180.3 198.783 180.3 199.49 179.594L218.283 160.8C218.99 160.094 218.99 158.948 218.283 158.242L213.151 153.109C212.444 152.403 211.299 152.403 210.592 153.109Z" fill="white" stroke="#2E353A" stroke-width="0.457383" stroke-miterlimit="10"/>
<path d="M189.239 159.088L185.467 162.871L140.381 117.784C139.88 117.283 139.598 116.602 139.598 115.893C139.598 115.184 139.88 114.503 140.381 114.002C140.629 113.752 140.923 113.554 141.248 113.419C141.573 113.283 141.921 113.214 142.272 113.214C142.624 113.214 142.972 113.283 143.297 113.419C143.622 113.554 143.916 113.752 144.164 114.002L189.239 159.088Z" fill="white" stroke="#2E353A" stroke-width="0.457383" stroke-miterlimit="10"/>
<path d="M195.675 152.652L191.882 156.434L146.795 111.348C146.294 110.846 146.012 110.166 146.012 109.457C146.012 108.747 146.294 108.067 146.795 107.565C147.043 107.316 147.338 107.117 147.662 106.982C147.987 106.847 148.335 106.777 148.687 106.777C149.038 106.777 149.387 106.847 149.711 106.982C150.036 107.117 150.33 107.316 150.578 107.565L195.675 152.652Z" fill="white" stroke="#2E353A" stroke-width="0.457383" stroke-miterlimit="10"/>
<path d="M202.112 146.216L198.318 149.965L153.232 104.912C152.73 104.41 152.448 103.73 152.448 103.02C152.448 102.311 152.73 101.631 153.232 101.129C153.479 100.879 153.774 100.681 154.099 100.546C154.423 100.411 154.771 100.341 155.123 100.341C155.475 100.341 155.823 100.411 156.147 100.546C156.472 100.681 156.767 100.879 157.014 101.129L202.112 146.216Z" fill="white" stroke="#2E353A" stroke-width="0.457383" stroke-miterlimit="10"/>
<path d="M353.029 358.369H349.378L325.771 164.669H329.433L353.029 358.369Z" fill="white" stroke="#2E353A" stroke-width="0.457383" stroke-miterlimit="10"/>
<path d="M381.537 358.369H377.886L354.279 164.669H357.941L381.537 358.369Z" fill="white" stroke="#2E353A" stroke-width="0.457383" stroke-miterlimit="10"/>
<path d="M358.171 180.721H329.674L328.94 174.746H357.448L358.171 180.721Z" fill="white" stroke="#2E353A" stroke-width="0.457383" stroke-miterlimit="10"/>
<path d="M360.857 202.782H332.36L331.637 196.806H360.134L360.857 202.782Z" fill="white" stroke="#2E353A" stroke-width="0.457383" stroke-miterlimit="10"/>
<path d="M363.555 224.842H335.047L334.323 218.867H362.82L363.555 224.842Z" fill="white" stroke="#2E353A" stroke-width="0.457383" stroke-miterlimit="10"/>
<path d="M366.241 246.914H337.744L337.01 240.938H365.507L366.241 246.914Z" fill="white" stroke="#2E353A" stroke-width="0.457383" stroke-miterlimit="10"/>
<path d="M368.928 268.975H340.431L339.696 263H368.193L368.928 268.975Z" fill="white" stroke="#2E353A" stroke-width="0.457383" stroke-miterlimit="10"/>
<path d="M371.614 291.036H343.117L342.393 285.06H370.89L371.614 291.036Z" fill="white" stroke="#2E353A" stroke-width="0.457383" stroke-miterlimit="10"/>
<path d="M374.3 313.108H345.803L345.08 307.132H373.577L374.3 313.108Z" fill="white" stroke="#2E353A" stroke-width="0.457383" stroke-miterlimit="10"/>
<path d="M376.997 335.169H348.489L347.766 329.193H376.263L376.997 335.169Z" fill="white" stroke="#2E353A" stroke-width="0.457383" stroke-miterlimit="10"/>
<path d="M329.236 177.092H332.964" stroke="#2E353A" stroke-width="0.228691" stroke-miterlimit="10"/>
<path d="M330.113 178.846H337.349" stroke="#2E353A" stroke-width="0.228691" stroke-miterlimit="10"/>
<path d="M357.732 178.846H352.469" stroke="#2E353A" stroke-width="0.228691" stroke-miterlimit="10"/>
<path d="M360.364 200.106H355.54" stroke="#2E353A" stroke-width="0.228691" stroke-miterlimit="10"/>
<path d="M332.744 201.203H343.928" stroke="#2E353A" stroke-width="0.228691" stroke-miterlimit="10"/>
<path d="M334.718 221.805H344.367" stroke="#2E353A" stroke-width="0.228691" stroke-miterlimit="10"/>
<path d="M335.156 223.56H340.42" stroke="#2E353A" stroke-width="0.228691" stroke-miterlimit="10"/>
<path d="M366.055 243.504H360.145" stroke="#2E353A" stroke-width="0.228691" stroke-miterlimit="10"/>
<path d="M365.627 245.259H355.759" stroke="#2E353A" stroke-width="0.228691" stroke-miterlimit="10"/>
<path d="M374.213 310.86H365.167" stroke="#2E353A" stroke-width="0.228691" stroke-miterlimit="10"/>
<path d="M345.43 309.215H350.913" stroke="#2E353A" stroke-width="0.228691" stroke-miterlimit="10"/>
<path d="M363.796 310.86H356.669" stroke="#2E353A" stroke-width="0.228691" stroke-miterlimit="10"/>
<path d="M348.172 331.967H355.847" stroke="#2E353A" stroke-width="0.228691" stroke-miterlimit="10"/>
<path d="M349.816 333.886H358.588" stroke="#2E353A" stroke-width="0.228691" stroke-miterlimit="10"/>
<path d="M341.045 267.001H343.512" stroke="#2E353A" stroke-width="0.228691" stroke-miterlimit="10"/>
<path d="M367.908 266.453H358.862" stroke="#2E353A" stroke-width="0.228691" stroke-miterlimit="10"/>
<path d="M139.384 242.55L135.042 248.208L40.5926 174.471L44.9455 168.813L139.384 242.55Z" fill="#2E353A" stroke="#2E353A" stroke-width="0.501031" stroke-linecap="round" stroke-linejoin="round"/>
<path d="M40.5926 242.55L44.9455 248.208L139.384 174.471L135.042 168.813L40.5926 242.55Z" fill="#2E353A" stroke="#2E353A" stroke-width="0.501031" stroke-linecap="round" stroke-linejoin="round"/>
<path d="M139.384 325.377L136.697 332.668L40.5926 257.298L43.3447 249.94L139.384 325.377Z" fill="#2E353A" stroke="#2E353A" stroke-width="0.501031" stroke-linecap="round" stroke-linejoin="round"/>
<path d="M40.5926 325.377L41.2505 333.929L139.384 257.298L135.042 251.651L40.5926 325.377Z" fill="#2E353A" stroke="#2E353A" stroke-width="0.501031" stroke-linecap="round" stroke-linejoin="round"/>
<path d="M42.8184 168.035H38.9808V358.381H42.8184V168.035Z" fill="#2E353A" stroke="#2E353A" stroke-width="0.501031" stroke-linecap="round" stroke-linejoin="round"/>
<path d="M139.91 168.035H136.072V358.381H139.91V168.035Z" fill="#2E353A" stroke="#2E353A" stroke-width="0.501031" stroke-linecap="round" stroke-linejoin="round"/>
<path d="M120.908 242.55L116.555 248.208L22.1173 174.471L26.4593 168.813L120.908 242.55Z" fill="white" stroke="#2E353A" stroke-width="0.501031" stroke-linecap="round" stroke-linejoin="round"/>
<path d="M22.1173 242.55L26.4593 248.208L120.908 174.471L116.555 168.813L22.1173 242.55Z" fill="white" stroke="#2E353A" stroke-width="0.501031" stroke-linecap="round" stroke-linejoin="round"/>
<path d="M120.908 325.377L118.211 332.668L22.1173 257.298L23.4989 249.94L120.908 325.377Z" fill="white" stroke="#2E353A" stroke-width="0.501031" stroke-linecap="round" stroke-linejoin="round"/>
<path d="M22.1173 325.377L22.7752 333.929L120.908 257.298L116.555 251.651L22.1173 325.377Z" fill="white" stroke="#2E353A" stroke-width="0.501031" stroke-linecap="round" stroke-linejoin="round"/>
<path d="M24.3321 168.035H20.4945V358.381H24.3321V168.035Z" fill="white" stroke="#2E353A" stroke-width="0.501031" stroke-linecap="round" stroke-linejoin="round"/>
<path d="M121.424 168.035H117.586V358.381H121.424V168.035Z" fill="white" stroke="#2E353A" stroke-width="0.501031" stroke-linecap="round" stroke-linejoin="round"/>
<path d="M126.369 166.27H15.5604V172.301H126.369V166.27Z" fill="white" stroke="#2E353A" stroke-width="0.501031" stroke-linecap="round" stroke-linejoin="round"/>
<path d="M143.441 166.27H112.685V172.301H143.441V166.27Z" fill="#2E353A" stroke="#2E353A" stroke-width="0.501031" stroke-linecap="round" stroke-linejoin="round"/>
<path d="M126.369 245.259H15.5604V251.289H126.369V245.259Z" fill="white" stroke="#2E353A" stroke-width="0.501031" stroke-linecap="round" stroke-linejoin="round"/>
<path d="M143.441 245.259H112.685V251.289H143.441V245.259Z" fill="#2E353A" stroke="#2E353A" stroke-width="0.501031" stroke-linecap="round" stroke-linejoin="round"/>
<path d="M264.446 358.369H255.773L267.341 290.597H276.025L264.446 358.369Z" fill="#2E353A" stroke="#2E353A" stroke-width="0.444911" stroke-miterlimit="10"/>
<path d="M281.803 358.369H290.487L278.908 290.597H270.235L281.803 358.369Z" fill="white" stroke="#2E353A" stroke-width="0.444911" stroke-miterlimit="10"/>
<path d="M387.6 358.369H378.927L390.495 290.597H399.168L387.6 358.369Z" fill="#2E353A" stroke="#2E353A" stroke-width="0.444911" stroke-miterlimit="10"/>
<path d="M404.957 358.369H413.641L402.063 290.597H393.39L404.957 358.369Z" fill="white" stroke="#2E353A" stroke-width="0.444911" stroke-miterlimit="10"/>
<path d="M411.031 271.003H245.499V293.996H411.031V271.003Z" fill="#FEB95A" stroke="#2E353A" stroke-width="0.444911" stroke-miterlimit="10"/>
<path d="M415.066 271.003H249.534V293.996H415.066V271.003Z" fill="#FEB95A" stroke="#2E353A" stroke-width="0.444911" stroke-miterlimit="10"/>
<path d="M252.242 293.996H266.288L273.546 271.003H259.501L252.242 293.996Z" fill="#2E353A"/>
<path d="M307.855 271.003H293.798L286.54 293.996H300.596L307.855 271.003Z" fill="#2E353A"/>
<path d="M410.758 271.003H396.701L389.442 293.996H403.499L410.758 271.003Z" fill="#2E353A"/>
<path d="M376.449 271.003H362.403L355.145 293.996H369.19L376.449 271.003Z" fill="#2E353A"/>
<path d="M342.152 271.003H328.095L320.837 293.996H334.893L342.152 271.003Z" fill="#2E353A"/>
<path d="M414.156 281.212H386.767" stroke="#2E353A" stroke-width="0.457383" stroke-miterlimit="10"/>
<path d="M413.674 285.049H409.354" stroke="#2E353A" stroke-width="0.457383" stroke-miterlimit="10"/>
<path d="M248.832 284.095H276.222" stroke="#2E353A" stroke-width="0.457383" stroke-miterlimit="10"/>
<path d="M249.304 279.764H283.908" stroke="#2E353A" stroke-width="0.457383" stroke-miterlimit="10"/>
</svg>
