<svg width="17" height="4" viewBox="0 0 17 4" fill="none" xmlns="http://www.w3.org/2000/svg">
<path d="M2.17077 0.489052C3.03528 0.489052 3.7361 1.18988 3.7361 2.05439C3.7361 2.91889 3.03528 3.61972 2.17077 3.61972C1.30626 3.61972 0.605438 2.91889 0.605438 2.05439C0.605438 1.18988 1.30626 0.489052 2.17077 0.489052Z" fill="white"/>
<path d="M8.4321 0.489052C9.29661 0.489052 9.99743 1.18988 9.99743 2.05438C9.99743 2.91889 9.29661 3.61972 8.4321 3.61972C7.56759 3.61972 6.86677 2.91889 6.86677 2.05438C6.86677 1.18988 7.56759 0.489052 8.4321 0.489052Z" fill="white"/>
<path d="M16.2588 2.05438C16.2588 1.18988 15.5579 0.489052 14.6934 0.489052C13.8289 0.489052 13.1281 1.18988 13.1281 2.05438C13.1281 2.91889 13.8289 3.61972 14.6934 3.61972C15.5579 3.61972 16.2588 2.91889 16.2588 2.05438Z" fill="white"/>
</svg>
