<svg width="39" height="39" viewBox="0 0 39 39" fill="none" xmlns="http://www.w3.org/2000/svg">
<circle cx="19.0896" cy="19.0896" r="19.0896" fill="url(#paint0_linear_139_80)"/>
<path fill-rule="evenodd" clip-rule="evenodd" d="M12 19.0702C12 15.1654 15.1654 12 19.0702 12C20.9453 12 22.7437 12.7449 24.0696 14.0708C25.3955 15.3967 26.1404 17.1951 26.1404 19.0702C26.1404 22.975 22.975 26.1404 19.0702 26.1404C15.1654 26.1404 12 22.975 12 19.0702ZM20.4841 22.6052C21.2651 22.6052 21.8982 21.9721 21.8982 21.1911V21.0144C21.8982 20.8191 21.7399 20.6609 21.5447 20.6609H21.0144C20.8192 20.6609 20.6609 20.8191 20.6609 21.0144V21.1911C20.6609 21.2887 20.5817 21.3679 20.4841 21.3679H18.462C18.6082 20.9705 18.694 20.5534 18.7166 20.1306C18.7238 20.0129 18.7238 19.8948 18.7166 19.7771H19.4236C19.6188 19.7771 19.7771 19.6188 19.7771 19.4236V18.7165C19.7771 18.5213 19.6188 18.363 19.4236 18.363H18.3277C18.2512 18.1342 18.2037 17.8967 18.1863 17.656C18.1827 17.2148 18.5051 16.8386 18.9416 16.7745C19.3781 16.7103 19.795 16.9779 19.9185 17.4015C19.9625 17.5523 20.1008 17.656 20.2579 17.656H20.8023C20.908 17.6544 21.0082 17.6082 21.078 17.5287C21.1427 17.4443 21.1684 17.3363 21.1487 17.2318C20.9319 16.1639 19.9411 15.434 18.8569 15.5436C17.7727 15.6531 16.9479 16.5663 16.949 17.656C16.9552 17.8923 16.9884 18.1272 17.048 18.356H16.5955C16.4003 18.356 16.242 18.5142 16.242 18.7095V19.4165C16.242 19.6117 16.4003 19.77 16.5955 19.77H17.4651C17.4928 19.8858 17.507 20.0044 17.5076 20.1235C17.4168 20.741 17.2283 21.34 16.949 21.8981C16.8835 22.0235 16.8973 22.1755 16.9844 22.287L17.1682 22.492C17.2366 22.5634 17.3309 22.6042 17.4298 22.6052H20.4841Z" fill="white"/>
<defs>
<linearGradient id="paint0_linear_139_80" x1="19.0896" y1="0" x2="19.0896" y2="38.1791" gradientUnits="userSpaceOnUse">
<stop stop-color="#8F5FFF"/>
<stop offset="1" stop-color="#5206FF"/>
</linearGradient>
</defs>
</svg>
