<svg width="25" height="25" viewBox="0 0 25 25" fill="none" xmlns="http://www.w3.org/2000/svg">
<path fill-rule="evenodd" clip-rule="evenodd" d="M2.42493 2.30563H3.71599V21.6722H23.0819V22.9633H2.42493V2.30563ZM21.5546 6.32483C21.6202 6.37855 21.6746 6.44469 21.7147 6.51946C21.7548 6.59422 21.7797 6.67616 21.7881 6.76057C21.7965 6.84499 21.7882 6.93023 21.7636 7.01142C21.7391 7.09262 21.6987 7.16817 21.6449 7.23377L15.8352 14.3348C15.7781 14.4045 15.707 14.4615 15.6266 14.5021C15.5461 14.5427 15.4581 14.566 15.3681 14.5705C15.2781 14.575 15.1881 14.5606 15.104 14.5282C15.0199 14.4959 14.9436 14.4463 14.8798 14.3826L11.5398 11.0425L6.81969 17.5329C6.71644 17.6642 6.56631 17.7504 6.40085 17.7733C6.2354 17.7962 6.0675 17.7541 5.93244 17.6558C5.79738 17.5575 5.70568 17.4107 5.6766 17.2462C5.64753 17.0817 5.68334 16.9124 5.77652 16.7737L10.9408 9.67267C10.9956 9.59716 11.0661 9.53443 11.1475 9.4888C11.2289 9.44317 11.3192 9.41573 11.4122 9.40837C11.5052 9.401 11.5987 9.41389 11.6863 9.44615C11.7738 9.4784 11.8534 9.52925 11.9194 9.5952L15.2878 12.965L20.6457 6.41521C20.6994 6.34956 20.7655 6.29514 20.8403 6.25506C20.915 6.21498 20.997 6.19003 21.0814 6.18164C21.1658 6.17324 21.251 6.18157 21.3322 6.20614C21.4134 6.23071 21.489 6.27104 21.5546 6.32483V6.32483Z" fill="black"/>
</svg>
