<svg width="22" height="21" viewBox="0 0 22 21" fill="none" xmlns="http://www.w3.org/2000/svg">
<path fill-rule="evenodd" clip-rule="evenodd" d="M11.1696 12.4716C9.86052 12.4716 8.79871 11.4103 8.79871 10.1007C8.79871 9.43715 9.07035 8.83897 9.50964 8.40802C9.67274 8.24802 9.67524 7.98609 9.51524 7.82299C9.35524 7.65989 9.09331 7.65738 8.93021 7.81739C8.33902 8.39736 7.97131 9.20575 7.97131 10.1007C7.97131 11.8674 9.40371 13.299 11.1696 13.299C12.0637 13.299 12.8729 12.9313 13.4529 12.3401C13.6129 12.177 13.6104 11.915 13.4473 11.755C13.2842 11.595 13.0222 11.5975 12.8622 11.7606C12.4313 12.1999 11.8324 12.4716 11.1696 12.4716Z" fill="white"/>
<path fill-rule="evenodd" clip-rule="evenodd" d="M4.61009 13.5259C5.9397 15.1587 8.05081 16.8358 11.0978 16.8358C13.1643 16.8358 14.8093 16.0623 16.0709 15.053C16.2474 14.9118 16.2751 14.6553 16.1329 14.4801C15.9906 14.3049 15.7323 14.2773 15.5558 14.4185C14.41 15.3352 12.9416 16.021 11.0978 16.021C8.39055 16.021 6.49097 14.5395 5.24847 13.0136C4.62813 12.2518 4.17982 11.488 3.88667 10.914C3.74035 10.6274 3.63334 10.3895 3.5634 10.2245C3.546 10.1835 3.5309 10.147 3.51808 10.1154C3.54939 10.0422 3.59345 9.94257 3.65049 9.8211C3.78148 9.5422 3.98044 9.14937 4.2503 8.69879C4.79178 7.79468 5.60971 6.67313 6.72342 5.76933C6.89892 5.62691 6.92488 5.37024 6.78141 5.19603C6.63794 5.02182 6.37937 4.99605 6.20387 5.13847C4.9908 6.12289 4.11513 7.32995 3.54471 8.28239C3.25861 8.76008 3.04705 9.17752 2.9065 9.47681C2.83618 9.62654 2.7835 9.74697 2.74805 9.8309C2.73032 9.87287 2.71689 9.90574 2.7077 9.92861C2.70311 9.94004 2.69957 9.94898 2.69709 9.9553L2.69416 9.96282L2.69328 9.96508L2.69299 9.96584L2.69289 9.96612C2.69284 9.96624 2.6928 9.96634 3.07645 10.1111C2.68982 10.2478 2.68988 10.248 2.68995 10.2482L2.69014 10.2487L2.69067 10.2502L2.69236 10.2549C2.69378 10.2587 2.69575 10.2641 2.6983 10.2709C2.7034 10.2845 2.71077 10.304 2.72046 10.3289C2.73985 10.3787 2.76853 10.4503 2.8068 10.5406C2.88332 10.7211 2.99839 10.9767 3.15451 11.2824C3.46626 11.8929 3.94437 12.7084 4.61009 13.5259ZM3.07645 10.1111L2.68982 10.2478C2.65709 10.1566 2.65814 10.0568 2.6928 9.96634L3.07645 10.1111Z" fill="white"/>
<path fill-rule="evenodd" clip-rule="evenodd" d="M16.599 13.7859C16.7664 13.9342 17.0238 13.9202 17.1737 13.7545C17.961 12.8845 18.526 11.9787 18.8938 11.2922C19.0781 10.9483 19.2138 10.6577 19.304 10.4517C19.3491 10.3487 19.3829 10.2667 19.4057 10.2097C19.4171 10.1811 19.4257 10.1588 19.4317 10.1432C19.4347 10.1354 19.437 10.1293 19.4386 10.1249L19.4406 10.1197L19.4412 10.118L19.4414 10.1174L19.4415 10.1172C19.4415 10.1171 19.4416 10.117 19.0589 9.97983C19.4394 9.83686 19.4393 9.83669 19.4393 9.8365L19.4385 9.83458L19.4367 9.83002C19.4353 9.82623 19.4332 9.82094 19.4305 9.81419C19.4251 9.8007 19.4173 9.78141 19.4071 9.75669C19.3867 9.70726 19.3565 9.63611 19.3164 9.54634C19.2362 9.36687 19.1161 9.11259 18.9545 8.80837C18.632 8.2009 18.1417 7.38933 17.4706 6.57574C16.1323 4.95342 14.0347 3.27813 11.0853 3.27813C9.75505 3.27813 8.59362 3.62057 7.59719 4.14704C7.3989 4.25181 7.32401 4.49576 7.42992 4.69192C7.53583 4.88807 7.78244 4.96216 7.98073 4.85739C8.8715 4.38673 9.90218 4.08345 11.0853 4.08345C13.6909 4.08345 15.5801 5.55769 16.8398 7.08488C17.4677 7.84605 17.9293 8.60924 18.2338 9.18284C18.3858 9.46916 18.4981 9.70698 18.5718 9.87199C18.5905 9.91377 18.6067 9.95085 18.6204 9.98284C18.6033 10.0242 18.5822 10.0741 18.557 10.1316C18.4741 10.3209 18.3475 10.5922 18.1745 10.915C17.8278 11.5621 17.2985 12.4092 16.5672 13.2173C16.4173 13.383 16.4315 13.6375 16.599 13.7859ZM19.0589 9.97983L19.4394 9.83686C19.474 9.92698 19.4748 10.0264 19.4416 10.117L19.0589 9.97983Z" fill="white"/>
<path fill-rule="evenodd" clip-rule="evenodd" d="M13.6701 10.9352C13.8817 10.9735 14.0822 10.8199 14.1178 10.592C14.1451 10.4172 14.1606 10.2364 14.1606 10.05C14.1606 8.26372 12.816 6.81477 11.1565 6.81477C10.9834 6.81477 10.8155 6.83148 10.6533 6.8609C10.4416 6.89926 10.2989 7.11512 10.3346 7.34303C10.3702 7.57095 10.5706 7.72461 10.7822 7.68625C10.9054 7.66392 11.03 7.65173 11.1565 7.65173C12.3867 7.65173 13.3835 8.72582 13.3835 10.05C13.3835 10.1862 13.3721 10.3204 13.3514 10.453C13.3158 10.6809 13.4585 10.8968 13.6701 10.9352Z" fill="white"/>
<path fill-rule="evenodd" clip-rule="evenodd" d="M7.97131 10.1007C7.97131 11.8674 9.40289 13.299 11.1696 13.299C12.0645 13.299 12.8729 12.9312 13.4529 12.3401C13.6129 12.177 13.6104 11.915 13.4473 11.755C13.2842 11.595 13.0222 11.5975 12.8622 11.7606C12.4313 12.1999 11.8331 12.4716 11.1696 12.4716C9.85984 12.4716 8.79871 11.4104 8.79871 10.1007C8.79871 9.43784 9.07039 8.83893 9.50964 8.40802C9.67273 8.24802 9.67524 7.98609 9.51524 7.82299C9.35524 7.65989 9.09331 7.65738 8.93021 7.81739C8.33898 8.3974 7.97131 9.20656 7.97131 10.1007Z" fill="white"/>
<path fill-rule="evenodd" clip-rule="evenodd" d="M18.169 17.0126C18.3263 16.8553 18.3263 16.6002 18.169 16.4428L4.82754 3.1014C4.67021 2.94406 4.41511 2.94406 4.25777 3.1014C4.10044 3.25873 4.10044 3.51383 4.25777 3.67117L17.5992 17.0126C17.7566 17.1699 18.0117 17.1699 18.169 17.0126Z" fill="white"/>
</svg>
