<svg width="15" height="13" viewBox="0 0 15 13" fill="none" xmlns="http://www.w3.org/2000/svg">
<path d="M14.5426 2.15884C14.0248 2.37879 13.4613 2.53709 12.8809 2.59874C13.4835 2.24621 13.9348 1.68928 14.15 1.03243C13.5846 1.36367 12.9651 1.59594 12.3191 1.71894C12.0491 1.43471 11.7226 1.20829 11.3599 1.05377C10.9971 0.899249 10.606 0.819948 10.2107 0.820808C8.61168 0.820808 7.32567 2.09719 7.32567 3.6635C7.32567 3.88345 7.35274 4.10341 7.39674 4.31502C5.00238 4.19172 2.86691 3.0653 1.44722 1.34069C1.18854 1.77579 1.05298 2.27119 1.05465 2.77537C1.05465 3.76181 1.56398 4.63162 2.34066 5.14317C1.88295 5.12542 1.43595 5.00153 1.03603 4.78159V4.81658C1.03603 6.19794 2.02762 7.34268 3.34917 7.60595C3.10103 7.66942 2.84577 7.70189 2.58941 7.7026C2.40158 7.7026 2.22391 7.68427 2.04454 7.65928C2.41004 8.78569 3.47439 9.60384 4.74179 9.6305C3.7502 10.3953 2.50818 10.8452 1.15956 10.8452C0.917584 10.8452 0.694224 10.8369 0.462402 10.8102C1.74165 11.6184 3.25949 12.0849 4.89408 12.0849C10.2006 12.0849 13.1043 7.75592 13.1043 3.99843C13.1043 3.87512 13.1043 3.75182 13.0958 3.62851C13.6576 3.2236 14.15 2.72205 14.5426 2.15884Z" fill="white"/>
</svg>
