<svg width="41" height="40" viewBox="0 0 41 40" fill="none" xmlns="http://www.w3.org/2000/svg">
<path d="M18.7953 29.8852H22.7511V21.9736H30.6627V18.0178H22.7511V10.1062H18.7953V18.0178H10.8837V21.9736H18.7953V29.8852ZM20.7732 39.7748C18.0371 39.7748 15.4658 39.2552 13.0594 38.2162C10.6529 37.1784 8.55963 35.7695 6.77951 33.9894C4.9994 32.2093 3.59047 30.116 2.55273 27.7095C1.51367 25.3031 0.994141 22.7318 0.994141 19.9957C0.994141 17.2596 1.51367 14.6883 2.55273 12.2819C3.59047 9.87544 4.9994 7.78216 6.77951 6.00205C8.55963 4.22193 10.6529 2.81234 13.0594 1.77329C15.4658 0.735545 18.0371 0.216675 20.7732 0.216675C23.5093 0.216675 26.0806 0.735545 28.487 1.77329C30.8935 2.81234 32.9867 4.22193 34.7669 6.00205C36.547 7.78216 37.9559 9.87544 38.9936 12.2819C40.0327 14.6883 40.5522 17.2596 40.5522 19.9957C40.5522 22.7318 40.0327 25.3031 38.9936 27.7095C37.9559 30.116 36.547 32.2093 34.7669 33.9894C32.9867 35.7695 30.8935 37.1784 28.487 38.2162C26.0806 39.2552 23.5093 39.7748 20.7732 39.7748Z" fill="#FEFCFC"/>
</svg>
